<svg xmlns="http://www.w3.org/2000/svg" xmlns:xlink="http://www.w3.org/1999/xlink" id="Layer_1" x="0px" y="0px" viewBox="0 0 906.5 711.3" style="enable-background:new 0 0 906.5 711.3;" xml:space="preserve"><style type="text/css">	.st0{fill:#D5E100;stroke:#000000;stroke-width:1.3;stroke-miterlimit:10;}	.st1{fill:#000005;}	.st2{fill:none;stroke:#000000;stroke-width:1.3;stroke-miterlimit:10;}</style><g id="a"></g><g>	<g>		<path class="st0" d="M344.8,663.5c-0.1,0.2-0.3,0.4-0.4,0.6c0,0.1-0.1,0.1-0.1,0.2c-0.1,0.1-0.1,0.2-0.2,0.3   c-0.1,0.1-0.1,0.1-0.2,0.2c-0.1,0.1-0.2,0.2-0.3,0.2c-0.1,0-0.1,0.1-0.2,0.2c-0.1,0.1-0.2,0.2-0.3,0.2c-0.1,0-0.1,0.1-0.2,0.1   c-0.1,0.1-0.3,0.2-0.4,0.3c0,0-0.1,0-0.1,0.1c-0.1,0-0.2,0.1-0.2,0.1c-0.1,0-0.2,0.1-0.3,0.2c-0.1,0-0.2,0.1-0.3,0.1   c-0.1,0-0.2,0.1-0.3,0.2c-0.1,0-0.2,0.1-0.3,0.1c-0.1,0-0.2,0.1-0.3,0.1c-0.1,0-0.2,0.1-0.3,0.1c-0.1,0-0.2,0.1-0.3,0.1   c-0.2,0.1-0.5,0.1-0.7,0.2c-0.1,0-0.1,0-0.2,0c-0.2,0-0.4,0.1-0.5,0.1c-0.1,0-0.2,0-0.3,0c-0.2,0-0.3,0-0.5,0.1   c-0.1,0-0.2,0-0.3,0c-0.2,0-0.3,0-0.5,0s-0.3,0-0.5,0c-0.1,0-0.2,0-0.2,0c-0.3,0-0.5,0-0.8,0s-0.5,0-0.8,0c-0.1,0-0.2,0-0.3,0   c-0.2,0-0.4,0-0.6-0.1c-0.1,0-0.2,0-0.3,0c-0.2,0-0.3,0-0.5-0.1c-0.1,0-0.2,0-0.4-0.1c-0.2,0-0.3-0.1-0.5-0.1   c-0.1,0-0.2,0-0.4-0.1c-0.2,0-0.3-0.1-0.5-0.1c-0.1,0-0.3-0.1-0.4-0.1c-0.1,0-0.3-0.1-0.5-0.1c-0.1,0-0.3-0.1-0.4-0.1   c-0.1,0-0.3-0.1-0.5-0.1c-0.1,0-0.3-0.1-0.4-0.1c-0.1,0-0.3-0.1-0.5-0.2c-0.1,0-0.3-0.1-0.4-0.1c-0.1,0-0.3-0.1-0.5-0.2   c-0.1,0-0.3-0.1-0.4-0.2c-0.1-0.1-0.3-0.1-0.4-0.2c-0.1,0-0.3-0.1-0.4-0.2c-0.1-0.1-0.3-0.1-0.4-0.2c-0.1-0.1-0.3-0.1-0.4-0.2   c-0.1-0.1-0.3-0.1-0.4-0.2c-0.1-0.1-0.3-0.1-0.4-0.2c-0.1-0.1-0.3-0.1-0.4-0.2c-0.1-0.1-0.2-0.1-0.4-0.2c-0.1-0.1-0.3-0.2-0.4-0.2   c-0.1-0.1-0.2-0.1-0.4-0.2c-0.1-0.1-0.3-0.2-0.4-0.2c-0.1-0.1-0.2-0.2-0.4-0.2c-0.1-0.1-0.3-0.2-0.4-0.2c-0.1-0.1-0.2-0.1-0.3-0.2   c-0.2-0.1-0.4-0.2-0.5-0.3c-0.1-0.1-0.2-0.1-0.3-0.2c-0.2-0.1-0.4-0.3-0.5-0.4c-0.1-0.1-0.2-0.1-0.2-0.2c-0.3-0.2-0.5-0.4-0.8-0.6   l0,0c-0.2-0.2-0.5-0.4-0.7-0.6c-0.1-0.1-0.2-0.2-0.3-0.2c-0.1-0.1-0.2-0.2-0.4-0.3c-0.1-0.1-0.2-0.2-0.3-0.3   c-0.1-0.1-0.2-0.2-0.4-0.3c-0.1-0.1-0.2-0.2-0.3-0.3c-0.1-0.1-0.2-0.2-0.3-0.3c-0.1-0.1-0.2-0.2-0.3-0.3c-0.1-0.1-0.2-0.2-0.3-0.3   c-0.1-0.1-0.2-0.2-0.2-0.3c-0.1-0.1-0.2-0.3-0.4-0.4c-0.1-0.1-0.2-0.2-0.2-0.3c-0.1-0.1-0.2-0.3-0.3-0.4c-0.1-0.1-0.1-0.2-0.2-0.3   c-0.1-0.1-0.2-0.3-0.3-0.4c-0.1-0.1-0.1-0.2-0.2-0.3c-0.1-0.2-0.2-0.3-0.3-0.5c0-0.1-0.1-0.2-0.2-0.2c-0.1-0.2-0.2-0.3-0.3-0.5   c0-0.1-0.1-0.2-0.1-0.2c-0.1-0.2-0.3-0.5-0.4-0.7c-1.8-3.5-1.9-6.7-0.5-8.9l-3.1,5.2c-1.4,2.3-1.3,5.4,0.5,8.9   c0.1,0.2,0.2,0.5,0.4,0.7c0,0.1,0.1,0.2,0.1,0.2c0.1,0.2,0.2,0.3,0.3,0.5l0,0c0,0.1,0.1,0.1,0.1,0.2c0.1,0.2,0.2,0.3,0.3,0.5   c0.1,0.1,0.1,0.2,0.2,0.3c0.1,0.1,0.2,0.3,0.3,0.4c0.1,0.1,0.1,0.2,0.2,0.3c0.1,0.1,0.2,0.3,0.3,0.4c0.1,0.1,0.2,0.2,0.2,0.3   c0.1,0.1,0.2,0.3,0.4,0.4c0,0.1,0.1,0.1,0.1,0.2c0,0,0.1,0.1,0.1,0.1c0.1,0.1,0.2,0.2,0.3,0.3c0.1,0.1,0.2,0.2,0.3,0.3   c0.1,0.1,0.2,0.2,0.3,0.3c0.1,0.1,0.2,0.2,0.3,0.3c0.1,0.1,0.2,0.2,0.4,0.3c0.1,0.1,0.2,0.2,0.3,0.3c0.1,0.1,0.2,0.2,0.4,0.3   c0.1,0.1,0.1,0.1,0.2,0.2c0,0,0,0,0.1,0c0.2,0.2,0.5,0.4,0.7,0.6l0,0c0.2,0.2,0.5,0.4,0.8,0.6c0.1,0.1,0.2,0.1,0.2,0.2   c0.2,0.1,0.4,0.3,0.5,0.4c0.1,0.1,0.2,0.1,0.3,0.2c0.2,0.1,0.4,0.2,0.5,0.3c0.1,0,0.1,0.1,0.2,0.1c0.1,0,0.1,0.1,0.2,0.1   c0.1,0.1,0.3,0.2,0.4,0.2c0.1,0.1,0.2,0.2,0.4,0.2c0.1,0.1,0.3,0.2,0.4,0.2c0.1,0.1,0.2,0.1,0.4,0.2c0.1,0.1,0.3,0.2,0.4,0.2   c0.1,0.1,0.2,0.1,0.4,0.2c0.1,0.1,0.3,0.2,0.4,0.2c0.1,0.1,0.3,0.1,0.4,0.2c0.1,0.1,0.3,0.1,0.4,0.2c0.1,0.1,0.3,0.1,0.4,0.2   c0.1,0.1,0.3,0.1,0.4,0.2c0.1,0.1,0.3,0.1,0.4,0.2c0.1,0.1,0.3,0.1,0.4,0.2c0.1,0,0.3,0.1,0.4,0.2c0.1,0.1,0.3,0.1,0.5,0.2   c0.1,0,0.3,0.1,0.4,0.1c0.1,0,0.3,0.1,0.5,0.2c0.1,0,0.3,0.1,0.4,0.1c0.1,0,0.3,0.1,0.5,0.1c0.1,0,0.3,0.1,0.4,0.1   c0.1,0,0.3,0.1,0.5,0.1c0.1,0,0.3,0.1,0.4,0.1c0.2,0,0.3,0.1,0.5,0.1c0.1,0,0.2,0.1,0.4,0.1c0.2,0,0.3,0.1,0.5,0.1   c0.1,0,0.2,0,0.4,0.1c0.2,0,0.3,0,0.5,0.1c0.1,0,0.2,0,0.3,0c0.2,0,0.4,0,0.6,0.1c0.1,0,0.2,0,0.3,0c0.3,0,0.5,0,0.8,0   c0.3,0,0.5,0,0.8,0c0.1,0,0.2,0,0.2,0c0.1,0,0.3,0,0.4,0c0,0,0.1,0,0.1,0c0.2,0,0.3,0,0.5,0c0.1,0,0.2,0,0.3,0   c0.2,0,0.3,0,0.5-0.1c0.1,0,0.2,0,0.3,0c0.2,0,0.4-0.1,0.5-0.1c0.1,0,0.1,0,0.2,0c0.2,0,0.5-0.1,0.7-0.2h0c0.1,0,0.2-0.1,0.3-0.1   c0.1,0,0.2-0.1,0.3-0.1c0.1,0,0.2-0.1,0.3-0.1c0.1,0,0.2-0.1,0.3-0.1c0.1,0,0.2-0.1,0.3-0.1c0.1,0,0.2-0.1,0.3-0.1   c0.1,0,0.2-0.1,0.3-0.2c0.1,0,0.2-0.1,0.2-0.1l0,0c0,0,0,0,0.1-0.1c0.1-0.1,0.3-0.2,0.4-0.3c0.1,0,0.1-0.1,0.2-0.1   c0.1-0.1,0.2-0.2,0.3-0.2c0.1,0,0.1-0.1,0.2-0.2c0.1-0.1,0.2-0.2,0.3-0.2c0.1-0.1,0.1-0.1,0.2-0.2c0.1-0.1,0.1-0.2,0.2-0.3   c0,0,0-0.1,0.1-0.1c0,0,0,0,0-0.1c0.1-0.2,0.3-0.4,0.4-0.6L344.8,663.5L344.8,663.5z"></path>					<ellipse transform="matrix(0.5093 -0.8606 0.8606 0.5093 -401.4376 603.7543)" class="st0" cx="328.7" cy="653.9" rx="10.9" ry="18.7"></ellipse>	</g>	<path class="st1" d="M338.6,656.7c0.2,0.6,0.2,1.1-0.2,1.5c-0.3,0.5-1,0.8-1.9,1l1.6,1.3l-1.4,0.2l-1.6-1.3c-1.5,0.2-3,0-4.6-0.4  c-1.5-0.4-2.9-1.1-4.1-2l3.2-0.6c1,0.8,2.1,1.2,3.3,1.1l-3.8-3.1c-1.2,0-2.3-0.1-3.1-0.2s-1.8-0.3-2.7-0.7c-1-0.3-1.9-0.9-2.8-1.7  c-1.1-0.9-1.6-1.8-1.5-2.5c0.1-0.8,0.9-1.3,2.2-1.6l-1.6-1.3l1.4-0.2l1.6,1.3c1.5-0.2,2.9,0,4.4,0.4s2.8,1.1,4.1,2l-3.2,0.6  c-0.4-0.3-0.9-0.6-1.4-0.8s-1-0.3-1.6-0.3l3.7,3.1c1.3,0,2.4,0.1,3.2,0.2s1.8,0.3,2.7,0.6s1.9,0.9,2.8,1.7  C337.9,655.6,338.4,656.2,338.6,656.7L338.6,656.7z M324.9,652.2c0.5,0.2,1.2,0.3,1.9,0.3l-3.4-2.8c-0.4,0.1-0.7,0.4-0.7,0.7  c0,0.3,0.2,0.6,0.7,1C323.9,651.8,324.4,652,324.9,652.2z M335,656.7c0-0.3-0.2-0.7-0.7-1s-0.9-0.6-1.5-0.8  c-0.6-0.2-1.2-0.3-1.9-0.3l3.5,2.8C334.8,657.3,335,657,335,656.7L335,656.7z"></path></g><g>	<line class="st2" x1="318.1" y1="589.5" x2="318.1" y2="625.7"></line>	<line class="st2" x1="340.6" y1="612.6" x2="340.6" y2="631.8"></line>	<line class="st2" x1="329.6" y1="584.7" x2="329.6" y2="594.7"></line>	<line class="st2" x1="329.6" y1="600.2" x2="329.6" y2="618.8"></line>	<line class="st2" x1="312.5" y1="614" x2="312.5" y2="631.3"></line></g></svg>