<svg xmlns="http://www.w3.org/2000/svg" width="906.54" height="711.3" viewBox="0 0 906.54 711.3"><defs><style>.cls-1{isolation:isolate;}.cls-2{fill:#d5e100;}.cls-10,.cls-11,.cls-12,.cls-14,.cls-16,.cls-2,.cls-3,.cls-4,.cls-6,.cls-8,.cls-9{stroke:#000;}.cls-12,.cls-14,.cls-15,.cls-16,.cls-2,.cls-3,.cls-5,.cls-6,.cls-8,.cls-9{stroke-miterlimit:10;}.cls-10,.cls-11,.cls-12,.cls-14,.cls-15,.cls-16,.cls-2,.cls-3,.cls-4,.cls-6,.cls-8,.cls-9{stroke-width:1.3px;}.cls-3,.cls-4,.cls-5,.cls-7{fill:#1488ff;}.cls-10,.cls-11,.cls-4,.cls-7{stroke-linejoin:round;}.cls-5,.cls-7{stroke:#1488ff;}.cls-5{stroke-width:1.12px;}.cls-11,.cls-16,.cls-6{fill:none;}.cls-7{stroke-width:2.98px;}.cls-10,.cls-13,.cls-8{fill:#fff;}.cls-9{fill:#fca7fd;}.cls-12{fill:#e5e5e5;}.cls-15{stroke:#fff;}.cls-16{stroke-dasharray:7.7 7.7;}</style></defs><g id="Layer_2" data-name="Layer 2"><g id="Layer_1-2" data-name="Layer 1"><g class="cls-1"><path class="cls-2" d="M265.81,470.87a2.19,2.19,0,0,1,0,.36s0,.07,0,.1a1.09,1.09,0,0,1-.05.17.56.56,0,0,1,0,.12c0,.05,0,.11-.07.17l-.06.11a1.74,1.74,0,0,1-.11.18l-.06.1-.18.23,0,0a1.14,1.14,0,0,1-.11.11,1.85,1.85,0,0,1-.14.14l-.13.12-.15.14-.15.11-.18.14-.16.11-.2.13a4.23,4.23,0,0,1-.42.25l-.12.07-.34.18-.19.09-.32.15-.22.09-.33.14-.34.13-.17.06-.56.2-.61.19-.21.05-.42.12-.26.07-.39.1-.28.06-.38.09-.31.06-.37.08-.32.06-.38.06-.33.06-.38.06-.33.05-.39.05-.34,0-.39.05-.35,0-.39,0-.35,0-.4,0-.35,0-.4,0-.36,0-.4,0h-.36l-.4,0h-2.7l-.56,0h-.26l-.82-.05h0l-.76-.07-.33,0-.41,0-.33,0-.4-.05-.33,0-.39-.05-.33-.05-.38-.06-.3-.05-.43-.08-.29-.06-.42-.08-.28-.07-.42-.09-.26-.07-.43-.11-.22-.06-.42-.13-.2-.06-.59-.19c-2.83-1-4.25-2.28-4.29-3.58l.09,4.45c0,1.29,1.46,2.58,4.29,3.57l.59.2.2.06.41.12h0l.18.05.44.12.26.06.42.1.28.06.41.09.3.06.42.07.18,0,.13,0,.38.06.33.05.39.05.33.05.4,0,.33,0,.41,0,.26,0H246l.77.06h0l.82,0h.25l.57,0h3.46l.4,0,.36,0,.39,0,.36,0,.39,0,.36,0,.39,0,.35,0,.39,0,.34,0,.38-.06.34,0,.38-.06.33-.06.38-.07.31-.05.38-.08.3-.06.39-.09.28-.07.39-.09.26-.07.42-.12.21-.06.6-.19.56-.19.18-.06.27-.11.07,0,.32-.13.23-.1.32-.15.18-.08.35-.19.12-.06.42-.25h0l.18-.13.17-.11.17-.14.16-.12.15-.13.13-.12.14-.14.11-.12h0l0,0,.18-.22.06-.1a1.74,1.74,0,0,0,.11-.18l.06-.12c0-.05.05-.11.07-.17a.49.49,0,0,0,0-.11l.05-.17s0,0,0-.06,0,0,0,0a2.19,2.19,0,0,0,0-.36Z"></path><ellipse class="cls-2" cx="250.15" cy="471.02" rx="15.66" ry="5.32" transform="translate(-3.47 1.86) rotate(-0.42)"></ellipse></g><path d="M258.39,469.64c.41.18.59.4.55.67s-.34.58-.89.91l1.71.14-.85.44-1.74-.14a14.75,14.75,0,0,1-3.44,1,15.18,15.18,0,0,1-3.8.19l2-1a7.21,7.21,0,0,0,2.83-.37l-4.05-.33c-.9.31-1.67.56-2.31.74a14.16,14.16,0,0,1-5,.46c-1.23-.1-2-.32-2.17-.68s.05-.76.82-1.22l-1.72-.14.86-.45,1.71.14a14,14,0,0,1,3.29-1,16.93,16.93,0,0,1,3.79-.21l-2,1.05a8.8,8.8,0,0,0-1.35.05,7.68,7.68,0,0,0-1.27.27l4,.33c.94-.33,1.72-.58,2.36-.76a14.43,14.43,0,0,1,2.22-.42,13,13,0,0,1,2.73,0A5.77,5.77,0,0,1,258.39,469.64Zm-11.76,1.62a10,10,0,0,0,1.48-.34l-3.67-.3c-.25.17-.31.32-.19.44a1.81,1.81,0,0,0,1,.25A6.06,6.06,0,0,0,246.63,471.26Zm9.18-.7a1.78,1.78,0,0,0-.94-.25,6.06,6.06,0,0,0-1.41.05,10.79,10.79,0,0,0-1.5.36l3.71.3C255.91,470.84,256,470.68,255.81,470.56Z"></path><g class="cls-1"><path class="cls-2" d="M785.92,534.39a2,2,0,0,1,0,.42.43.43,0,0,0,0,.11l-.06.19s0,.09,0,.14l-.09.19-.06.13a2.39,2.39,0,0,1-.13.21l-.07.11c-.06.09-.13.17-.2.26s0,0-.05.05l-.13.14-.15.16-.15.13-.17.16a1.09,1.09,0,0,0-.17.13l-.2.15-.2.13-.22.15-.48.29-.13.07-.4.21-.21.1-.36.17-.26.11-.37.15-.39.15-.2.07c-.2.08-.41.15-.63.22l-.7.22-.23.07-.48.13-.3.08-.44.11-.32.07-.44.1-.34.07-.44.09-.36.07-.43.08-.37.06-.44.07-.38,0-.44.06-.39,0-.44.05-.4,0-.44,0-.41,0-.45,0-.4,0-.46,0-.4,0-.46,0h-.41l-.46,0h-3.07l-.64,0h-.3l-.93-.06h0l-.88-.07-.37,0-.47,0-.37,0-.46-.06-.38,0-.44-.06-.37,0L760,540l-.35-.06-.48-.09-.34-.07-.47-.1-.32-.07-.47-.11-.3-.07-.5-.13-.25-.07-.47-.14-.23-.07-.67-.22c-3.23-1.14-4.85-2.6-4.89-4.08l.1,5.07c0,1.48,1.66,2.94,4.89,4.07l.67.23.23.07.47.14h0l.21.06.5.13.3.07.47.11.32.07.47.1.34.07.48.08.21,0,.14,0,.43.06.38.06.44.06.38.05.46.06.37,0,.47.05.3,0h.07l.87.07h0l.93.06h.29l.65,0h3.53l.41,0,.46,0,.4,0,.46,0,.4,0,.45,0,.4,0,.45-.05.4,0,.44,0,.39-.05.44-.06.38-.06.44-.07L776,545l.43-.07.36-.07.44-.09.34-.07.44-.1.32-.07.44-.12.3-.07.48-.14.23-.06.7-.22c.22-.07.43-.14.63-.22l.2-.07.31-.12.08,0,.37-.16.26-.1.36-.17.21-.11.4-.2.13-.07.48-.29h0l.21-.15.19-.13.2-.15.17-.13.18-.16.15-.13.15-.16.13-.14h0a.1.1,0,0,1,0,0l.2-.26a.75.75,0,0,0,.07-.12,1.37,1.37,0,0,0,.13-.2l.06-.13.09-.19c0-.05,0-.09,0-.14L786,540s0,0,0-.06,0,0,0-.06a1.84,1.84,0,0,0,0-.41Z"></path><ellipse class="cls-2" cx="768.07" cy="534.57" rx="17.85" ry="6.06" transform="translate(-3.92 5.68) rotate(-0.42)"></ellipse></g><path d="M777.47,533c.46.2.67.45.62.76s-.38.66-1,1l2,.16-1,.51-2-.17a16.75,16.75,0,0,1-3.91,1.16,18,18,0,0,1-4.33.22l2.28-1.18a8.21,8.21,0,0,0,3.23-.42l-4.61-.37c-1,.35-1.9.63-2.64.84a17.17,17.17,0,0,1-2.56.49,15.47,15.47,0,0,1-3.13,0c-1.4-.11-2.22-.37-2.47-.77s.06-.87.93-1.4l-2-.16,1-.5,2,.16a15,15,0,0,1,3.74-1.1,19.25,19.25,0,0,1,4.32-.24l-2.3,1.19a9.89,9.89,0,0,0-1.53.06,8.4,8.4,0,0,0-1.45.31l4.57.38c1.07-.38,2-.66,2.69-.87a16.27,16.27,0,0,1,5.63-.52A6.49,6.49,0,0,1,777.47,533Zm-13.41,1.85a10.79,10.79,0,0,0,1.69-.4l-4.18-.34c-.28.2-.36.37-.22.51a2.09,2.09,0,0,0,1.11.28A7.79,7.79,0,0,0,764.06,534.85Zm10.47-.81a2.07,2.07,0,0,0-1.08-.29,6.63,6.63,0,0,0-1.6.07,11.09,11.09,0,0,0-1.71.41l4.23.34C774.64,534.36,774.69,534.18,774.53,534Z"></path><g class="cls-1"><path class="cls-2" d="M44.24,537.92a1.84,1.84,0,0,1,0,.41s0,.08,0,.12,0,.13,0,.19l0,.14A1.63,1.63,0,0,1,44,539l-.06.13-.12.2-.08.12-.2.26,0,.05-.12.14-.16.16a1.66,1.66,0,0,0-.14.13l-.18.16-.17.13-.2.15-.19.13-.23.15-.48.29-.13.07-.39.21-.22.1-.36.17-.26.1-.37.16-.39.15-.19.07-.64.22-.69.22-.24.07-.48.13-.29.08-.45.11-.32.07-.44.1-.34.07-.43.09-.36.07-.44.07c-.12,0-.24,0-.37.06l-.43.07-.39.06-.44.06-.39,0-.44.05-.4,0-.44.05-.41,0L30,544l-.41,0-.45,0-.41,0-.46,0-.41,0H24.37l-.64,0h-.3L22.5,544h0l-.88-.07-.36,0-.47-.05-.38,0-.46-.06-.38,0-.44-.06-.37-.06-.43-.06-.35-.06-.49-.09-.33-.07-.48-.1-.32-.07-.47-.11-.3-.07-.5-.13-.25-.07-.47-.14-.23-.07-.67-.23c-3.22-1.13-4.84-2.59-4.89-4.07l.1,5.07c0,1.47,1.67,2.94,4.89,4.07l.67.23.23.07.47.14h0l.21,0,.5.14.3.07.47.11.32.07.47.1.34.07.48.08.21,0,.14,0,.44.07.37.06.44.06.38.05.46.06.37,0,.48,0,.29,0h.07l.88.07h0l.93.06h.3l.64,0h.35l.6,0H28l.41,0,.46,0,.41,0,.45,0,.4,0,.45,0,.41,0,.44,0,.4,0,.44,0,.39,0,.44-.06.38-.06.44-.07.37-.06.44-.08.36-.06.43-.09.34-.07.44-.1.32-.07.45-.12.29-.07.48-.14.23-.06.7-.22.64-.22.19-.07.31-.12.08,0,.37-.16.26-.11.36-.17a1.36,1.36,0,0,0,.21-.1c.14-.06.27-.13.4-.2l.13-.07.48-.29h0a1.53,1.53,0,0,0,.21-.14l.2-.13.19-.15.18-.14.17-.15.15-.13.16-.16.12-.14h0a.1.1,0,0,1,0,0l.2-.26a.75.75,0,0,0,.07-.12l.13-.2.06-.13.09-.2a.5.5,0,0,0,0-.13l.06-.19a.14.14,0,0,1,0-.06v-.06a1.84,1.84,0,0,0,0-.41Z"></path><ellipse class="cls-2" cx="26.39" cy="538.1" rx="17.85" ry="6.06" transform="translate(-3.97 0.21) rotate(-0.42)"></ellipse></g><path d="M35.79,536.53c.46.2.67.45.62.76s-.38.65-1,1l2,.16-1,.5-2-.16A16.84,16.84,0,0,1,30.48,540a18,18,0,0,1-4.33.22L28.43,539a8.08,8.08,0,0,0,3.24-.41l-4.62-.38c-1,.36-1.9.64-2.64.85a17.17,17.17,0,0,1-2.56.49,16.14,16.14,0,0,1-3.12,0c-1.4-.11-2.23-.37-2.48-.77s.06-.87.94-1.4l-2-.16,1-.5,2,.15a15.46,15.46,0,0,1,3.74-1.09,19.25,19.25,0,0,1,4.32-.24l-2.3,1.19a9.89,9.89,0,0,0-1.53.06,8.4,8.4,0,0,0-1.45.31l4.57.37c1.07-.37,2-.65,2.69-.86a15.42,15.42,0,0,1,2.53-.48,15.24,15.24,0,0,1,3.11,0A6.48,6.48,0,0,1,35.79,536.53Zm-13.41,1.84a9.5,9.5,0,0,0,1.69-.39l-4.18-.34c-.28.2-.35.37-.21.5a2,2,0,0,0,1.1.29A7.13,7.13,0,0,0,22.38,538.37Zm10.47-.8a2.07,2.07,0,0,0-1.08-.29,6.63,6.63,0,0,0-1.6.07,13,13,0,0,0-1.71.4l4.23.35C33,537.89,33,537.71,32.85,537.57Z"></path><path d="M815.67,480.19c37.77,0,68.4,5.26,68.4,11.75s-30.63,11.75-68.4,11.75H608l61.5-23.5"></path><polygon points="652 533.58 613.63 509.34 580.04 519.15 580.04 533.58 652 533.58"></polygon><path d="M519,534.07c-151.36,0-274.05-12.06-274.05-26.94S367.59,480.19,519,480.19H706.26"></path><path d="M121.71,526.79c-38,0-68.83-6.19-68.83-13.82s30.82-13.83,68.83-13.83"></path><path class="cls-3" d="M131.64,279.51A12.4,12.4,0,1,1,151.75,265"></path><path class="cls-4" d="M171.7,495.83,127.7,292a26.32,26.32,0,0,1,41.05-25.81l182.15,89-29.49,43.17L193.73,341.82,226.61,501Z"></path><path class="cls-4" d="M296,387.38c-10.81-7.85-35.09-12.9-35.09-12.9,21.62-22.93,32.79-55,32.79-55s42.56,28.09,48.86,27.12"></path><path class="cls-3" d="M178.14,474.15l-46-6.17a16.43,16.43,0,0,0-9.78,1.81L97,483.36l85.75,7.37"></path><path class="cls-5" d="M225.86,500.34c.84,14.54-6.9,24.09-22.33,25.71l-76.78-3.95-19.48-35.27,59.56-9.3"></path><path class="cls-6" d="M226.6,500.75c.84,14.54-7.64,23.68-23.07,25.3l-76.78-3.95"></path><path class="cls-3" d="M152.88,476.4l-41.94-3.69a16.9,16.9,0,0,0-7.09,1L60.72,488A9,9,0,0,0,55,498.76h0a9,9,0,0,0,10.38,6.52l51.16-8.55,32.4,2.79"></path><path class="cls-3" d="M145.42,483.2,98.9,480.65a17.93,17.93,0,0,0-8.35,1.6l-40.76,17.4a9.7,9.7,0,0,0-4.12,13.61h0a9.71,9.71,0,0,0,12.15,4l42.4-15.49,35.93,4.46"></path><path class="cls-3" d="M140,491.47l-42.46.75a17.83,17.83,0,0,0-6.94,1.52L57.17,506.87A9.79,9.79,0,0,0,53,520.62h0a9.8,9.8,0,0,0,12,4.17l35.57-11,99.08,10"></path><path class="cls-3" d="M203.53,526.05l-84.52.27A12.08,12.08,0,0,1,106,515.84h0a12.08,12.08,0,0,1,10.38-13.53l32.6.27,17.84-5.71"></path><path class="cls-7" d="M132.07,271.68a26.62,26.62,0,0,1,12.79-8.46"></path><path class="cls-4" d="M226,497.85a21.51,21.51,0,0,1,.35,9.37"></path><line class="cls-4" x1="210.68" y1="349.34" x2="159.71" y2="326.75"></line><polygon class="cls-8" points="756.51 276.59 699.42 285.02 690.09 381.11 773.62 343.25 756.51 276.59"></polygon><polygon points="737.96 279.33 747.33 277.8 740.92 328.78 737.76 327.72 737.96 279.33"></polygon><path class="cls-9" d="M399.24,494.32a48.55,48.55,0,0,1-29.05-87.44L538.63,292.47l44.83,34.66,153.31-56.58,1.47,115.38L414.47,491.85A48.3,48.3,0,0,1,399.24,494.32Z"></path><path d="M355.3,427.21s34.29-5.64,57.19,1.39l-10.41,12.24s-19.51-15.77-49.42-8.74l1.31-5.57Z"></path><path class="cls-6" d="M538.63,292.47,370.19,406.88a48.53,48.53,0,0,0,44.28,85L737.55,386.58,738,270.1,423.76,385.54"></path><path class="cls-8" d="M669.26,418.38c-39.9,13.22-21.16,49.71-21.16,49.71s1,14.68,12.43,16h114l86.28-151.8c-1.52-17-11-17-11-17-22.17-40-50-33.09-50-33.09s-38-23.71-43.35-5.57c0,0,2.38,37.29-33.1,74"></path><path class="cls-8" d="M753.64,331.18c-8.91-4.88-20-3.78-28.52-1.67a26.12,26.12,0,0,0-19,18.77c-13,53,6.4,67.44,6.4,67.44L737.49,417C724.05,368.3,769.8,340,753.64,331.18Z"></path><path class="cls-6" d="M754,297.15s8.95-15.09,42.47,8.61c0,0,6.32-12.74,3.43-23.6"></path><line class="cls-6" x1="827.43" y1="354.51" x2="849.87" y2="315.25"></line><line class="cls-6" x1="648.1" y1="468.09" x2="762.54" y2="468.09"></line><polyline class="cls-6" points="809.32 282.16 829.63 301.66 807.07 308.92 828.83 316.81 790.62 346.96 830.11 328.44 796.59 385.8 833.16 344.49"></polyline><path class="cls-6" d="M675.08,468.09s-1.83,8.25,5.57,16"></path><path class="cls-6" d="M702.14,468.09s-1.83,8.25,5.57,16"></path><path class="cls-6" d="M729.2,468.09s-1.83,8.25,5.57,16"></path><path class="cls-8" d="M701.69,386.9s17.44-6.81,33.84,3.55c0,0,3.75-2,1.85-8.62a46.88,46.88,0,0,0-35.69-2.92A7.41,7.41,0,0,0,701.69,386.9Z"></path><path class="cls-8" d="M702.85,370s18.69-5.84,36.08,5.36c0,0,4.9-1.13,3.15-7.84A53.68,53.68,0,0,0,703.24,362,6.89,6.89,0,0,0,702.85,370Z"></path><path class="cls-6" d="M788.54,422.15,754,399.61l18.86-53.3a18.17,18.17,0,0,0-9.12-22.38l-16.32-8"></path><polygon points="644.42 453.26 757.14 422.15 726.83 402.66 643.7 440.88 644.42 453.26"></polygon><polygon class="cls-8" points="801.53 295.7 744.45 304.13 735.11 400.21 818.64 362.35 801.53 295.7"></polygon><polygon points="782.98 298.44 792.35 296.9 785.94 347.88 782.78 346.82 782.98 298.44"></polygon><path class="cls-9" d="M560,280.84l61.31-15.39a66.78,66.78,0,0,1,81,48.51h0a66.78,66.78,0,0,1-48.5,81L465.9,442.16"></path><path class="cls-10" d="M395.54,700.77c0,5.43-30.45,9.84-68.1,9.88h-.5c-37.65,0-68.09-4.45-68.09-9.88l20.4-137.19h95.88Z"></path><line class="cls-11" x1="375.13" y1="563.58" x2="279.25" y2="563.58"></line><path class="cls-12" d="M274.45,524.86c4-2.15,9.66-4.1,17-5.65,26.22-5.56,63.47-4.08,83.2,3.3a42,42,0,0,1,5.25,2.35l6.7,2.14v5.57c0,5.07-8.18,10.08-23.68,13.37-26.21,5.55-63.47,4.07-83.2-3.31-7.58-2.83-11.46-6.13-11.89-9.43v-5.94Z"></path><ellipse class="cls-12" cx="327.19" cy="526.88" rx="59.42" ry="16.73"></ellipse><line class="cls-13" x1="351.91" y1="536.02" x2="302.62" y2="517.58"></line><path d="M300.24,516.69a11.87,11.87,0,0,1,5.55.22l49.29,18.44c1.31.49,1,1.19-.78,1.56a11.86,11.86,0,0,1-5.55-.22l-49.29-18.44C298.14,517.76,298.49,517.06,300.24,516.69Z"></path><line class="cls-13" x1="364" y1="531.72" x2="320.64" y2="515.5"></line><path d="M318.26,514.61a11.87,11.87,0,0,1,5.55.22l43.35,16.22c1.32.49,1,1.19-.78,1.56a11.87,11.87,0,0,1-5.55-.22l-43.35-16.22C316.16,515.68,316.51,515,318.26,514.61Z"></path><line class="cls-13" x1="333.89" y1="538.1" x2="290.54" y2="521.88"></line><path d="M288.16,521a11.87,11.87,0,0,1,5.55.22l43.35,16.22c1.32.49,1,1.19-.78,1.56a11.86,11.86,0,0,1-5.55-.22l-43.36-16.22C286.06,522.06,286.41,521.36,288.16,521Z"></path><line class="cls-13" x1="367.39" y1="524.17" x2="347.35" y2="516.67"></line><path d="M345,515.78a11.87,11.87,0,0,1,5.55.22l20,7.5c1.31.49,1,1.19-.79,1.56a11.87,11.87,0,0,1-5.55-.22l-20-7.5C342.87,516.85,343.22,516.15,345,515.78Z"></path><line class="cls-13" x1="307.18" y1="536.93" x2="287.15" y2="529.43"></line><path d="M284.76,528.54a11.86,11.86,0,0,1,5.55.22l20,7.5c1.32.49,1,1.19-.78,1.56a11.86,11.86,0,0,1-5.55-.22l-20-7.5C282.66,529.61,283,528.91,284.76,528.54Z"></path><line class="cls-8" y1="563.58" x2="725.08" y2="563.58"></line><line class="cls-8" x1="413.86" y1="558.16" x2="456.99" y2="558.16"></line><line class="cls-8" x1="600.58" y1="558.16" x2="690.09" y2="558.16"></line><line class="cls-8" x1="136.59" y1="558.16" x2="188.92" y2="558.16"></line><line class="cls-8" x1="464.39" y1="558.16" x2="480.32" y2="558.16"></line><path class="cls-3" d="M355.26,334.88C290.65,358.19,273.42,368,273.42,368c-23.36,10.26-34.73,27.85-27.82,48.63h0a35.88,35.88,0,0,0,41.56,23.77l68.14-12.5c42.63-7.82,119.16,12.49,119.16,12.49,41.7-44.55,56.11-79.15,57.47-112.64"></path><polygon points="415.62 365.31 523.16 325.35 516.72 336.28 415.62 365.31"></polygon><path d="M258,441.69s-18.76,3.06-16.57-42.4c0,0,4.66-4.2,4-19.22,0,0,8.29-53.89,70.83-30.59,0,0-40.7,44.49-51.74,33.24C264.51,382.72,275.84,440,258,441.69Z"></path><path class="cls-3" d="M306.59,365c2.56-4.91,2-10.29-1.36-12s-8.06.87-10.61,5.78a12.45,12.45,0,0,0-1.42,7.84,5.38,5.38,0,0,0,5.13,4.26l1.29,0"></path><ellipse cx="239.8" cy="379.88" rx="21.89" ry="19" transform="translate(-178.57 543.5) rotate(-79.1)"></ellipse><path class="cls-3" d="M279.41,406.5s-4.93,12.81-3.2,23.85"></path><ellipse class="cls-8" cx="301.59" cy="424.02" rx="13.16" ry="30.09" transform="matrix(0.99, -0.13, 0.13, 0.99, -52.02, 42.3)"></ellipse><line class="cls-8" x1="314.62" y1="422.77" x2="321.6" y2="421.49"></line><line class="cls-8" x1="314.92" y1="434.03" x2="321.09" y2="434.46"></line><line class="cls-8" x1="312.29" y1="411.42" x2="318.31" y2="408.5"></line><path d="M302.56,433.32c4.37-.57,8,3.65,8.7,9.2s-1.05,11-5.42,11.56-8.65-4.32-9.37-9.87S298.18,433.88,302.56,433.32Z"></path><ellipse cx="244.9" cy="413.83" rx="20.24" ry="8.94" transform="translate(-198.95 598.85) rotate(-82.01)"></ellipse><path class="cls-9" d="M444.26,513.42A48.55,48.55,0,0,1,415.21,426l172-128.44,41.28,48.69L783.1,292l-1.47,106.56L459.5,511A48.68,48.68,0,0,1,444.26,513.42Z"></path><path class="cls-6" d="M598.63,283.76,415.21,426a48.54,48.54,0,0,0,44.29,85L782.29,398.59l1.34-107.41L468.79,404.64"></path><polyline class="cls-9" points="598.76 446.32 777.53 415.24 778.69 384.98"></polyline><path class="cls-8" d="M778.88,451.91S755,424,714.28,437.48c-39.9,13.23-21.16,49.72-21.16,49.72s1,14.67,12.44,16h114L905.87,351.4c-1.52-17-11-17-11-17-22.17-40-50-33.09-50-33.09s-38-23.71-43.36-5.56c0,0,2.38,37.28-33.1,73.94"></path><path class="cls-8" d="M798.66,350.28c-8.91-4.87-20-3.78-28.52-1.66a26.09,26.09,0,0,0-19,18.76c-13,53,6.41,67.45,6.41,67.45l24.92,1.24C769.07,387.4,814.82,359.13,798.66,350.28Z"></path><path class="cls-8" d="M738.53,434.35s6.39-28.09,51.93,6.53"></path><path class="cls-6" d="M799,316.26s8.95-15.1,42.48,8.6c0,0,6.31-12.73,3.43-23.6"></path><polyline class="cls-6" points="693.12 487.2 807.57 487.2 894.89 334.35"></polyline><path class="cls-8" d="M725.08,434.75s27.58-6,49.28,12.77q1.68,1.46,3.32,3.12"></path><polyline class="cls-6" points="854.34 301.26 874.65 320.77 852.09 328.02 873.85 335.92 835.65 366.07 875.13 347.55 841.62 404.91 878.18 363.59"></polyline><path class="cls-6" d="M720.1,487.2s-1.83,8.24,5.57,16"></path><path class="cls-6" d="M747.16,487.2s-1.83,8.24,5.57,16"></path><path class="cls-6" d="M774.22,487.2s-1.83,8.24,5.57,16"></path><path class="cls-8" d="M746.71,406s17.44-6.8,33.84,3.55c0,0,3.75-2,1.85-8.61A46.88,46.88,0,0,0,746.71,398,7.39,7.39,0,0,0,746.71,406Z"></path><path class="cls-8" d="M747.88,389.06s18.68-5.85,36.07,5.36c0,0,4.91-1.14,3.15-7.84a53.65,53.65,0,0,0-38.84-5.5A6.89,6.89,0,0,0,747.88,389.06Z"></path><path class="cls-6" d="M833.56,441.26,799,418.71l18.87-53.29A18.2,18.2,0,0,0,808.73,343l-16.33-8"></path><path class="cls-3" d="M541.44,480.55l40.28-5a16.44,16.44,0,0,1,9.78,1.81l25.33,13.57-85.76,7.38"></path><path class="cls-5" d="M387,375.15l131.29-48.1L489.6,506a27.6,27.6,0,0,0-.32,7c1.07,11.84,9.3,19.22,23,20.66l74.81-4,19.47-35.27L547,485.06l33-197a29.61,29.61,0,0,0-39.75-29.53L346,329.69a29.62,29.62,0,0,0-17.63,38"></path><path class="cls-6" d="M547,485.06l33-197a29.61,29.61,0,0,0-39.75-29.53L346,329.69a29.62,29.62,0,0,0-17.63,38"></path><path class="cls-6" d="M387,375.15l131.29-48.1L489.6,506a27.6,27.6,0,0,0-.32,7c1.07,11.84,9.3,19.22,23,20.66l74.81-4"></path><path class="cls-3" d="M561,483.93l41.95-3.69a16.94,16.94,0,0,1,7.09.95l43.12,14.32a9,9,0,0,1,5.71,10.78h0a9,9,0,0,1-10.39,6.52l-51.15-8.55-32,2.76"></path><path class="cls-3" d="M568.42,490.73,615,488.18a17.89,17.89,0,0,1,8.34,1.6l40.76,17.4a9.7,9.7,0,0,1,4.12,13.61h0a9.7,9.7,0,0,1-12.14,4l-42.4-15.49-35.94,4.47"></path><path class="cls-3" d="M573.89,499l42.46.75a17.78,17.78,0,0,1,6.93,1.52l33.39,13.13a9.79,9.79,0,0,1,4.19,13.75h0a9.8,9.8,0,0,1-12,4.17l-35.57-11-97.1,10"></path><path class="cls-3" d="M346,329.69s30-12,50.1-24.29c0,0,24.69,52.84,18.47,69.71,0,0-22.94,1-33.72,5.24"></path><path class="cls-3" d="M555.28,260.44a12.4,12.4,0,1,1,19.17,15.72"></path><path class="cls-3" d="M512.29,533.58l82.54.27a12.08,12.08,0,0,0,13.07-10.48h0a12.09,12.09,0,0,0-10.39-13.53l-32.6.27-17.84-5.71"></path><line class="cls-3" x1="514.84" y1="348.3" x2="521.66" y2="305.76"></line><line class="cls-6" x1="188.92" y1="526.05" x2="229.78" y2="526.05"></line><line class="cls-6" x1="163" y1="531.31" x2="203.86" y2="531.31"></line><line class="cls-6" x1="548.85" y1="533.7" x2="679.95" y2="533.7"></line><line class="cls-6" x1="580.04" y1="442.5" x2="648.99" y2="431.26"></line><path d="M330,256.42v10.09h-2.57v-1.28a3.27,3.27,0,0,1-1.28,1,4,4,0,0,1-1.72.37,4.24,4.24,0,0,1-2.1-.5,3.48,3.48,0,0,1-1.42-1.47,4.84,4.84,0,0,1-.52-2.32v-5.92h2.55V262a2.62,2.62,0,0,0,.6,1.85,2.12,2.12,0,0,0,1.64.65,2.15,2.15,0,0,0,1.65-.65,2.62,2.62,0,0,0,.6-1.85v-5.55Z"></path><path d="M340.2,256.77a3.49,3.49,0,0,1,1.39,1.48,5.12,5.12,0,0,1,.5,2.34v5.92h-2.55v-5.58a2.6,2.6,0,0,0-.6-1.84,2.1,2.1,0,0,0-1.64-.65,2.17,2.17,0,0,0-1.67.65,2.6,2.6,0,0,0-.61,1.84v5.58h-2.54V253H335v4.64a3.42,3.42,0,0,1,1.32-1,4.45,4.45,0,0,1,1.82-.37A4.16,4.16,0,0,1,340.2,256.77Z"></path><path d="M350.7,266a4.73,4.73,0,0,1-1.83-1.83,5.52,5.52,0,0,1-.66-2.73,5.42,5.42,0,0,1,.68-2.73,4.77,4.77,0,0,1,1.87-1.83,5.69,5.69,0,0,1,5.28,0,4.77,4.77,0,0,1,1.87,1.83,5.42,5.42,0,0,1,.68,2.73,5.23,5.23,0,0,1-.7,2.73A4.88,4.88,0,0,1,356,266a5.55,5.55,0,0,1-2.67.65A5.37,5.37,0,0,1,350.7,266Zm3.93-1.91a2.37,2.37,0,0,0,1-1,3.31,3.31,0,0,0,.37-1.64,3,3,0,0,0-.76-2.21,2.47,2.47,0,0,0-1.85-.78,2.44,2.44,0,0,0-1.83.78,3.73,3.73,0,0,0,0,4.42,2.35,2.35,0,0,0,1.81.78A2.6,2.6,0,0,0,354.63,264.11Z"></path><path d="M368.19,256.77a3.49,3.49,0,0,1,1.39,1.48,5,5,0,0,1,.5,2.34v5.92h-2.55v-5.58a2.6,2.6,0,0,0-.6-1.84,2.1,2.1,0,0,0-1.64-.65,2.13,2.13,0,0,0-1.66.65,2.56,2.56,0,0,0-.61,1.84v5.58h-2.55V253H363v4.64a3.31,3.31,0,0,1,1.31-1,4.45,4.45,0,0,1,1.82-.37A4.16,4.16,0,0,1,368.19,256.77Z"></path><path d="M372.5,266.21a1.42,1.42,0,0,1-.45-1.07,1.4,1.4,0,0,1,.45-1.06,1.53,1.53,0,0,1,1.13-.43,1.5,1.5,0,0,1,1.11.43,1.39,1.39,0,0,1,.44,1.06,1.41,1.41,0,0,1-.44,1.07,1.53,1.53,0,0,1-1.11.42A1.56,1.56,0,0,1,372.5,266.21Z"></path><path d="M377.23,266.21a1.42,1.42,0,0,1-.45-1.07,1.4,1.4,0,0,1,.45-1.06,1.57,1.57,0,0,1,1.14-.43,1.5,1.5,0,0,1,1.11.43,1.43,1.43,0,0,1,.44,1.06,1.45,1.45,0,0,1-.44,1.07,1.53,1.53,0,0,1-1.11.42A1.61,1.61,0,0,1,377.23,266.21Z"></path><path d="M382,266.21a1.42,1.42,0,0,1-.45-1.07,1.4,1.4,0,0,1,.45-1.06,1.53,1.53,0,0,1,1.13-.43,1.5,1.5,0,0,1,1.11.43,1.39,1.39,0,0,1,.44,1.06,1.41,1.41,0,0,1-.44,1.07,1.53,1.53,0,0,1-1.11.42A1.56,1.56,0,0,1,382,266.21Z"></path><path class="cls-6" d="M319.6,305.79s16.48-5.94,24.43-26.67"></path><line class="cls-12" x1="764.49" y1="509.49" x2="847.85" y2="509.49"></line><line class="cls-12" x1="744.41" y1="513.42" x2="782.15" y2="513.42"></line><line class="cls-12" x1="685.95" y1="533.7" x2="707.91" y2="533.7"></line><path class="cls-6" d="M412.54,489.9s9.83,14.85,27.71,16.2"></path><path class="cls-6" d="M368,474.4a36.91,36.91,0,0,0,12.94,9.93"></path><path class="cls-6" d="M359.49,458.52a40.63,40.63,0,0,0,4.13,9.66"></path><path class="cls-3" d="M380.9,420.44s16.42,0,29.23,2.35"></path><path class="cls-14" d="M645.24,82.42H306a52.06,52.06,0,0,1,67.52-26A103.57,103.57,0,0,1,543,35.55,75.17,75.17,0,0,1,645.24,82.42Z"></path><path class="cls-15" d="M520.67,66.44a44.28,44.28,0,0,0-72.92,0"></path><path class="cls-14" d="M250.39,51.67H91.78A54.88,54.88,0,0,1,193.29,37.09a35.59,35.59,0,0,1,57.1,14.58Z"></path><path class="cls-15" d="M212,37.3a26.53,26.53,0,0,0-43.68,0"></path><line class="cls-14" x1="387.59" y1="74.57" x2="368.35" y2="157.1"></line><line class="cls-14" x1="392.4" y1="104.9" x2="373.16" y2="187.43"></line><line class="cls-14" x1="555.1" y1="56.87" x2="535.86" y2="139.4"></line><line class="cls-14" x1="480.82" y1="129.19" x2="461.58" y2="211.73"></line><line class="cls-14" x1="149.03" y1="44.03" x2="138.57" y2="88.93"></line><line class="cls-14" x1="122.19" y1="80.55" x2="111.72" y2="125.45"></line><line class="cls-14" x1="200.66" y1="68.05" x2="194.7" y2="93.6"></line><line class="cls-14" x1="142.39" y1="144.85" x2="136.44" y2="170.4"></line><line class="cls-14" x1="323.84" y1="142.53" x2="313.38" y2="187.43"></line><line class="cls-14" x1="588.06" y1="98.14" x2="577.59" y2="143.04"></line><path class="cls-8" d="M620.9,296.21s-17.53-1.67-19.26-24.2c-.87-11.35-4.94-14.91-4.94-14.91l23.63-31.83s6.14,3.63,1.76,20.58c-4.12,16,3.57,17.23,3.57,17.23l16.5,4-17.24,31.07Z"></path><ellipse class="cls-8" cx="615.03" cy="270.1" rx="4.03" ry="8.83" transform="translate(-52.01 190.92) rotate(-16.94)"></ellipse><path class="cls-9" d="M610.58,310.3s24.3-25.07,15.08-47.22c0,0,3-4.28,10.94-.48,0,0,28.36-.62,44.4,16.89,0,0,6.73,9.6,8.08,29.14,0,0-16.37,11.24-30.78,13.81C658.3,322.44,639.71,314,610.58,310.3Z"></path><path class="cls-8" d="M809.73,218.51c-11.41,0-11.41-5.41-22.83-5.41s-11.41,5.41-22.82,5.41-11.42-5.41-22.83-5.41l-9.93-28.18c11.42,0,11.42,5.42,22.83,5.42s11.41-5.42,22.83-5.42,11.41,5.42,22.83,5.42Z"></path><ellipse class="cls-8" cx="770.23" cy="200.51" rx="10.01" ry="3.96" transform="translate(-13.13 59.8) rotate(-4.41)"></ellipse><path class="cls-8" d="M678.36,139.4s-3,18.79-20.63,26.61-17.3,27.66-17.3,27.66l24.07,17s-.32-19.84,17.31-27.66,20.63-26.61,20.63-26.61Z"></path><ellipse class="cls-8" cx="667.94" cy="174.33" rx="9.57" ry="4.38" transform="translate(2.32 357.32) rotate(-30)"></ellipse><path class="cls-6" d="M622.13,305.76s3,.33,7.36,1.07"></path><path class="cls-16" d="M637.05,308.29c3.6.78,7.47,1.76,11.16,2.95"></path><path class="cls-6" d="M651.84,312.53a43.22,43.22,0,0,1,6.72,3.18"></path><path class="cls-6" d="M659.86,280.58s-.19,12.94-11.47,15.89"></path></g></g></svg>