<svg xmlns="http://www.w3.org/2000/svg" xmlns:xlink="http://www.w3.org/1999/xlink" id="a" x="0px" y="0px" viewBox="0 0 1458 443.4" style="enable-background:new 0 0 1458 443.4;" xml:space="preserve"><g id="XMLID_00000024711824842198368010000010928360015981523590_">	<g>		<path d="M1458,56.4V387c0,31.1-25.2,56.4-56.4,56.4H56.4C25.2,443.4,0,418.2,0,387V56.4C0,25.2,25.2,0,56.4,0h1345.3   C1432.8,0,1458,25.2,1458,56.4z M1448,387V56.4c0-25.6-20.8-46.4-46.4-46.4H56.4C30.8,10,10,30.8,10,56.4V387   c0,25.6,20.8,46.4,46.4,46.4h1345.3C1427.2,433.4,1448,412.6,1448,387z"></path>		<path d="M1448,56.4V387c0,25.6-20.8,46.4-46.4,46.4H56.4C30.8,433.4,10,412.6,10,387V56.4C10,30.8,30.8,10,56.4,10h1345.3   C1427.2,10,1448,30.8,1448,56.4z"></path>	</g>	<g>	</g></g></svg>