<svg xmlns="http://www.w3.org/2000/svg" id="a" width="1457.9971" height="443.3899" viewBox="0 0 1457.9971 443.3899"><path d="M1401.6406,10c25.561,0,46.3564,20.7953,46.3564,46.3563V387.0302c0,25.5627-20.7954,46.3597-46.3564,46.3597H56.3564c-25.561,0-46.3564-20.797-46.3564-46.3597V56.3563C10,30.7953,30.7954,10,56.3564,10H1401.6406m0-10H56.3564C25.2321,0,0,25.2322,0,56.3563V387.0302c0,31.1275,25.2321,56.3597,56.3564,56.3597H1401.6406c31.1243,0,56.3564-25.2322,56.3564-56.3597V56.3563c0-31.1241-25.2321-56.3563-56.3564-56.3563h0Z"></path><g><path d="M153.5159,181.1676c-23.6531,41.0418-8.6167,103.3293,17.5376,141.0933,13.0561,18.8837,26.274,35.8323,44.3778,35.8323,.3398,0,.6828-.0064,1.0322-.0226,8.5067-.3366,14.6546-2.9575,20.5954-5.4878,6.672-2.8442,13.577-5.7822,24.4005-5.7822,10.296,0,16.8677,2.8442,23.2195,5.5913,6.2676,2.7115,12.7163,5.5169,22.2487,5.3357,20.3915-.3786,32.9138-18.6669,43.9605-34.8034,11.5288-16.8451,17.311-33.1984,19.2622-39.4498l.0776-.2492c.3722-1.1098-.1553-2.32-1.2198-2.8118,0,0-.1359-.0582-.165-.0712-3.5917-1.469-35.0946-15.444-35.4247-53.5317-.3073-30.9463,23.6305-47.3319,28.4323-50.3024l.2233-.1423c.5209-.3333,.8833-.8639,1.0062-1.4691,.123-.6083-.0032-1.2392-.3559-1.7504-16.5215-24.1806-41.8475-27.824-52.0465-28.2608-1.4754-.1488-3.0027-.2233-4.5365-.2233-11.9753,0-23.4492,4.5203-32.6677,8.1573-6.3614,2.5109-11.8589,4.6756-15.6447,4.6756-4.2614,0-9.788-2.1938-16.185-4.7306-8.5617-3.3975-18.2624-7.2481-28.5293-7.2481-.246,0-.4854,.0033-.7216,.0098-23.8796,.3495-46.4422,14.0106-58.8771,35.6414h0Z"></path><path d="M310.7005,78.3268c-14.4572,.589-31.8038,9.4904-42.1678,21.6341-8.8141,10.2022-17.4179,27.222-15.1529,44.3745,.1424,1.0743,1.0193,1.8994,2.0968,1.9868,.9772,.0744,1.9705,.1132,2.9639,.1132,14.1368,0,29.3899-7.824,39.8057-20.4173,10.9626-13.2956,16.5054-30.364,14.8293-45.6495-.1327-1.2005-1.1875-2.0903-2.375-2.0418Z"></path></g><g><path d="M523.6361,141.9827c5.5756-2.9691,9.9141-7.0772,13.0166-12.3232,3.101-5.2459,4.6522-11.2018,4.6522-17.8665s-1.5512-12.6205-4.6522-17.8665c-3.1025-5.2465-7.441-9.354-13.0166-12.3237-5.577-2.9697-11.9614-4.454-19.1534-4.454h-27.4182v69.2884h27.4182c7.192,0,13.5764-1.4848,19.1534-4.4545Zm-41.5236-.0986v-60.1822h21.9746c6.3997,0,12.0419,1.2712,16.9261,3.8107,4.8826,2.5412,8.6441,6.0875,11.2841,10.6406,2.6386,4.5536,3.9594,9.7659,3.9594,15.6398s-1.3208,11.0862-3.9594,15.6393c-2.64,4.5531-6.4015,8.1011-11.2841,10.6406-4.8842,2.5412-10.5264,3.8112-16.9261,3.8112h-21.9746Z"></path><path d="M603.2676,120.6023c0-5.014-1.1228-9.5181-3.3653-13.5111-2.2441-3.9918-5.3298-7.1097-9.255-9.354-3.9269-2.2427-8.3297-3.3657-13.2142-3.3657s-9.2892,1.123-13.2146,3.3657c-3.9267,2.2443-7.0123,5.3622-9.2549,9.354-2.2441,3.993-3.3654,8.4953-3.3654,13.5111s1.1213,9.5194,3.3654,13.5112c2.2426,3.9937,5.3282,7.1115,9.2549,9.354,3.9254,2.2444,8.3319,3.3657,13.2146,3.3657s9.2873-1.1213,13.2142-3.3657c3.9252-2.2426,7.0109-5.3604,9.255-9.354,2.2425-3.9918,3.3653-8.4972,3.3653-13.5112Zm-7.77,11.2845c-1.816,3.3002-4.2905,5.8739-7.424,7.7205-3.1349,1.8484-6.6812,2.7714-10.6405,2.7714s-7.5074-.923-10.6409-2.7714c-3.1349-1.8466-5.6095-4.4203-7.4237-7.7205-1.8159-3.299-2.7221-7.0626-2.7221-11.2845s.9062-7.9836,2.7221-11.2838c1.8142-3.299,4.2888-5.8727,7.4237-7.7211,3.1335-1.8466,6.6818-2.7714,10.6409-2.7714s7.5056,.9248,10.6405,2.7714c3.1335,1.8484,5.608,4.4221,7.424,7.7211,1.8142,3.3002,2.7218,7.06,2.7218,11.2838s-.9076,7.9855-2.7218,11.2845Z"></path><polygon points="631.7747 146.4372 649.2948 101.5974 666.7158 146.4372 671.368 146.4372 690.9669 94.7675 686.4135 94.7675 668.9926 140.7953 651.4725 94.7675 647.2161 94.7675 629.597 140.8938 612.3738 94.7675 607.6224 94.7675 627.2213 146.4372 631.7747 146.4372"></polygon><path d="M739.3202,103.3791c2.9359,3.0364,4.405,7.4578,4.405,13.2639v29.7942h4.9491v-30.1902c0-7.0601-1.8806-12.4719-5.642-16.233-3.7614-3.7617-8.876-5.6425-15.3427-5.6425-4.8174,0-8.9919,1.0239-12.5214,3.0689-3.531,2.046-6.1864,4.8841-7.968,8.5124v-11.1853h-4.7514v51.6697h4.9494v-27.5174c0-6.1371,1.7474-11.0194,5.2459-14.6496,3.497-3.6283,8.2808-5.4442,14.3527-5.4442,5.2787,0,9.3865,1.5185,12.3234,4.5531Z"></path><rect x="769.0637" y="72.9912" width="4.9494" height="73.446"></rect><path d="M828.304,97.7372c-3.927-2.2427-8.3301-3.3657-13.2143-3.3657s-9.2891,1.123-13.2142,3.3657c-3.927,2.2443-7.0124,5.3622-9.255,9.354-2.2441,3.993-3.3654,8.4953-3.3654,13.5111s1.1213,9.5194,3.3654,13.5112c2.2426,3.9937,5.328,7.1115,9.255,9.354,3.925,2.2444,8.3312,3.3657,13.2142,3.3657s9.2873-1.1213,13.2143-3.3657c3.9257-2.2426,7.0111-5.3604,9.2555-9.354,2.2426-3.9918,3.3651-8.4972,3.3651-13.5112s-1.1225-9.5181-3.3651-13.5111c-2.2444-3.9918-5.3298-7.1097-9.2555-9.354Zm4.8505,34.1496c-1.8159,3.3002-4.2905,5.8739-7.4236,7.7205-3.1355,1.8484-6.6818,2.7714-10.6412,2.7714s-7.5068-.923-10.6406-2.7714c-3.1349-1.8466-5.6095-4.4203-7.4236-7.7205-1.8159-3.299-2.7224-7.0626-2.7224-11.2845s.9065-7.9836,2.7224-11.2838c1.8141-3.299,4.2887-5.8727,7.4236-7.7211,3.1339-1.8466,6.6813-2.7714,10.6406-2.7714s7.5057,.9248,10.6412,2.7714c3.1331,1.8484,5.6077,4.4221,7.4236,7.7211,1.8142,3.3002,2.7218,7.06,2.7218,11.2838s-.9076,7.9855-2.7218,11.2845Z"></path><path d="M881.409,144.3091c3.1674-1.6825,5.5752-4.0415,7.2259-7.0772v9.2053h4.7508v-32.7633c0-6.3354-1.7162-11.1358-5.1468-14.4023h0c-3.4318-3.2665-8.349-4.9001-14.7487-4.9001-3.9594,0-7.7547,.6439-11.383,1.9304-3.6301,1.2866-6.7308,3.0853-9.3045,5.3946l2.4746,3.5634c2.1777-1.9794,4.8334-3.5634,7.9683-4.7513,3.1332-1.1874,6.4167-1.7817,9.8486-1.7817,5.014,0,8.8253,1.2546,11.4326,3.7617,2.6062,2.5088,3.9098,6.1707,3.9098,10.9869v4.1572h-17.7178c-6.7308,0-11.6309,1.3367-14.6991,4.0089-3.0688,2.6729-4.6027,6.1542-4.6027,10.4429,0,4.4221,1.6654,7.9855,4.9987,10.6902,3.3314,2.7065,7.8692,4.0585,13.6102,4.0585,4.4204,0,8.2157-.8416,11.3831-2.5241Zm-25.0428-12.4223c0-3.2329,1.1384-5.7735,3.4147-7.6219,2.2768-1.8466,5.9547-2.7714,11.0372-2.7714h17.6186v9.7005c-1.5185,3.761-3.7782,6.6317-6.7803,8.6116h0c-3.0034,1.9794-6.6488,2.9691-10.9375,2.9691-4.5537,0-8.0846-.9726-10.5916-2.9202-2.5082-1.9451-3.7611-4.6026-3.7611-7.9677Z"></path><path d="M920.7036,143.4675c3.8927,2.2444,8.2481,3.3657,13.0656,3.3657,4.6846,0,8.8748-1.0889,12.571-3.2665,3.6949-2.1777,6.5655-5.2785,8.6116-9.3045v12.175h4.8499V72.9912h-4.9491v33.7536c-2.1127-3.8927-4.9986-6.9291-8.6612-9.1068-3.6619-2.1777-7.8042-3.2665-12.4222-3.2665-4.8175,0-9.1729,1.106-13.0656,3.3161-3.8945,2.2119-6.9462,5.3127-9.1563,9.3045-2.2114,3.9936-3.3161,8.5277-3.3161,13.6102s1.1047,9.6014,3.3161,13.5608c2.2101,3.9593,5.2618,7.0618,9.1563,9.3044Zm-4.7018-34.149c1.8141-3.299,4.2887-5.8727,7.4236-7.7211,3.1339-1.8466,6.6813-2.7714,10.6406-2.7714s7.5057,.9248,10.6412,2.7714c3.1331,1.8484,5.6077,4.4221,7.4236,7.7211,1.8142,3.3002,2.7218,7.06,2.7218,11.2838s-.9076,7.9855-2.7218,11.2845c-1.8159,3.3002-4.2905,5.8739-7.4236,7.7205-3.1355,1.8484-6.6818,2.7714-10.6412,2.7714s-7.5068-.923-10.6406-2.7714c-3.1349-1.8466-5.6095-4.4203-7.4236-7.7205-1.8159-3.299-2.7224-7.0626-2.7224-11.2845s.9065-7.9836,2.7224-11.2838Z"></path><path d="M1048.7867,134.1135c2.2426-3.9918,3.365-8.4972,3.365-13.5112s-1.1224-9.5181-3.365-13.5111c-2.2444-3.9918-5.3298-7.1097-9.2555-9.354-3.927-2.2427-8.3301-3.3657-13.2144-3.3657s-9.2891,1.123-13.2143,3.3657c-3.9269,2.2443-7.0123,5.3622-9.2548,9.354-2.2444,3.993-3.3658,8.4953-3.3658,13.5111s1.1214,9.5194,3.3658,13.5112c2.2425,3.9937,5.3279,7.1115,9.2548,9.354,3.9252,2.2444,8.3312,3.3657,13.2143,3.3657s9.2875-1.1213,13.2144-3.3657c3.9257-2.2426,7.0111-5.3604,9.2555-9.354Zm-11.8286,5.4938c-3.1355,1.8484-6.6818,2.7714-10.6412,2.7714s-7.5068-.923-10.6406-2.7714c-3.1349-1.8466-5.6094-4.4203-7.4236-7.7205-1.816-3.299-2.7224-7.0626-2.7224-11.2845s.9064-7.9836,2.7224-11.2838c1.8142-3.299,4.2887-5.8727,7.4236-7.7211,3.1339-1.8466,6.6812-2.7714,10.6406-2.7714s7.5057,.9248,10.6412,2.7714c3.1331,1.8484,5.6077,4.4221,7.4236,7.7211,1.8142,3.3002,2.7218,7.06,2.7218,11.2838s-.9076,7.9855-2.7218,11.2845c-1.8159,3.3002-4.2905,5.8739-7.4236,7.7205Z"></path><path d="M1072.4432,118.9198c0-6.1371,1.7474-11.0194,5.2458-14.6496,3.4973-3.6283,8.2805-5.4442,14.3527-5.4442,5.2792,0,9.3866,1.5185,12.3239,4.5531,2.9354,3.0364,4.4044,7.4578,4.4044,13.2639v29.7942h4.9496v-30.1902c0-7.0601-1.8807-12.4719-5.6425-16.233h-.0002c-3.7611-3.7617-8.876-5.6425-15.3424-5.6425-4.8175,0-8.9917,1.0239-12.5214,3.0689-3.531,2.046-6.1866,4.8841-7.9683,8.5124v-11.1853h-4.7509v51.6697h4.9492v-27.5174Z"></path><path d="M1164.1991,143.1211c2.4403,2.4745,5.9045,3.7121,10.3933,3.7121,2.0443,0,4.0083-.3139,5.8892-.9401,1.8809-.6268,3.4476-1.5344,4.7018-2.7225h.0001l-2.0785-3.4642c-2.1128,1.9146-4.7852,2.8706-8.0179,2.8706-3.1674,0-5.5599-.8741-7.1764-2.6233-1.6177-1.7475-2.425-4.3058-2.425-7.6709v-33.2591h16.4313v-4.2562h-16.4313v-11.2839h-4.949v11.2839h-9.5028v4.2562h9.5028v33.7537c0,4.422,1.2203,7.8692,3.6625,10.3437Z"></path><path d="M1203.8907,118.9198c0-6.1371,1.7474-11.0194,5.246-14.6496,3.4973-3.6283,8.2805-5.4442,14.3527-5.4442,5.2789,0,9.3864,1.5185,12.3236,4.5531,2.9355,3.0364,4.4044,7.4578,4.4044,13.2639v29.7942h4.9497v-30.1902c0-7.0601-1.8809-12.4719-5.6425-16.233h0c-3.7611-3.7617-8.8761-5.6425-15.3424-5.6425-4.7513,0-8.876,.9743-12.3727,2.9201-3.4985,1.9474-6.1371,4.7018-7.9188,8.2652v-32.5656h-4.9491v73.446h4.9491v-27.5174Z"></path><path d="M1272.8806,143.4675c4.0242,2.2444,8.6111,3.3657,13.7584,3.3657,3.9594,0,7.6372-.7253,11.0365-2.1777,3.3982-1.4506,6.2192-3.5292,8.4635-6.2362l-2.8705-3.266c-1.915,2.3754-4.3058,4.1743-7.1764,5.3941-2.8705,1.2222-5.9889,1.8313-9.354,1.8313-4.0928,0-7.7701-.8571-11.0366-2.5731-3.2666-1.7156-5.8574-4.1406-7.7706-7.2755-1.9146-3.1338-2.9368-6.7143-3.0684-10.7398h44.4438l.0985-1.3856c0-5.0147-1.0729-9.5028-3.2169-13.4622-2.1447-3.9594-5.0819-7.043-8.8093-9.2549-3.7288-2.2102-7.9347-3.3161-12.6206-3.3161s-8.9084,1.123-12.6696,3.3657c-3.7616,2.2443-6.7155,5.3622-8.8595,9.354-2.1447,3.993-3.2169,8.4971-3.2169,13.5111,0,5.0825,1.1384,9.6014,3.4153,13.5608s5.427,7.0618,9.4532,9.3044Zm-4.9001-35.4857c1.748-2.9355,4.0739-5.2117,6.9786-6.8299,2.903-1.6159,6.1707-2.425,9.799-2.425s6.8948,.8262,9.7996,2.4745c2.903,1.6507,5.2458,3.9269,7.0277,6.83,1.7816,2.9047,2.7719,6.2037,2.9696,9.8987h-39.5933c.2627-3.695,1.2695-7.0111,3.0188-9.9483Z"></path><path d="M510.0884,208.6082l-53.2835,118.4074h22.6666l11.6716-27.4029h59.2037l11.841,27.4029h23.0047l-53.4526-118.4074h-21.6515Zm-11.5025,73.7506l22.159-51.7606,22.3285,51.7606h-44.4875Z"></path><path d="M671.8826,241.4235h0c-6.9353-3.8318-14.8009-5.751-23.597-5.751-6.2032,0-11.8695,1.0735-16.9998,3.214-5.1327,2.1435-9.4461,5.3574-12.9402,9.642v-11.841h-20.1295v123.1441h21.1443v-43.8112c7.1044,8.1195,16.7464,12.1791,28.9252,12.1791,8.7961,0,16.6617-1.9161,23.597-5.7511,6.9353-3.8324,12.3748-9.2743,16.3235-16.3232,3.9459-7.0465,5.9202-15.1389,5.9202-24.2733s-1.9743-17.1961-5.9202-24.1895c-3.9487-6.9904-9.3882-12.4034-16.3235-16.2388Zm-6.7662,60.8957h0c-5.019,5.1881-11.4178,7.7812-19.1988,7.7812-5.0747,0-9.6417-1.1549-13.7014-3.4678-4.0597-2.3098-7.2738-5.6082-9.6418-9.8958-2.3683-4.2839-3.5522-9.2472-3.5522-14.885s1.1839-10.5987,3.5522-14.8856c2.368-4.2846,5.5821-7.583,9.6418-9.8958,4.0597-2.3099,8.6267-3.4678,13.7014-3.4678,7.781,0,14.1798,2.5956,19.1988,7.7812,5.0167,5.1881,7.5275,12.0103,7.5275,20.4679s-2.5108,15.2816-7.5275,20.4674Z"></path><path d="M787.9202,241.4235h0c-6.9353-3.8318-14.8009-5.751-23.597-5.751-6.2032,0-11.8695,1.0735-16.9998,3.214-5.1326,2.1435-9.4461,5.3574-12.9402,9.642v-11.841h-20.1295v123.1441h21.1443v-43.8112c7.1044,8.1195,16.7464,12.1791,28.9252,12.1791,8.7961,0,16.6617-1.9161,23.597-5.7511,6.9352-3.8324,12.3748-9.2743,16.3235-16.3232,3.9459-7.0465,5.9205-15.1389,5.9205-24.2733s-1.9745-17.1961-5.9205-24.1895c-3.9487-6.9904-9.3883-12.4034-16.3235-16.2388Zm-6.7662,60.8957h0c-5.019,5.1881-11.4178,7.7812-19.1988,7.7812-5.0748,0-9.6417-1.1549-13.7014-3.4678-4.0597-2.3098-7.2738-5.6082-9.6418-9.8958-2.3683-4.2839-3.5521-9.2472-3.5521-14.885s1.1838-10.5987,3.5521-14.8856c2.368-4.2846,5.5821-7.583,9.6418-9.8958,4.0597-2.3099,8.6266-3.4678,13.7014-3.4678,7.781,0,14.1798,2.5956,19.1988,7.7812,5.0166,5.1881,7.5275,12.0103,7.5275,20.4679s-2.5109,15.2816-7.5275,20.4674Z"></path><path d="M943.115,265.1898c-5.6401-2.1989-12.8553-4.3134-21.6517-6.343-6.4281-1.5781-11.5023-2.9868-15.2238-4.2291-3.7216-1.2393-6.7952-2.9313-9.2189-5.0748-2.4262-2.1405-3.6366-4.9054-3.6366-8.2882,0-4.8476,2.1139-8.7379,6.343-11.6716,4.2291-2.9313,10.6831-4.3979,19.3679-4.3979,5.2997,0,10.7681,.7903,16.4083,2.3678,5.6371,1.581,11.05,3.8909,16.2388,6.9355l6.935-17.0845c-5.0742-3.3828-11.1086-5.976-18.099-7.7812-6.9941-1.8023-14.0984-2.7064-21.3137-2.7064-10.3768,0-19.1436,1.5804-26.3034,4.7366-7.1628,3.1585-12.5173,7.4159-16.0695,12.771-3.5522,5.3575-5.3286,11.3069-5.3286,17.8459,0,7.7806,2.0007,13.9549,6.0049,18.5222,4.0019,4.5672,8.7964,7.9235,14.3781,10.0646,5.5823,2.1434,12.882,4.2869,21.9056,6.428,6.428,1.5804,11.5022,2.9892,15.2237,4.2285,3.7216,1.2423,6.7928,2.9602,9.2189,5.1592,2.4238,2.1989,3.6372,4.9904,3.6372,8.3731,0,4.6257-2.173,8.3467-6.5125,11.1641-4.3429,2.8204-10.9108,4.2291-19.7066,4.2291-7.1043,0-14.1827-1.2104-21.2287-3.6372-7.0488-2.4231-12.9988-5.5528-17.8458-9.3876l-7.6118,17.0845c4.9608,4.2869,11.6981,7.7252,20.2135,10.3184h.0001c8.5137,2.5925,17.3383,3.8903,26.4728,3.8903,10.3739,0,19.1696-1.5804,26.3879-4.736,7.2153-3.1562,12.6022-7.3847,16.1544-12.6867,3.5522-5.299,5.328-11.2195,5.328-17.7608,0-7.668-2.003-13.7573-6.0049-18.2691-4.0042-4.5088-8.8247-7.8656-14.4625-10.0646Z"></path><path d="M1019.91,310.7768c-4.0597,0-7.1628-1.155-9.3033-3.4678-2.144-2.3099-3.214-5.6668-3.214-10.0646v-42.9648h24.1889v-16.9152h-24.1888v-20.6374h-21.1442v20.6374h-14.8856v16.9152h14.8856v43.4723c0,9.9248,2.7064,17.4812,8.1194,22.6669,5.413,5.1881,13.0803,7.7806,23.0044,7.7806,3.9464,0,7.6968-.5075,11.2491-1.5219,3.5521-1.0151,6.568-2.5377,9.0496-4.5673l-5.9205-15.055c-3.158,2.4822-7.1044,3.7216-11.8405,3.7216Z"></path><path d="M1117.5127,241.5929c-7.3315-3.9459-15.6199-5.9205-24.8652-5.9205-9.1345,0-17.3673,1.9746-24.6965,5.9205-7.3322,3.9487-13.0543,9.4171-17.1696,16.4082-4.1176,6.9934-6.1737,14.941-6.1737,23.8507s2.0562,16.8887,6.1737,23.9351c4.1152,7.049,9.8374,12.5463,17.1696,16.4927,7.3292,3.9482,15.562,5.9198,24.6965,5.9198,9.2455,0,17.5337-1.9716,24.8652-5.9198,7.3292-3.9464,13.0515-9.4438,17.1696-16.4927,4.1152-7.0464,6.1737-15.0278,6.1737-23.9351s-2.0585-16.8573-6.1737-23.8507c-4.1182-6.9911-9.8403-12.4595-17.1696-16.4082Zm-5.5818,60.7263c-5.0747,5.188-11.5022,7.7812-19.2834,7.7812s-14.1827-2.5931-19.1991-7.7812c-5.0193-5.1859-7.5275-12.0093-7.5275-20.4674s2.5082-15.2798,7.5275-20.4679c5.0162-5.1857,11.4185-7.7813,19.1991-7.7813s14.2086,2.5956,19.2834,7.7813c5.0747,5.1881,7.6119,12.0103,7.6119,20.4679s-2.5372,15.2816-7.6119,20.4674Z"></path><path d="M1181.2817,249.8816v-13.1942h-20.1292v90.3282h21.1443v-43.8106c0-9.0211,2.3098-15.9272,6.9355-20.7216,4.6228-4.7915,11.0502-7.1888,19.2834-7.1888,1.4642,0,3.1001,.1688,4.9054,.5075v-20.1297c-15.3378,0-26.0497,4.7366-32.1395,14.2092Z"></path><path d="M1309.5861,257.9161c-3.8909-7.0459-9.3037-12.5173-16.2388-16.4076-6.9357-3.8909-14.8013-5.8361-23.5969-5.8361-8.9097,0-16.9158,1.9746-24.0201,5.9205-7.1044,3.9487-12.66,9.4461-16.6614,16.4926-4.0042,7.0489-6.0048,14.97-6.0048,23.7663,0,8.9097,2.056,16.8887,6.1736,23.9351,4.1152,7.0489,9.9513,12.5463,17.5077,16.4927,7.5541,3.9482,16.2943,5.9198,26.219,5.9198,7.7806,0,14.7717-1.2392,20.9749-3.7209,6.2003-2.4792,11.3334-6.1453,15.3932-10.9953l-11.3335-13.0248c-6.428,6.5414-14.6052,9.8108-24.527,9.8108-7.7812,0-14.2937-1.9451-19.5378-5.8355-5.2437-3.8909-8.4866-9.161-9.7258-15.8163h70.8751c.2249-2.7064,.3383-4.7914,.3383-6.2585,0-9.2449-1.9452-17.3938-5.8356-24.4427Zm-65.5472,16.6619c1.0151-6.6529,3.8615-11.9808,8.542-15.9851,4.6781-4.0019,10.4033-6.0048,17.1696-6.0048,6.877,0,12.6281,2.0295,17.2533,6.0892,4.6227,4.0597,7.3846,9.3617,8.2888,15.9007h-51.2537Z"></path><polygon points="1315.0834 288.6174 1315.0835 288.6174 1315.0834 288.6174 1315.0834 288.6174"></polygon></g></svg>