<svg xmlns="http://www.w3.org/2000/svg" xmlns:xlink="http://www.w3.org/1999/xlink" width="109.76" height="109.76" viewBox="0 0 109.76 109.76"><defs><style>.e,.f{fill:none;}.f,.g,.h{stroke-miterlimit:10;}.f,.g,.h,.i,.j,.k{stroke:#000;stroke-width:1.3px;}.g,.j{fill:#d5e100;}.h{fill:#fca7fd;}.i{fill:#000005;}.i,.j,.k{stroke-linejoin:round;}.k{fill:#fff;}.l{clip-path:url(#d);}</style><clipPath id="d"><rect class="e" width="109.76" height="109.76"></rect></clipPath></defs><g id="a"></g><g id="b"><g id="c"><g><g class="l"><g><g><path class="i" d="M71.74,60.12l-8.81-4.64-28.31-14.91c-2.69-1.42-6.01-.39-7.43,2.3h0c-1.42,2.69-.39,6.01,2.3,7.43l12.42,6.54c-2.79-1.47-6.28-.3-7.59,2.63-1.19,2.67,.04,5.82,2.63,7.18l5.66,2.98c-2.79-1.47-6.28-.3-7.59,2.63-1.19,2.67,.04,5.82,2.63,7.18l3.8,2c-2.52-1.33-5.67-.27-6.85,2.37-1.08,2.41,.03,5.25,2.37,6.48l5.94,3.13,9.18,4.84c1.19,.63,2.27,1.42,3.22,2.37,2.53,2.51,8.25,7.48,12.35,5.84l2.56,22.46,39.23-9.72-19.32-46.16-2.62-17.72,1.67-12.25c.31-3.98-2.52-7.52-6.48-8.08h0c-3.85-.54-7.49,1.92-8.4,5.7l-1.86,8.83c-.16,.89-.27,1.79-.31,2.69l-.41,7.88Z"></path><path class="g" d="M65.26,58.51l-8.81-4.64-28.31-14.91c-2.69-1.42-6.01-.39-7.43,2.3h0c-1.42,2.69-.39,6.01,2.3,7.43l12.42,6.54c-2.79-1.47-6.28-.3-7.59,2.63-1.19,2.67,.04,5.82,2.63,7.18l5.66,2.98c-2.79-1.47-6.28-.3-7.59,2.63-1.19,2.67,.04,5.82,2.63,7.18l3.8,2c-2.52-1.33-5.67-.27-6.85,2.37-1.08,2.41,.03,5.25,2.37,6.48l5.94,3.13,9.18,4.84c1.19,.63,2.27,1.42,3.22,2.37,2.53,2.51,8.25,7.48,12.35,5.84l2.56,22.46,39.23-9.72-19.32-46.16-2.62-17.72,1.67-12.25c.31-3.98-2.52-7.52-6.48-8.08h0c-3.85-.54-7.49,1.92-8.4,5.7l-1.86,8.83c-.16,.89-.27,1.79-.31,2.69l-.41,7.88Z"></path><line class="j" x1="35.44" y1="55.22" x2="48.4" y2="61.88"></line><line class="j" x1="36.15" y1="68.02" x2="43.28" y2="71.61"></line><line class="j" x1="34.98" y1="79.84" x2="39.9" y2="82.26"></line><line class="j" x1="58.02" y1="54.69" x2="67.66" y2="59.77"></line><g><line class="j" x1="34.58" y1="25.66" x2="43.9" y2="37.96"></line><rect class="h" x="37.62" y="24.09" width="3.24" height="15.44" rx="1.62" ry="1.62" transform="translate(-11.25 30.14) rotate(-37.14)"></rect></g><g><line class="j" x1="64.07" y1="21.53" x2="59.57" y2="36.3"></line><rect class="h" x="54.1" y="27.29" width="15.44" height="3.23" rx="1.62" ry="1.62" transform="translate(16.16 79.63) rotate(-73.07)"></rect></g><g><line class="j" x1="49.33" y1="18.65" x2="50.46" y2="29.68"></line><rect class="h" x="48.28" y="18.62" width="3.24" height="11.09" rx="1.62" ry="1.62" transform="translate(-2.2 5.21) rotate(-5.85)"></rect></g><circle class="k" cx="97.07" cy="64.97" r="3.03"></circle><circle class="k" cx="12.5" cy="52.91" r="3.03"></circle><circle class="k" cx="20.19" cy="27.4" r="4.84"></circle></g><line class="j" x1="52.64" y1="64.35" x2="50.93" y2="68.54"></line><line class="j" x1="45.62" y1="81.75" x2="44.53" y2="86.13"></line></g></g><line class="f" x1="22.52" y1="5.19" x2="34.64" y2="5.19"></line><line class="f" x1="38.97" y1="5.19" x2="70.79" y2="5.19"></line></g></g></g></svg>