<svg xmlns="http://www.w3.org/2000/svg" xmlns:xlink="http://www.w3.org/1999/xlink" id="Layer_1" x="0px" y="0px" viewBox="0 0 109.8 109.8" style="enable-background:new 0 0 109.8 109.8;" xml:space="preserve"><style type="text/css">	.st0{fill:none;stroke:#000000;stroke-width:1.3;stroke-miterlimit:10;}	.st1{clip-path:url(#SVGID_00000005266115324240942300000002175887403154697901_);}	.st2{fill:#FCA7FD;stroke:#000000;stroke-width:1.3;stroke-miterlimit:10;}	.st3{fill:none;stroke:#000000;stroke-width:1.3;stroke-linejoin:round;}	.st4{fill:#FFFFFF;stroke:#000000;stroke-width:1.3;stroke-linejoin:round;}	.st5{fill:#000005;}	.st6{fill:#000005;stroke:#000000;stroke-width:1.3;stroke-linejoin:round;}	.st7{fill:#D5E100;stroke:#000000;stroke-width:1.3;stroke-miterlimit:10;}</style><g>	<g id="a">	</g>	<g id="b">		<g id="c">			<g>				<line class="st0" x1="22.5" y1="5.2" x2="34.6" y2="5.2"></line>				<line class="st0" x1="39" y1="5.2" x2="70.8" y2="5.2"></line>			</g>			<g>				<defs>					<rect id="SVGID_1_" x="0" y="0" width="109.8" height="109.8"></rect>				</defs>				<clipPath id="SVGID_00000096738345745642171850000010275620158486360978_">					<use xlink:href="#SVGID_1_" style="overflow:visible;"></use>				</clipPath>				<g style="clip-path:url(#SVGID_00000096738345745642171850000010275620158486360978_);">					<g>						<g>							<g>								<polyline class="st2" points="77.7,81.2 115.2,87.1 118.8,87.8 118.8,160.8 59,160.8         "></polyline>								<g>									<path class="st2" d="M78,81.2V55.8C78,43.2,67.8,33,55.1,33S32.3,43.2,32.3,55.8v25.4l0-0.1l-41.3,6.4l1.6,73.8          c0,8.1,17.1,14.6,25.2,14.6s14.6-6.5,14.6-14.6v-6.2c0,12.6,10.2,22.8,22.8,22.8S78,167.7,78,155.1v6.2          c0,8.1,6.5,14.6,14.6,14.6"></path>									<line class="st3" x1="32.3" y1="76.6" x2="32.3" y2="89.6"></line>									<line class="st3" x1="78" y1="75.2" x2="78" y2="89.6"></line>									<g>										<line class="st3" x1="45.7" y1="49.9" x2="47.2" y2="52.8"></line>										<line class="st3" x1="64.6" y1="49.9" x2="63.1" y2="52.8"></line>									</g>									<ellipse class="st4" cx="55.1" cy="56.9" rx="17.2" ry="4.7"></ellipse>									<ellipse class="st5" cx="55.1" cy="56.9" rx="6.7" ry="5.2"></ellipse>								</g>							</g>							<g>								<path class="st6" d="M54.5,33c0,0-2.5,12.5-23,18.4v22.3H20.8c0,0,4.7-7,4.9-20.7C25.9,39.4,40.4,23.5,54.5,33z"></path>								<path class="st6" d="M54.8,33c0,0,3.4,12.5,23.9,18.4v22.3h9.8c0,0-4.7-7-4.9-20.7S69,23.5,54.8,33L54.8,33z"></path>							</g>						</g>						<path class="st7" d="M88.3,62.2h-5.7V52c0-15.3-12.4-27.7-27.7-27.7S27.2,36.7,27.2,52v10.2h-5.7V52c0-18.4,15-33.4,33.4-33.4       s33.4,15,33.4,33.4C88.3,52,88.3,62.2,88.3,62.2z"></path>						<path class="st7" d="M80.7,79.9H63.6v-3.2h17.2c2.8,0,5.1-2.3,5.1-5.1v-7.7h3.2v7.7C89.1,76.1,85.3,79.9,80.7,79.9z"></path>						<g>							<g>								<path class="st7" d="M24.8,42.1h4v24h-4c-5,0-9-4-9-9v-5.9C15.8,46.1,19.8,42.1,24.8,42.1z"></path>								<path class="st7" d="M27.8,41.1L27.8,41.1c1.1,0,1.9,0.9,1.9,1.9v22.1c0,1.1-0.9,1.9-1.9,1.9l0,0c-1.1,0-1.9-0.9-1.9-1.9V43         C25.8,41.9,26.7,41.1,27.8,41.1z"></path>							</g>							<g>								<path class="st7" d="M84.9,66h-4.1v-24h4.1c5,0,9,4,9,9V57C94,62,89.9,66,84.9,66z"></path>								<path class="st7" d="M82,67L82,67c-1.1,0-1.9-0.9-1.9-1.9V43c0-1.1,0.9-1.9,1.9-1.9h0c1.1,0,1.9,0.9,1.9,1.9v22.1         C83.9,66.2,83.1,67,82,67z"></path>							</g>						</g>						<line class="st3" x1="54.9" y1="48.5" x2="54.9" y2="52.5"></line>						<ellipse class="st7" cx="66.3" cy="78.1" rx="5.9" ry="3.8"></ellipse>					</g>				</g>			</g>		</g>	</g></g></svg>