<svg xmlns="http://www.w3.org/2000/svg" width="625.8" height="538.59" viewBox="0 0 625.8 538.59"><defs><style>.d{stroke-linejoin:bevel;}.d,.e{fill:none;}.d,.e,.f,.g,.h{stroke:#252525;}.d,.e,.f,.g,.h,.i,.j,.k{stroke-width:1.3px;}.e,.f,.g,.l,.h,.i,.j,.k,.m{stroke-miterlimit:10;}.n,.h{fill:#000005;}.f,.m{fill:#1488ff;}.g{fill:#d5e100;}.l{stroke:#e5e5e5;}.l,.k{fill:#e5e5e5;}.l,.m{stroke-width:1.67px;}.i{fill:#fff;}.i,.j,.k{stroke:#000;}.j{fill:#fca7fd;}.m{stroke:#1488ff;}</style></defs><g id="a"></g><g id="b"><g id="c"><g><g><g><g><path class="k" d="M454.21,368.39c8.09,0,16.19-3.04,22.44-9.14l100.29-97.85c6.86-6.7,10.36-16.12,9.55-25.67-.81-9.55-5.84-18.25-13.73-23.7l-143.68-99.41c-14.58-10.09-34.58-6.45-44.67,8.14-10.09,14.58-6.45,34.58,8.14,44.67l111.66,77.25-78.4,76.29"></path><line class="k" x1="518.66" y1="228.56" x2="493.84" y2="252.81"></line></g><g><path class="k" d="M435.53,331.92l-50.93-6.15c-4.72-.57-8.66-3.85-10.09-8.38h0c-2.25-7.17,2.5-14.63,9.95-15.62l6.32-.84,12.96-11.23c1.97-1.7,4.82-1.91,7.01-.49l32.01,13.3,12.72-12.43"></path><path class="l" d="M377.86,311.43l14.71,71.24c1.85,4.35,2.62-1.27,5.59,4.92l12.05,1.27,44.19-20.57,14.75-26.01"></path><path class="k" d="M397.22,389.69l12.98-.83,44.16-20.48s1.22,0,3.28-.18"></path><path class="k" d="M410.21,388.87l-12.98,.83c-4.25,.64-8.4-1.68-10.08-5.64h0c-2.32-5.46,.9-11.68,6.7-12.92"></path><path class="k" d="M388.76,353.1l-6.15,2.73c-5.01,2.23-7.36,8.03-5.29,13.11h0c1.87,4.6,6.79,7.17,11.63,6.09l9.59-2.15"></path><path class="k" d="M385.57,333.19l-11.15,5.94c-4.43,2.36-6.33,7.72-4.36,12.34h0c2,4.7,7.31,7.04,12.13,5.34l11.16-3.93"></path><path class="k" d="M396.99,329.96l-16.97,5.64c-6.68,2.34-13.92-1.62-15.55-8.51h0c-1.5-6.35,2.38-12.73,8.71-14.31l34.27-9.66,21.17,1.57"></path><line class="k" x1="402.33" y1="353.47" x2="399.87" y2="345.4"></line></g></g><path class="k" d="M580.76,249.25c6.41,0,11.6-5.2,11.6-11.6,0-6.41-5.2-11.6-11.6-11.6"></path></g><path class="f" d="M489.51,530.23c-28.59,3.6-66.03,6.29-108.51,7.69l-23.57-50.28-44.82-95.58-28.4-60.53,28.4-7.26,94.59-24.19,69.53,194.41h.01l12.77,35.74Z"></path><polygon class="m" points="340.99 331.54 312.61 392.07 249.16 527.35 136.72 527.35 218.01 300.09 312.61 324.28 340.99 331.54"></polygon><path class="f" d="M321.79,372.51l-9.18,19.56-44.86,95.65-23.49,50.1c-42.7-1.47-80.14-4.27-108.44-7.96l12.53-35.03,69.66-194.75"></path><path class="k" d="M279.52,100.17l-47.54,14.93s-.5,123.81-45.22,170.99c0,0,112.47,102.45,283.42,25.05,0,0,0-35.34-44.81-84.54-59.33-65.15-35.56-111.49-35.56-111.49l-53.05-14.93h-57.24Z"></path><g><path class="k" d="M272.21,112.3l.14-67.14c-.65-17.74,12.15-33.13,29.72-35.73h0c21.03-3.11,39.92,13.19,39.93,34.45l.84,66.88"></path><g><g><ellipse class="i" cx="293.96" cy="54.01" rx="29.11" ry="10" transform="translate(-3.41 24.03) rotate(-4.66)"></ellipse><line class="i" x1="289.69" y1="37.91" x2="290.42" y2="44.13"></line><line class="i" x1="293.22" y1="63.15" x2="293.96" y2="69.38"></line><line class="i" x1="302.41" y1="38.48" x2="301.25" y2="43.18"></line><line class="i" x1="282.77" y1="63.91" x2="281.6" y2="68.62"></line><line class="i" x1="278.37" y1="40.92" x2="280.66" y2="46.14"></line><line class="i" x1="304.49" y1="62.02" x2="306.78" y2="67.24"></line></g><ellipse class="n" cx="275.47" cy="55.51" rx="7.75" ry="9.84" transform="translate(214.57 329.84) rotate(-88.88)"></ellipse></g></g><circle class="n" cx="277.52" cy="21.66" r="8.82"></circle><circle class="n" cx="291" cy="21.66" r="8.82"></circle><circle class="n" cx="304.49" cy="21.66" r="8.82"></circle><circle class="n" cx="317.97" cy="21.66" r="8.82"></circle><path class="n" d="M384.76,61.47c.98-13.58-8.42-9.55-11.93-19.85-1.86-5.45,2.57-14.97-1.2-20.63-3.4-5.09-13.3-4.4-18.74-8.21-4.85-3.4-8.08-11.19-14.91-12.57-6.91-1.39-13.9,4.45-21.08,5.33-7.12,.87-15.92-5.12-22.56-2.95-7.29,2.38-11.1,12.64-16.88,15.41h47.65l1.11,3.87c-5.55,10.97,4.77,12.3,6.53,23.33,1.02,6.38-7.84,16.25-7.84,16.25"></path><path class="k" d="M339.75,69.83c4.86,2.3,10.05,1.52,11.6-1.75,1.55-3.27-1.13-7.79-5.98-10.09-2.67-1.27-5.44-1.6-7.66-1.1-2.35,.53-3.94,2.73-3.94,5.13v1.25"></path><path class="k" d="M339.75,88.43c4.86,2.3,10.05,1.52,11.6-1.75,1.55-3.27-1.13-7.79-5.98-10.09-2.67-1.27-5.44-1.6-7.66-1.1-2.35,.53-3.94,2.73-3.94,5.13v1.25"></path><g><path class="j" d="M271.71,100.5c-.03,.37-1,38.63,64.13,79.95,29.64,18.8,50.41,38.52,61.73,58.61,1.73,3.06,3.11,5.93,4.21,8.56,1.66-3.91,2.94-8.64,3.11-14.03,.44-14.32-6.86-29.4-21.72-44.83-40.46-42.04-21.75-82.4-20.91-84.15l14.58,4.81c-.62,1.33-15.66,34.6,17.27,68.81,17.91,18.6,26.64,37.5,25.94,56.17-.85,22.91-15.87,36.62-16.51,37.19l-12.64-6.12v.14c0-.08,.09-7.94-7.42-20.59-7.1-11.97-22.54-30.66-55.77-51.74-59.32-37.64-70.01-74.75-71.37-88.39l15.37-4.37"></path><path class="d" d="M264.05,103.26c.68,10.33,8.47,46,67.72,83.6,68.89,43.71,66.7,79.07,66.7,79.07,0,0,37.34-33.43-9.84-82.44-37.27-38.72-19.04-76.73-19.04-76.73"></path><path class="j" d="M401.77,247.61s3.16,6.54,3.94,15.94l-5.88-.29"></path><circle class="h" cx="390.76" cy="315.81" r="53.24"></circle><circle class="g" cx="395.47" cy="315.81" r="53.24"></circle><g><circle class="h" cx="396.77" cy="315.81" r="42.56"></circle><circle class="g" cx="394.17" cy="315.81" r="42.56"></circle></g><g><path class="n" d="M395.33,313.87l-2.06,7.94,6.12,.27-.2,4.63-7.09-.31-2.23,8.49-5.05-.22,2.23-8.49-9.08-.39-2.23,8.49-5.05-.22,2.23-8.49-7.18-.31,.2-4.63,8.16,.35,2.06-7.94-7.14-.31,.2-4.63,8.11,.35,2.17-8.36,5.05,.22-2.17,8.36,9.08,.39,2.17-8.36,5.05,.22-2.17,8.36,6.16,.27-.2,4.63-7.14-.31Zm-5.05-.22l-9.08-.39-2.06,7.94,9.08,.39,2.06-7.94Z"></path><path class="n" d="M408.31,306.68l.21-4.82,9.64,.42-1.46,33.78-5.33-.23,1.26-28.96-4.31-.19Z"></path></g></g><g><g><g><path class="k" d="M177.42,368.39c-8.09,0-16.19-3.04-22.44-9.14l-100.29-97.85c-6.86-6.7-10.36-16.12-9.55-25.67,.81-9.55,5.84-18.25,13.73-23.7L202.55,112.62c14.58-10.09,34.58-6.45,44.67,8.14,10.09,14.58,6.45,34.58-8.14,44.67l-111.66,77.25,78.4,76.29"></path><line class="k" x1="112.97" y1="228.56" x2="137.79" y2="252.81"></line></g><g><path class="k" d="M196.11,331.92l50.93-6.15c4.72-.57,8.66-3.85,10.09-8.38h0c2.25-7.17-2.5-14.63-9.95-15.62l-6.32-.84-12.96-11.23c-1.97-1.7-4.82-1.91-7.01-.49l-32.01,13.3-12.72-12.43"></path><path class="l" d="M253.77,311.43l-14.71,71.24c-1.85,4.35-2.62-1.27-5.59,4.92l-12.05,1.27-44.19-20.57-14.75-26.01"></path><path class="k" d="M234.41,389.69l-12.98-.83-44.16-20.48s-1.22,0-3.28-.18"></path><path class="k" d="M221.43,388.87l12.98,.83c4.25,.64,8.4-1.68,10.08-5.64h0c2.32-5.46-.9-11.68-6.7-12.92"></path><path class="k" d="M242.88,353.1l6.15,2.73c5.01,2.23,7.36,8.03,5.29,13.11h0c-1.87,4.6-6.79,7.17-11.63,6.09l-9.59-2.15"></path><path class="k" d="M246.07,333.19l11.15,5.94c4.43,2.36,6.33,7.72,4.36,12.34h0c-2,4.7-7.31,7.04-12.13,5.34l-11.16-3.93"></path><path class="k" d="M234.65,329.96l16.97,5.64c6.68,2.34,13.92-1.62,15.55-8.51h0c1.5-6.35-2.38-12.73-8.71-14.31l-34.27-9.66-21.17,1.57"></path><line class="k" x1="229.31" y1="353.47" x2="231.77" y2="345.4"></line></g></g><path class="k" d="M50.87,249.25c-6.41,0-11.6-5.2-11.6-11.6s5.2-11.6,11.6-11.6"></path></g><polygon class="i" points="424.93 345.99 431.26 320.42 432.55 345.75 448.72 341.47 437.23 351.22 448.72 360.17 432.55 358 425.9 388.6 424.07 357.86 409.11 360.2 420.66 350.71 405.71 341.58 424.93 345.99"></polygon><polygon class="i" points="347.43 272.45 358.01 232.53 361.71 272.06 390.76 268.8 367.99 280.6 387.19 294.57 360.17 291.19 352.02 332.14 345.99 290.96 320.99 294.61 340.29 279.81 315.31 265.57 347.43 272.45"></polygon><path class="e" d="M196.75,273.26s20.29-27.1,35.01-69.83"></path><path class="e" d="M278.12,316.26s20.13,13.57,62.87,15.28"></path><polygon class="h" points="244.13 161.1 224.6 192.17 227.5 173.44 238.8 166.45 244.13 161.1"></polygon><line class="h" x1="176.46" y1="444.47" x2="157.08" y2="495.66"></line><line class="h" x1="186.75" y1="417.26" x2="180.56" y2="433.62"></line><line class="h" x1="351.61" y1="446.26" x2="360.45" y2="466.65"></line><polygon class="h" points="189.26 380.46 216.09 386.39 191.26 374.88 189.26 380.46"></polygon><line class="h" x1="410.21" y1="75.27" x2="497.05" y2="75.27"></line><line class="h" x1="50.87" y1="320.42" x2="137.71" y2="320.42"></line><line class="h" x1="81.96" y1="327.89" x2="168.8" y2="327.89"></line><line class="h" x1="393.3" y1="82.51" x2="480.14" y2="82.51"></line><line class="h" x1="462.83" y1="106.91" x2="506.25" y2="106.91"></line><line class="h" x1="63.47" y1="371.13" x2="106.89" y2="371.13"></line><path class="n" d="M372.72,33.37s-2.33,8.63,13.45,13.18c13.76,3.97,12.97,14.93,12.97,14.93h-11.23s1.54-8.86-6.27-12.75c-14.35-7.14-11.39-17.1-11.39-17.1"></path><g><g><path class="i" d="M3.69,160.73l-.02-4.67c.16,0,16.43-.18,36.83-8.36,18.77-7.52,45-23.56,63.42-57.26l4.1,2.24c-19.13,35-46.44,51.63-65.97,59.43-21.19,8.45-37.67,8.61-38.36,8.62Z"></path><g><g><path class="i" d="M105.58,46.8l4.68,6.56c5.19,7.28,5.98,16.82,2.04,24.85l-8.67,17.7-5.18-2.54c-6.99-3.42-9.88-11.87-6.45-18.85l13.59-27.72Z"></path><path class="i" d="M141.25,64.28l-8.05,.32c-8.94,.35-16.96,5.58-20.9,13.61l-8.67,17.7,5.18,2.54c6.99,3.42,15.43,.54,18.85-6.45l13.59-27.72Z"></path><path class="i" d="M98.45,93.37l10.36,5.08h0c-2.86-1.4-4.04-4.86-2.64-7.72l3.6-7.35"></path></g><ellipse class="i" cx="122.74" cy="56.92" rx="3.33" ry="15.89" transform="translate(17.61 142.08) rotate(-63.89)"></ellipse><ellipse class="i" cx="122.74" cy="56.92" rx="3.33" ry="6.91" transform="translate(17.61 142.08) rotate(-63.89)"></ellipse><g><path class="i" d="M98.46,93.37h0c-10.03-4.92-14.17-17.03-9.26-27.06l6.75-13.76s7.9,8.93,2.51,40.82Z"></path><path class="i" d="M108.8,98.44h0c10.03,4.92,22.14,.77,27.06-9.26l6.75-13.76s-11.9-.77-33.81,23.02Z"></path></g></g><circle class="i" cx="2.99" cy="158.39" r="2.34"></circle></g><g><path class="i" d="M73.6,118.21c0,5.96-8.45,10.79-8.45,10.79,0,0-8.45-4.83-8.45-10.79s8.45-18.32,8.45-18.32c0,0,8.45,12.37,8.45,18.32Z"></path><line class="i" x1="65.15" y1="99.89" x2="65.15" y2="134.16"></line></g></g><g><g><path class="i" d="M452.57,464.29c-5.72-1.68-7.97-11.15-7.97-11.15,0,0,7.01-6.75,12.73-5.07,5.72,1.68,15.2,13.27,15.2,13.27,0,0-14.24,4.63-19.96,2.95Z"></path><line class="i" x1="472.54" y1="461.34" x2="439.65" y2="451.69"></line></g><g><g><g><path class="i" d="M512.4,386.23l.72,8.02c.8,8.91-3.35,17.54-10.81,22.47l-16.44,10.88-3.19-4.81c-4.3-6.49-2.52-15.23,3.97-19.53l25.74-17.04Z"></path><path class="i" d="M534.33,419.35l-7.11-3.8c-7.89-4.21-17.45-3.76-24.91,1.17l-16.44,10.88,3.19,4.81c4.3,6.49,13.04,8.27,19.53,3.97l25.74-17.04Z"></path><path class="i" d="M482.69,422.8l6.37,9.62h0c-1.76-2.66-1.03-6.24,1.63-8l6.83-4.52"></path></g><ellipse class="i" cx="522.08" cy="403.64" rx="3.33" ry="15.89" transform="translate(-136.07 355.29) rotate(-33.51)"></ellipse><ellipse class="i" cx="522.08" cy="403.64" rx="3.33" ry="6.91" transform="translate(-136.07 355.29) rotate(-33.51)"></ellipse><g><path class="i" d="M482.7,422.81h0c-6.17-9.31-3.61-21.86,5.7-28.03l12.78-8.46s2.29,11.7-18.48,36.49Z"></path><path class="i" d="M489.06,432.41h0c6.17,9.31,18.71,11.86,28.03,5.7l12.78-8.46s-9.88-6.68-40.81,2.76Z"></path></g></g><path class="i" d="M463.43,445.32c-21.95,12.27-40.97,15.95-56.76,10.93-22.39-7.12-29.51-29.05-29.8-29.98l4.46-1.4-2.23,.7,2.23-.7c.07,.21,6.74,20.59,26.81,26.95,19.72,6.24,45.4-2.53,76.32-26.07l2.83,3.72c-8.3,6.31-16.25,11.6-23.86,15.86Z"></path><ellipse class="i" cx="379" cy="425.28" rx="2.38" ry="2.34" transform="translate(-159.37 239.1) rotate(-29.22)"></ellipse></g></g><g><g><path class="i" d="M254.87,213.72c5.88-.99,12.04,6.55,12.04,6.55,0,0-3.36,9.13-9.24,10.12-5.88,.99-19.47-5.3-19.47-5.3,0,0,10.8-10.38,16.67-11.37Z"></path><line class="i" x1="238.2" y1="225.09" x2="272" y2="219.42"></line></g><polygon class="i" points="162.81 172.13 200.67 178.58 191.94 207.71 158.62 197.53 162.81 172.13"></polygon><g><g><g><path class="i" d="M155.84,204.57l4.87-6.42c5.41-7.12,14.29-10.71,23.12-9.34l19.48,3.02-.88,5.7c-1.19,7.69-8.39,12.96-16.08,11.77l-30.51-4.73Z"></path><path class="i" d="M161.92,165.32l2.7,7.59c3,8.43,10.37,14.53,19.21,15.9l19.48,3.02,.88-5.7c1.19-7.69-4.07-14.89-11.77-16.08l-30.51-4.73Z"></path><path class="i" d="M202.43,197.53l1.77-11.4h0c-.49,3.15-3.44,5.31-6.59,4.82l-8.09-1.25"></path></g><ellipse class="i" cx="160.41" cy="185.18" rx="15.89" ry="3.33" transform="translate(-47.17 315.32) rotate(-81.19)"></ellipse><ellipse class="i" cx="160.41" cy="185.18" rx="6.91" ry="3.33" transform="translate(-47.17 315.32) rotate(-81.19)"></ellipse><g><path class="i" d="M202.43,197.53h0c-1.71,11.04-12.05,18.6-23.08,16.89l-15.15-2.35s6.18-10.2,38.23-14.54Z"></path><path class="i" d="M204.19,186.14h0c1.71-11.04-5.85-21.37-16.89-23.08l-15.15-2.35s2.8,11.59,32.03,25.43Z"></path></g></g><path class="i" d="M231.83,193.85c24.49,5.7,41.03,15.79,49.32,30.14,11.76,20.34,2.26,41.34,1.85,42.23l-4.24-1.97,2.12,.98-2.12-.98c.09-.2,8.88-19.77-1.68-37.98-10.38-17.89-35.27-28.7-73.98-32.11l.41-4.65c10.39,.92,19.83,2.37,28.32,4.34Z"></path><ellipse class="i" cx="280.77" cy="265.51" rx="2.34" ry="2.38" transform="translate(-41.49 478.76) rotate(-76.89)"></ellipse></g></g><g><g><path class="i" d="M460.93,185.83l1.73-4.34c.15,.06,15.31,5.97,37.29,6,20.22,.03,50.54-5.04,80.22-29.42l2.96,3.61c-30.82,25.32-62.36,30.55-83.4,30.48-22.82-.07-38.16-6.08-38.8-6.33Z"></path><g><g><path class="i" d="M598,118.21l1.89,7.83c2.1,8.69-.74,17.84-7.39,23.82l-14.66,13.18-3.86-4.29c-5.2-5.79-4.73-14.7,1.06-19.9l22.96-20.64Z"></path><path class="i" d="M624.56,147.75l-7.59-2.71c-8.42-3.01-17.82-1.16-24.47,4.82l-14.66,13.18,3.86,4.29c5.2,5.79,14.11,6.26,19.9,1.06l22.96-20.64Z"></path><path class="i" d="M573.99,158.75l7.71,8.58h0c-2.13-2.37-1.94-6.02,.43-8.15l6.09-5.47"></path></g><ellipse class="i" cx="610.13" cy="134.01" rx="3.33" ry="15.89" transform="translate(66.82 442.28) rotate(-41.96)"></ellipse><ellipse class="i" cx="610.13" cy="134.01" rx="3.33" ry="6.91" transform="translate(66.82 442.28) rotate(-41.96)"></ellipse><g><path class="i" d="M573.99,158.75h0c-7.47-8.31-6.79-21.09,1.52-28.56l11.4-10.25s3.99,11.24-12.92,38.81Z"></path><path class="i" d="M581.7,167.32h0c7.47,8.31,20.25,8.99,28.56,1.52l11.4-10.25s-10.75-5.16-39.96,8.73Z"></path></g></g><circle class="i" cx="461.15" cy="183.4" r="2.34"></circle></g><g><path class="i" d="M563.54,195.25c-5.41-2.5-6.23-12.2-6.23-12.2,0,0,7.93-5.64,13.34-3.13,5.41,2.5,13.07,15.37,13.07,15.37,0,0-14.77,2.47-20.18-.03Z"></path><line class="i" x1="583.72" y1="195.28" x2="552.62" y2="180.88"></line></g></g></g></g></g></svg>