<svg xmlns="http://www.w3.org/2000/svg" id="a" width="39.96" height="37.25" viewBox="0 0 39.96 37.25"><defs><style>.b{fill:#fff;}</style></defs><path d="M34.79,6.2c1.67-2.1,3.41-4.15,5.18-6.2-2.12,1.75-4.27,3.55-6.29,5.36-.73,.66-1.47,1.33-2.2,2-3.24-3.67-7.96-6.01-13.23-6.01C10.55,1.36,4.01,6.32,1.6,13.21c-1.02,2.17-1.6,4.59-1.6,7.15,0,9.33,7.56,16.89,16.89,16.89,2.56,0,4.98-.59,7.15-1.6,6.89-2.4,11.85-8.95,11.85-16.65,0-3.77-1.2-7.25-3.21-10.12,.7-.9,1.4-1.79,2.11-2.68Zm-.4,12.8c0,.2-.03,.4-.03,.6-.01,.37-.02,.75-.06,1.11-.02,.18-.06,.35-.08,.53-.06,.41-.12,.81-.21,1.21-.02,.11-.06,.22-.08,.33-.11,.46-.24,.92-.39,1.36-.02,.06-.04,.11-.06,.17-.17,.49-.36,.96-.58,1.43,0,.02-.01,.03-.02,.05v-.02c-2.56,5.53-8.15,9.38-14.63,9.38-8.9,0-16.14-7.24-16.14-16.14,0-6.48,3.85-12.07,9.38-14.64h-.02s.03,0,.04-.01c.47-.22,.96-.41,1.45-.59,.05-.02,.1-.04,.15-.05,.45-.15,.92-.28,1.39-.4,.1-.02,.2-.06,.3-.08,.41-.09,.82-.15,1.24-.21,.16-.02,.33-.06,.49-.08,.4-.04,.8-.06,1.2-.07,.17,0,.34-.03,.52-.03,1.41,0,2.77,.2,4.08,.55,3.16,.83,5.96,2.57,8.05,4.97-.93,.85-1.86,1.72-2.77,2.58-1.99,1.88-3.94,3.81-5.86,5.79-1.04,1.07-2.06,2.13-3.07,3.22-.66-.78-1.35-1.54-2.06-2.29-.73-.78-1.49-1.54-2.27-2.31-.78-.77-1.54-1.48-2.43-2.27l-5.21,5.45c.79,.49,1.66,1.05,2.49,1.65,.84,.59,1.66,1.19,2.47,1.79,1.61,1.2,3.16,2.47,4.61,3.8l2.96,2.72,1.77-2.93c1.31-2.16,2.77-4.38,4.26-6.56s3.03-4.34,4.62-6.47c.6-.81,1.21-1.62,1.83-2.42,.94,1.42,1.65,2.99,2.1,4.67,.36,1.34,.57,2.75,.57,4.21Z"></path><path class="b" d="M34.39,19c0,8.9-7.24,16.14-16.14,16.14S2.11,27.9,2.11,19,9.35,2.86,18.25,2.86c4.83,0,9.17,2.13,12.13,5.51-.93,.85-1.86,1.72-2.77,2.58-1.99,1.88-3.94,3.81-5.86,5.79-1.04,1.07-2.06,2.13-3.07,3.22-.66-.78-1.35-1.54-2.06-2.29-.73-.78-1.49-1.54-2.27-2.31-.78-.77-1.54-1.48-2.43-2.27l-5.21,5.45c.79,.49,1.66,1.05,2.49,1.65,.84,.59,1.66,1.19,2.47,1.79,1.61,1.2,3.16,2.47,4.61,3.8l2.96,2.72,1.77-2.93c1.31-2.16,2.77-4.38,4.26-6.56s3.03-4.34,4.62-6.47c.6-.81,1.21-1.62,1.83-2.42,1.69,2.55,2.67,5.6,2.67,8.88Z"></path></svg>