<svg xmlns="http://www.w3.org/2000/svg" width="275.69" height="67.3" viewBox="0 0 275.69 67.3"><defs><style>.d{fill:#fff;stroke:#000;stroke-miterlimit:10;stroke-width:1.3px;}</style></defs><g id="a"></g><g id="b"><g id="c"><g><path class="d" d="M274.81,66.65H1.02c6.67-14.37,21.21-24.32,38.09-24.32,5.82,0,11.37,1.18,16.4,3.32C69.47,18.91,97.44,.65,129.7,.65c24.89,0,47.24,10.89,62.55,28.17,7.5-3.32,15.8-5.17,24.52-5.17,27.36,0,50.5,18.11,58.05,43Z"></path><path class="d" d="M211.11,34.29c-6.45-9.34-17.22-15.46-29.43-15.46s-22.98,6.12-29.43,15.46"></path><path class="d" d="M129.53,49.7c-4.75-6.88-12.69-11.39-21.69-11.39s-16.94,4.51-21.69,11.39"></path></g></g></g></svg>