<svg xmlns="http://www.w3.org/2000/svg" xmlns:xlink="http://www.w3.org/1999/xlink" id="Layer_1" x="0px" y="0px" viewBox="0 0 939.1 698.3" style="enable-background:new 0 0 939.1 698.3;" xml:space="preserve"><style type="text/css">	.st0{fill:none;stroke:#000000;stroke-width:1.3;stroke-miterlimit:10;}	.st1{fill:#FFFFFF;stroke:#FFFFFF;stroke-width:1.3;stroke-miterlimit:10;}	.st2{fill:#FFFFFF;stroke:#000000;stroke-width:1.3;stroke-miterlimit:10;}	.st3{fill:#000005;stroke:#000000;stroke-width:1.3;stroke-miterlimit:9.9997;}	.st4{fill:#FFFFFF;stroke:#000000;stroke-width:1.3;stroke-miterlimit:9.9997;}	.st5{fill:#000005;}	.st6{fill:#000005;stroke:#000000;stroke-width:1.3;stroke-miterlimit:10;}	.st7{fill:#000005;stroke:#000000;stroke-width:1.3;stroke-miterlimit:10.0002;}	.st8{fill:#FFFFFF;stroke:#000000;stroke-width:1.3;stroke-miterlimit:10.0002;}	.st9{fill:#000005;stroke:#000000;stroke-width:1.3;stroke-miterlimit:9.9999;}	.st10{fill:#FFFFFF;stroke:#000000;stroke-width:1.3;stroke-miterlimit:9.9999;}	.st11{fill:#000005;stroke:#000000;stroke-width:1.3;stroke-miterlimit:10.0001;}	.st12{fill:#FFFFFF;stroke:#000000;stroke-width:1.3;stroke-miterlimit:10.0001;}	.st13{fill:#FCA7FD;stroke:#000000;stroke-width:1.3;stroke-miterlimit:10;}	.st14{fill:#FFFFFF;}	.st15{fill:#E5E5E5;stroke:#000000;stroke-width:1.3;stroke-miterlimit:10;}	.st16{fill:#E5E5E5;stroke:#000000;stroke-width:1.2999;stroke-miterlimit:9.9996;}	.st17{fill:#1488FF;stroke:#000000;stroke-width:1.3;stroke-miterlimit:10;}	.st18{fill:#000005;stroke:#000000;stroke-width:1.3;stroke-linejoin:round;}	.st19{fill:none;stroke:#000000;stroke-width:1.3;stroke-linejoin:round;}	.st20{fill:#D5E100;stroke:#000000;stroke-width:1.3;stroke-miterlimit:10;}	.st21{fill:#252525;}	.st22{fill:#FFFFFF;stroke:#252525;stroke-width:1.3;stroke-miterlimit:10;}	.st23{fill:#FFFFFF;stroke:#000000;stroke-width:1.2999;stroke-miterlimit:9.9996;}	.st24{fill:#FFFFFF;stroke:#020202;stroke-width:1.3;stroke-miterlimit:9.9997;}	.st25{fill:none;stroke:#020202;stroke-width:1.3;stroke-miterlimit:10;}	.st26{fill:#D5E100;stroke:#D5E100;stroke-width:1.38;stroke-miterlimit:10;}	.st27{fill:#000005;stroke:#000000;stroke-width:1.3;stroke-linecap:round;stroke-linejoin:round;}</style><g id="a"></g><g id="b">	<g id="c">		<g>			<g>				<g>					<g>						<g>							<path class="st0" d="M541.6,442.7L541.6,442.7c0,4.9,3.7,9.1,8.6,9.6l30.6,3.1c7.4,0.7,13,7,13,14.4v11.6"></path>							<path class="st0" d="M650.9,442.7L650.9,442.7c0,4.9-3.7,9.1-8.6,9.6l-30.6,3.1c-7.4,0.7-13,7-13,14.4v11.6"></path>						</g>						<path class="st1" d="M551.9,483.1c0-4.6,18.5-8.3,41.9-8.5c0.8,0,1.6,0,2.5,0s1.7,0,2.5,0c23.3,0.2,41.9,4,41.9,8.5"></path>						<path class="st2" d="M598.7,474.5c23.3,0.2,41.9,4,41.9,8.5"></path>						<path class="st2" d="M551.9,483.1c0-4.6,18.5-8.3,41.9-8.5"></path>					</g>					<g>						<g>															<ellipse transform="matrix(0.8089 -0.5879 0.5879 0.8089 -143.6537 406.7409)" class="st3" cx="553.9" cy="424.4" rx="20" ry="6.6"></ellipse>															<ellipse transform="matrix(0.8089 -0.5879 0.5879 0.8089 -143.2981 406.2394)" class="st4" cx="553.3" cy="423.6" rx="20" ry="5.6"></ellipse>															<rect x="537.5" y="426.9" transform="matrix(0.8089 -0.5879 0.5879 0.8089 -149.2014 399.3995)" class="st5" width="4.7" height="4.7"></rect>															<rect x="548.3" y="428.6" transform="matrix(0.8089 -0.5879 0.5879 0.8089 -148.1271 406.0695)" class="st5" width="4.7" height="4.7"></rect>						</g>						<path class="st0" d="M596.2,368.8L596.2,368.8c38.8,0,70.3,31.5,70.3,70.3H525.9C525.9,400.3,557.4,368.8,596.2,368.8       L596.2,368.8z"></path>						<circle class="st2" cx="596.2" cy="361.2" r="7.7"></circle>						<path class="st2" d="M563.5,389c-5.6,4.5-11.4,10.9-14.7,19.6"></path>						<path class="st2" d="M578.8,380.1c0,0-4.4,1.5-9.9,5"></path>						<g>							<g>								<rect x="559.9" y="427.7" class="st5" width="4.7" height="3.9"></rect>								<ellipse class="st6" cx="565.2" cy="435.2" rx="20" ry="5.5"></ellipse>								<ellipse class="st2" cx="565.2" cy="434.3" rx="20" ry="4.7"></ellipse>								<rect x="549.2" y="429.6" class="st5" width="4.7" height="3.9"></rect>								<rect x="567" y="432.1" class="st5" width="4.7" height="3.9"></rect>							</g>							<g>								<rect x="559.9" y="423.4" class="st5" width="4.7" height="3.9"></rect>								<ellipse class="st6" cx="565.2" cy="430.9" rx="20" ry="5.5"></ellipse>								<ellipse class="st2" cx="565.2" cy="430.1" rx="20" ry="4.7"></ellipse>								<rect x="549.2" y="425.4" class="st5" width="4.7" height="3.9"></rect>								<rect x="567" y="427.9" class="st5" width="4.7" height="3.9"></rect>							</g>							<g>								<rect x="559.9" y="419.1" class="st5" width="4.7" height="3.9"></rect>								<ellipse class="st6" cx="565.2" cy="426.6" rx="20" ry="5.5"></ellipse>								<ellipse class="st2" cx="565.2" cy="425.8" rx="20" ry="4.7"></ellipse>								<rect x="549.2" y="421.1" class="st5" width="4.7" height="3.9"></rect>								<rect x="567" y="423.6" class="st5" width="4.7" height="3.9"></rect>							</g>							<g>								<ellipse class="st6" cx="565.2" cy="422.4" rx="20" ry="5.5"></ellipse>								<ellipse class="st2" cx="565.2" cy="421.5" rx="20" ry="4.7"></ellipse>								<rect x="549.6" y="420.9" class="st5" width="4.7" height="3.9"></rect>								<rect x="564.3" y="419.9" class="st5" width="4.7" height="3.9"></rect>								<rect x="577.9" y="417.7" class="st5" width="4.7" height="3.9"></rect>							</g>						</g>						<g>							<g>								<rect x="629.5" y="427.5" class="st5" width="4.7" height="3.9"></rect>								<ellipse class="st6" cx="634.7" cy="435" rx="20" ry="5.5"></ellipse>								<ellipse class="st2" cx="634.7" cy="434.2" rx="20" ry="4.7"></ellipse>								<rect x="618.7" y="429.5" class="st5" width="4.7" height="3.9"></rect>								<rect x="636.5" y="432" class="st5" width="4.7" height="3.9"></rect>							</g>							<g>								<rect x="629.5" y="423.2" class="st5" width="4.7" height="3.9"></rect>								<ellipse class="st6" cx="634.7" cy="430.7" rx="20" ry="5.5"></ellipse>								<ellipse class="st2" cx="634.7" cy="429.9" rx="20" ry="4.7"></ellipse>								<rect x="618.7" y="425.2" class="st5" width="4.7" height="3.9"></rect>								<rect x="636.5" y="427.7" class="st5" width="4.7" height="3.9"></rect>							</g>							<g>								<ellipse class="st6" cx="634.7" cy="426.5" rx="20" ry="5.5"></ellipse>								<ellipse class="st2" cx="634.7" cy="425.6" rx="20" ry="4.7"></ellipse>								<rect x="618.7" y="420.9" class="st5" width="4.7" height="3.9"></rect>								<rect x="629.5" y="419" class="st5" width="4.7" height="3.9"></rect>								<rect x="640" y="427.1" class="st5" width="4.7" height="3.9"></rect>								<rect x="627.9" y="426.1" class="st5" width="4.7" height="3.9"></rect>								<rect x="650.2" y="422.6" class="st5" width="4.7" height="3.9"></rect>							</g>						</g>						<path class="st2" d="M519.6,437H673c2.6,0,4.7,2.1,4.7,4.7l0,0c0,2.6-2.1,4.7-4.7,4.7H519.6c-2.6,0-4.7-2.1-4.7-4.7l0,0       C514.9,439.1,517,437,519.6,437z"></path>						<g>															<rect x="599.8" y="420" transform="matrix(0.944 -0.33 0.33 0.944 -105.6421 222.3775)" class="st5" width="4.7" height="4.7"></rect>															<ellipse transform="matrix(0.944 -0.33 0.33 0.944 -107.1014 224.2995)" class="st7" cx="607.1" cy="427.6" rx="20" ry="6.6"></ellipse>															<ellipse transform="matrix(0.944 -0.33 0.33 0.944 -106.8317 224.1253)" class="st8" cx="606.7" cy="426.7" rx="20" ry="5.6"></ellipse>															<rect x="590.4" y="425.7" transform="matrix(0.944 -0.33 0.33 0.944 -108.055 219.5907)" class="st5" width="4.7" height="4.7"></rect>															<rect x="608.2" y="422.7" transform="matrix(0.944 -0.33 0.33 0.944 -106.067 225.2982)" class="st5" width="4.7" height="4.7"></rect>															<rect x="599.7" y="430.6" transform="matrix(0.944 -0.33 0.33 0.944 -109.1525 222.9332)" class="st5" width="4.7" height="4.7"></rect>															<rect x="617.9" y="417.2" transform="matrix(0.944 -0.33 0.33 0.944 -103.7037 228.1864)" class="st5" width="4.7" height="4.7"></rect>						</g>						<g>															<rect x="583.1" y="407.9" transform="matrix(0.3991 -0.9169 0.9169 0.3991 -24.3103 783.3098)" class="st5" width="4.7" height="4.7"></rect>															<ellipse transform="matrix(0.3991 -0.9169 0.9169 0.3991 -30.9882 787.6459)" class="st9" cx="585.4" cy="417.5" rx="6.6" ry="20"></ellipse>															<ellipse transform="matrix(0.3991 -0.9169 0.9169 0.3991 -29.9101 787.4853)" class="st10" cx="585.9" cy="416.6" rx="5.6" ry="20"></ellipse>															<rect x="572.4" y="405.7" transform="matrix(0.3991 -0.9169 0.9169 0.3991 -28.7191 772.178)" class="st5" width="4.7" height="4.7"></rect>															<rect x="587.5" y="415.5" transform="matrix(0.3991 -0.9169 0.9169 0.3991 -28.701 791.9847)" class="st5" width="4.7" height="4.7"></rect>															<rect x="575.9" y="415.6" transform="matrix(0.3991 -0.9169 0.9169 0.3991 -35.7187 781.3257)" class="st5" width="4.7" height="4.7"></rect>															<rect x="598.3" y="418.1" transform="matrix(0.3991 -0.9169 0.9169 0.3991 -24.538 803.3792)" class="st5" width="4.7" height="4.7"></rect>						</g>						<g>															<rect x="625.1" y="408.2" transform="matrix(0.1383 -0.9904 0.9904 0.1383 134.0969 975.2343)" class="st5" width="4.7" height="4.7"></rect>															<ellipse transform="matrix(0.1383 -0.9904 0.9904 0.1383 128.9434 983.1918)" class="st11" cx="629.5" cy="417.5" rx="6.6" ry="20"></ellipse>															<ellipse transform="matrix(0.1383 -0.9904 0.9904 0.1383 130.0006 982.5114)" class="st12" cx="629.6" cy="416.5" rx="5.6" ry="20"></ellipse>															<rect x="614.2" y="409" transform="matrix(0.1383 -0.9904 0.9904 0.1383 123.8816 965.0208)" class="st5" width="4.7" height="4.7"></rect>															<rect x="631.4" y="414.4" transform="matrix(0.1383 -0.9904 0.9904 0.1383 133.3256 986.8208)" class="st5" width="4.7" height="4.7"></rect>															<rect x="620.3" y="417.6" transform="matrix(0.1383 -0.9904 0.9904 0.1383 120.563 978.5295)" class="st5" width="4.7" height="4.7"></rect>															<rect x="642.4" y="414" transform="matrix(0.1383 -0.9904 0.9904 0.1383 143.3111 997.3329)" class="st5" width="4.7" height="4.7"></rect>						</g>					</g>				</g>				<line class="st0" x1="593.8" y1="471.5" x2="593.8" y2="476.2"></line>				<line class="st0" x1="598.7" y1="471.5" x2="598.7" y2="476.2"></line>			</g>			<path class="st13" d="M495.1,481.6l-3.2-46.6c0-1.6-6.5-2.9-14.6-2.9s-14.6,1.3-14.6,2.9l-3.2,46.6l0,0c0,1.6,8.5,2.9,17.9,2.9    S495.1,483.2,495.1,481.6L495.1,481.6L495.1,481.6z"></path>			<path class="st13" d="M495.1,470.7l-3.2-46.6c0-1.6-6.5-2.9-14.6-2.9s-14.6,1.3-14.6,2.9l-3.2,46.6l0,0c0,1.6,8.5,2.9,17.9,2.9    S495.1,472.3,495.1,470.7L495.1,470.7L495.1,470.7z"></path>			<path class="st13" d="M495.1,459.8l-3.2-46.6c0-1.6-6.5-2.9-14.6-2.9s-14.6,1.3-14.6,2.9l-3.2,46.6l0,0c0,1.6,8.5,2.9,17.9,2.9    S495.1,461.4,495.1,459.8L495.1,459.8z"></path>			<path class="st13" d="M495.1,448.9l-3.2-46.6c0-1.6-6.5-2.9-14.6-2.9s-14.6,1.3-14.6,2.9l-3.2,46.6l0,0c0,1.6,8.5,2.9,17.9,2.9    S495.1,450.5,495.1,448.9L495.1,448.9L495.1,448.9z"></path>			<g>				<polygon class="st6" points="276.2,451.6 271.1,483.3 351,483.3 345.1,445.3     "></polygon>				<polygon class="st6" points="382.9,451.6 388,483.3 308.1,483.3 314.1,445.3     "></polygon>			</g>			<g>				<g>					<rect x="190.6" y="204.7" class="st14" width="12.8" height="349.4"></rect>					<path d="M202.7,205.3v348.1h-11.4V205.3H202.7 M204,204h-14.1v350.7H204V204L204,204z"></path>				</g>				<g>					<rect x="694.5" y="204.7" class="st14" width="12.8" height="349.4"></rect>					<path d="M706.7,205.3v348.1h-11.5V205.3H706.7 M708,204h-14.1v350.7H708V204L708,204z"></path>				</g>			</g>			<g>				<path class="st15" d="M127.8,463.4c-18.5,0-18.5-8.8-37-8.8s-18.5,8.8-36.9,8.8s-18.5-8.8-36.9-8.8L0.9,409     c18.5,0,18.5,8.8,36.9,8.8s18.5-8.8,36.9-8.8s18.5,8.8,37,8.8L127.8,463.4z"></path>									<ellipse transform="matrix(0.997 -7.689606e-02 7.689606e-02 0.997 -33.1971 6.1999)" class="st16" cx="63.9" cy="434.2" rx="16.2" ry="6.4"></ellipse>			</g>			<g>				<path class="st15" d="M772.2,599.6c-13.1,0-13.1-6.2-26.2-6.2s-13.1,6.2-26.2,6.2s-13.1-6.2-26.2-6.2l-11.3-32.3     c13.1,0,13.1,6.2,26.2,6.2s13.1-6.2,26.2-6.2s13.1,6.2,26.2,6.2L772.2,599.6z"></path>									<ellipse transform="matrix(0.997 -7.689606e-02 7.689606e-02 0.997 -42.3607 57.6083)" class="st16" cx="726.9" cy="578.9" rx="11.5" ry="4.5"></ellipse>			</g>			<g>				<ellipse class="st6" cx="354.3" cy="667.2" rx="27" ry="30.5"></ellipse>				<ellipse class="st6" cx="543.7" cy="667.2" rx="27" ry="30.5"></ellipse>			</g>			<polygon class="st2" points="692,675.6 205.9,675.6 173.1,487.4 724.8,487.4    "></polygon>			<g>				<path class="st13" d="M217.2,109.5v114.7c0,10.7-5.2,20.5-13.6,27.5c-8.4,7.1-20,11.4-32.8,11.4c-25.6,0-46.4-17.5-46.4-39     v-75.8c0-10.7,5.2-20.5,13.6-27.5c8.4-7.1,20-11.4,32.8-11.4L217.2,109.5L217.2,109.5z"></path>				<path class="st17" d="M310,224.2c0,10.7-5.2,20.5-13.6,27.5c-8.4,7.1-20,11.4-32.8,11.4c-25.6,0-46.4-17.5-46.4-39V109.5h92.7     L310,224.2L310,224.2z"></path>				<path class="st17" d="M495.4,224.2c0,10.7-5.2,20.5-13.6,27.5c-8.4,7.1-20,11.4-32.8,11.4c-25.6,0-46.4-17.5-46.4-39V109.5h92.7     L495.4,224.2L495.4,224.2z"></path>				<path class="st13" d="M402.7,224.2c0,21.5-20.8,39-46.4,39s-46.4-17.5-46.4-39V109.5h92.7L402.7,224.2z"></path>				<path class="st13" d="M587.8,224.2c0,21.5-20.8,39-46.4,39s-46.4-17.5-46.4-39V109.5h92.7L587.8,224.2z"></path>				<path class="st17" d="M680.7,224.2c0,10.7-5.2,20.5-13.6,27.5c-8.4,7.1-20,11.4-32.8,11.4c-25.6,0-46.4-17.5-46.4-39l-0.1-114.7     h92.7L680.7,224.2z"></path>				<path class="st13" d="M773.5,148.4v75.8c0,10.7-5.2,20.5-13.6,27.5c-8.4,7.1-20,11.4-32.8,11.4c-25.6,0-46.4-17.5-46.4-39     l-0.1-114.7h46.5C752.8,109.5,773.5,126.9,773.5,148.4L773.5,148.4z"></path>			</g>			<polygon class="st6" points="358.9,110.3 437.5,188.9 334.3,110.5    "></polygon>			<g>				<g>					<g>						<path class="st2" d="M418.2,14.9l-83.9,70.8l103.2,103.2l0,0c0,0.1-0.1-0.1,0,0c4.5,5.3,22.8-2.5,40.8-17.6       s28.7-31.9,24.2-37.2c-0.1-0.1,0.1,0.1,0,0l0,0L418.2,14.9z"></path>						<path class="st2" d="M403.1,156.3c0,0,44.5-14.7,72.2-60.7l0,0c0-3.8-1-7.5-3.1-10.7l-10.3-15.6c-1.8-2.7-5.1-4.2-8.3-3.6l0,0       c-27,51.2-76.2,64.2-76.2,64.2l0,0c0,3.4,1.3,6.6,3.7,9l13.2,13.6C396.5,154.9,399.7,156.3,403.1,156.3L403.1,156.3       L403.1,156.3z"></path>					</g>					<path class="st18" d="M355.7,25.9c-23.2,19.5-37.3,40.8-31.7,47.6l10.3,12.2c5.7,6.7,29.1-3.7,52.2-23.2      c23.1-19.5,37.3-40.8,31.7-47.6L407.9,2.7C402.3-4,378.9,6.3,355.7,25.9z"></path>					<path class="st18" d="M367.2,39.5C341.2,61.4,325,85,331,92.1l4.6,5.4c6,7.1,31.9-4.9,57.9-26.8s42.2-45.5,36.2-52.6l-4.6-5.4      C419.1,5.5,393.2,17.6,367.2,39.5L367.2,39.5z"></path>				</g>				<line class="st0" x1="448.8" y1="74.1" x2="469.3" y2="105.1"></line>				<line class="st0" x1="438.2" y1="89.8" x2="458.5" y2="118.1"></line>				<line class="st0" x1="389.4" y1="125.9" x2="414.4" y2="151.8"></line>				<line class="st0" x1="404.5" y1="117.6" x2="428.9" y2="143"></line>				<line class="st0" x1="423.1" y1="104.8" x2="445.4" y2="131.4"></line>			</g>			<g>				<path class="st14" d="M199.9,629.2c31.3,0,31.3,9.2,62.5,9.2s31.3-9.2,62.5-9.2s31.3,9.2,62.5,9.2s31.3-9.2,62.5-9.2     s31.3,9.2,62.5,9.2s31.3-9.2,62.5-9.2s31.3,9.2,62.5,9.2s31.3-9.2,62.5-9.2"></path>				<path class="st19" d="M199.9,629.2c31.3,0,31.3,9.2,62.5,9.2s31.3-9.2,62.5-9.2s31.3,9.2,62.5,9.2s31.3-9.2,62.5-9.2     s31.3,9.2,62.5,9.2s31.3-9.2,62.5-9.2s31.3,9.2,62.5,9.2s31.3-9.2,62.5-9.2"></path>			</g>			<polygon class="st18" points="180.6,527.4 717.3,527.4 719.5,517.9 178.4,517.9    "></polygon>			<line class="st0" x1="66.9" y1="382.5" x2="108.1" y2="382.5"></line>			<line class="st0" x1="90" y1="393.1" x2="131.2" y2="393.1"></line>			<line class="st0" x1="765.4" y1="631.8" x2="806.6" y2="631.8"></line>			<line class="st0" x1="740.6" y1="636.7" x2="781.9" y2="636.7"></line>			<g>				<path class="st20" d="M623.7,585.8c-205.2,56-349.4-3.8-349.4-3.8l-3-40.6c0,0,153.7,63.7,355.4,3.8L623.7,585.8L623.7,585.8z"></path>				<circle class="st21" cx="280.4" cy="554.5" r="3.3"></circle>				<path class="st22" d="M340.2,565.4c18.6,3.2,43.4,6.8,70.3,8.2"></path>				<path class="st22" d="M307.5,558.7c0,0,6.6,1.7,17.8,3.9"></path>				<path class="st22" d="M534.7,599.2c0,0,36-4.4,53.4-9.6"></path>				<path class="st22" d="M277.1,560c0,0,4.9,2.3,9.2-1.1"></path>				<g>					<path class="st5" d="M332.3,576.1c0.9-1.3,2.1-2.3,3.6-2.9c1.5-0.6,3.2-0.8,5-0.5c2,0.3,3.9,1.1,5.5,2.4      c1.6,1.3,2.8,2.9,3.5,4.8c-1.3-0.2-2.5-0.4-3.8-0.6c-0.5-1.1-1.2-2-2.1-2.6s-1.9-1-3.1-1.2c-1.3-0.2-2.4-0.1-3.4,0.3      c-1,0.4-1.8,1.1-2.3,2.1c-0.6,1-0.9,2.2-0.9,3.6s0.3,2.7,0.9,3.9s1.3,2.1,2.3,2.9s2.1,1.2,3.4,1.4c1.2,0.2,2.2,0.1,3.1-0.3      c0.9-0.4,1.6-1,2.1-2c1.3,0.2,2.5,0.4,3.8,0.6c-0.7,1.8-1.9,3-3.5,3.8s-3.4,1-5.5,0.7c-1.8-0.3-3.5-1-5-2.1s-2.7-2.5-3.6-4.1      c-0.9-1.7-1.3-3.4-1.3-5.3C331,579.1,331.4,577.5,332.3,576.1L332.3,576.1z"></path>					<path class="st5" d="M358.4,593.9c-1.5-1-2.7-2.4-3.6-4s-1.3-3.4-1.3-5.3c0-1.9,0.4-3.5,1.3-4.9s2.1-2.4,3.6-3      c1.5-0.7,3.2-0.9,5-0.6c1.8,0.2,3.5,0.8,5,1.9c1.5,1,2.7,2.3,3.6,3.9c0.9,1.6,1.3,3.3,1.3,5.2s-0.4,3.6-1.3,5      c-0.9,1.4-2.1,2.5-3.6,3.1c-1.5,0.7-3.2,0.9-5,0.7C361.6,595.6,359.9,594.9,358.4,593.9L358.4,593.9z M366.8,592.6      c1-0.5,1.8-1.2,2.4-2.2c0.6-1,0.8-2.2,0.8-3.7s-0.3-2.7-0.8-3.9c-0.6-1.1-1.3-2.1-2.4-2.8c-1-0.7-2.1-1.1-3.4-1.3      s-2.4,0-3.4,0.4s-1.8,1.2-2.4,2.2s-0.9,2.2-0.9,3.7c0,1.4,0.3,2.7,0.9,3.9s1.4,2.1,2.4,2.8s2.1,1.2,3.4,1.3      C364.7,593.2,365.8,593,366.8,592.6L366.8,592.6z"></path>					<path class="st5" d="M389,578.9c0,0.9,0,1.7,0,2.6c-2.8-0.2-5.5-0.5-8.2-0.8v5.7c2.1,0.2,4.3,0.4,6.4,0.6c0,0.9,0,1.7,0,2.6      c-2.1-0.2-4.3-0.4-6.4-0.6v8.5c-1.1-0.1-2.1-0.2-3.2-0.3v-19.4C381.3,578.2,385.1,578.6,389,578.9L389,578.9z"></path>					<path class="st5" d="M404.5,580.1v2.6c-2.8-0.2-5.5-0.4-8.2-0.6v5.7c2.1,0.2,4.3,0.3,6.4,0.5v2.6c-2.1-0.1-4.3-0.3-6.4-0.5v8.5      c-1.1-0.1-2.1-0.2-3.2-0.2v-19.4C396.9,579.6,400.7,579.9,404.5,580.1L404.5,580.1z"></path>					<path class="st5" d="M411.8,583.1c0,1.9,0,3.8,0,5.7c2.2,0.1,4.5,0.2,6.7,0.3c0,0.9,0,1.7,0,2.6c-2.2-0.1-4.5-0.2-6.7-0.3      c0,2,0,4,0,5.9c2.5,0.1,5,0.3,7.6,0.4v2.6c-3.6-0.2-7.2-0.3-10.8-0.5c0-6.5,0-13,0-19.4c3.6,0.2,7.2,0.4,10.8,0.5v2.6      C416.8,583.4,414.3,583.3,411.8,583.1z"></path>					<path class="st5" d="M427.5,583.8v5.7c2.2,0.1,4.5,0.1,6.7,0.2v2.6c-2.2,0-4.5-0.1-6.7-0.2v5.9c2.5,0.1,5,0.1,7.6,0.2v2.6      c-3.6-0.1-7.2-0.2-10.8-0.3v-19.4c3.6,0.1,7.2,0.2,10.8,0.3v2.6C432.6,583.9,430.1,583.9,427.5,583.8z"></path>					<path class="st5" d="M461.1,581.5v2.6c-1.7,0-3.5,0.1-5.2,0.1V601c-1.1,0-2.1,0-3.2,0v-16.8c-1.7,0-3.5,0-5.2,0      c0-0.9,0-1.7,0-2.6C452.1,581.6,456.6,581.5,461.1,581.5L461.1,581.5z"></path>					<path class="st5" d="M469.3,599.6c-1.5-0.8-2.7-2-3.6-3.5s-1.3-3.2-1.3-5.1c0-1.9,0.4-3.6,1.3-5.1s2.1-2.7,3.6-3.6      c1.5-0.9,3.2-1.4,5-1.4c1.8-0.1,3.5,0.3,5,1.1s2.7,1.9,3.6,3.4c0.9,1.5,1.3,3.2,1.3,5c0,1.9-0.4,3.6-1.3,5.2      c-0.9,1.6-2.1,2.8-3.6,3.7s-3.2,1.4-5,1.5C472.5,600.7,470.9,600.4,469.3,599.6L469.3,599.6z M477.8,596.9      c1-0.6,1.8-1.5,2.4-2.6c0.6-1.1,0.8-2.4,0.8-3.8s-0.3-2.7-0.8-3.7c-0.6-1-1.4-1.8-2.4-2.4c-1-0.5-2.2-0.8-3.4-0.7      c-1.3,0-2.4,0.4-3.4,1s-1.8,1.5-2.4,2.5c-0.6,1.1-0.8,2.4-0.8,3.8s0.3,2.7,0.8,3.8c0.6,1.1,1.4,1.9,2.4,2.4s2.2,0.8,3.4,0.8      C475.6,597.9,476.8,597.5,477.8,596.9L477.8,596.9z"></path>					<path class="st5" d="M511,584.3c-0.5-0.9-1.2-1.6-2.1-2c-0.9-0.4-1.9-0.6-3.1-0.5c-1.3,0.1-2.4,0.5-3.4,1.1      c-1,0.7-1.8,1.5-2.4,2.6s-0.8,2.3-0.8,3.8s0.3,2.6,0.8,3.6c0.6,1,1.4,1.8,2.4,2.3s2.2,0.7,3.4,0.6c1.7-0.1,3.1-0.8,4.2-1.8      c1.1-1.1,1.7-2.4,2-4.1c-2.4,0.2-4.9,0.4-7.3,0.6c0-0.8,0-1.7,0-2.5c3.6-0.3,7.1-0.6,10.7-1v2.5c-0.2,1.5-0.7,3-1.6,4.3      c-0.9,1.3-2,2.5-3.4,3.3s-2.9,1.4-4.6,1.5c-1.8,0.2-3.5-0.1-5-0.9c-1.5-0.7-2.7-1.8-3.6-3.3c-0.9-1.4-1.3-3.1-1.3-5      s0.4-3.6,1.3-5.2c0.9-1.6,2.1-2.8,3.6-3.8s3.2-1.5,5-1.7c2.1-0.2,3.9,0.2,5.5,1c1.6,0.9,2.8,2.2,3.5,4      C513.5,584.1,512.3,584.2,511,584.3L511,584.3z"></path>					<path class="st5" d="M523.5,595.8c-1.5-0.7-2.7-1.7-3.6-3.2c-0.9-1.4-1.3-3.1-1.3-5s0.5-3.7,1.3-5.2c0.9-1.6,2.1-2.9,3.6-3.9      s3.2-1.6,5-1.8s3.5,0,5,0.7s2.7,1.7,3.6,3.1c0.9,1.4,1.3,3,1.3,4.9s-0.4,3.7-1.3,5.3s-2.1,3-3.6,4s-3.2,1.7-5,1.9      S525,596.5,523.5,595.8L523.5,595.8z M531.9,592.5c1-0.7,1.8-1.6,2.3-2.8c0.6-1.2,0.8-2.5,0.8-3.9s-0.3-2.7-0.8-3.7      c-0.6-1-1.3-1.7-2.3-2.2s-2.2-0.6-3.4-0.5c-1.3,0.2-2.4,0.6-3.4,1.3s-1.8,1.6-2.4,2.7s-0.8,2.4-0.8,3.9s0.3,2.7,0.8,3.7      c0.6,1,1.3,1.8,2.4,2.2c1,0.5,2.2,0.6,3.4,0.5C529.7,593.6,530.9,593.2,531.9,592.5z"></path>					<path class="st5" d="M550.8,581.3c-0.4-0.3-0.6-0.8-0.6-1.4c0-0.6,0.2-1.1,0.6-1.5c0.4-0.5,0.9-0.7,1.4-0.8      c0.6-0.1,1,0,1.4,0.4c0.4,0.3,0.6,0.8,0.6,1.4c0,0.6-0.2,1.1-0.6,1.5c-0.4,0.5-0.9,0.7-1.4,0.8      C551.6,581.7,551.1,581.6,550.8,581.3z M550.8,593c-0.4-0.3-0.6-0.8-0.6-1.4c0-0.6,0.2-1.1,0.6-1.5c0.4-0.5,0.9-0.7,1.4-0.8      c0.6-0.1,1,0,1.4,0.4c0.4,0.3,0.6,0.8,0.6,1.4c0,0.6-0.2,1.1-0.6,1.5c-0.4,0.5-0.9,0.7-1.4,0.8      C551.6,593.4,551.1,593.3,550.8,593z"></path>					<path class="st5" d="M558.1,595.3c0-0.1,0-0.2,0-0.2c1.9-1.8,3.3-3.9,4.3-6.1s1.5-4.4,1.5-6.6c0-2.3-0.5-4.4-1.6-6.4      s-2.7-3.6-4.8-4.8V571c1.1-0.2,2.2-0.3,3.3-0.5c2,1.1,3.6,2.7,4.6,4.7s1.6,4.3,1.6,6.8c0,2.4-0.5,4.8-1.5,7.1s-2.4,4.3-4.2,5.9      C560.2,595,559.2,595.2,558.1,595.3L558.1,595.3z"></path>				</g>				<circle class="st21" cx="618.1" cy="555.6" r="3.3"></circle>			</g>			<g>				<path class="st2" d="M821.1,389.5c-23,0-23-10.9-46-10.9s-23,10.9-46,10.9s-23-10.9-46-10.9l-20-56.8c23,0,23,10.9,46,10.9     s23-10.9,46-10.9s23,10.9,46,10.9L821.1,389.5z"></path>									<ellipse transform="matrix(0.997 -7.689606e-02 7.689606e-02 0.997 -24.9553 58.0547)" class="st23" cx="741.4" cy="353.1" rx="20.2" ry="8"></ellipse>			</g>			<g>				<path class="st2" d="M299.9,697.6c-35.4,0-35.4-16.8-70.7-16.8s-35.4,16.8-70.7,16.8s-35.4-16.8-70.7-16.8L57,593.5     c35.4,0,35.4,16.8,70.7,16.8s35.4-16.8,70.7-16.8s35.4,16.8,70.7,16.8L299.9,697.6L299.9,697.6z"></path>									<ellipse transform="matrix(0.997 -7.689606e-02 7.689606e-02 0.997 -48.8233 15.5576)" class="st23" cx="177.6" cy="641.8" rx="31" ry="12.3"></ellipse>			</g>			<line class="st0" x1="838.1" y1="384.1" x2="905.4" y2="384.1"></line>			<line class="st0" x1="871.8" y1="396" x2="939.1" y2="396"></line>			<path class="st2" d="M150.3,481.4h597.4c3.2,0,5.9,2.6,5.9,5.9v24.8c0,3.2-2.6,5.9-5.9,5.9H150.3c-3.2,0-5.9-2.6-5.9-5.9v-24.8    C144.4,484.1,147,481.4,150.3,481.4z"></path>			<g>				<g>					<g>						<path class="st20" d="M310,333.5l-31.4,9.3c0,0-4.3,76-11.3,123.2c0,0,35-6.7,68.8-0.2s52.8-1.7,52.8-1.7s-8.3-39.2-10.6-65       s-2.1-57.1-2.1-57.1l-31.1-8.5"></path>						<g>							<g>								<path class="st20" d="M305.2,342.2l0.1-39c-0.4-10.8,7.4-20.1,18-21.7l0,0c12.8-1.9,24.2,8,24.2,20.9l0.5,36.4"></path>								<path class="st20" d="M308.5,322c-1.2-2.6-3.9-3.8-6-2.8s-2.8,3.9-1.6,6.5s3.9,3.8,6,2.8"></path>								<path class="st20" d="M343.9,322c1.2-2.6,3.9-3.8,6-2.8s2.8,3.9,1.6,6.5c-1.2,2.6-3.9,3.8-6,2.8"></path>																	<ellipse transform="matrix(0.9993 -3.647055e-02 3.647055e-02 0.9993 -11.1171 12.1181)" class="st24" cx="326.6" cy="310.8" rx="17.7" ry="6.1"></ellipse>																	<ellipse transform="matrix(0.9993 -3.647055e-02 3.647055e-02 0.9993 -11.1349 11.7427)" class="st5" cx="316.3" cy="311.1" rx="7" ry="5.2"></ellipse>								<g>									<line class="st25" x1="326.6" y1="300.7" x2="326.8" y2="305.1"></line>									<line class="st25" x1="334.7" y1="301.2" x2="333.8" y2="305.5"></line>									<line class="st25" x1="318.4" y1="301.7" x2="319.7" y2="305.9"></line>								</g>							</g>															<rect x="344.9" y="297.7" transform="matrix(0.9545 -0.2982 0.2982 0.9545 -73.3707 116.7948)" class="st5" width="2.3" height="2.3"></rect>															<rect x="339.6" y="297" transform="matrix(0.9545 -0.2982 0.2982 0.9545 -73.404 115.1865)" class="st5" width="2.3" height="2.3"></rect>															<rect x="341.7" y="300.8" transform="matrix(0.9545 -0.2982 0.2982 0.9545 -74.4445 115.982)" class="st5" width="2.3" height="2.3"></rect>							<path class="st0" d="M351.2,325c0.3,0.2,0.5,0.4,0.8,0.6c1.6,1.5,2.1,3.4,1.3,4.3s-2.8,0.5-4.4-1s-2.1-3.4-1.3-4.3"></path>							<path class="st5" d="M300.9,295.7l-8.4-4.2c0,0,9.2,0.9,11.3-8.2c1.6-7.1,9.3-11.5,18.7-6.5c7.2,3.8,10.7,0,17.1,2.3        c7.2,2.6,9.9,8.8,7.1,15.9l-11.5-0.3c0,0,3.2-7.1-5.1-7.5c-5.1-0.2-8.9,5.6-17.1,9C309.1,297.9,304.7,297.6,300.9,295.7        L300.9,295.7z"></path>						</g>					</g>					<path class="st26" d="M352.8,404l-83.4,20l22-60.3c3.3-9-1.4-19-10.4-22.3s-19,1.4-22.3,10.4L225,444.4      c-2.2,6.2-0.8,13.1,3.7,17.9c3.3,3.6,8,5.5,12.7,5.5c1.6,0,3.3-0.2,4.9-0.7l127.4-37.2c2-0.6,3.8-1.5,5.3-2.6l0,0      c2.5,0.9,5.3-0.3,6.2-2.8l9.2-24.2c0.9-2.5-0.3-5.3-2.8-6.2l0,0c-0.8-0.3-1.7-0.4-2.5-0.2l4.3-11.4c1.1-2.9-0.4-6-3.2-7.1      c-0.3-0.1-0.5-0.2-0.8-0.2l0.5-1.5c1.1-2.9-0.4-6-3.2-7.1s-5.9,0.3-7,3.1c-0.5-0.4-1-0.7-1.6-0.9c-2.8-1.1-6,0.4-7.1,3.2      l-9.1,24.1"></path>					<polyline class="st0" points="358.4,396.7 346.7,405.4 269.4,424 284.5,382.4      "></polyline>					<path class="st0" d="M290.3,349.5c-2-3.6-5.2-6.6-9.4-8.2c-9-3.3-19,1.4-22.3,10.4l-33.7,92.6c-2.2,6.2-0.8,13.1,3.7,17.9      c3.3,3.6,8,5.5,12.7,5.5c1.6,0,3.3-0.2,4.9-0.7l127.4-37.2c2-0.6,3.8-1.5,5.3-2.6l0,0"></path>					<path class="st26" d="M280.3,427.3l-12.4-2.9l-1.3-3.1c-1.5-3.9-2.1-6-0.6-8.5l4.3-7c3-5,8.1-8.4,13.8-9.5l8.6-1.5      c4.1-0.7,8.3-0.4,12.2,1l80.3,28.3l-20.7-63.4c-0.5-1.4-0.8-2.9-0.9-4.3s0-2.9,0.2-4.2c1.1-6.1,5.4-11.4,11.7-13.4      c9.1-3,19,1.9,22,11l26.9,82.2c2.7,8.2,1.1,17.3-4.3,24.1l0,0c-6.9,8.7-18.5,12-29,8.2l-89-32.2"></path>					<path class="st0" d="M363.8,352.1c1.1-6.1,5.4-11.4,11.7-13.4c9.1-3,19,1.9,22,11l26.9,82.2c2.7,8.2,1.1,17.3-4.3,24.1l0,0      c-6.9,8.7-18.5,12-29,8.2l-89-32.2"></path>					<path class="st0" d="M280.3,427.3l-12.4-2.9l-1.3-3.1c-1.5-3.9-2.1-6-0.6-8.5l4.3-7c3-5,8.1-8.4,13.8-9.5l8.6-1.5      c4.1-0.7,8.3-0.4,12.2,1l80.3,28.3"></path>					<g>						<path class="st20" d="M354.2,399.9l4.2-3.2l9.1-24.1c1.1-2.9,4.3-4.3,7.1-3.2l0,0c2.8,1.1,4.3,4.3,3.2,7.1l-7.2,21.1"></path>						<path class="st20" d="M377.3,398.5l9.1-24.1c1.1-2.9-0.4-6-3.2-7.1l0,0c-2.8-1.1-6,0.4-7.1,3.2l-10.3,28.1"></path>						<path class="st20" d="M379.6,414.7l12-32.4c1.1-2.9-0.4-6-3.2-7.1l0,0c-2.8-1.1-6,0.4-7.1,3.2l-10.4,27.1"></path>						<path class="st20" d="M382.7,423.2l9.6-18.7c1.4-2.3,0.8-5.2-1.5-6.7l0,0c-2.3-1.4-5.2-0.8-6.7,1.5l-7.8,14.9"></path>					</g>					<polyline class="st20" points="248.2,430.2 275.7,422.1 330.1,442.5 315.2,446.9      "></polyline>					<line class="st0" x1="361.8" y1="415.9" x2="408.6" y2="432.4"></line>					<path class="st6" d="M275.7,422.1c0,0,34.6,10.2,37.8,25.2l16.7-4.9L275.7,422.1z"></path>					<path class="st20" d="M272.8,417l1.1,1.9c2,3.4,5.3,5.7,9.1,6.6l19.2,4.2"></path>					<path class="st20" d="M302.1,398.2c0,0,3.4,0.4,7.9,2.5"></path>					<path class="st6" d="M293.5,427.7l9.1,1.9c0,0,7.7,5,16.5,8.5L293.5,427.7L293.5,427.7z"></path>					<line class="st0" x1="358.3" y1="402.3" x2="360.2" y2="405.4"></line>					<line class="st0" x1="363" y1="408.9" x2="366" y2="412.1"></line>					<polyline class="st20" points="249.1,378 287.4,387.8 291,368.2      "></polyline>					<line class="st0" x1="405.6" y1="376.3" x2="391.9" y2="382.3"></line>				</g>				<polygon class="st27" points="392.3,404.5 385.1,424.1 382.7,423.2     "></polygon>			</g>			<path class="st20" d="M325.7,319.2c0,0,4.7-8.9,18-3.3"></path>			<polygon class="st5" points="693.8,379.6 707.9,384.9 707.3,391.5 695.2,387.8    "></polygon>			<polygon class="st5" points="543.9,449 648.6,449 650.2,446.2 542.3,446.2    "></polygon>			<path class="st5" d="M694.3,263.1c0,0,6.5,5.1,13.1,6.4v-9l-12.2-8L694.3,263.1L694.3,263.1z"></path>			<path class="st5" d="M203.6,263.1c0,0-6.5,5.1-13.1,6.4v-10l12.2-7.1L203.6,263.1L203.6,263.1z"></path>		</g>	</g></g></svg>