<svg xmlns="http://www.w3.org/2000/svg" xmlns:xlink="http://www.w3.org/1999/xlink" id="Layer_1" x="0px" y="0px" viewBox="0 0 311.1 75.8" style="enable-background:new 0 0 311.1 75.8;" xml:space="preserve"><style type="text/css">	.st0{fill:#FFFFFF;stroke:#000000;stroke-width:1.3;stroke-miterlimit:10;}</style><g>	<path class="st0" d="M310.2,75.2H1C8.5,59,25,47.7,44,47.7c6.6,0,12.8,1.3,18.5,3.8c15.8-30.2,47.3-50.8,83.8-50.8  c28.1,0,53.4,12.3,70.6,31.8c8.5-3.8,17.8-5.8,27.7-5.8C275.6,26.6,301.7,47.1,310.2,75.2L310.2,75.2z"></path>	<path class="st0" d="M236.4,40.5C229.2,30,217,23,203.2,23s-26,6.9-33.2,17.5"></path>	<path class="st0" d="M86.9,56c-5.4-7.8-14.3-12.9-24.5-12.9S43.3,48.3,37.9,56"></path></g></svg>