<svg xmlns="http://www.w3.org/2000/svg" xmlns:xlink="http://www.w3.org/1999/xlink" width="109.76" height="109.76" viewBox="0 0 109.76 109.76"><defs><style>.e,.f{fill:none;}.f,.g,.h{stroke-miterlimit:10;}.f,.g,.h,.i{stroke:#000;stroke-width:1.3px;}.g{fill:#1488ff;}.h{fill:#fca7fd;}.i{fill:#fff;stroke-linejoin:round;}.j{clip-path:url(#d);}</style><clipPath id="d"><rect class="e" width="109.76" height="109.76" rx="18.26" ry="18.26"></rect></clipPath></defs><g id="a"></g><g id="b"><g id="c"><g><g><g class="j"><g><path class="g" d="M85.32,22.36H46.43c-3.8,0-6.88,3.08-6.88,6.88v24.75c0,3.8,3.08,6.88,6.88,6.88h23.24l11.91,7.35c.6,.37,1.35-.17,1.19-.86l-1.57-6.48h4.13c3.8,0,6.88-3.08,6.88-6.88V29.24c0-3.8-3.08-6.88-6.88-6.88Z"></path><path class="h" d="M26.87,41.43h38.89c3.8,0,6.88,3.08,6.88,6.88v24.75c0,3.8-3.08,6.88-6.88,6.88h-23.24l-11.91,7.35c-.6,.37-1.35-.17-1.19-.86l1.57-6.48h-4.13c-3.8,0-6.88-3.08-6.88-6.88v-24.75c0-3.8,3.08-6.88,6.88-6.88Z"></path><g><circle class="i" cx="58.02" cy="61.38" r="3.87"></circle><circle class="i" cx="46.31" cy="61.38" r="3.87"></circle><circle class="i" cx="34.61" cy="61.38" r="3.87"></circle></g></g></g><rect class="e" width="109.76" height="109.76" rx="18.26" ry="18.26"></rect></g><line class="f" x1="7.22" y1="86.66" x2="7.22" y2="74.54"></line><line class="f" x1="7.22" y1="70.2" x2="7.22" y2="38.39"></line></g></g></g></svg>