<svg xmlns="http://www.w3.org/2000/svg" width="185" height="185" viewBox="0 0 185 185" fill="none"><path d="M92.625 184.25C143.228 184.25 184.25 143.228 184.25 92.625C184.25 42.0219 143.228 1 92.625 1C42.0219 1 1 42.0219 1 92.625C1 143.228 42.0219 184.25 92.625 184.25Z" fill="white" stroke="black" stroke-width="1.5" stroke-miterlimit="10"></path><path d="M77.7719 43.7221L69.4535 54.6817L66.0635 44.7432L74.3955 33.7836L77.7719 43.7221Z" fill="black" stroke="black" stroke-width="1.5" stroke-linejoin="round"></path><path d="M100.671 67.2478L92.339 78.1393C91.5708 76.1926 90.3231 74.4717 88.7117 73.1364C87.1003 71.8011 85.1776 70.8948 83.1221 70.5016L91.4541 59.6101C93.5145 60.0108 95.44 60.9263 97.0515 62.2712C98.6631 63.6161 99.9082 65.3467 100.671 67.3022" fill="black"></path><path d="M100.671 67.2478L92.339 78.1393C91.5708 76.1926 90.3231 74.4717 88.7117 73.1364C87.1003 71.8011 85.1776 70.8948 83.1221 70.5016L91.4541 59.6101C93.5145 60.0108 95.44 60.9263 97.0515 62.2712C98.6631 63.6161 99.9082 65.3467 100.671 67.3022" stroke="black" stroke-width="1.5" stroke-linejoin="round"></path><path d="M123.271 64.0757L114.952 75.0217L92.3389 78.2075L100.671 67.2478L123.271 64.0757Z" fill="black" stroke="black" stroke-width="1.5" stroke-linejoin="round"></path><path d="M83.3265 60.0458L74.9945 70.9373C73.3905 71.4142 71.9673 72.363 70.9102 73.6602L79.2422 62.7687C80.2952 61.467 81.72 60.5172 83.3265 60.0458Z" fill="black"></path><path d="M83.3265 60.0458L74.9945 70.9373C73.3905 71.4142 71.9673 72.363 70.9102 73.6602L79.2422 62.7687C80.2952 61.467 81.72 60.5172 83.3265 60.0458" stroke="black" stroke-width="1.5" stroke-linejoin="round"></path><path d="M89.1259 77.1045L80.7939 88.0505L74.9941 70.9916L83.3262 60.0457L89.1259 77.1045Z" fill="black" stroke="black" stroke-width="1.5" stroke-linejoin="round"></path><path d="M114.924 110.501L106.592 121.392C107.05 120.451 107.305 119.424 107.34 118.378C107.376 117.332 107.19 116.29 106.796 115.32C106.143 113.285 104.793 111.545 102.984 110.406C100.779 109.067 98.3475 108.144 95.8096 107.683L104.142 96.7911C106.68 97.2526 109.111 98.1755 111.316 99.514C113.121 100.655 114.466 102.395 115.115 104.429C115.511 105.398 115.698 106.439 115.666 107.485C115.633 108.531 115.38 109.559 114.924 110.501Z" fill="black"></path><path d="M114.924 110.501L106.592 121.392C107.05 120.451 107.305 119.424 107.34 118.378C107.376 117.332 107.19 116.29 106.796 115.32C106.143 113.285 104.793 111.545 102.984 110.406C100.779 109.067 98.3475 108.144 95.8096 107.683L104.142 96.7911C106.68 97.2526 109.111 98.1755 111.316 99.514C113.121 100.655 114.466 102.395 115.115 104.429C115.511 105.398 115.698 106.439 115.666 107.485C115.633 108.531 115.38 109.559 114.924 110.501" stroke="black" stroke-width="1.5" stroke-linejoin="round"></path><path d="M114.312 111.481L105.98 122.372C106.213 122.069 106.418 121.745 106.593 121.406L114.925 110.514C114.75 110.854 114.545 111.177 114.312 111.481Z" fill="black" stroke="black" stroke-width="1.5" stroke-linejoin="round"></path><path d="M95.3753 95.6202L87.0433 106.512C81.3273 105.987 75.6486 105.114 70.0389 103.898C65.4606 102.778 61.1666 100.715 57.4319 97.8393C53.0889 94.3724 49.9106 89.6596 48.3239 84.3339C45.7825 76.8732 46.5268 70.5198 50.5566 65.2737L58.8887 54.3141C54.8588 59.5965 54.11 65.9499 56.6423 73.3743C58.2265 78.705 61.405 83.4228 65.7503 86.8934C69.4919 89.7655 73.7897 91.8287 78.3709 92.9518C83.9793 94.1874 89.658 95.0785 95.3753 95.6202Z" fill="black"></path><path d="M95.3753 95.6202L87.0433 106.512C81.3273 105.987 75.6486 105.114 70.0389 103.898C65.4606 102.778 61.1666 100.715 57.4319 97.8393C53.0889 94.3724 49.9106 89.6596 48.3239 84.3338C45.7825 76.8732 46.5268 70.5198 50.5566 65.2737L58.8887 54.3141C54.8588 59.5965 54.11 65.9499 56.6423 73.3743C58.2265 78.705 61.405 83.4228 65.7503 86.8934C69.4919 89.7655 73.7897 91.8287 78.3709 92.9518C83.9793 94.1874 89.658 95.0785 95.3753 95.6202" stroke="black" stroke-width="1.5" stroke-linejoin="round"></path><path d="M102.018 115.007L93.6861 125.953L87.0967 106.566L95.4287 95.6201L102.018 115.007Z" fill="black" stroke="black" stroke-width="1.5" stroke-linejoin="round"></path><path d="M134.406 120.317L126.074 131.208C124.932 132.686 123.62 134.025 122.167 135.197C117.818 138.516 112.698 140.676 107.286 141.474L115.618 130.582C121.029 129.786 126.146 127.621 130.485 124.292C131.949 123.127 133.266 121.787 134.406 120.303" fill="black"></path><path d="M134.406 120.317L126.074 131.208C124.932 132.686 123.62 134.025 122.167 135.197C117.818 138.516 112.698 140.676 107.286 141.474L115.618 130.582C121.029 129.786 126.146 127.621 130.485 124.292C131.949 123.127 133.266 121.787 134.406 120.303" stroke="black" stroke-width="1.5" stroke-linejoin="round"></path><path d="M111.072 141.637L102.74 152.583L99.3232 142.522L107.655 131.576L111.072 141.637Z" fill="black" stroke="black" stroke-width="1.5" stroke-linejoin="round"></path><path d="M118.996 140.521L110.664 151.48L102.74 152.583L111.072 141.637L118.996 140.521Z" fill="black" stroke="black" stroke-width="1.5" stroke-linejoin="round"></path><path d="M127.872 87.2881C132.225 90.66 135.41 95.3121 136.98 100.589C138.503 104.737 138.754 109.245 137.702 113.537C136.552 117.825 134.015 121.612 130.486 124.306C126.142 127.615 121.025 129.761 115.619 130.541L118.996 140.48L111.072 141.582L107.628 131.576C99.4093 132.222 91.1744 130.552 83.8568 126.756C77.0162 123.091 71.7738 117.025 69.1396 109.725L91.617 106.566C93.7862 111.413 97.2443 114.227 101.991 115.007L95.3746 95.6202C89.6584 95.0965 83.9797 94.2235 78.3702 93.0062C73.789 91.8831 69.4912 89.8199 65.7496 86.9478C61.4043 83.4772 58.2258 78.7594 56.6416 73.4287C54.1093 65.9861 54.8581 59.6327 58.8879 54.3685C62.9042 49.0997 69.1941 45.5464 77.7303 43.7629L74.3403 33.8244L82.2639 32.708L85.6403 42.6465C94.4987 42.0929 102.182 43.6268 108.689 47.2482C115.326 51.0322 120.46 56.9831 123.23 64.1028L100.616 67.275C99.8533 65.3196 98.6081 63.5888 96.9966 62.2439C95.3851 60.899 93.4595 59.9836 91.3991 59.5828L97.866 78.643C105.345 79.5507 111.185 80.4855 115.388 81.4476C119.908 82.5116 124.159 84.5002 127.872 87.2881ZM114.925 110.433C115.381 109.491 115.633 108.463 115.666 107.417C115.699 106.371 115.511 105.33 115.115 104.361C114.466 102.327 113.122 100.587 111.317 99.4458C109.112 98.1073 106.68 97.1844 104.142 96.7229L110.065 114.149C111.085 113.877 112.042 113.403 112.876 112.756C113.711 112.108 114.408 111.3 114.925 110.378V110.433ZM83.3258 59.9232C81.442 60.4435 79.8264 61.6602 78.8058 63.3268C78.3696 64.2407 78.1353 65.2378 78.1188 66.2503C78.1024 67.2628 78.3042 68.2671 78.7105 69.1946C79.3683 71.1784 80.6598 72.891 82.3864 74.0686C84.4638 75.4375 86.7691 76.4241 89.1936 76.982L83.3258 59.9232Z" fill="white" stroke="black" stroke-width="1.5" stroke-linejoin="round"></path><path d="M107.628 131.576L99.2956 142.467C91.0812 143.122 82.8483 141.452 75.5384 137.648C68.6943 133.984 63.4474 127.917 60.8076 120.616L69.1397 109.725C71.7739 117.025 77.0162 123.091 83.8568 126.756C91.1744 130.553 99.4093 132.222 107.628 131.576Z" fill="black"></path><path d="M107.628 131.576L99.2956 142.467C91.0812 143.122 82.8483 141.452 75.5384 137.648C68.6943 133.984 63.4474 127.917 60.8076 120.616L69.1397 109.725C71.7739 117.025 77.0162 123.091 83.8568 126.756C91.1744 130.553 99.4093 132.222 107.628 131.576" stroke="black" stroke-width="1.5" stroke-linejoin="round"></path><path d="M155.279 40.5363C160.401 46.6977 164.589 53.5785 167.709 60.9579" stroke="black" stroke-width="1.5" stroke-miterlimit="10"></path><path d="M59.9785 18.0308C74.3238 11.7709 90.1677 9.77219 105.618 12.2732C121.069 14.7743 135.473 21.6694 147.111 32.1353" stroke="black" stroke-width="1.5" stroke-miterlimit="10"></path><path d="M92.6529 174.107C80.9632 174.122 69.4084 171.609 58.7803 166.741" stroke="black" stroke-width="1.5" stroke-miterlimit="10"></path></svg>