<svg xmlns="http://www.w3.org/2000/svg" xmlns:xlink="http://www.w3.org/1999/xlink" width="568.35" height="350.3" viewBox="0 0 568.35 350.3"><defs><style>.e,.f{fill:none;}.f,.g,.h,.i,.j{stroke:#000;stroke-miterlimit:10;stroke-width:1.3px;}.k,.h{fill:#000005;}.g{fill:#d5e100;}.i{fill:#fff;}.j{fill:#fca7fd;}.l{clip-path:url(#d);}</style><clipPath id="d"><path class="e" d="M488.74,59.04c-1.34-15.72-15.58-27.17-31.32-26.13l-87.94,5.82c-1.17,.08-2.3,.24-3.43,.45l-60.32,4.16c-23.93,1.65-36.57,9.34-56.73,22.35l-35.41,22.85c-13.75,8.87-32.15,1.78-36.39-14.02l-4.24-15.79c-4.71-17.52-22.02-28.54-39.88-25.4h0c-20.16,3.55-32.99,23.56-27.8,43.36l11.43,43.63,.03,58.44c48.46,113.61,195.36,72.5,195.36,72.5,30.87,30.32,48.72,42.84,48.72,42.84,66.89-24.02,59.69-74.88,59.69-74.88-106.81,7.22-129.05-46.77-129.05-46.77l18.73-1.16c.83,.08,1.68,.12,2.54,.09l67.02-2.53c10.58-.4,18.82-9.29,18.42-19.87h0c-.1-2.77-.8-5.37-1.95-7.71l15.74-1.04c10.64-.7,18.86-9.35,19.28-19.77l9.86-.65c14.24-.94,25.02-13.25,24.08-27.49-.06-.85-.16-1.69-.29-2.51,14.57-2.42,25.15-15.68,23.86-30.77Z"></path></clipPath></defs><g id="a"></g><g id="b"><g id="c"><g><g><path class="g" d="M182.13,92.86l65.88-45.24c14.25-9.78,30.31-18.35,47.24-21.82L413.4,1.25c15.85-3.24,31.37,6.86,34.82,22.67h0c3.45,15.8-6.42,31.44-22.17,35.12l-83.18,19.44-166.65,43.22,5.9-28.85Z"></path><path class="g" d="M488.74,59.04c-1.34-15.72-15.58-27.17-31.32-26.13l-87.94,5.82c-1.17,.08-2.3,.24-3.43,.45l-60.32,4.16c-23.93,1.65-36.57,9.34-56.73,22.35l-35.41,22.85c-13.75,8.87-32.15,1.78-36.39-14.02l-4.24-15.79c-4.71-17.52-22.02-28.54-39.88-25.4h0c-20.16,3.55-32.99,23.56-27.8,43.36l11.43,43.63,.03,58.44c48.46,113.61,195.36,72.5,195.36,72.5,30.87,30.32,48.72,42.84,48.72,42.84,66.89-24.02,59.69-74.88,59.69-74.88-106.81,7.22-129.05-46.77-129.05-46.77l18.73-1.16c.83,.08,1.68,.12,2.54,.09l67.02-2.53c10.58-.4,18.82-9.29,18.42-19.87h0c-.1-2.77-.8-5.37-1.95-7.71l15.74-1.04c10.64-.7,18.86-9.35,19.28-19.77l9.86-.65c14.24-.94,25.02-13.25,24.08-27.49-.06-.85-.16-1.69-.29-2.51,14.57-2.42,25.15-15.68,23.86-30.77Z"></path><path class="g" d="M399.56,219.86s9.17,.44,23.57-.81c10.21-.88,20.14,8.04,18.51,18.15h0c-1.35,8.44-6.52,14.11-15,13.04-11.74-1.48-16.36-3.18-25.74-4.46"></path><path class="g" d="M400.81,235.3s5.87,1.84,15.16,4.44c9.1,2.55,14.66,11.53,10.91,20.21h0c-3.13,7.24-11.43,10.7-18.77,7.81-10.16-4-11.27-5.9-19.37-9.17"></path><path class="g" d="M388.6,255.01s1.66,1.12,14.28,6.82c8.62,3.89,11.31,14.83,5.51,22.3h0c-4.84,6.23-13.75,7.5-20.13,2.87-8.84-6.41-6.17-6.32-13.19-11.53"></path><ellipse class="i" cx="131.09" cy="72.76" rx="35.03" ry="11.18" transform="translate(-9.97 21.95) rotate(-9.22)"></ellipse><ellipse class="h" cx="129.81" cy="72.99" rx="12.14" ry="9.3" transform="translate(-10.02 21.75) rotate(-9.22)"></ellipse><g class="l"><polygon class="h" points="256.54 291.05 13.28 269.66 13.28 118.56 256.54 139.95 256.54 291.05"></polygon></g><g><polygon class="j" points="243.91 276.43 .65 255.04 .65 103.94 243.91 125.33 243.91 276.43"></polygon><polyline class="f" points=".65 103.94 122.28 190.19 243.91 125.33"></polyline><g><ellipse class="h" cx="125.78" cy="190.4" rx="47.29" ry="51.63" transform="translate(-96.74 139.81) rotate(-43.74)"></ellipse><ellipse class="i" cx="122.28" cy="186.9" rx="47.29" ry="51.63" transform="translate(-95.29 136.42) rotate(-43.74)"></ellipse><ellipse class="i" cx="122.28" cy="186.9" rx="40.84" ry="44.6" transform="translate(-95.29 136.42) rotate(-43.74)"></ellipse><path class="k" d="M135.4,205.13c-1.12,1.89-2.76,3.41-4.92,4.55-2.16,1.15-4.73,1.7-7.69,1.67v5.53l-4.44-.45v-5.53c-4.28-.85-7.75-2.54-10.39-5.09-2.64-2.55-3.96-5.69-3.96-9.43l8.34,.85c.14,1.79,.7,3.32,1.71,4.58,1,1.26,2.44,2.15,4.31,2.66v-15.03c-3.05-1.09-5.54-2.13-7.45-3.12-1.91-.99-3.54-2.42-4.89-4.29-1.34-1.87-2.01-4.31-2.01-7.31,0-3.78,1.32-6.78,3.96-8.99,2.64-2.21,6.1-3.31,10.39-3.28v-5.53l4.44,.45v5.53c4.01,.78,7.23,2.37,9.67,4.78,2.44,2.41,3.82,5.53,4.13,9.34l-8.34-.85c-.14-1.43-.68-2.75-1.64-3.96-.96-1.21-2.23-2.11-3.83-2.68v14.76c3.05,1.04,5.54,2.06,7.45,3.05,1.91,.99,3.53,2.41,4.85,4.26,1.32,1.84,1.98,4.27,1.98,7.28,0,2.28-.56,4.36-1.68,6.25Zm-21.8-25.46c1.12,1.16,2.7,2.17,4.75,3.01v-13.8c-1.96,.03-3.52,.57-4.68,1.64-1.16,1.07-1.74,2.6-1.74,4.61,0,1.87,.56,3.38,1.67,4.54Zm13.91,23.32c1.14-1.18,1.71-2.68,1.71-4.5s-.56-3.3-1.67-4.44c-1.12-1.14-2.7-2.13-4.75-2.98v13.87c2-.11,3.58-.76,4.72-1.94Z"></path></g></g><path class="g" d="M134.91,110.29c-24.66,3.28-42.34,17.66-42.34,17.66,0-24,27.01-35.32,27.01-35.32"></path><path class="g" d="M369.48,38.73l88.76-5.87c15.82-1.05,29.5,10.93,30.54,26.75h0c1.05,15.82-10.93,29.5-26.75,30.54l-88.76,5.87"></path><path class="g" d="M382.25,71.92l55.43-3.67c14.24-.94,26.55,9.84,27.49,24.08h0c.94,14.24-9.84,26.55-24.08,27.49l-79.88,5.29"></path><path class="g" d="M361.22,101.61l48.01-2.62c11.39-.75,21.24,7.87,21.99,19.26h0c.75,11.39-7.87,21.24-19.26,21.99l-63.91,4.23"></path><path class="g" d="M336.16,132.15l42.14-1.59c10.57-.4,19.47,7.85,19.87,18.42h0c.4,10.57-7.85,19.47-18.42,19.87l-67.02,2.53"></path><path class="g" d="M343.04,279.83s18.08,15.1,30.13,24.54c5.06,3.97,12.17,3.92,17.18-.1,.09-.08,.19-.15,.29-.23,7.47-6.02,6.69-17.65-1.54-22.59-4.33-2.6-8.84-5.41-12.5-7.94"></path><line class="h" x1="125.7" y1="54.79" x2="127.13" y2="62.09"></line><line class="h" x1="111.15" y1="59.99" x2="114.63" y2="65.21"></line><line class="h" x1="143.95" y1="53.63" x2="142.87" y2="59.99"></line><line class="g" x1="264.31" y1="75.54" x2="283.44" y2="64.41"></line><line class="g" x1="283.44" y1="72.99" x2="303.43" y2="64.41"></line><line class="g" x1="321.77" y1="244.85" x2="333" y2="255.01"></line><line class="g" x1="330.77" y1="235.3" x2="355.45" y2="249.93"></line><line class="g" x1="310.18" y1="171.29" x2="276.13" y2="173.38"></line></g><path class="f" d="M208.13,307.31s92.03,70.59,249.73,29.47"></path><path class="f" d="M358.54,328.48s78.7,17.51,169.37-56.09"></path><line class="f" x1="495.23" y1="125.1" x2="568.35" y2="125.1"></line><line class="f" x1="451.8" y1="144.46" x2="524.93" y2="144.46"></line><polygon class="k" points="293.44 43.66 448.35 26.18 448.77 33.72 293.44 43.66"></polygon></g></g></g></svg>