<svg xmlns="http://www.w3.org/2000/svg" id="a" width="36.64" height="36.64" viewBox="0 0 36.64 36.64"><path d="M16.08,14v2.23h-2.6v3.02h2.6v7.75h3.11v-7.75h2.59l.39-3.02h-2.98v-1.93c0-.87,.24-1.47,1.49-1.47h1.59v-2.7c-.28-.04-1.22-.12-2.32-.12-2.3,0-3.87,1.41-3.87,3.99Z"></path><path d="M19,0C13.79,0,9.1,2.27,5.87,5.87,2.27,9.1,0,13.79,0,19c0,9.73,7.91,17.64,17.64,17.64,5.21,0,9.9-2.27,13.13-5.87,3.6-3.23,5.87-7.92,5.87-13.13C36.64,7.91,28.73,0,19,0Zm10.71,29.71c-2.86,2.54-6.6,4.08-10.71,4.08-8.9,0-16.14-7.25-16.14-16.15,0-4.11,1.54-7.85,4.07-10.71,1.46-1.63,3.24-2.97,5.24-3.91,2.08-.98,4.39-1.52,6.83-1.52,.42,0,.83,.02,1.24,.05,.03,0,.05,0,.08,.01,7.83,.63,14.1,6.88,14.76,14.71,.04,.45,.06,.91,.06,1.37,0,2.41-.53,4.7-1.48,6.75-.94,2.04-2.29,3.85-3.95,5.32Z"></path></svg>