<svg xmlns="http://www.w3.org/2000/svg" xmlns:xlink="http://www.w3.org/1999/xlink" id="Layer_1" x="0px" y="0px" viewBox="0 0 573.9 473.3" style="enable-background:new 0 0 573.9 473.3;" xml:space="preserve"><style type="text/css">	.st0{fill:#E5E5E5;stroke:#000000;stroke-width:1.3;stroke-miterlimit:10;}	.st1{fill:#FFFFFF;stroke:#000000;stroke-width:1.3;stroke-linejoin:round;}	.st2{fill:#FCA7FD;stroke:#000000;stroke-width:1.3;stroke-miterlimit:10;}	.st3{fill:#000005;}	.st4{fill:#000005;stroke:#000000;stroke-width:1.3;stroke-linejoin:round;}	.st5{clip-path:url(#SVGID_00000046330230080040571350000006417648492936227976_);}	.st6{clip-path:url(#SVGID_00000089547187005540030420000002032083420722460349_);}	.st7{clip-path:url(#SVGID_00000039834650628202760330000007852414087096763286_);}	.st8{clip-path:url(#SVGID_00000175290452454231591960000000205806306188353920_);}	.st9{clip-path:url(#SVGID_00000103965239427988266810000007600414376875744651_);}	.st10{fill:#1488FF;stroke:#000000;stroke-width:1.3;stroke-linejoin:round;}	.st11{fill:none;stroke:#000000;stroke-width:1.3;stroke-linejoin:round;}</style><g id="a"></g><g id="b">	<g id="c">		<g>			<g>				<g>					<path class="st0" d="M420,258.4c0,8.1-1.8,15.8-5,22.7c-0.1-0.3-0.3-0.7-0.5-1c-8.7-17.7-27-29.9-48.1-29.9h-75.2v-45.4h75.2      C396,204.8,420,228.8,420,258.4L420,258.4z"></path>					<path class="st1" d="M419.9,306.5c0.1-0.9,0.1-1.8,0.1-2.7L419.9,306.5L419.9,306.5z"></path>				</g>				<g>					<path class="st0" d="M146.1,196.8c0-8.1,1.8-15.8,5-22.7c0.1,0.3,0.3,0.7,0.5,1c8.7,17.7,27,29.9,48.1,29.9h75.2v45.4h-75.2      C170,250.3,146.1,226.4,146.1,196.8L146.1,196.8z"></path>					<path class="st1" d="M146.1,148.7c-0.1,0.9-0.1,1.8-0.1,2.7L146.1,148.7L146.1,148.7z"></path>				</g>			</g>			<path class="st2" d="M286.6,412.3H127.9c-10.2,0-17.1-10.4-13.2-19.8L251.1,65.9C255.9,54.5,267,47,279.4,47h158.7    c10.2,0,17.1,10.4,13.2,19.8L314.9,393.5C310.2,404.9,299,412.3,286.6,412.3L286.6,412.3z"></path>			<path class="st1" d="M146.1,196.8v-45.4c0-0.9,0-1.8,0.1-2.7c0.7-13.7,6.5-26.1,15.6-35.2c9.7-9.7,23.1-15.7,37.9-15.7h278.2    V79.1l47.7,41.1l-2.2,1.9l-32,27.5l-13.6,11.7v-18.1H199.6c-14.8,0-28.2,6-37.9,15.7c-3.6,3.6-6.7,7.8-9.2,12.3    c-0.5,0.9-1,1.9-1.4,2.9C147.9,181,146.1,188.7,146.1,196.8L146.1,196.8z"></path>			<path class="st1" d="M420,258.4v45.4c0,0.9,0,1.8-0.1,2.7c-0.7,13.7-6.5,26.1-15.6,35.2c-9.7,9.7-23.1,15.7-37.9,15.7H88.2V376    l-47.7-41l2.2-1.9l32-27.5l13.6-11.7v18h278.2c14.8,0,28.2-6,37.9-15.7c3.6-3.6,6.7-7.8,9.2-12.3c0.5-0.9,1-1.9,1.5-2.9    C418.2,274.2,420,266.5,420,258.4L420,258.4z"></path>			<path class="st3" d="M252.1,212c0.5,16.4,0.9,32.8,1.1,49.2l-15.4-5.8c10.2-8.6,20.4-16.7,30.8-24.8s20.9-15.9,31.5-23.6    c10.6-7.7,21.5-15.1,32.5-22.2c11-7.1,22.3-13.8,33.9-19.8c-10.8,7.3-21.2,15.2-31.2,23.4c-10.1,8.2-19.8,16.8-29.4,25.6    s-19,17.7-28.2,26.8s-18.4,18.4-27.2,27.7L238,281.7l-3-19c-2.6-16-5.3-32.1-8.1-48.2L252.1,212L252.1,212z"></path>			<g>				<polygon class="st4" points="43.5,106.6 31.8,122 27,108 38.8,92.5     "></polygon>				<g>					<g>						<g>							<defs>								<path id="SVGID_1_" d="M75.8,139.7l-11.7,15.4c-2.8-6.1-7.2-9.8-13-10.9l11.7-15.4C68.6,130,73,133.6,75.8,139.7z"></path>							</defs>							<clipPath id="SVGID_00000083774507191455804100000010630618971181503159_">								<use xlink:href="#SVGID_1_" style="overflow:visible;"></use>							</clipPath>							<g style="clip-path:url(#SVGID_00000083774507191455804100000010630618971181503159_);">								<path class="st4" d="M75.8,139.7l-11.7,15.4c-2.8-6.1-7.2-9.8-13-10.9l11.7-15.4C68.6,130,73,133.6,75.8,139.7"></path>							</g>						</g>					</g>				</g>				<polygon class="st4" points="107.7,135.2 95.9,150.7 64.1,155.1 75.8,139.7     "></polygon>				<g>					<g>						<g>							<defs>								<path id="SVGID_00000013883921224976053820000016391814856811585444_" d="M33.9,148.8l11.7-15.4c1.3-1.7,3.2-2.9,5.7-3.8         L39.6,145C37.1,145.9,35.1,147.1,33.9,148.8L33.9,148.8z"></path>							</defs>							<clipPath id="SVGID_00000056403903936651055520000014554473990277195450_">								<use xlink:href="#SVGID_00000013883921224976053820000016391814856811585444_" style="overflow:visible;"></use>							</clipPath>							<g style="clip-path:url(#SVGID_00000056403903936651055520000014554473990277195450_);">								<path class="st4" d="M51.3,129.6L39.6,145c-2.5,0.9-4.5,2.1-5.7,3.8l11.7-15.4C46.9,131.7,48.8,130.4,51.3,129.6"></path>							</g>						</g>					</g>				</g>				<polygon class="st4" points="59.5,153.6 47.8,169 39.6,145 51.3,129.6     "></polygon>				<g>					<g>						<g>							<defs>								<path id="SVGID_00000150814013805204999090000005748028103840087728_" d="M95.9,200.7l-11.7,15.4c1.3-2.5,1.4-5.3,0.3-8.6         c-1-3-2.8-5.3-5.4-6.9c-2.6-1.6-5.9-2.9-10.1-3.8l11.7-15.4c4.2,0.9,7.6,2.1,10.1,3.8c2.6,1.6,4.3,3.9,5.4,6.9         C97.3,195.4,97.2,198.2,95.9,200.7L95.9,200.7z"></path>							</defs>							<clipPath id="SVGID_00000083054341266584007150000017114208223366730687_">								<use xlink:href="#SVGID_00000150814013805204999090000005748028103840087728_" style="overflow:visible;"></use>							</clipPath>							<g style="clip-path:url(#SVGID_00000083054341266584007150000017114208223366730687_);">								<path class="st4" d="M95.9,200.7l-11.7,15.4c1.3-2.5,1.4-5.3,0.3-8.6c-1-3-2.8-5.3-5.4-6.9c-2.6-1.6-5.9-2.9-10.1-3.8         l11.7-15.4c4.2,0.9,7.6,2.1,10.1,3.8c2.6,1.6,4.3,3.9,5.4,6.9C97.3,195.4,97.2,198.2,95.9,200.7"></path>							</g>						</g>					</g>				</g>				<g>					<g>						<g>							<defs>								<path id="SVGID_00000033344442252933182500000011263218956537613968_" d="M95,202.1l-11.7,15.4c0.3-0.4,0.6-0.9,0.9-1.4         l11.7-15.4C95.6,201.2,95.3,201.6,95,202.1L95,202.1z"></path>							</defs>							<clipPath id="SVGID_00000018919106017547677510000013815746752606492843_">								<use xlink:href="#SVGID_00000033344442252933182500000011263218956537613968_" style="overflow:visible;"></use>							</clipPath>							<g style="clip-path:url(#SVGID_00000018919106017547677510000013815746752606492843_);">								<path class="st4" d="M95,202.1l-11.7,15.4c0.3-0.4,0.6-0.9,0.9-1.4l11.7-15.4C95.6,201.2,95.3,201.6,95,202.1"></path>							</g>						</g>					</g>				</g>				<g>					<g>						<path class="st4" d="M68.4,179.7l-11.7,15.4c-9.8-1-17.8-2.3-24-3.7c-6.1-1.4-12.1-4.3-17.8-8.5c-5.7-4.3-10-10.6-12.8-19       c-3.6-10.5-2.5-19.5,3.2-26.9L17,121.5c-5.7,7.4-6.7,16.4-3.2,26.9c2.9,8.4,7.1,14.8,12.8,19c5.7,4.3,11.6,7.1,17.8,8.5       C50.6,177.5,58.6,178.7,68.4,179.7"></path>					</g>				</g>				<polygon class="st4" points="77.7,207 66,222.5 56.7,195.1 68.4,179.7     "></polygon>				<g>					<g>						<g>							<defs>								<path id="SVGID_00000047760627332600069500000004852955384140950674_" d="M123.3,214.5L111.6,230c-1.5,2-3.4,3.9-5.5,5.6         c-5.3,4.3-12.3,7.3-21,8.9L96.9,229c8.7-1.6,15.7-4.5,21-8.9C120,218.4,121.8,216.5,123.3,214.5L123.3,214.5z"></path>							</defs>							<clipPath id="SVGID_00000076594464930738287160000016637886220779345585_">								<use xlink:href="#SVGID_00000047760627332600069500000004852955384140950674_" style="overflow:visible;"></use>							</clipPath>							<g style="clip-path:url(#SVGID_00000076594464930738287160000016637886220779345585_);">								<path class="st4" d="M123.3,214.5L111.6,230c-1.5,2-3.4,3.9-5.5,5.6c-5.3,4.3-12.3,7.3-21,8.9L96.9,229         c8.7-1.6,15.7-4.5,21-8.9C120,218.4,121.8,216.5,123.3,214.5"></path>							</g>						</g>					</g>				</g>				<polygon class="st4" points="90.5,244.6 78.7,260 73.9,245.8 85.6,230.4     "></polygon>				<polygon class="st4" points="101.6,243 89.9,258.4 78.7,260 90.5,244.6     "></polygon>				<path class="st10" d="M114.1,167.9c5.7,4.2,10,10.4,12.9,18.8c2.2,6.3,2.5,12.4,1,18.2s-4.9,10.9-10.2,15.2     c-5.3,4.3-12.3,7.3-21,8.9l4.8,14l-11.2,1.6l-4.8-14.2c-12.7,0.7-23.8-1.6-33.5-6.8s-16.6-13.2-20.8-24l31.7-4.4     c3.1,6.8,7.9,10.8,14.6,11.9l-9.3-27.3c-9.8-1-17.8-2.3-24-3.7c-6.1-1.4-12.1-4.3-17.8-8.5c-5.7-4.3-10-10.6-12.8-19     C10.2,138,11.3,129,17,121.5c5.7-7.4,14.5-12.4,26.6-15l-4.8-14L49.9,91l4.8,14c12.5-0.8,23.3,1.4,32.5,6.5s16,13,20.5,23.8     l-31.9,4.5c-2.8-6.1-7.2-9.8-13-10.9l9.1,26.8c10.5,1.3,18.8,2.6,24.7,4C102.6,161,108.4,163.8,114.1,167.9L114.1,167.9z      M95.9,200.7c1.3-2.5,1.4-5.3,0.3-8.6c-1-3-2.8-5.3-5.4-6.9c-2.6-1.6-5.9-2.9-10.1-3.8L89,206C92.3,204.9,94.6,203.1,95.9,200.7      M51.3,129.6c-3,1-5.2,2.6-6.4,4.8c-1.2,2.1-1.3,4.9-0.1,8.3c1,2.9,2.7,5.2,5.2,6.9s5.6,3.1,9.5,4.1L51.3,129.6L51.3,129.6z"></path>				<path class="st4" d="M85.6,230.4l-11.7,15.4c-12.7,0.7-23.8-1.6-33.5-6.8s-16.6-13.2-20.8-24l11.7-15.4     c4.2,10.8,11.1,18.8,20.8,24C61.8,228.8,73,231.1,85.6,230.4"></path>			</g>			<g>				<g>					<polygon class="st4" points="550.8,270.5 558,259.9 552.5,239.2 545.2,249.9      "></polygon>					<path class="st4" d="M507.8,269.8c-0.2,0.3-0.4,0.6-0.6,1c-0.1,0.2-0.2,0.5-0.4,0.7c-0.1,0.2-0.2,0.4-0.2,0.6      c-0.1,0.2-0.1,0.4-0.2,0.5c0,0.2-0.1,0.3-0.1,0.5c0,0.1,0,0.3-0.1,0.5c0,0.1,0,0.3,0,0.4s0,0.3,0,0.4s0,0.3,0,0.4      s0,0.3,0.1,0.4c0,0.1,0.1,0.3,0.1,0.5v0.1l5.5,20.6c0,0,0,0,0-0.1s-0.1-0.3-0.1-0.5s0-0.3-0.1-0.4s0-0.3,0-0.4s0-0.3,0-0.4      s0-0.3,0-0.4s0-0.3,0.1-0.5s0.1-0.3,0.1-0.5s0.1-0.4,0.2-0.5c0.1-0.2,0.2-0.4,0.2-0.6c0.1-0.2,0.2-0.5,0.3-0.7      c0.2-0.3,0.4-0.6,0.6-1v-0.1c0.5-0.7,0.9-1.3,1.4-1.8s1-1,1.5-1.4c0.4-0.3,0.9-0.6,1.4-0.9c0.3-0.2,0.5-0.3,0.8-0.4      c0.2-0.1,0.4-0.2,0.7-0.3c0.2-0.1,0.4-0.2,0.6-0.2c0.1,0,0.2,0,0.2-0.1c0.2,0,0.3-0.1,0.5-0.1c0.2-0.1,0.4-0.1,0.7-0.2      c0,0,0.1,0,0.2,0l-2.3,3.4l5.5,20.6l12.9-18.8l2.8,10.2l28.7,9.4c0.2-0.4,0.5-0.8,0.7-1.2c0.5-1,1-2,1.4-3      c0.3-0.8,0.7-1.6,0.9-2.4c0.2-0.7,0.4-1.4,0.6-2c0.2-0.6,0.3-1.2,0.4-1.8c0.1-0.5,0.2-1.1,0.2-1.6c0.1-0.5,0.1-1,0.1-1.5      s0-1,0-1.5s0-1-0.1-1.4c0-0.5-0.1-0.9-0.2-1.4c-0.1-0.5-0.2-1-0.3-1.4c0-0.1,0-0.1,0-0.2l-5.5-20.6c0,0.1,0,0.1,0,0.2      c0.1,0.5,0.2,0.9,0.3,1.4s0.2,0.9,0.2,1.4s0.1,0.9,0.1,1.4s0,1,0,1.5s-0.1,1-0.1,1.5c-0.1,0.5-0.2,1.1-0.2,1.6      c-0.1,0.6-0.2,1.2-0.4,1.8c-0.2,0.7-0.4,1.3-0.6,2c-0.3,0.8-0.6,1.6-0.9,2.4c-0.4,1-0.9,2-1.4,3c-0.2,0.4-0.4,0.8-0.7,1.2      l-25-8.2l-2.3-8.6c-0.4-1.6-1.5-3.1-3.1-4.3l-6.1,8.9l-3.5-12.9c-0.4-0.1-0.8-0.1-1.2-0.2c-0.4,0-0.8-0.1-1.1-0.1s-0.7,0-1,0      s-0.6,0-0.9,0c-0.3,0-0.5,0-0.8,0c-0.2,0-0.5,0-0.7,0.1c-0.2,0-0.5,0.1-0.7,0.1s-0.5,0.1-0.7,0.1s-0.4,0.1-0.7,0.1      c-0.2,0.1-0.5,0.1-0.7,0.2c-0.2,0-0.3,0.1-0.5,0.1c-0.1,0-0.2,0-0.2,0.1c-0.2,0.1-0.4,0.1-0.6,0.2c-0.2,0.1-0.5,0.2-0.7,0.3      c-0.3,0.1-0.5,0.3-0.8,0.4c-0.5,0.3-0.9,0.6-1.4,0.9c-0.5,0.4-1,0.9-1.5,1.4C508.7,268.4,508.3,269,507.8,269.8L507.8,269.8      L507.8,269.8z"></path>					<path class="st4" d="M479.7,312.2c-0.1,0.3-0.2,0.6-0.3,0.9c-0.1,0.3-0.1,0.5-0.2,0.8c0,0.2-0.1,0.5-0.1,0.7s0,0.4,0,0.6      s0,0.4,0,0.6s0,0.4,0,0.6s0,0.4,0.1,0.6s0.1,0.4,0.1,0.6c0,0,0,0,0,0.1l5.5,20.6c0,0,0,0,0-0.1c0-0.2-0.1-0.4-0.1-0.6      s-0.1-0.4-0.1-0.6s0-0.4,0-0.6s0-0.4,0-0.6s0-0.4,0-0.6s0.1-0.5,0.1-0.7c0-0.3,0.1-0.5,0.2-0.8s0.2-0.6,0.3-0.9      c0.1-0.4,0.3-0.7,0.4-1.1c0.2-0.5,0.4-1,0.7-1.4l0,0l-5.5-20.6l0,0c-0.3,0.5-0.5,1-0.7,1.4C480,311.4,479.8,311.8,479.7,312.2      L479.7,312.2z"></path>					<path class="st4" d="M543.5,349.3c0-0.1,0.1-0.1,0.1-0.2c0.8-1.1,1.5-2.3,2-3.4c0.4-0.8,0.8-1.5,1.1-2.3      c0.3-0.6,0.5-1.2,0.7-1.8c0.2-0.5,0.3-1,0.5-1.5c0.1-0.4,0.2-0.9,0.3-1.3s0.1-0.8,0.2-1.2c0-0.4,0.1-0.7,0.1-1.1s0-0.7,0-1      s0-0.7-0.1-1c0-0.3-0.1-0.6-0.1-1c-0.1-0.3-0.1-0.6-0.2-1v-0.1c0-0.1,0-0.2-0.1-0.3l-5.5-20.6c0,0.1,0,0.2,0.1,0.3v0.1      c0.1,0.3,0.2,0.6,0.2,1c0.1,0.3,0.1,0.6,0.1,1c0,0.3,0,0.7,0.1,1c0,0.3,0,0.7,0,1c0,0.4,0,0.7-0.1,1.1c0,0.4-0.1,0.8-0.2,1.2      c-0.1,0.4-0.2,0.9-0.3,1.3c-0.1,0.5-0.3,1-0.5,1.5c-0.2,0.6-0.4,1.2-0.7,1.8c-0.3,0.8-0.7,1.5-1.1,2.3c-0.6,1.1-1.3,2.2-2,3.4      l-0.1,0.2c-1,1.4-2.1,2.8-3.3,4.1c-1.3,1.4-2.7,2.6-4.2,3.8c-1.4,1.1-3,2.2-4.6,3.1c-0.5,0.3-1,0.6-1.5,0.9s-1,0.5-1.5,0.8      c-0.8,0.4-1.6,0.8-2.5,1.1c-0.7,0.3-1.5,0.6-2.3,0.9c-0.7,0.3-1.5,0.5-2.2,0.7s-1.5,0.4-2.2,0.6s-1.5,0.4-2.3,0.5      c-0.8,0.2-1.6,0.3-2.4,0.4s-1.7,0.3-2.5,0.4s-1.5,0.2-2.3,0.2c-0.1,0-0.3,0-0.4,0c-0.8,0.1-1.7,0.1-2.5,0.1c-0.9,0-1.8,0-2.6,0      h-0.1l12.4-18c2.6,2.1,4.3,4.2,5,6.2c0.1,0.2,0.1,0.3,0.2,0.5l-5.5-20.6c0-0.2-0.1-0.3-0.2-0.5c-0.7-2-2.4-4.1-5-6.2l-4.9,7.1      l-3.5-12.9c-7-4.4-12.3-8.2-16-11.5c-3.5-3.1-5.9-6.9-7.1-11.4l5.5,20.6c1.2,4.5,3.6,8.3,7.1,11.4c2.7,2.4,6.4,5.1,10.9,8.1      l-4.8,7l5.4,20.1c-0.7,0-1.5,0-2.2-0.1c-1.1-0.1-2.1-0.1-3.2-0.3c-1.3-0.1-2.5-0.3-3.8-0.5c-1.6-0.3-3.2-0.6-4.8-1      c-1.1-0.3-2.2-0.6-3.3-0.9l-6.5,9.5l-3.5-12.9c-10.5-4.4-17.6-10.1-21.1-17.1c-0.6-1.3-1.1-2.6-1.5-3.9l5.5,20.6      c0.4,1.3,0.9,2.6,1.5,3.9c1.9,3.8,5,7.3,9.1,10.3l4.7,17.5l10,3.3l7.3-10.6c1.1,0.3,2.2,0.6,3.3,0.9c1.6,0.4,3.2,0.7,4.8,1      c1.3,0.2,2.5,0.4,3.8,0.5c1.1,0.1,2.1,0.2,3.2,0.3c1,0,1.9,0.1,2.9,0.1c0.9,0,1.8,0,2.6,0c0.8,0,1.7-0.1,2.5-0.1      c0.1,0,0.3,0,0.4,0c0.8-0.1,1.5-0.1,2.3-0.2s1.7-0.2,2.5-0.4c0.8-0.1,1.6-0.3,2.4-0.5c0.8-0.2,1.5-0.3,2.3-0.5s1.5-0.4,2.2-0.6      s1.5-0.5,2.2-0.7c0.8-0.3,1.5-0.6,2.3-0.9c0.8-0.4,1.7-0.7,2.5-1.1c0.5-0.2,1-0.5,1.5-0.8s1-0.6,1.5-0.9c1.7-1,3.2-2,4.6-3.1      c1.5-1.2,2.9-2.5,4.2-3.8C541.4,352.1,542.5,350.8,543.5,349.3L543.5,349.3z"></path>				</g>				<g>					<path class="st4" d="M512,296.4l-5.5-20.6c-0.5-2-0.1-4,1.4-6.1c1.7-2.5,3.9-4.2,6.6-5.1s5.6-1.1,8.8-0.6l5.5,20.6      c-3.2-0.5-6.2-0.3-8.8,0.6c-2.7,0.9-4.9,2.6-6.6,5.1C511.9,292.4,511.4,294.5,512,296.4L512,296.4z"></path>					<path class="st4" d="M535.9,272.3l5.5,20.6c-0.4-1.6-1.5-3.1-3.1-4.3l-5.5-20.6C534.4,269.2,535.5,270.6,535.9,272.3      L535.9,272.3z"></path>					<path class="st4" d="M479.6,299.7l-5.5-20.6c1.2,4.5,3.6,8.3,7.1,11.4c3.7,3.2,9.1,7.1,16,11.5l5.5,20.6      c-7-4.4-12.3-8.2-16-11.5C483.2,308.1,480.8,304.3,479.6,299.7L479.6,299.7z"></path>					<path class="st4" d="M567,269.7l5.5,20.6c1.6,5.8,0.3,12.3-3.8,19.3l-5.5-20.6C567.3,282,568.6,275.5,567,269.7z"></path>					<path class="st4" d="M484.9,338.3l-5.5-20.6c-0.6-2.4-0.1-5,1.5-8l5.5,20.6C484.7,333.3,484.2,336,484.9,338.3L484.9,338.3z"></path>					<path class="st4" d="M510.7,314.4l5.5,20.6c0-0.2-0.1-0.3-0.2-0.5c-0.7-2-2.4-4.1-5-6.2l-5.5-20.6c2.6,2.1,4.3,4.2,5,6.2      C510.6,314.1,510.7,314.3,510.7,314.4z"></path>					<path class="st4" d="M542.5,311.7l5.5,20.6c0,0.1,0.1,0.2,0.1,0.3l-5.5-20.6C542.5,311.9,542.5,311.8,542.5,311.7L542.5,311.7z      "></path>					<path class="st4" d="M453.8,340l-5.5-20.6c0.4,1.3,0.9,2.6,1.5,3.9c3.5,7,10.6,12.6,21.1,17.1l5.5,20.6      c-10.5-4.4-17.6-10.1-21.1-17.1C454.7,342.6,454.2,341.3,453.8,340L453.8,340z"></path>					<g>						<path class="st3" d="M542.6,312l5.5,20.6c1.2,4.8-0.3,10.4-4.6,16.7c-3.3,4.8-7.8,8.7-13.6,11.8s-12.4,5-20,5.7       c-7.6,0.7-15.4-0.1-23.5-2.5l-5.5-20.6c8.1,2.3,16,3.1,23.5,2.5c7.6-0.7,14.2-2.6,20-5.7s10.3-7,13.6-11.8       C542.3,322.4,543.8,316.9,542.6,312L542.6,312z"></path>						<path class="st11" d="M542.6,312l5.5,20.6c1.2,4.8-0.3,10.4-4.6,16.7c-3.3,4.8-7.8,8.7-13.6,11.8s-12.4,5-20,5.7       c-7.6,0.7-15.4-0.1-23.5-2.5l-5.5-20.6c8.1,2.3,16,3.1,23.5,2.5c7.6-0.7,14.2-2.6,20-5.7s10.3-7,13.6-11.8       C542.3,322.4,543.8,316.9,542.6,312L542.6,312z"></path>					</g>					<path class="st10" d="M542.6,312c1.2,4.8-0.3,10.4-4.6,16.7c-3.3,4.8-7.8,8.7-13.6,11.8s-12.4,5-20,5.7      c-7.6,0.7-15.4-0.1-23.5-2.5l-7.3,10.6l-10-3.3l7.4-10.7c-10.5-4.4-17.6-10.1-21.1-17.1s-2.7-14.6,2.5-23l28.5,9.3      c-3,5.5-2.2,9.8,2.2,13l14.2-20.7c-7-4.4-12.3-8.2-16-11.5c-3.7-3.2-6.2-7.3-7.3-12.1c-1.1-4.9,0.5-10.5,4.8-16.9      c5.4-7.9,13.3-13.2,23.7-15.7c10.3-2.5,21.3-2.2,32.8,0.8l7.3-10.6l10,3.3l-7.3,10.6c10.5,4.3,17.3,9.8,20.5,16.5      s2.4,14.3-2.5,22.7l-28.7-9.4c2.6-4.9,2-8.8-1.7-11.8L519,288c7.3,4.8,12.8,8.8,16.4,11.9C538.9,303.2,541.3,307.2,542.6,312      L542.6,312z M502.4,325.6c3-1.1,5.3-2.8,7-5.3c1.6-2.3,2-4.4,1.2-6.4c-0.7-2-2.4-4.1-5-6.2l-12.7,18.6      C496.2,326.9,499.4,326.7,502.4,325.6 M510.8,282.2l12.5-18.2c-3.2-0.5-6.2-0.3-8.8,0.6c-2.7,0.9-4.9,2.6-6.6,5.1      c-1.5,2.2-1.9,4.3-1.3,6.3C507.1,278,508.5,280.1,510.8,282.2L510.8,282.2z"></path>				</g>			</g>			<path class="st3" d="M377,66.8h-55.3c-2.5,0-3.8-1.8-3-3.9l0,0c0.8-2.2,3.4-3.9,5.9-3.9h55.3c2.5,0,3.8,1.8,3,3.9l0,0    C382.1,65.1,379.5,66.8,377,66.8L377,66.8z"></path>			<polygon class="st3" points="420,143.6 218.8,143.2 213.5,154.1 414.6,154.5    "></polygon>			<polygon class="st3" points="330,357.5 128.8,357.1 123.4,368 324.6,368.4    "></polygon>		</g>	</g></g></svg>