<svg xmlns="http://www.w3.org/2000/svg" xmlns:xlink="http://www.w3.org/1999/xlink" id="Layer_1" x="0px" y="0px" viewBox="0 0 564.2 448.3" style="enable-background:new 0 0 564.2 448.3;" xml:space="preserve"><style type="text/css">	.st0{fill:#FFFFFF;stroke:#000000;stroke-width:1.3;stroke-miterlimit:10;}	.st1{fill:#FFFFFF;stroke:#000000;stroke-width:1.3;stroke-linejoin:round;}	.st2{clip-path:url(#SVGID_00000109007865350588486640000001927779479420495777_);}	.st3{fill:#FCA7FD;stroke:#000000;stroke-width:1.3;stroke-miterlimit:10;}	.st4{fill:none;stroke:#000000;stroke-width:1.3;stroke-linejoin:round;}	.st5{fill:#000005;}	.st6{clip-path:url(#SVGID_00000085223722593258353560000005495889032487014335_);}	.st7{fill:#D5E100;stroke:#252525;stroke-width:1.3;stroke-miterlimit:10;}	.st8{clip-path:url(#SVGID_00000175283764722874796620000015928980394588377994_);}	.st9{fill:#E5E5E5;stroke:#000000;stroke-width:1.3;stroke-miterlimit:10;}	.st10{fill:#000005;stroke:#000000;stroke-width:1.3;stroke-linejoin:round;}</style><g id="a"></g><g id="b">	<g id="c">		<g>			<g>				<g>					<path class="st0" d="M192.9,92.8H31.6c-17.1,0-31,13.9-31,31v123.7c0,17.1,13.9,31,31,31h89.4l65.2,38.9c2.8,1.7,6.2-1,5.2-4.1      l-11.2-34.8h12.7c17.1,0,31-13.9,31-31V123.8C223.8,106.6,210,92.8,192.9,92.8L192.9,92.8z"></path>					<path class="st1" d="M35.2,106.4h136.8c11.2,0,20.3,9.1,20.3,20.3v107c0,11.2-9.1,20.3-20.3,20.3H35.2      c-11.2,0-20.3-9.1-20.3-20.3v-107C14.9,115.5,23.9,106.4,35.2,106.4z"></path>					<g>						<defs>							<path id="SVGID_1_" d="M35.2,106.4h136.8c11.2,0,20.3,9.1,20.3,20.3v107c0,11.2-9.1,20.3-20.3,20.3H35.2        c-11.2,0-20.3-9.1-20.3-20.3v-107C14.9,115.5,23.9,106.4,35.2,106.4z"></path>						</defs>						<clipPath id="SVGID_00000163776786312471434890000003820198348747156636_">							<use xlink:href="#SVGID_1_" style="overflow:visible;"></use>						</clipPath>						<g style="clip-path:url(#SVGID_00000163776786312471434890000003820198348747156636_);">							<g>								<polyline class="st3" points="136.1,196.9 190.1,205.3 195.4,206.4 195.4,311.5 109.1,311.5         "></polyline>								<g>									<path class="st3" d="M136.5,196.9v-36.6c0-18.2-14.7-32.9-32.9-32.9s-32.9,14.7-32.9,32.9v36.6l-0.1-0.2l-59.5,9.2          l2.4,106.3c0,11.6,24.6,21,36.2,21s21-9.4,21-21v-9c0,18.2,14.7,32.9,32.9,32.9s32.9-14.7,32.9-32.9v9c0,11.6,9.4,21,21,21          "></path>									<line class="st4" x1="70.7" y1="190.2" x2="70.7" y2="208.9"></line>									<line class="st4" x1="136.5" y1="188.2" x2="136.5" y2="208.9"></line>									<ellipse class="st1" cx="103.6" cy="161.9" rx="24.7" ry="6.8"></ellipse>									<ellipse class="st5" cx="103.6" cy="161.9" rx="9.7" ry="7.5"></ellipse>								</g>							</g>						</g>					</g>					<path class="st4" d="M35.2,106.4h136.8c11.2,0,20.3,9.1,20.3,20.3v107c0,11.2-9.1,20.3-20.3,20.3H35.2      c-11.2,0-20.3-9.1-20.3-20.3v-107C14.9,115.5,23.9,106.4,35.2,106.4z"></path>				</g>				<g>					<path class="st0" d="M366.2,0.6H205c-17.1,0-31,13.9-31,31v123.7c0,17.1,13.9,31,31,31h49.2l25.3,37.7c1.5,2.2,4.6,2.1,6-0.1      l24-37.6h56.6c17.1,0,31-13.9,31-31V31.6C397.2,14.5,383.3,0.6,366.2,0.6z"></path>					<g>						<path class="st1" d="M217.2,14.3H354c11.2,0,20.3,9.1,20.3,20.3v107c0,11.2-9.1,20.3-20.3,20.3H217.2       c-11.2,0-20.3-9.1-20.3-20.3v-107C196.9,23.4,206,14.3,217.2,14.3z"></path>						<g>							<defs>								<path id="SVGID_00000005985371208283664190000001271513685803730339_" d="M217.2,14.3H354c11.2,0,20.3,9.1,20.3,20.3v107         c0,11.2-9.1,20.3-20.3,20.3H217.2c-11.2,0-20.3-9.1-20.3-20.3v-107C196.9,23.4,206,14.3,217.2,14.3z"></path>							</defs>							<clipPath id="SVGID_00000160879184617861536300000001006041273585155466_">								<use xlink:href="#SVGID_00000005985371208283664190000001271513685803730339_" style="overflow:visible;"></use>							</clipPath>							<g style="clip-path:url(#SVGID_00000160879184617861536300000001006041273585155466_);">								<polyline class="st7" points="317.7,104.8 371.8,113.1 377,114.3 377,219.4 290.8,219.4         "></polyline>								<g>									<path class="st7" d="M318.2,104.8V68.1c0-18.2-14.7-32.9-32.9-32.9S252.4,50,252.4,68.1v36.6l-0.1-0.2l-59.5,9.2l2.4,106.3          c0,11.6,24.6,21,36.2,21s21-9.4,21-21v-9c0,18.2,14.7,32.9,32.9,32.9s32.9-14.7,32.9-32.9v9c0,11.6,9.4,21,21,21"></path>									<line class="st4" x1="252.4" y1="98.1" x2="252.4" y2="116.8"></line>									<line class="st4" x1="318.2" y1="96.1" x2="318.2" y2="116.8"></line>									<ellipse class="st1" cx="285.3" cy="69.8" rx="24.7" ry="6.8"></ellipse>									<ellipse class="st5" cx="285.3" cy="69.8" rx="9.7" ry="7.5"></ellipse>								</g>							</g>						</g>						<path class="st4" d="M217.2,14.3H354c11.2,0,20.3,9.1,20.3,20.3v107c0,11.2-9.1,20.3-20.3,20.3H217.2       c-11.2,0-20.3-9.1-20.3-20.3v-107C196.9,23.4,206,14.3,217.2,14.3z"></path>					</g>				</g>				<g>					<path class="st0" d="M371.3,92.8h161.2c17.1,0,31,13.9,31,31v123.7c0,17.1-13.9,31-31,31H443l-65.2,38.9      c-2.8,1.7-6.2-1-5.2-4.1l11.2-34.8h-12.7c-17.1,0-31-13.9-31-31V123.8C340.3,106.6,354.2,92.8,371.3,92.8L371.3,92.8z"></path>					<g>						<defs>							<path id="SVGID_00000095321697266339940050000007310589591515036305_" d="M391.9,106.4h136.8c11.2,0,20.3,9.1,20.3,20.3v107        c0,11.2-9.1,20.3-20.3,20.3H391.9c-11.2,0-20.3-9.1-20.3-20.3v-107C371.7,115.5,380.7,106.4,391.9,106.4z"></path>						</defs>						<clipPath id="SVGID_00000003817635046769633480000017761039951016032668_">							<use xlink:href="#SVGID_00000095321697266339940050000007310589591515036305_" style="overflow:visible;"></use>						</clipPath>						<g style="clip-path:url(#SVGID_00000003817635046769633480000017761039951016032668_);">							<g>								<polyline class="st9" points="493.1,196.9 547.2,205.3 552.5,206.4 552.5,311.5 466.2,311.5         "></polyline>								<g>									<path class="st9" d="M493.6,196.9v-36.6c0-18.2-14.7-32.9-32.9-32.9s-32.9,14.7-32.9,32.9v36.6l-0.1-0.2l-59.5,9.2          l2.4,106.3c0,11.6,24.6,21,36.2,21s21-9.4,21-21v-9c0,18.2,14.7,32.9,32.9,32.9s32.9-14.7,32.9-32.9v9c0,11.6,9.4,21,21,21          "></path>									<line class="st4" x1="427.8" y1="190.2" x2="427.8" y2="208.9"></line>									<line class="st4" x1="493.6" y1="188.2" x2="493.6" y2="208.9"></line>									<ellipse class="st1" cx="460.7" cy="161.9" rx="24.7" ry="6.8"></ellipse>									<ellipse class="st5" cx="460.7" cy="161.9" rx="9.7" ry="7.5"></ellipse>								</g>							</g>							<g>								<path class="st10" d="M462.6,128.3c0,0-4.9,18-34.5,26.5v31H414c0,0,6.7-8.9,7-28.6S442.2,114.8,462.6,128.3z"></path>								<path class="st10" d="M459.1,128.3c0,0,4.9,18,34.5,26.5v31h14.1c0,0-6.7-8.9-7-28.6S479.4,114.8,459.1,128.3z"></path>							</g>						</g>					</g>					<path class="st4" d="M391.9,106.4h136.8c11.2,0,20.3,9.1,20.3,20.3v107c0,11.2-9.1,20.3-20.3,20.3H391.9      c-11.2,0-20.3-9.1-20.3-20.3v-107C371.7,115.5,380.7,106.4,391.9,106.4z"></path>				</g>				<path class="st10" d="M80.5,139.1c9.2,2.8,18.7,7.5,35.2,0.1c0.2,0.2,0.3,0.4,0.5,0.6c6.3,6.5,13.9,9.2,17,6     c3.1-3.2,0.5-11.1-5.8-17.6s-13.9-9.2-17-6c-1.1,1.2-1.5,2.9-1.2,5c-2.9-1.6-6.3-3.1-10.2-4.3c-11.4-3.5-21.6-2.8-22.9,1.5     c-0.4,1.6,0.3,3.4,2.1,5.3c-7.1-1.3-13.2,0.2-14.2,4c-1.2,4.3,7.8,18.3,13.2,12.6C78.9,144.6,79.3,143.4,80.5,139.1"></path>			</g>		</g>	</g></g></svg>