<svg xmlns="http://www.w3.org/2000/svg" xmlns:xlink="http://www.w3.org/1999/xlink" id="Layer_1" x="0px" y="0px" viewBox="0 0 448.9 448.9" style="enable-background:new 0 0 448.9 448.9;" xml:space="preserve"><style type="text/css">	.st0{fill:#000005;stroke:#000000;stroke-width:1.3;stroke-miterlimit:10;}	.st1{fill:none;stroke:#FFFFFF;stroke-width:1.3;stroke-miterlimit:10;}	.st2{fill:#D5E100;stroke:#000000;stroke-width:1.3;stroke-miterlimit:10;}	.st3{fill:#FFFFFF;stroke:#000000;stroke-width:1.3;stroke-miterlimit:10;}	.st4{clip-path:url(#SVGID_00000166651666827294587550000006454513805603349645_);}	.st5{fill:#FCB1FD;stroke:#000000;stroke-width:1.3;stroke-miterlimit:10;}	.st6{fill:none;stroke:#000000;stroke-width:1.3;stroke-miterlimit:10;}	.st7{fill:#000005;}	.st8{fill:#1488FF;stroke:#000000;stroke-width:1.3;stroke-miterlimit:10;}	.st9{fill:none;}</style><g id="uuid-17e7122d-5e3c-4ddb-b14d-134a2a913d66"></g><g id="uuid-70b9fb5e-c0ee-42b6-8216-e6b782777511">	<g id="uuid-97086307-91f6-4873-94d6-2e5087b3e241">		<g>			<g>									<ellipse transform="matrix(0.1111 -0.9938 0.9938 0.1111 -213.5421 232.0795)" class="st0" cx="23" cy="235.4" rx="19.2" ry="19.8"></ellipse>				<path class="st1" d="M21.3,250.2c-8.4-0.9-14.5-8.3-13.6-16.4"></path>			</g>			<g>				<path class="st2" d="M164.6,167.4l47.9-32.9c10.4-7.1,22.1-13.4,34.4-15.9l86-17.9c11.5-2.4,22.8,5,25.3,16.5l0,0     c2.5,11.5-4.7,22.9-16.1,25.6l-60.5,14.1l-121.3,31.5L164.6,167.4L164.6,167.4z"></path>				<path class="st2" d="M387.8,142.8c-1-11.4-11.3-19.8-22.8-19l-64,4.2c-0.8,0.1-1.7,0.2-2.5,0.3l-43.9,3     c-17.4,1.2-26.6,6.8-41.3,16.3l-25.8,16.6c-10,6.5-23.4,1.3-26.5-10.2l-3.1-11.5c-3.4-12.8-16-20.8-29-18.5l0,0     c-14.7,2.6-24,17.1-20.2,31.6l8.3,31.8l0,42.5c35.3,82.7,142.2,52.8,142.2,52.8c22.5,22.1,35.5,31.2,35.5,31.2     c48.7-17.5,43.4-54.5,43.4-54.5c-77.7,5.3-93.9-34-93.9-34l13.6-0.8c0.6,0.1,1.2,0.1,1.8,0.1l48.8-1.8     c7.7-0.3,13.7-6.8,13.4-14.5l0,0c-0.1-2-0.6-3.9-1.4-5.6l11.5-0.8c7.7-0.5,13.7-6.8,14-14.4l7.2-0.5c10.4-0.7,18.2-9.6,17.5-20     c0-0.6-0.1-1.2-0.2-1.8C381,163.4,388.7,153.7,387.8,142.8L387.8,142.8z"></path>				<path class="st2" d="M322.9,259.8c0,0,6.7,0.3,17.2-0.6c7.4-0.6,14.7,5.8,13.5,13.2l0,0c-1,6.1-4.7,10.3-10.9,9.5     c-8.5-1.1-11.9-2.3-18.7-3.2"></path>				<path class="st2" d="M323.8,271c0,0,4.3,1.3,11,3.2c6.6,1.9,10.7,8.4,7.9,14.7l0,0c-2.3,5.3-8.3,7.8-13.7,5.7     c-7.4-2.9-8.2-4.3-14.1-6.7"></path>				<path class="st2" d="M314.9,285.4c0,0,1.2,0.8,10.4,5c6.3,2.8,8.2,10.8,4,16.2l0,0c-3.5,4.5-10,5.5-14.7,2.1     c-6.4-4.7-4.5-4.6-9.6-8.4"></path>									<ellipse transform="matrix(0.9871 -0.1603 0.1603 0.9871 -22.8371 22.4136)" class="st3" cx="127.5" cy="152.7" rx="25.5" ry="8.1"></ellipse>									<ellipse transform="matrix(0.9871 -0.1603 0.1603 0.9871 -22.8762 22.2668)" class="st0" cx="126.6" cy="152.9" rx="8.8" ry="6.8"></ellipse>				<g>					<defs>						<path id="SVGID_1_" d="M387.8,142.8c-1-11.4-11.3-19.8-22.8-19l-64,4.2c-0.8,0.1-1.7,0.2-2.5,0.3l-43.9,3       c-17.4,1.2-26.6,6.8-41.3,16.3l-25.8,16.6c-10,6.5-23.4,1.3-26.5-10.2l-3.1-11.5c-3.4-12.8-16-20.8-29-18.5l0,0       c-14.7,2.6-24,17.1-20.2,31.6l8.3,31.8l0,42.5c35.3,82.7,142.2,52.8,142.2,52.8c22.5,22.1,35.5,31.2,35.5,31.2       c48.7-17.5,43.4-54.5,43.4-54.5c-77.7,5.3-93.9-34-93.9-34l13.6-0.8c0.6,0.1,1.2,0.1,1.8,0.1l48.8-1.8       c7.7-0.3,13.7-6.8,13.4-14.5l0,0c-0.1-2-0.6-3.9-1.4-5.6l11.5-0.8c7.7-0.5,13.7-6.8,14-14.4l7.2-0.5       c10.4-0.7,18.2-9.6,17.5-20c0-0.6-0.1-1.2-0.2-1.8C381,163.4,388.7,153.7,387.8,142.8L387.8,142.8z"></path>					</defs>					<clipPath id="SVGID_00000059295085752877117740000004480863679084923044_">						<use xlink:href="#SVGID_1_" style="overflow:visible;"></use>					</clipPath>					<g style="clip-path:url(#SVGID_00000059295085752877117740000004480863679084923044_);">						<polygon class="st0" points="218.8,311.6 41.8,296.1 41.8,186.1 218.8,201.6       "></polygon>					</g>				</g>				<g>					<polygon class="st5" points="209.6,301 32.6,285.4 32.6,175.4 209.6,191      "></polygon>					<polyline class="st6" points="32.6,175.4 121.1,238.2 209.6,191      "></polyline>					<g>													<ellipse transform="matrix(0.7225 -0.6914 0.6914 0.7225 -130.4956 151.6354)" class="st0" cx="123.6" cy="238.4" rx="34.4" ry="37.6"></ellipse>													<ellipse transform="matrix(0.7225 -0.6914 0.6914 0.7225 -129.4427 149.1705)" class="st3" cx="121.1" cy="235.8" rx="34.4" ry="37.6"></ellipse>													<ellipse transform="matrix(0.7225 -0.6914 0.6914 0.7225 -129.4427 149.1705)" class="st3" cx="121.1" cy="235.8" rx="29.7" ry="32.5"></ellipse>						<path class="st7" d="M130.6,249.1c-0.8,1.4-2,2.5-3.6,3.3c-1.6,0.8-3.4,1.2-5.6,1.2v4l-3.2-0.3v-4c-3.1-0.6-5.6-1.9-7.6-3.7       c-1.9-1.9-2.9-4.1-2.9-6.9l6.1,0.6c0.1,1.3,0.5,2.4,1.2,3.3c0.7,0.9,1.8,1.6,3.1,1.9v-10.9c-2.2-0.8-4-1.5-5.4-2.3       c-1.4-0.7-2.6-1.8-3.6-3.1c-1-1.4-1.5-3.1-1.5-5.3c0-2.8,1-4.9,2.9-6.5c1.9-1.6,4.4-2.4,7.6-2.4v-4l3.2,0.3v4       c2.9,0.6,5.3,1.7,7,3.5c1.8,1.8,2.8,4,3,6.8l-6.1-0.6c-0.1-1-0.5-2-1.2-2.9c-0.7-0.9-1.6-1.5-2.8-2v10.7       c2.2,0.8,4,1.5,5.4,2.2c1.4,0.7,2.6,1.8,3.5,3.1c1,1.3,1.4,3.1,1.4,5.3C131.9,246.2,131.4,247.7,130.6,249.1L130.6,249.1z        M114.8,230.6c0.8,0.8,2,1.6,3.5,2.2v-10c-1.4,0-2.6,0.4-3.4,1.2c-0.8,0.8-1.3,1.9-1.3,3.4C113.6,228.6,114,229.7,114.8,230.6       L114.8,230.6z M124.9,247.5c0.8-0.9,1.2-2,1.2-3.3s-0.4-2.4-1.2-3.2c-0.8-0.8-2-1.6-3.5-2.2v10.1       C122.9,248.9,124.1,248.4,124.9,247.5L124.9,247.5z"></path>					</g>				</g>				<path class="st2" d="M130.3,180.1c-18,2.4-30.8,12.9-30.8,12.9c0-17.5,19.7-25.7,19.7-25.7"></path>				<path class="st2" d="M301,128l64.6-4.3c11.5-0.8,21.5,8,22.2,19.5l0,0c0.8,11.5-8,21.5-19.5,22.2l-64.6,4.3"></path>				<path class="st2" d="M310.3,152.1l40.3-2.7c10.4-0.7,19.3,7.2,20,17.5l0,0c0.7,10.4-7.2,19.3-17.5,20l-58.1,3.8"></path>				<path class="st2" d="M295,173.7l34.9-1.9c8.3-0.5,15.5,5.7,16,14l0,0c0.5,8.3-5.7,15.5-14,16l-46.5,3.1"></path>				<path class="st2" d="M276.7,196l30.7-1.2c7.7-0.3,14.2,5.7,14.5,13.4l0,0c0.3,7.7-5.7,14.2-13.4,14.5l-48.8,1.8"></path>				<path class="st2" d="M281.8,303.4c0,0,13.2,11,21.9,17.9c3.7,2.9,8.9,2.9,12.5-0.1c0.1-0.1,0.1-0.1,0.2-0.2     c5.4-4.4,4.9-12.8-1.1-16.4c-3.1-1.9-6.4-3.9-9.1-5.8"></path>				<line class="st6" x1="123.6" y1="139.7" x2="124.6" y2="145"></line>				<line class="st6" x1="113" y1="143.5" x2="115.5" y2="147.3"></line>				<line class="st6" x1="136.9" y1="138.8" x2="136.1" y2="143.5"></line>				<line class="st6" x1="224.5" y1="154.8" x2="238.4" y2="146.7"></line>				<line class="st6" x1="238.4" y1="152.9" x2="252.9" y2="146.7"></line>				<line class="st6" x1="266.3" y1="278" x2="274.4" y2="285.4"></line>				<line class="st6" x1="272.8" y1="271" x2="290.8" y2="281.7"></line>				<line class="st6" x1="257.8" y1="224.5" x2="233.1" y2="226"></line>			</g>			<path class="st6" d="M183.6,323.5c0,0,67,51.4,181.8,21.4"></path>			<path class="st6" d="M293,338.9c0,0,57.3,12.7,123.3-40.8"></path>			<line class="st6" x1="392.5" y1="190.8" x2="445.7" y2="190.8"></line>			<line class="st6" x1="360.9" y1="204.9" x2="414.1" y2="204.9"></line>			<polygon class="st7" points="245.7,131.6 358.4,118.8 358.7,124.3    "></polygon>			<path class="st8" d="M392.5,242c3.2-12.1,31.9-4.4,0,19.6C360.6,237.6,389.3,229.8,392.5,242z"></path>			<path class="st8" d="M48.1,138c3.2-12.1,31.9-4.4,0,19.6C16.2,133.6,45,125.9,48.1,138z"></path>			<path class="st8" d="M327.9,219.3c4.4-16.8,44.2-6,0,27.1C283.7,213.3,323.5,202.5,327.9,219.3z"></path>			<g>									<ellipse transform="matrix(0.9739 -0.227 0.227 0.9739 -71.7663 38.5538)" class="st0" cx="131.7" cy="331.2" rx="14.6" ry="14.1"></ellipse>				<path class="st1" d="M120.7,333.8c-1.4-5.9,2.4-11.8,8.5-13.2"></path>			</g>		</g>		<rect class="st9" width="448.9" height="448.9"></rect>	</g></g><polygon class="st5" points="-155.9,186.5 -399.1,165.1 -399.1,14 -155.9,35.4 "></polygon></svg>