<svg xmlns="http://www.w3.org/2000/svg" xmlns:xlink="http://www.w3.org/1999/xlink" id="Layer_1" x="0px" y="0px" viewBox="0 0 380.6 380.6" style="enable-background:new 0 0 380.6 380.6;" xml:space="preserve"><style type="text/css">	.st0{fill:none;stroke:#000000;stroke-width:1.3;stroke-miterlimit:10;}	.st1{fill:#FFFFFF;}	.st2{fill:#000005;stroke:#000000;stroke-width:1.3;stroke-miterlimit:10;}	.st3{fill:none;stroke:#FFFFFF;stroke-width:1.3;stroke-miterlimit:10;}	.st4{fill:#D5E100;stroke:#252525;stroke-width:1.3;stroke-miterlimit:10;}	.st5{fill:#FFFFFF;stroke:#000000;stroke-width:1.3;stroke-miterlimit:10;}	.st6{fill:#FCB1FD;stroke:#000000;stroke-width:1.3;stroke-miterlimit:10;}	.st7{fill:#1488FF;stroke:#252525;stroke-width:1.3;stroke-miterlimit:10;}	.st8{fill:#000005;stroke:#000000;stroke-width:1.3;stroke-linejoin:round;}	.st9{fill:none;stroke:#000000;stroke-width:1.3;stroke-linejoin:round;}	.st10{stroke:#000000;stroke-width:1.3;stroke-miterlimit:10;}	.st11{fill:#000005;}	.st12{fill:none;}</style><g id="uuid-fa7e9d41-ca25-4c9b-a404-192ca5a017c0"></g><g id="uuid-d522ee54-7a4d-41be-828e-d4224d97a30e">	<g id="uuid-c4db668f-9dfb-4bde-a9ac-43773a780a3d">		<g>			<line class="st0" x1="342.9" y1="293" x2="377.7" y2="293"></line>			<g>				<g>					<rect x="109.4" y="134.5" class="st1" width="6.6" height="139.8"></rect>					<path d="M115.3,135.2v138.5H110V135.2H115.3 M116.6,133.9h-7.9V275h7.9V133.9L116.6,133.9L116.6,133.9z"></path>				</g>				<g>					<rect x="268.7" y="134.5" class="st1" width="6.6" height="139.8"></rect>					<path d="M274.7,135.2v138.5h-5.3V135.2H274.7 M276,133.9H268V275h7.9V133.9L276,133.9L276,133.9z"></path>				</g>			</g>			<g>									<ellipse transform="matrix(0.9739 -0.227 0.227 0.9739 -27.1793 79.8861)" class="st2" cx="333.7" cy="158.1" rx="14.8" ry="14.3"></ellipse>				<path class="st3" d="M322.5,160.7c-1.4-6,2.5-11.9,8.6-13.4"></path>			</g>			<g>									<ellipse transform="matrix(0.8102 -0.5861 0.5861 0.8102 -154.663 92.0433)" class="st2" cx="64.8" cy="284.9" rx="18.2" ry="18.8"></ellipse>				<path class="st3" d="M56.3,273.1c6.3-4.6,15.2-3,19.9,3.5"></path>			</g>			<g>				<path class="st4" d="M292.2,213.9c-10.7,0-10.7-5.1-21.3-5.1s-10.7,5.1-21.3,5.1s-10.7-5.1-21.3-5.1l-9.3-26.3     c10.7,0,10.7,5.1,21.3,5.1s10.7-5.1,21.3-5.1s10.7,5.1,21.3,5.1L292.2,213.9L292.2,213.9z"></path>									<ellipse transform="matrix(0.997 -7.686868e-02 7.686868e-02 0.997 -14.3919 20.2123)" class="st4" cx="255.4" cy="197.1" rx="9.3" ry="3.7"></ellipse>			</g>			<g>				<path class="st4" d="M93.5,228.9c-8.6,0-8.6-4.1-17.1-4.1s-8.6,4.1-17.1,4.1s-8.6-4.1-17.1-4.1l-7.4-21.1     c8.6,0,8.6,4.1,17.1,4.1s8.6-4.1,17.1-4.1s8.6,4.1,17.1,4.1L93.5,228.9z"></path>									<ellipse transform="matrix(0.997 -7.686862e-02 7.686862e-02 0.997 -16.3702 5.5462)" class="st4" cx="63.9" cy="215.4" rx="7.5" ry="3"></ellipse>			</g>			<g>				<ellipse class="st2" cx="148.5" cy="326.3" rx="12.5" ry="14.1"></ellipse>				<ellipse class="st2" cx="236.2" cy="326.3" rx="12.5" ry="14.1"></ellipse>			</g>			<polygon class="st5" points="271.1,330.2 113.6,330.2 103,243.1 281.7,243.1    "></polygon>			<path class="st5" d="M101.9,240.3h180.9c4.5,0,8.2,3.7,8.2,8.2v0.5c0,4.5-3.7,8.2-8.2,8.2H101.9c-4.5,0-8.2-3.7-8.2-8.2v-0.5    C93.7,244,97.3,240.3,101.9,240.3z"></path>			<path class="st6" d="M127.9,92.3v59.1c0,5-2.4,9.5-6.3,12.7c-3.9,3.3-9.3,5.3-15.2,5.3c-11.9,0-21.5-8.1-21.5-18v-41    c0-5,2.4-9.5,6.3-12.7c3.9-3.3,9.3-5.3,15.2-5.3L127.9,92.3L127.9,92.3z"></path>			<path class="st7" d="M170.9,151.3c0,5-2.4,9.5-6.3,12.7c-3.9,3.3-9.3,5.3-15.2,5.3c-11.9,0-21.5-8.1-21.5-18V92.3h42.9    L170.9,151.3L170.9,151.3z"></path>			<path class="st6" d="M213.8,151.3c0,10-9.6,18-21.5,18s-21.5-8.1-21.5-18l0-59.1h42.9L213.8,151.3L213.8,151.3z"></path>			<path class="st7" d="M256.8,151.3c0,5-2.4,9.5-6.3,12.7c-3.9,3.3-9.3,5.3-15.2,5.3c-11.9,0-21.5-8.1-21.5-18l0-59.1h42.9    L256.8,151.3L256.8,151.3z"></path>			<path class="st6" d="M299.7,110.3v41c0,5-2.4,9.5-6.3,12.7c-3.9,3.3-9.3,5.3-15.2,5.3c-11.9,0-21.5-8.1-21.5-18l-0.1-59.1h21.5    C290.1,92.3,299.7,100.3,299.7,110.3L299.7,110.3z"></path>			<g>				<g>					<g>						<path class="st5" d="M185.4,48l-38.8,32.8l47.8,47.8l0,0c0,0,0,0,0,0c2.1,2.5,10.6-1.1,18.9-8.2c8.3-7,13.3-14.8,11.2-17.2       c0,0,0,0,0,0l0,0L185.4,48L185.4,48z"></path>						<path class="st5" d="M166.9,101.3c0,0,22.7-6,35.3-29.7"></path>						<path class="st5" d="M178.8,113.5c0,0,20.6-6.9,33.4-28.2"></path>					</g>					<path class="st8" d="M156.4,53.1c-10.7,9-17.3,18.9-14.7,22l4.8,5.6c2.6,3.1,13.5-1.7,24.2-10.7c10.7-9,17.3-18.9,14.7-22      l-4.8-5.6C178,39.2,167.1,44,156.4,53.1L156.4,53.1z"></path>					<path class="st8" d="M161.7,59.4c-12,10.2-19.5,21.1-16.8,24.3l2.1,2.5c2.8,3.3,14.8-2.3,26.8-12.4      c12-10.2,19.5-21.1,16.8-24.3l-2.1-2.5C185.8,43.7,173.8,49.2,161.7,59.4z"></path>				</g>				<line class="st0" x1="199.9" y1="76" x2="209.3" y2="90.3"></line>				<line class="st0" x1="194.6" y1="81.5" x2="204" y2="95.8"></line>				<line class="st0" x1="172" y1="99.4" x2="183.6" y2="111.4"></line>				<line class="st0" x1="178.8" y1="95.3" x2="190.3" y2="107.3"></line>				<line class="st0" x1="187.6" y1="89.6" x2="197.9" y2="101.9"></line>			</g>			<g>				<path class="st1" d="M110.7,307c10.2,0,10.2,7.7,20.5,7.7s10.2-7.7,20.5-7.7s10.2,7.7,20.5,7.7s10.2-7.7,20.5-7.7     s10.2,7.7,20.5,7.7s10.2-7.7,20.5-7.7s10.2,7.7,20.5,7.7c10.2,0,10.2-7.7,20.5-7.7"></path>				<path class="st9" d="M110.7,307c10.2,0,10.2,7.7,20.5,7.7s10.2-7.7,20.5-7.7s10.2,7.7,20.5,7.7s10.2-7.7,20.5-7.7     s10.2,7.7,20.5,7.7s10.2-7.7,20.5-7.7s10.2,7.7,20.5,7.7c10.2,0,10.2-7.7,20.5-7.7"></path>			</g>			<polygon class="st8" points="105.4,262.9 279.3,262.9 280,257.2 104.7,257.2    "></polygon>			<polygon class="st2" points="157.9,92.1 194.3,128.5 146.5,92.3    "></polygon>			<polygon class="st10" points="158.9,240.3 137.4,240.3 134.8,208.3 161.6,208.3    "></polygon>			<polygon class="st10" points="190.9,240.3 174.8,240.3 172.8,216.3 192.8,216.3    "></polygon>			<g>				<path class="st4" d="M339.6,313.8c-14.2,0-14.2-6.7-28.3-6.7s-14.2,6.7-28.3,6.7s-14.2-6.7-28.3-6.7l-12.3-34.9     c14.2,0,14.2,6.7,28.3,6.7s14.2-6.7,28.3-6.7s14.2,6.7,28.3,6.7L339.6,313.8z"></path>									<ellipse transform="matrix(0.997 -7.686868e-02 7.686868e-02 0.997 -21.5479 23.2029)" class="st4" cx="290.6" cy="291.5" rx="12.4" ry="4.9"></ellipse>			</g>			<line class="st0" x1="295.5" y1="195.8" x2="326.7" y2="195.8"></line>			<line class="st0" x1="311.1" y1="201.3" x2="342.2" y2="201.3"></line>			<line class="st0" x1="65.3" y1="192.3" x2="84.3" y2="192.3"></line>			<line class="st0" x1="76" y1="197.7" x2="95" y2="197.7"></line>			<line class="st0" x1="347.6" y1="285.1" x2="366.9" y2="285.1"></line>			<path class="st11" d="M268.2,213.9c0,0,3-1.8,7.5,0v-5.4l-7.5-0.4V213.9z"></path>			<polygon class="st11" points="110,177.1 115.3,175.8 115.3,167.6 109.3,169.4    "></polygon>			<polygon class="st11" points="274.7,177.1 269.3,175.8 269.3,167.6 275.3,169.4    "></polygon>		</g>		<rect class="st12" width="380.6" height="380.6"></rect>	</g></g></svg>