<svg xmlns="http://www.w3.org/2000/svg" xmlns:xlink="http://www.w3.org/1999/xlink" id="Layer_1" x="0px" y="0px" viewBox="0 0 247.9 68.5" style="enable-background:new 0 0 247.9 68.5;" xml:space="preserve"><style type="text/css">	.st0{fill:#D5E100;stroke:#252525;stroke-width:1.3;stroke-miterlimit:10;}	.st1{fill:#D5E100;stroke:#252525;stroke-width:1.2999;stroke-miterlimit:9.9996;}	.st2{fill:none;stroke:#000000;stroke-width:1.3;stroke-miterlimit:10;}</style><g id="a"></g><g id="b">	<g id="c">		<g>			<g>				<path class="st0" d="M247,67.9c-22.8,0-22.8-10.8-45.6-10.8s-22.8,10.8-45.6,10.8S133,57,110.2,57L90.3,0.6     c22.8,0,22.8,10.8,45.6,10.8s22.8-10.8,45.6-10.8s22.8,10.8,45.6,10.8C227.2,11.6,247,67.9,247,67.9z"></path>									<ellipse transform="matrix(0.997 -7.689606e-02 7.689606e-02 0.997 -1.9511 13.0199)" class="st1" cx="168.1" cy="31.8" rx="20" ry="7.9"></ellipse>			</g>			<line class="st2" x1="42" y1="34.3" x2="84.2" y2="34.3"></line>			<line class="st2" x1="0" y1="18.2" x2="67" y2="18.2"></line>		</g>	</g></g></svg>