<svg xmlns="http://www.w3.org/2000/svg" xmlns:xlink="http://www.w3.org/1999/xlink" id="Layer_1" x="0px" y="0px" viewBox="0 0 380.6 380.6" style="enable-background:new 0 0 380.6 380.6;" xml:space="preserve"><style type="text/css">	.st0{fill:#000005;stroke:#000000;stroke-width:1.3;stroke-miterlimit:10;}	.st1{fill:none;stroke:#FFFFFF;stroke-width:1.3;stroke-miterlimit:10;}	.st2{fill:#FFFFFF;stroke:#000000;stroke-width:1.3;stroke-miterlimit:10;}	.st3{fill:#FFFFFF;stroke:#000000;stroke-width:1.3;stroke-linejoin:round;}	.st4{clip-path:url(#SVGID_00000138567023791842190080000011699524765700351154_);}	.st5{fill:#FCB1FD;stroke:#000000;stroke-width:1.3;stroke-miterlimit:10;}	.st6{fill:none;stroke:#000000;stroke-width:1.3;stroke-linejoin:round;}	.st7{fill:#000005;}	.st8{clip-path:url(#SVGID_00000017478802992115743050000005755571122009347719_);}	.st9{fill:#D5E100;stroke:#252525;stroke-width:1.3;stroke-miterlimit:10;}	.st10{clip-path:url(#SVGID_00000130625371774258691770000018034498581318991752_);}	.st11{fill:#E5E5E5;stroke:#000000;stroke-width:1.3;stroke-miterlimit:10;}	.st12{fill:#000005;stroke:#000000;stroke-width:1.3;stroke-linejoin:round;}	.st13{fill:#1488FF;stroke:#252525;stroke-width:1.3;stroke-miterlimit:10;}	.st14{clip-path:url(#SVGID_00000097496586291528323630000011533221503255244985_);}	.st15{clip-path:url(#SVGID_00000117642373352305893600000013740960421236737213_);}	.st16{clip-path:url(#SVGID_00000057869895191299861520000007295770074810629532_);}	.st17{clip-path:url(#SVGID_00000038408927813629102500000006114829984378381242_);}	.st18{clip-path:url(#SVGID_00000016043632431717161690000016550482623329385906_);}	.st19{clip-path:url(#SVGID_00000042007915604119398140000006497745734397395622_);}	.st20{fill:none;stroke:#000000;stroke-width:1.3;stroke-miterlimit:10;}	.st21{fill:none;}</style><g id="uuid-c5284f83-0d33-4cf1-a6d7-33bcb13d2a92"></g><g id="uuid-5c968476-28af-46a8-85a7-4aff4d9a1670">	<g id="uuid-b0599f5f-d675-49f9-ab8a-ef3b1d4c426c">		<g>			<g>									<ellipse transform="matrix(0.2099 -0.9777 0.9777 0.2099 -118.2582 484.6903)" class="st0" cx="240.8" cy="315.5" rx="16.8" ry="16.3"></ellipse>				<path class="st1" d="M243.5,302.8c6.8,1.5,11.1,8.3,9.6,15.3"></path>			</g>			<g>									<ellipse transform="matrix(0.6583 -0.7528 0.7528 0.6583 -84.6664 308.8683)" class="st0" cx="297.9" cy="247.7" rx="22.7" ry="23.4"></ellipse>				<path class="st1" d="M311.5,259.6c-6.4,7.3-17.6,7.9-25.1,1.3"></path>			</g>			<g>				<g>					<path class="st2" d="M130.2,113.1H21.7c-11.5,0-20.9,9.3-20.9,20.9v83.3c0,11.5,9.3,20.9,20.9,20.9h60.2l43.9,26.2      c1.9,1.1,4.2-0.7,3.5-2.8l-7.6-23.4h8.5c11.5,0,20.9-9.3,20.9-20.9V134C151.1,122.4,141.7,113.1,130.2,113.1z"></path>					<path class="st3" d="M24,122.3h92.1c7.5,0,13.7,6.1,13.7,13.7v72c0,7.5-6.1,13.7-13.7,13.7H24c-7.5,0-13.7-6.1-13.7-13.7v-72      C10.4,128.4,16.5,122.3,24,122.3z"></path>					<g>						<defs>							<path id="SVGID_1_" d="M24,122.3h92.1c7.5,0,13.7,6.1,13.7,13.7v72c0,7.5-6.1,13.7-13.7,13.7H24c-7.5,0-13.7-6.1-13.7-13.7        v-72C10.4,128.4,16.5,122.3,24,122.3z"></path>						</defs>						<clipPath id="SVGID_00000082338880415667998830000004459423121727743131_">							<use xlink:href="#SVGID_1_" style="overflow:visible;"></use>						</clipPath>						<g style="clip-path:url(#SVGID_00000082338880415667998830000004459423121727743131_);">							<g>								<polyline class="st5" points="92,183.2 128.4,188.8 131.9,189.6 131.9,260.4 73.8,260.4         "></polyline>								<g>									<path class="st5" d="M92.3,183.2v-24.7c0-12.2-9.9-22.2-22.2-22.2S48,146.3,48,158.5v24.7l-0.1-0.1l-40.1,6.2l1.6,71.6          c0,7.8,16.6,14.2,24.4,14.2S48,268.7,48,260.8v-6C48,267,57.9,277,70.1,277s22.2-9.9,22.2-22.2v6c0,7.8,6.3,14.2,14.2,14.2          "></path>									<line class="st6" x1="48" y1="178.7" x2="48" y2="191.3"></line>									<line class="st6" x1="92.3" y1="177.3" x2="92.3" y2="191.3"></line>									<ellipse class="st3" cx="70.1" cy="159.6" rx="16.7" ry="4.6"></ellipse>									<ellipse class="st7" cx="70.1" cy="159.6" rx="6.5" ry="5"></ellipse>								</g>							</g>						</g>					</g>					<path class="st6" d="M24,122.3h92.1c7.5,0,13.7,6.1,13.7,13.7v72c0,7.5-6.1,13.7-13.7,13.7H24c-7.5,0-13.7-6.1-13.7-13.7v-72      C10.4,128.4,16.5,122.3,24,122.3z"></path>				</g>				<g>					<path class="st2" d="M246.9,51.1H138.4c-11.5,0-20.9,9.3-20.9,20.9v83.3c0,11.5,9.3,20.9,20.9,20.9h33.1l17.1,25.4      c1,1.5,3.1,1.4,4.1,0l16.2-25.3h38.1c11.5,0,20.9-9.3,20.9-20.9V71.9C267.8,60.4,258.5,51.1,246.9,51.1z"></path>					<g>						<path class="st3" d="M146.6,60.2h92.1c7.5,0,13.7,6.1,13.7,13.7v72c0,7.5-6.1,13.7-13.7,13.7h-92.1c-7.5,0-13.7-6.1-13.7-13.7       v-72C133,66.4,139.1,60.2,146.6,60.2z"></path>						<g>							<defs>								<path id="SVGID_00000177454003799334731360000000605950038995996304_" d="M146.6,60.2h92.1c7.5,0,13.7,6.1,13.7,13.7v72         c0,7.5-6.1,13.7-13.7,13.7h-92.1c-7.5,0-13.7-6.1-13.7-13.7v-72C133,66.4,139.1,60.2,146.6,60.2z"></path>							</defs>							<clipPath id="SVGID_00000045603497912044470500000007891647122259373732_">								<use xlink:href="#SVGID_00000177454003799334731360000000605950038995996304_" style="overflow:visible;"></use>							</clipPath>							<g style="clip-path:url(#SVGID_00000045603497912044470500000007891647122259373732_);">								<polyline class="st9" points="214.3,121.2 250.7,126.8 254.2,127.6 254.2,198.3 196.2,198.3         "></polyline>								<g>									<path class="st9" d="M214.6,121.2V96.5c0-12.2-9.9-22.2-22.2-22.2s-22.2,9.9-22.2,22.2v24.7l-0.1-0.1l-40.1,6.2l1.6,71.6          c0,7.8,16.6,14.2,24.4,14.2s14.2-6.3,14.2-14.2v-6c0,12.2,9.9,22.2,22.2,22.2s22.2-9.9,22.2-22.2v6          c0,7.8,6.3,14.2,14.2,14.2"></path>									<line class="st6" x1="170.3" y1="116.7" x2="170.3" y2="129.3"></line>									<line class="st6" x1="214.6" y1="115.3" x2="214.6" y2="129.3"></line>									<ellipse class="st3" cx="192.5" cy="97.6" rx="16.7" ry="4.6"></ellipse>									<ellipse class="st7" cx="192.5" cy="97.6" rx="6.5" ry="5"></ellipse>								</g>							</g>						</g>						<path class="st6" d="M146.6,60.2h92.1c7.5,0,13.7,6.1,13.7,13.7v72c0,7.5-6.1,13.7-13.7,13.7h-92.1c-7.5,0-13.7-6.1-13.7-13.7       v-72C133,66.4,139.1,60.2,146.6,60.2z"></path>					</g>				</g>				<g>					<path class="st2" d="M250.4,113.1h108.6c11.5,0,20.9,9.3,20.9,20.9v83.3c0,11.5-9.3,20.9-20.9,20.9h-60.2l-43.9,26.2      c-1.9,1.1-4.2-0.7-3.5-2.8l7.6-23.4h-8.5c-11.5,0-20.9-9.3-20.9-20.9V134C229.5,122.4,238.9,113.1,250.4,113.1L250.4,113.1z"></path>					<path class="st3" d="M264.3,122.3h92.1c7.5,0,13.7,6.1,13.7,13.7v72c0,7.5-6.1,13.7-13.7,13.7h-92.1c-7.5,0-13.7-6.1-13.7-13.7      v-72C250.6,128.4,256.7,122.3,264.3,122.3z"></path>					<g>						<defs>							<path id="SVGID_00000023271852286481568180000008683162445938145943_" d="M264.3,122.3h92.1c7.5,0,13.7,6.1,13.7,13.7v72        c0,7.5-6.1,13.7-13.7,13.7h-92.1c-7.5,0-13.7-6.1-13.7-13.7v-72C250.6,128.4,256.7,122.3,264.3,122.3z"></path>						</defs>						<clipPath id="SVGID_00000182527854339624316800000004359130139133672856_">							<use xlink:href="#SVGID_00000023271852286481568180000008683162445938145943_" style="overflow:visible;"></use>						</clipPath>						<g style="clip-path:url(#SVGID_00000182527854339624316800000004359130139133672856_);">							<g>								<polyline class="st11" points="332.4,183.2 368.8,188.8 372.4,189.6 372.4,260.4 314.3,260.4         "></polyline>								<g>									<path class="st11" d="M332.7,183.2v-24.7c0-12.2-9.9-22.2-22.2-22.2s-22.2,9.9-22.2,22.2v24.7l-0.1-0.1l-40.1,6.2l1.6,71.6          c0,7.8,16.6,14.2,24.4,14.2s14.2-6.3,14.2-14.2v-6c0,12.2,9.9,22.2,22.2,22.2s22.2-9.9,22.2-22.2v6          c0,7.8,6.3,14.2,14.2,14.2"></path>									<line class="st6" x1="288.4" y1="178.7" x2="288.4" y2="191.3"></line>									<line class="st6" x1="332.7" y1="177.3" x2="332.7" y2="191.3"></line>									<ellipse class="st3" cx="310.6" cy="159.6" rx="16.7" ry="4.6"></ellipse>									<ellipse class="st7" cx="310.6" cy="159.6" rx="6.5" ry="5"></ellipse>								</g>							</g>							<g>								<path class="st12" d="M311.2,136.4c0,0-3.3,12.1-23.2,17.9v20.9h-9.5c0,0,4.5-6,4.7-19.3S297.5,127.2,311.2,136.4z"></path>								<path class="st12" d="M309.5,136.4c0,0,3.3,12.1,23.2,17.9v20.9h9.5c0,0-4.5-6-4.7-19.3S323.2,127.2,309.5,136.4z"></path>							</g>						</g>					</g>					<path class="st6" d="M264.3,122.3h92.1c7.5,0,13.7,6.1,13.7,13.7v72c0,7.5-6.1,13.7-13.7,13.7h-92.1c-7.5,0-13.7-6.1-13.7-13.7      v-72C250.6,128.4,256.7,122.3,264.3,122.3z"></path>				</g>				<path class="st12" d="M54.6,144.3c6.2,1.9,12.6,5,23.7,0.1c0.1,0.1,0.2,0.3,0.4,0.4c4.2,4.4,9.4,6.2,11.5,4     c2.1-2.2,0.3-7.4-3.9-11.8c-4.2-4.4-9.4-6.2-11.5-4c-0.8,0.8-1,2-0.8,3.4c-1.9-1.1-4.3-2.1-6.9-2.9c-7.7-2.3-14.6-1.9-15.4,1     c-0.3,1.1,0.2,2.3,1.4,3.6c-4.8-0.9-8.9,0.2-9.6,2.7c-0.8,2.9,5.2,12.3,8.9,8.5C53.5,148,53.7,147.2,54.6,144.3"></path>			</g>			<g>				<circle class="st13" cx="190.3" cy="297.1" r="54.9"></circle>				<g>					<polygon class="st12" points="181.4,267.8 176.4,274.4 174.4,268.4 179.4,261.9      "></polygon>					<g>						<g>							<defs>								<path id="SVGID_00000137854704697788624050000013627588044931573426_" d="M195.1,281.9l-5,6.6c-1.2-2.6-3-4.1-5.5-4.6l5-6.6         C192.1,277.8,193.9,279.3,195.1,281.9z"></path>							</defs>							<clipPath id="SVGID_00000183235943585330705970000008040996129971085700_">								<use xlink:href="#SVGID_00000137854704697788624050000013627588044931573426_" style="overflow:visible;"></use>							</clipPath>							<g style="clip-path:url(#SVGID_00000183235943585330705970000008040996129971085700_);">								<path class="st12" d="M195.1,281.9l-5,6.6c-1.2-2.6-3-4.1-5.5-4.6l5-6.6C192.1,277.8,193.9,279.3,195.1,281.9"></path>							</g>						</g>					</g>					<polygon class="st12" points="208.7,280 203.7,286.6 190.1,288.5 195.1,281.9      "></polygon>					<g>						<g>							<defs>								<path id="SVGID_00000098905905796229144240000013631239314214783676_" d="M177.3,285.8l5-6.6c0.5-0.7,1.3-1.2,2.4-1.6         l-5,6.6C178.7,284.5,177.8,285.1,177.3,285.8z"></path>							</defs>							<clipPath id="SVGID_00000019661979272175389850000017343770960749628058_">								<use xlink:href="#SVGID_00000098905905796229144240000013631239314214783676_" style="overflow:visible;"></use>							</clipPath>							<g style="clip-path:url(#SVGID_00000019661979272175389850000017343770960749628058_);">								<path class="st12" d="M184.7,277.6l-5,6.6c-1.1,0.4-1.9,0.9-2.4,1.6l5-6.6C182.8,278.5,183.6,278,184.7,277.6"></path>							</g>						</g>					</g>					<polygon class="st12" points="188.2,287.8 183.2,294.4 179.7,284.2 184.7,277.6      "></polygon>					<g>						<g>							<defs>								<path id="SVGID_00000029757737597061447430000010473440180843293599_" d="M203.7,307.8l-5,6.6c0.5-1,0.6-2.3,0.1-3.6         c-0.4-1.3-1.2-2.3-2.3-3c-1.1-0.7-2.5-1.2-4.3-1.6l5-6.6c1.8,0.4,3.2,0.9,4.3,1.6c1.1,0.7,1.8,1.7,2.3,3         C204.2,305.6,204.2,306.8,203.7,307.8z"></path>							</defs>							<clipPath id="SVGID_00000096045551449705480700000008861135129194384803_">								<use xlink:href="#SVGID_00000029757737597061447430000010473440180843293599_" style="overflow:visible;"></use>							</clipPath>							<g style="clip-path:url(#SVGID_00000096045551449705480700000008861135129194384803_);">								<path class="st12" d="M203.7,307.8l-5,6.6c0.5-1,0.6-2.3,0.1-3.6c-0.4-1.3-1.2-2.3-2.3-3c-1.1-0.7-2.5-1.2-4.3-1.6l5-6.6         c1.8,0.4,3.2,0.9,4.3,1.6c1.1,0.7,1.8,1.7,2.3,3C204.2,305.6,204.2,306.8,203.7,307.8"></path>							</g>						</g>					</g>					<g>						<g>							<defs>								<path id="SVGID_00000035517833858525987620000011725371512234593155_" d="M203.3,308.4l-5,6.6c0.1-0.2,0.3-0.4,0.4-0.6         l5-6.6C203.6,308,203.4,308.2,203.3,308.4z"></path>							</defs>							<clipPath id="SVGID_00000017502007342215311740000003905107911176507834_">								<use xlink:href="#SVGID_00000035517833858525987620000011725371512234593155_" style="overflow:visible;"></use>							</clipPath>							<g style="clip-path:url(#SVGID_00000017502007342215311740000003905107911176507834_);">								<path class="st12" d="M203.3,308.4l-5,6.6c0.1-0.2,0.3-0.4,0.4-0.6l5-6.6C203.6,308,203.4,308.2,203.3,308.4"></path>							</g>						</g>					</g>					<g>						<g>							<defs>								<path id="SVGID_00000026846477174866812460000001688861227513206150_" d="M192,298.9l-5,6.6c-4.2-0.4-7.6-1-10.2-1.6         c-2.6-0.6-5.1-1.8-7.6-3.6c-2.4-1.8-4.2-4.5-5.5-8.1c-1.5-4.5-1.1-8.3,1.3-11.4l5-6.6c-2.4,3.2-2.9,7-1.3,11.4         c1.2,3.6,3,6.3,5.5,8.1c2.4,1.8,5,3,7.6,3.6C184.4,298,187.8,298.5,192,298.9z"></path>							</defs>							<clipPath id="SVGID_00000149356946030111091270000016877602463328356283_">								<use xlink:href="#SVGID_00000026846477174866812460000001688861227513206150_" style="overflow:visible;"></use>							</clipPath>							<g style="clip-path:url(#SVGID_00000149356946030111091270000016877602463328356283_);">								<path class="st12" d="M192,298.9l-5,6.6c-4.2-0.4-7.6-1-10.2-1.6c-2.6-0.6-5.1-1.8-7.6-3.6c-2.4-1.8-4.2-4.5-5.5-8.1         c-1.5-4.5-1.1-8.3,1.3-11.4l5-6.6c-2.4,3.2-2.9,7-1.3,11.4c1.2,3.6,3,6.3,5.5,8.1c2.4,1.8,5,3,7.6,3.6         C184.4,298,187.8,298.5,192,298.9"></path>							</g>						</g>					</g>					<polygon class="st12" points="195.9,310.5 190.9,317.1 187,305.5 192,298.9      "></polygon>					<g>						<g>							<defs>								<path id="SVGID_00000152959009277570329190000016961045867517592710_" d="M215.3,313.7l-5,6.6c-0.6,0.9-1.4,1.6-2.3,2.4         c-2.2,1.8-5.2,3.1-8.9,3.8l5-6.6c3.7-0.7,6.7-1.9,8.9-3.8C213.9,315.4,214.7,314.6,215.3,313.7z"></path>							</defs>							<clipPath id="SVGID_00000028314956938264685170000001502163955856191675_">								<use xlink:href="#SVGID_00000152959009277570329190000016961045867517592710_" style="overflow:visible;"></use>							</clipPath>							<g style="clip-path:url(#SVGID_00000028314956938264685170000001502163955856191675_);">								<path class="st12" d="M215.3,313.7l-5,6.6c-0.6,0.9-1.4,1.6-2.3,2.4c-2.2,1.8-5.2,3.1-8.9,3.8l5-6.6         c3.7-0.7,6.7-1.9,8.9-3.8C213.9,315.4,214.7,314.6,215.3,313.7"></path>							</g>						</g>					</g>					<polygon class="st12" points="201.4,326.5 196.4,333.1 194.3,327 199.3,320.5      "></polygon>					<polygon class="st12" points="206.1,325.8 201.1,332.4 196.4,333.1 201.4,326.5      "></polygon>					<path class="st3" d="M211.4,293.9c2.4,1.8,4.3,4.4,5.5,8c0.9,2.7,1.1,5.3,0.4,7.8c-0.6,2.5-2.1,4.6-4.3,6.5      c-2.2,1.8-5.2,3.1-8.9,3.8l2,6l-4.7,0.7l-2.1-6c-5.4,0.3-10.1-0.7-14.2-2.9c-4.1-2.2-7.1-5.6-8.8-10.2l13.5-1.9      c1.3,2.9,3.4,4.6,6.2,5.1l-4-11.6c-4.2-0.4-7.6-1-10.2-1.6c-2.6-0.6-5.1-1.8-7.6-3.6c-2.4-1.8-4.2-4.5-5.5-8.1      c-1.5-4.5-1.1-8.3,1.3-11.4c2.4-3.2,6.2-5.3,11.3-6.4l-2-6l4.7-0.7l2,6c5.3-0.3,9.9,0.6,13.8,2.8c3.9,2.2,6.8,5.5,8.7,10.1      l-13.6,1.9c-1.2-2.6-3-4.1-5.5-4.6l3.9,11.4c4.5,0.6,8,1.1,10.5,1.7C206.5,290.9,209,292.1,211.4,293.9L211.4,293.9z       M203.7,307.8c0.5-1,0.6-2.3,0.1-3.6c-0.4-1.3-1.2-2.3-2.3-3c-1.1-0.7-2.5-1.2-4.3-1.6l3.6,10.4      C202.1,309.6,203.1,308.9,203.7,307.8 M184.7,277.6c-1.3,0.4-2.2,1.1-2.7,2c-0.5,0.9-0.5,2.1-0.1,3.5c0.4,1.2,1.1,2.2,2.2,2.9      c1,0.7,2.4,1.3,4,1.7L184.7,277.6L184.7,277.6z"></path>					<path class="st12" d="M199.3,320.5l-5,6.6c-5.4,0.3-10.1-0.7-14.2-2.9c-4.1-2.2-7.1-5.6-8.8-10.2l5-6.6c1.8,4.6,4.7,8,8.8,10.2      C189.2,319.8,193.9,320.8,199.3,320.5"></path>				</g>				<path class="st20" d="M227.8,265.9c3,3.7,5.6,7.8,7.4,12.2"></path>				<path class="st20" d="M170.7,252.4c6-2.6,12.6-4.1,19.6-4.1c12.6,0,24,4.7,32.7,12.5"></path>				<path class="st20" d="M190.3,345.9c-7.2,0-14.1-1.6-20.3-4.4"></path>			</g>			<g>									<ellipse transform="matrix(0.9739 -0.227 0.227 0.9739 -63.1085 26.9162)" class="st0" cx="85.5" cy="287.8" rx="16.8" ry="16.3"></ellipse>				<path class="st1" d="M72.8,290.7c-1.6-6.8,2.8-13.6,9.8-15.2"></path>			</g>		</g>		<rect class="st21" width="380.6" height="380.6"></rect>	</g></g></svg>