<svg xmlns="http://www.w3.org/2000/svg" xmlns:xlink="http://www.w3.org/1999/xlink" id="Layer_1" x="0px" y="0px" viewBox="0 0 164.4 164.4" style="enable-background:new 0 0 164.4 164.4;" xml:space="preserve"><style type="text/css">	.st0{fill:#1488FF;stroke:#252525;stroke-width:1.3;stroke-miterlimit:10;}	.st1{fill:#000005;stroke:#000000;stroke-width:1.3;stroke-linejoin:round;}	.st2{clip-path:url(#SVGID_00000076583993574447906860000007806405558258972068_);}	.st3{clip-path:url(#SVGID_00000060713189816723650600000013640191905019622045_);}	.st4{clip-path:url(#SVGID_00000176741425682671229530000000014260751348919452_);}	.st5{clip-path:url(#SVGID_00000042715906381703082000000006478459726001764763_);}	.st6{clip-path:url(#SVGID_00000111158699838081727540000012647683679567878040_);}	.st7{clip-path:url(#SVGID_00000011002856750993729980000017329947043711125633_);}	.st8{fill:#FFFFFF;stroke:#000000;stroke-width:1.3;stroke-linejoin:round;}	.st9{fill:none;stroke:#000000;stroke-width:1.3;stroke-miterlimit:10;}</style><g id="a"></g><g>	<circle class="st0" cx="82.2" cy="82.2" r="81.6"></circle>	<g>		<polygon class="st1" points="69,38.7 61.6,48.4 58.6,39.6 66,29.8   "></polygon>		<g>			<g>				<defs>					<path id="SVGID_1_" d="M89.4,59.6L82,69.4c-1.8-3.9-4.5-6.2-8.2-6.9l7.4-9.8C84.9,53.5,87.6,55.8,89.4,59.6z"></path>				</defs>				<clipPath id="SVGID_00000082359772218118354240000004130499720041643447_">					<use xlink:href="#SVGID_1_" style="overflow:visible;"></use>				</clipPath>				<g style="clip-path:url(#SVGID_00000082359772218118354240000004130499720041643447_);">					<path class="st1" d="M89.4,59.6L82,69.4c-1.8-3.9-4.5-6.2-8.2-6.9l7.4-9.8C84.9,53.5,87.6,55.8,89.4,59.6"></path>				</g>			</g>		</g>		<polygon class="st1" points="109.5,56.8 102.1,66.5 82,69.4 89.4,59.6   "></polygon>		<g>			<g>				<defs>					<path id="SVGID_00000181087574093961786810000014699324376015092864_" d="M62.9,65.3l7.4-9.8c0.8-1,2-1.8,3.6-2.4l-7.4,9.8      C64.9,63.5,63.7,64.3,62.9,65.3z"></path>				</defs>				<clipPath id="SVGID_00000150789760741903541950000013812342119428613303_">					<use xlink:href="#SVGID_00000181087574093961786810000014699324376015092864_" style="overflow:visible;"></use>				</clipPath>				<g style="clip-path:url(#SVGID_00000150789760741903541950000013812342119428613303_);">					<path class="st1" d="M73.9,53.2l-7.4,9.8c-1.6,0.5-2.8,1.3-3.6,2.4l7.4-9.8C71.1,54.5,72.3,53.8,73.9,53.2"></path>				</g>			</g>		</g>		<polygon class="st1" points="79.1,68.4 71.7,78.1 66.5,62.9 73.9,53.2   "></polygon>		<g>			<g>				<defs>					<path id="SVGID_00000138569214811541574480000015107695479607600565_" d="M102.1,98.1l-7.4,9.8c0.8-1.6,0.9-3.4,0.2-5.4      c-0.6-1.9-1.8-3.4-3.4-4.4c-1.6-1-3.8-1.8-6.4-2.4l7.4-9.8c2.6,0.5,4.8,1.3,6.4,2.4c1.6,1,2.8,2.5,3.4,4.4      C102.9,94.8,102.9,96.5,102.1,98.1z"></path>				</defs>				<clipPath id="SVGID_00000024717012816139262300000001620562800157855414_">					<use xlink:href="#SVGID_00000138569214811541574480000015107695479607600565_" style="overflow:visible;"></use>				</clipPath>				<g style="clip-path:url(#SVGID_00000024717012816139262300000001620562800157855414_);">					<path class="st1" d="M102.1,98.1l-7.4,9.8c0.8-1.6,0.9-3.4,0.2-5.4c-0.6-1.9-1.8-3.4-3.4-4.4c-1.6-1-3.8-1.8-6.4-2.4l7.4-9.8      c2.6,0.5,4.8,1.3,6.4,2.4c1.6,1,2.8,2.5,3.4,4.4C102.9,94.8,102.9,96.5,102.1,98.1"></path>				</g>			</g>		</g>		<g>			<g>				<defs>					<path id="SVGID_00000068677612447783429270000004536272023635612821_" d="M101.5,99l-7.4,9.8c0.2-0.3,0.4-0.6,0.5-0.9l7.4-9.8      C101.9,98.4,101.7,98.7,101.5,99z"></path>				</defs>				<clipPath id="SVGID_00000145043972311363264350000011557317386316947594_">					<use xlink:href="#SVGID_00000068677612447783429270000004536272023635612821_" style="overflow:visible;"></use>				</clipPath>				<g style="clip-path:url(#SVGID_00000145043972311363264350000011557317386316947594_);">					<path class="st1" d="M101.5,99l-7.4,9.8c0.2-0.3,0.4-0.6,0.5-0.9l7.4-9.8C101.9,98.4,101.7,98.7,101.5,99"></path>				</g>			</g>		</g>		<g>			<g>				<defs>					<path id="SVGID_00000018922688097555414210000006804610769608611494_" d="M84.7,84.9l-7.4,9.8C71.1,94,66,93.2,62.2,92.3      c-3.9-0.9-7.6-2.7-11.2-5.4c-3.6-2.7-6.3-6.7-8.1-12c-2.3-6.6-1.6-12.3,2-17l7.4-9.8c-3.6,4.7-4.2,10.4-2,17      c1.8,5.3,4.5,9.3,8.1,12c3.6,2.7,7.4,4.5,11.2,5.4C73.5,83.5,78.5,84.2,84.7,84.9z"></path>				</defs>				<clipPath id="SVGID_00000084519571212769221470000015084875049513363102_">					<use xlink:href="#SVGID_00000018922688097555414210000006804610769608611494_" style="overflow:visible;"></use>				</clipPath>				<g style="clip-path:url(#SVGID_00000084519571212769221470000015084875049513363102_);">					<path class="st1" d="M84.7,84.9l-7.4,9.8C71.1,94,66,93.2,62.2,92.3c-3.9-0.9-7.6-2.7-11.2-5.4c-3.6-2.7-6.3-6.7-8.1-12      c-2.3-6.6-1.6-12.3,2-17l7.4-9.8c-3.6,4.7-4.2,10.4-2,17c1.8,5.3,4.5,9.3,8.1,12c3.6,2.7,7.4,4.5,11.2,5.4      C73.5,83.5,78.5,84.2,84.7,84.9"></path>				</g>			</g>		</g>		<polygon class="st1" points="90.6,102.1 83.2,111.9 77.3,94.6 84.7,84.9   "></polygon>		<g>			<g>				<defs>					<path id="SVGID_00000116952017949871806410000001620215542307610274_" d="M119.4,106.9l-7.4,9.8c-1,1.3-2.1,2.5-3.5,3.5      c-3.3,2.7-7.8,4.6-13.2,5.6l7.4-9.8c5.5-1,9.9-2.9,13.2-5.6C117.3,109.3,118.4,108.1,119.4,106.9z"></path>				</defs>				<clipPath id="SVGID_00000165951878258181867890000000912793661984455831_">					<use xlink:href="#SVGID_00000116952017949871806410000001620215542307610274_" style="overflow:visible;"></use>				</clipPath>				<g style="clip-path:url(#SVGID_00000165951878258181867890000000912793661984455831_);">					<path class="st1" d="M119.4,106.9l-7.4,9.8c-1,1.3-2.1,2.5-3.5,3.5c-3.3,2.7-7.8,4.6-13.2,5.6l7.4-9.8c5.5-1,9.9-2.9,13.2-5.6      C117.3,109.3,118.4,108.1,119.4,106.9"></path>				</g>			</g>		</g>		<polygon class="st1" points="98.6,125.8 91.2,135.6 88.2,126.6 95.6,116.9   "></polygon>		<polygon class="st1" points="105.7,124.8 98.3,134.6 91.2,135.6 98.6,125.8   "></polygon>		<path class="st8" d="M113.6,77.4c3.6,2.6,6.3,6.6,8.1,11.8c1.4,4,1.6,7.9,0.6,11.5c-0.9,3.7-3.1,6.9-6.4,9.6   c-3.3,2.7-7.8,4.6-13.2,5.6l3,8.9l-7,1l-3-9c-8,0.4-15-1-21.1-4.3c-6.1-3.3-10.5-8.4-13.1-15.2l20-2.8c1.9,4.3,5,6.8,9.2,7.5   l-5.9-17.3c-6.2-0.6-11.2-1.4-15.1-2.3c-3.9-0.9-7.6-2.7-11.2-5.4c-3.6-2.7-6.3-6.7-8.1-12c-2.3-6.6-1.6-12.3,2-17   c3.6-4.7,9.2-7.9,16.8-9.5l-3-8.9l7-1l3,8.9c7.9-0.5,14.7,0.9,20.5,4.1c5.8,3.2,10.1,8.2,12.9,15l-20.1,2.8   c-1.8-3.9-4.5-6.2-8.2-6.9l5.8,16.9c6.6,0.8,11.9,1.6,15.6,2.5C106.3,73,109.9,74.8,113.6,77.4L113.6,77.4z M102.1,98.1   c0.8-1.6,0.9-3.4,0.2-5.4c-0.6-1.9-1.8-3.4-3.4-4.4c-1.6-1-3.8-1.8-6.4-2.4l5.3,15.5C99.8,100.8,101.2,99.7,102.1,98.1 M73.9,53.2   c-1.9,0.6-3.3,1.7-4,3c-0.8,1.4-0.8,3.1-0.1,5.2c0.6,1.8,1.7,3.3,3.3,4.3c1.6,1.1,3.6,2,6,2.6L73.9,53.2z"></path>		<path class="st1" d="M95.6,116.9l-7.4,9.8c-8,0.4-15-1-21.1-4.3c-6.1-3.3-10.5-8.4-13.1-15.2l7.4-9.8c2.6,6.8,7,11.9,13.1,15.2   C80.5,115.9,87.6,117.3,95.6,116.9"></path>	</g>	<path class="st9" d="M137.9,35.8c4.5,5.4,8.3,11.5,11.1,18.1"></path>	<path class="st9" d="M53.1,15.8c8.9-3.9,18.7-6.1,29.1-6.1c18.7,0,35.7,7,48.5,18.6"></path>	<path class="st9" d="M82.2,154.7c-10.8,0-21-2.4-30.2-6.5"></path></g></svg>