<svg xmlns="http://www.w3.org/2000/svg" xmlns:xlink="http://www.w3.org/1999/xlink" id="Layer_1" x="0px" y="0px" viewBox="0 0 380.6 380.6" style="enable-background:new 0 0 380.6 380.6;" xml:space="preserve"><style type="text/css">	.st0{fill:#000005;stroke:#000000;stroke-width:1.3;stroke-miterlimit:10;}	.st1{fill:none;stroke:#FFFFFF;stroke-width:1.3;stroke-miterlimit:10;}	.st2{fill:#E5E5E5;stroke:#000000;stroke-width:1.3;stroke-miterlimit:10;}	.st3{fill:#FFFFFF;stroke:#000000;stroke-width:1.3;stroke-linejoin:round;}	.st4{fill:#FCB1FD;stroke:#000000;stroke-width:1.3;stroke-miterlimit:10;}	.st5{fill:#000005;}	.st6{fill:#D5E100;stroke:#252525;stroke-width:1.3;stroke-miterlimit:10;}	.st7{fill:none;stroke:#000000;stroke-width:1.3;stroke-miterlimit:10;}	.st8{fill:#000005;stroke:#000000;stroke-width:1.3;stroke-linejoin:round;}	.st9{clip-path:url(#SVGID_00000032647442620945817720000003884763296297147284_);}	.st10{clip-path:url(#SVGID_00000108295360999913565230000002945723210254840247_);}	.st11{clip-path:url(#SVGID_00000173865385371846256950000014692831485542517944_);}	.st12{clip-path:url(#SVGID_00000183225857254559345530000001731117587015619728_);}	.st13{clip-path:url(#SVGID_00000009564429832145739370000006857016813330925985_);}	.st14{clip-path:url(#SVGID_00000150069298183420590020000016104800597931642282_);}	.st15{fill:#1488FF;stroke:#000000;stroke-width:1.3;stroke-linejoin:round;}	.st16{fill:none;stroke:#000000;stroke-width:1.3;stroke-linejoin:round;}	.st17{fill:none;}</style><g id="uuid-a603266d-f47b-4b95-b22a-76591d240429"></g><g id="uuid-5b1e6abe-f0f0-41e3-b486-e9d35354fe99">	<g id="uuid-34d071a3-0a32-482c-847d-12f2ded88333">		<g>			<g>									<ellipse transform="matrix(0.9739 -0.227 0.227 0.9739 -33.4998 73.5936)" class="st0" cx="303.2" cy="182.4" rx="14.2" ry="13.8"></ellipse>				<path class="st1" d="M292.5,184.9c-1.3-5.7,2.4-11.5,8.3-12.9"></path>			</g>			<g>				<g>					<path class="st2" d="M274.5,213.3c0,4.8-1.1,9.3-3,13.3c-0.1-0.2-0.2-0.4-0.3-0.6c-5.1-10.4-15.8-17.5-28.2-17.5h-44.2v-26.6      h44.2C260.5,181.9,274.5,196,274.5,213.3L274.5,213.3z"></path>					<path class="st3" d="M274.5,241.6c0-0.5,0-1.1,0-1.6L274.5,241.6L274.5,241.6z"></path>				</g>				<g>					<path class="st2" d="M113.8,177.2c0-4.8,1.1-9.3,3-13.3c0.1,0.2,0.2,0.4,0.3,0.6c5.1,10.4,15.8,17.5,28.2,17.5h44.2v26.6h-44.2      C127.9,208.6,113.8,194.6,113.8,177.2L113.8,177.2z"></path>					<path class="st3" d="M113.8,149c0,0.5,0,1.1,0,1.6L113.8,149L113.8,149z"></path>				</g>			</g>			<path class="st4" d="M196.3,303.7h-93.1c-6,0-10-6.1-7.7-11.6l80-191.7c2.8-6.7,9.3-11.1,16.6-11.1h93.1c6,0,10,6.1,7.7,11.6    l-80,191.7C210.1,299.3,203.5,303.7,196.3,303.7L196.3,303.7z"></path>			<path class="st3" d="M113.8,177.2v-26.6c0-0.5,0-1.1,0-1.6c0.4-8,3.8-15.3,9.2-20.6c5.7-5.7,13.5-9.2,22.2-9.2h163.3v-11l28,24.1    l-1.3,1.1l-18.8,16.2l-8,6.9v-10.6H145.2c-8.7,0-16.5,3.5-22.2,9.2c-2.1,2.1-4,4.6-5.4,7.2c-0.3,0.5-0.6,1.1-0.9,1.7    C114.8,167.9,113.8,172.4,113.8,177.2L113.8,177.2z"></path>			<path class="st3" d="M274.5,213.3V240c0,0.5,0,1.1,0,1.6c-0.4,8-3.8,15.3-9.2,20.6c-5.7,5.7-13.5,9.2-22.2,9.2H79.8v11l-28-24.1    l1.3-1.1L71.9,241l8-6.9v10.6h163.3c8.7,0,16.5-3.5,22.2-9.2c2.1-2.1,4-4.6,5.4-7.2c0.3-0.5,0.6-1.1,0.9-1.7    C273.5,222.6,274.5,218.1,274.5,213.3L274.5,213.3z"></path>			<g>									<ellipse transform="matrix(0.7813 -0.6242 0.6242 0.7813 -170.558 150.0714)" class="st0" cx="128.8" cy="318.4" rx="21.1" ry="20.4"></ellipse>				<path class="st1" d="M141.6,308.2c5.5,6.8,4.2,16.9-2.9,22.5"></path>			</g>			<path class="st5" d="M176,186.1c0.3,9.6,0.5,19.2,0.6,28.9l-9-3.4c6-5,12-9.8,18.1-14.6c6.1-4.7,12.2-9.4,18.5-13.9    c6.3-4.5,12.6-8.9,19.1-13c6.5-4.2,13.1-8.1,19.9-11.6c-6.4,4.3-12.4,8.9-18.3,13.8c-5.9,4.8-11.6,9.9-17.3,15    c-5.6,5.1-11.2,10.4-16.6,15.7c-5.4,5.3-10.8,10.8-15.9,16.3l-7.3,7.7l-1.8-11.1c-1.5-9.4-3.1-18.9-4.8-28.3L176,186.1L176,186.1    z"></path>			<g>				<path class="st6" d="M204.5,101.5c-13.4,0-13.4-6.3-26.8-6.3s-13.4,6.3-26.8,6.3s-13.4-6.3-26.8-6.3l-11.6-33     c13.4,0,13.4,6.3,26.8,6.3s13.4-6.3,26.8-6.3s13.4,6.3,26.8,6.3L204.5,101.5L204.5,101.5z"></path>									<ellipse transform="matrix(0.997 -7.686868e-02 7.686868e-02 0.997 -5.7095 12.4001)" class="st6" cx="158.2" cy="80.4" rx="11.7" ry="4.6"></ellipse>			</g>			<g>				<path class="st6" d="M281.1,331.3c-13.4,0-13.4-6.3-26.8-6.3s-13.4,6.3-26.8,6.3s-13.4-6.3-26.8-6.3l-11.6-33     c13.4,0,13.4,6.3,26.8,6.3s13.4-6.3,26.8-6.3s13.4,6.3,26.8,6.3L281.1,331.3L281.1,331.3z"></path>									<ellipse transform="matrix(0.997 -7.686868e-02 7.686868e-02 0.997 -23.1518 18.962)" class="st6" cx="234.7" cy="310.2" rx="11.7" ry="4.6"></ellipse>			</g>			<line class="st7" x1="283.5" y1="303.7" x2="322.8" y2="303.7"></line>			<line class="st7" x1="303.2" y1="314.5" x2="342.5" y2="314.5"></line>			<line class="st7" x1="84.2" y1="81.9" x2="109" y2="81.9"></line>			<line class="st7" x1="59.6" y1="72.4" x2="98.9" y2="72.4"></line>			<g>				<polygon class="st8" points="53.6,124.2 46.7,133.3 43.9,125.1 50.8,116     "></polygon>				<g>					<g>						<defs>							<path id="SVGID_1_" d="M72.6,143.7l-6.9,9.1c-1.7-3.6-4.2-5.7-7.6-6.4l6.9-9.1C68.4,138,70.9,140.1,72.6,143.7L72.6,143.7z"></path>						</defs>						<clipPath id="SVGID_00000144325149444115188140000000646401411177257125_">							<use xlink:href="#SVGID_1_" style="overflow:visible;"></use>						</clipPath>						<g style="clip-path:url(#SVGID_00000144325149444115188140000000646401411177257125_);">							<path class="st8" d="M72.6,143.7l-6.9,9.1c-1.7-3.6-4.2-5.7-7.6-6.4l6.9-9.1C68.4,138,70.9,140.1,72.6,143.7"></path>						</g>					</g>				</g>				<polygon class="st8" points="91.3,141.1 84.4,150.1 65.7,152.8 72.6,143.7     "></polygon>				<g>					<g>						<defs>							<path id="SVGID_00000134949276646874713610000000344896176798988933_" d="M48,149l6.9-9.1c0.7-1,1.9-1.7,3.4-2.2l-6.9,9.1        C49.8,147.3,48.7,148,48,149z"></path>						</defs>						<clipPath id="SVGID_00000177482128064768852980000012204989516687982748_">							<use xlink:href="#SVGID_00000134949276646874713610000000344896176798988933_" style="overflow:visible;"></use>						</clipPath>						<g style="clip-path:url(#SVGID_00000177482128064768852980000012204989516687982748_);">							<path class="st8" d="M58.2,137.7l-6.9,9.1c-1.5,0.5-2.6,1.2-3.4,2.2l6.9-9.1C55.6,139,56.7,138.2,58.2,137.7"></path>						</g>					</g>				</g>				<polygon class="st8" points="63,151.8 56.1,160.9 51.3,146.8 58.2,137.7     "></polygon>				<g>					<g>						<defs>							<path id="SVGID_00000058571712386583769500000017183055652717850805_" d="M84.3,179.5l-6.9,9.1c0.8-1.4,0.8-3.1,0.2-5        c-0.6-1.8-1.6-3.1-3.2-4.1c-1.5-1-3.5-1.7-5.9-2.2l6.9-9.1c2.5,0.5,4.4,1.2,5.9,2.2c1.5,1,2.6,2.3,3.2,4.1        C85.2,176.4,85.1,178,84.3,179.5L84.3,179.5z"></path>						</defs>						<clipPath id="SVGID_00000156585815317867008010000006434394921036039308_">							<use xlink:href="#SVGID_00000058571712386583769500000017183055652717850805_" style="overflow:visible;"></use>						</clipPath>						<g style="clip-path:url(#SVGID_00000156585815317867008010000006434394921036039308_);">							<path class="st8" d="M84.3,179.5l-6.9,9.1c0.8-1.4,0.8-3.1,0.2-5c-0.6-1.8-1.6-3.1-3.2-4.1c-1.5-1-3.5-1.7-5.9-2.2l6.9-9.1        c2.5,0.5,4.4,1.2,5.9,2.2c1.5,1,2.6,2.3,3.2,4.1C85.2,176.4,85.1,178,84.3,179.5"></path>						</g>					</g>				</g>				<g>					<g>						<defs>							<path id="SVGID_00000029741680192435057020000004539514845627262350_" d="M83.8,180.3l-6.9,9.1c0.2-0.3,0.4-0.5,0.5-0.8        l6.9-9.1C84.2,179.8,84,180,83.8,180.3z"></path>						</defs>						<clipPath id="SVGID_00000061467840655920474770000008900107819519851197_">							<use xlink:href="#SVGID_00000029741680192435057020000004539514845627262350_" style="overflow:visible;"></use>						</clipPath>						<g style="clip-path:url(#SVGID_00000061467840655920474770000008900107819519851197_);">							<path class="st8" d="M83.8,180.3l-6.9,9.1c0.2-0.3,0.4-0.5,0.5-0.8l6.9-9.1C84.2,179.8,84,180,83.8,180.3"></path>						</g>					</g>				</g>				<g>					<g>						<defs>							<path id="SVGID_00000075882545554030245300000008065520826134309252_" d="M68.2,167.2l-6.9,9.1c-5.8-0.6-10.5-1.3-14.1-2.2        c-3.6-0.8-7.1-2.5-10.4-5c-3.4-2.5-5.9-6.2-7.5-11.2c-2.1-6.2-1.5-11.4,1.9-15.8L38,133c-3.3,4.4-3.9,9.6-1.9,15.8        c1.7,4.9,4.2,8.7,7.5,11.2c3.4,2.5,6.8,4.2,10.4,5C57.8,165.8,62.4,166.6,68.2,167.2L68.2,167.2z"></path>						</defs>						<clipPath id="SVGID_00000072280303967332006680000015503803152781206433_">							<use xlink:href="#SVGID_00000075882545554030245300000008065520826134309252_" style="overflow:visible;"></use>						</clipPath>						<g style="clip-path:url(#SVGID_00000072280303967332006680000015503803152781206433_);">							<path class="st8" d="M68.2,167.2l-6.9,9.1c-5.8-0.6-10.5-1.3-14.1-2.2c-3.6-0.8-7.1-2.5-10.4-5c-3.4-2.5-5.9-6.2-7.5-11.2        c-2.1-6.2-1.5-11.4,1.9-15.8L38,133c-3.3,4.4-3.9,9.6-1.9,15.8c1.7,4.9,4.2,8.7,7.5,11.2c3.4,2.5,6.8,4.2,10.4,5        C57.8,165.8,62.4,166.6,68.2,167.2"></path>						</g>					</g>				</g>				<polygon class="st8" points="73.7,183.2 66.8,192.3 61.3,176.2 68.2,167.2     "></polygon>				<g>					<g>						<defs>							<path id="SVGID_00000056392632352861019460000012620936518226412180_" d="M100.5,187.6l-6.9,9.1c-0.9,1.2-2,2.3-3.2,3.3        c-3.1,2.5-7.2,4.3-12.3,5.2l6.9-9.1c5.1-0.9,9.2-2.7,12.3-5.2C98.5,189.9,99.6,188.8,100.5,187.6L100.5,187.6z"></path>						</defs>						<clipPath id="SVGID_00000024709887870199322340000011888765660814591881_">							<use xlink:href="#SVGID_00000056392632352861019460000012620936518226412180_" style="overflow:visible;"></use>						</clipPath>						<g style="clip-path:url(#SVGID_00000024709887870199322340000011888765660814591881_);">							<path class="st8" d="M100.5,187.6l-6.9,9.1c-0.9,1.2-2,2.3-3.2,3.3c-3.1,2.5-7.2,4.3-12.3,5.2l6.9-9.1        c5.1-0.9,9.2-2.7,12.3-5.2C98.5,189.9,99.6,188.8,100.5,187.6"></path>						</g>					</g>				</g>				<polygon class="st8" points="81.2,205.2 74.3,214.3 71.4,206 78.3,196.9     "></polygon>				<polygon class="st8" points="87.7,204.3 80.8,213.4 74.3,214.3 81.2,205.2     "></polygon>				<path class="st15" d="M95.1,160.3c3.4,2.5,5.9,6.1,7.5,11c1.3,3.7,1.5,7.3,0.6,10.7c-0.9,3.4-2.9,6.4-6,8.9     c-3.1,2.5-7.2,4.3-12.3,5.2l2.8,8.2l-6.5,0.9l-2.8-8.3c-7.4,0.4-14-0.9-19.7-4c-5.7-3.1-9.7-7.8-12.2-14.1l18.6-2.6     c1.8,4,4.7,6.3,8.6,7l-5.5-16c-5.8-0.6-10.5-1.3-14.1-2.2c-3.6-0.8-7.1-2.5-10.4-5c-3.4-2.5-5.9-6.2-7.5-11.2     c-2.1-6.2-1.5-11.4,1.9-15.8c3.3-4.4,8.5-7.3,15.6-8.8l-2.8-8.2l6.5-0.9l2.8,8.2c7.3-0.5,13.7,0.8,19.1,3.8     c5.4,3,9.4,7.7,12,13.9l-18.7,2.6c-1.7-3.6-4.2-5.7-7.6-6.4l5.3,15.7c6.2,0.8,11,1.5,14.5,2.3C88.3,156.2,91.7,157.8,95.1,160.3     L95.1,160.3z M84.3,179.5c0.8-1.4,0.8-3.1,0.2-5c-0.6-1.8-1.6-3.1-3.2-4.1c-1.5-1-3.5-1.7-5.9-2.2l4.9,14.4     C82.2,182,83.6,180.9,84.3,179.5 M58.2,137.7c-1.8,0.6-3,1.5-3.7,2.8c-0.7,1.3-0.7,2.9-0.1,4.8c0.6,1.7,1.6,3,3,4     c1.4,1,3.3,1.8,5.6,2.4L58.2,137.7L58.2,137.7z"></path>				<path class="st8" d="M78.3,196.9l-6.9,9.1c-7.4,0.4-14-0.9-19.7-4c-5.7-3.1-9.7-7.8-12.2-14.1l6.9-9.1c2.4,6.3,6.5,11,12.2,14.1     C64.3,196,70.9,197.3,78.3,196.9"></path>			</g>			<g>				<g>					<polygon class="st8" points="351.3,220.5 355.6,214.2 352.3,202.1 348,208.3      "></polygon>					<path class="st8" d="M326.1,220c-0.1,0.2-0.2,0.4-0.3,0.6c-0.1,0.1-0.1,0.3-0.2,0.4c-0.1,0.1-0.1,0.2-0.1,0.4      c0,0.1-0.1,0.2-0.1,0.3c0,0.1,0,0.2-0.1,0.3c0,0.1,0,0.2,0,0.3c0,0.1,0,0.2,0,0.3c0,0.1,0,0.2,0,0.3c0,0.1,0,0.2,0,0.3      c0,0.1,0,0.2,0,0.3c0,0.1,0,0.2,0.1,0.3l0,0l3.3,12.1l0,0c0-0.1,0-0.2-0.1-0.3c0-0.1,0-0.2,0-0.3c0-0.1,0-0.2,0-0.3      c0-0.1,0-0.2,0-0.3c0-0.1,0-0.2,0-0.3c0-0.1,0-0.2,0-0.3c0-0.1,0-0.2,0.1-0.3c0-0.1,0.1-0.2,0.1-0.3c0-0.1,0.1-0.2,0.1-0.4      c0.1-0.1,0.1-0.3,0.2-0.4c0.1-0.2,0.2-0.4,0.3-0.6l0,0c0.3-0.4,0.5-0.7,0.8-1.1c0.3-0.3,0.6-0.6,0.9-0.8      c0.3-0.2,0.5-0.4,0.8-0.5c0.2-0.1,0.3-0.2,0.5-0.3c0.1-0.1,0.3-0.1,0.4-0.2c0.1,0,0.2-0.1,0.4-0.1c0,0,0.1,0,0.1,0      c0.1,0,0.2-0.1,0.3-0.1c0.1,0,0.3-0.1,0.4-0.1c0,0,0.1,0,0.1,0l-1.4,2l3.3,12.1l7.6-11l1.6,6l16.8,5.5c0.1-0.2,0.3-0.5,0.4-0.7      c0.3-0.6,0.6-1.2,0.8-1.7c0.2-0.5,0.4-0.9,0.5-1.4c0.1-0.4,0.3-0.8,0.4-1.2c0.1-0.4,0.2-0.7,0.2-1c0.1-0.3,0.1-0.6,0.1-1      c0-0.3,0.1-0.6,0.1-0.9c0-0.3,0-0.6,0-0.9c0-0.3,0-0.6-0.1-0.8c0-0.3-0.1-0.6-0.1-0.8c0-0.3-0.1-0.6-0.2-0.8c0,0,0-0.1,0-0.1      l-3.3-12.1l0,0.1c0.1,0.3,0.1,0.6,0.2,0.8c0,0.3,0.1,0.5,0.1,0.8c0,0.3,0,0.6,0.1,0.8c0,0.3,0,0.6,0,0.9c0,0.3,0,0.6-0.1,0.9      c0,0.3-0.1,0.6-0.1,1c-0.1,0.3-0.1,0.7-0.2,1c-0.1,0.4-0.2,0.8-0.4,1.2c-0.2,0.5-0.3,0.9-0.5,1.4c-0.2,0.6-0.5,1.1-0.8,1.7      c-0.1,0.2-0.3,0.5-0.4,0.7l-14.7-4.8l-1.4-5.1c-0.3-1-0.9-1.8-1.8-2.5l-3.6,5.2l-2-7.6c-0.2,0-0.5-0.1-0.7-0.1      c-0.2,0-0.4,0-0.7-0.1c-0.2,0-0.4,0-0.6,0c-0.2,0-0.3,0-0.5,0c-0.2,0-0.3,0-0.5,0c-0.1,0-0.3,0-0.4,0c-0.1,0-0.3,0-0.4,0.1      c-0.1,0-0.3,0-0.4,0.1c-0.1,0-0.3,0.1-0.4,0.1c-0.1,0-0.3,0.1-0.4,0.1c-0.1,0-0.2,0.1-0.3,0.1c0,0-0.1,0-0.1,0      c-0.1,0-0.2,0.1-0.4,0.1c-0.1,0.1-0.3,0.1-0.4,0.2c-0.2,0.1-0.3,0.2-0.5,0.3c-0.3,0.2-0.5,0.3-0.8,0.5      c-0.3,0.2-0.6,0.5-0.9,0.8C326.6,219.2,326.3,219.6,326.1,220L326.1,220L326.1,220z"></path>					<path class="st8" d="M309.6,244.9c-0.1,0.2-0.1,0.4-0.2,0.5c0,0.2-0.1,0.3-0.1,0.5c0,0.1,0,0.3-0.1,0.4c0,0.1,0,0.3,0,0.4      c0,0.1,0,0.2,0,0.4c0,0.1,0,0.2,0,0.3c0,0.1,0,0.2,0,0.3c0,0.1,0,0.2,0.1,0.3l0,0l3.3,12.1l0,0c0-0.1-0.1-0.2-0.1-0.3      c0-0.1,0-0.2,0-0.3c0-0.1,0-0.2,0-0.3c0-0.1,0-0.2,0-0.4c0-0.1,0-0.3,0-0.4c0-0.1,0-0.3,0.1-0.4c0-0.2,0.1-0.3,0.1-0.5      c0-0.2,0.1-0.4,0.2-0.5c0.1-0.2,0.2-0.4,0.3-0.7c0.1-0.3,0.3-0.6,0.4-0.8l0,0l-3.3-12.1l0,0c-0.2,0.3-0.3,0.6-0.4,0.8      C309.7,244.5,309.7,244.7,309.6,244.9L309.6,244.9z"></path>					<path class="st8" d="M347,266.7c0,0,0.1-0.1,0.1-0.1c0.5-0.7,0.9-1.3,1.2-2c0.2-0.5,0.5-0.9,0.7-1.3c0.2-0.4,0.3-0.7,0.4-1      c0.1-0.3,0.2-0.6,0.3-0.9c0.1-0.3,0.1-0.5,0.2-0.8c0-0.2,0.1-0.5,0.1-0.7c0-0.2,0-0.4,0.1-0.6c0-0.2,0-0.4,0-0.6      c0-0.2,0-0.4,0-0.6c0-0.2,0-0.4-0.1-0.6c0-0.2-0.1-0.4-0.1-0.6l0-0.1c0-0.1,0-0.1,0-0.2l-3.3-12.1c0,0,0,0.1,0,0.2l0,0.1      c0,0.2,0.1,0.4,0.1,0.6c0,0.2,0.1,0.4,0.1,0.6c0,0.2,0,0.4,0,0.6c0,0.2,0,0.4,0,0.6c0,0.2,0,0.4-0.1,0.6c0,0.2-0.1,0.5-0.1,0.7      c0,0.3-0.1,0.5-0.2,0.8c-0.1,0.3-0.2,0.6-0.3,0.9c-0.1,0.3-0.3,0.7-0.4,1c-0.2,0.4-0.4,0.9-0.7,1.3c-0.3,0.6-0.7,1.3-1.2,2      l-0.1,0.1c-0.6,0.8-1.2,1.6-1.9,2.4c-0.7,0.8-1.6,1.5-2.4,2.2c-0.8,0.7-1.7,1.3-2.7,1.8c-0.3,0.2-0.6,0.3-0.9,0.5      c-0.3,0.2-0.6,0.3-0.9,0.4c-0.5,0.2-1,0.4-1.4,0.6c-0.4,0.2-0.9,0.4-1.3,0.5c-0.4,0.2-0.9,0.3-1.3,0.4      c-0.4,0.1-0.9,0.2-1.3,0.4c-0.4,0.1-0.9,0.2-1.3,0.3c-0.5,0.1-0.9,0.2-1.4,0.3c-0.5,0.1-1,0.2-1.5,0.2      c-0.4,0.1-0.9,0.1-1.3,0.1c-0.1,0-0.2,0-0.2,0c-0.5,0-1,0.1-1.5,0.1c-0.5,0-1,0-1.5,0c0,0-0.1,0-0.1,0l7.3-10.6      c1.5,1.3,2.5,2.5,3,3.6c0,0.1,0.1,0.2,0.1,0.3l-3.3-12.1c0-0.1-0.1-0.2-0.1-0.3c-0.4-1.2-1.4-2.4-3-3.6l-2.9,4.2l-2-7.6      c-4.1-2.6-7.2-4.8-9.4-6.7c-2.1-1.8-3.5-4-4.2-6.7l3.3,12.1c0.7,2.7,2.1,4.9,4.2,6.7c1.6,1.4,3.7,3,6.4,4.8l-2.8,4.1l3.2,11.8      c-0.4,0-0.9,0-1.3,0c-0.6,0-1.3-0.1-1.9-0.2c-0.7-0.1-1.5-0.2-2.2-0.3c-0.9-0.2-1.9-0.3-2.8-0.6c-0.7-0.2-1.3-0.3-2-0.5      l-3.8,5.6l-2-7.6c-6.2-2.6-10.3-5.9-12.4-10c-0.4-0.7-0.7-1.5-0.9-2.3l3.3,12.1c0.2,0.8,0.5,1.5,0.9,2.3      c1.1,2.3,2.9,4.3,5.3,6.1l2.7,10.2l5.9,1.9l4.3-6.2c0.7,0.2,1.3,0.4,2,0.5c0.9,0.2,1.9,0.4,2.8,0.6c0.7,0.1,1.5,0.2,2.2,0.3      c0.6,0.1,1.3,0.1,1.9,0.2c0.6,0,1.1,0,1.7,0c0.5,0,1,0,1.5,0c0.5,0,1,0,1.5-0.1c0.1,0,0.2,0,0.2,0c0.5,0,0.9-0.1,1.3-0.1      c0.5-0.1,1-0.1,1.5-0.2c0.5-0.1,0.9-0.2,1.4-0.3c0.4-0.1,0.9-0.2,1.3-0.3c0.4-0.1,0.9-0.2,1.3-0.4c0.4-0.1,0.9-0.3,1.3-0.4      c0.5-0.2,0.9-0.3,1.3-0.5c0.5-0.2,1-0.4,1.4-0.7c0.3-0.1,0.6-0.3,0.9-0.4c0.3-0.2,0.6-0.3,0.9-0.5c1-0.6,1.9-1.2,2.7-1.8      c0.9-0.7,1.7-1.4,2.4-2.2C345.8,268.4,346.5,267.6,347,266.7L347,266.7z"></path>				</g>				<g>					<path class="st8" d="M328.5,235.7l-3.3-12.1c-0.3-1.1,0-2.3,0.8-3.6c1-1.5,2.3-2.5,3.9-3c1.6-0.5,3.3-0.6,5.2-0.3l3.3,12.1      c-1.9-0.3-3.6-0.2-5.2,0.3c-1.6,0.5-2.9,1.5-3.9,3C328.5,233.3,328.2,234.5,328.5,235.7z"></path>					<path class="st8" d="M342.6,221.5l3.3,12.1c-0.3-1-0.9-1.8-1.8-2.5l-3.3-12.1C341.7,219.7,342.3,220.5,342.6,221.5z"></path>					<path class="st8" d="M309.5,237.6l-3.3-12.1c0.7,2.7,2.1,4.9,4.2,6.7c2.2,1.9,5.3,4.2,9.4,6.7l3.3,12.1      c-4.1-2.6-7.2-4.8-9.4-6.7C311.6,242.5,310.2,240.3,309.5,237.6L309.5,237.6z"></path>					<path class="st8" d="M360.8,220l3.3,12.1c0.9,3.4,0.2,7.2-2.2,11.3l-3.3-12.1C361,227.2,361.8,223.4,360.8,220z"></path>					<path class="st8" d="M312.6,260.2l-3.3-12.1c-0.4-1.4-0.1-3,0.9-4.7l3.3,12.1C312.5,257.3,312.2,258.9,312.6,260.2L312.6,260.2      z"></path>					<path class="st8" d="M327.8,246.2l3.3,12.1c0-0.1-0.1-0.2-0.1-0.3c-0.4-1.2-1.4-2.4-3-3.6l-3.3-12.1c1.5,1.3,2.5,2.5,3,3.6      C327.7,246,327.8,246.1,327.8,246.2L327.8,246.2z"></path>					<path class="st8" d="M346.4,244.6l3.3,12.1c0,0.1,0,0.1,0.1,0.2l-3.3-12.1C346.5,244.8,346.5,244.7,346.4,244.6L346.4,244.6z"></path>					<path class="st8" d="M294.4,261.2l-3.3-12.1c0.2,0.8,0.5,1.5,0.9,2.3c2.1,4.1,6.2,7.4,12.4,10l3.3,12.1      c-6.2-2.6-10.3-5.9-12.4-10C294.9,262.8,294.6,262,294.4,261.2L294.4,261.2z"></path>					<g>						<path class="st5" d="M346.5,244.8l3.3,12.1c0.7,2.8-0.2,6.1-2.7,9.8c-1.9,2.8-4.6,5.1-8,6.9c-3.4,1.8-7.3,2.9-11.7,3.3       c-4.4,0.4-9-0.1-13.8-1.4l-3.3-12.1c4.8,1.4,9.4,1.8,13.8,1.4c4.4-0.4,8.4-1.5,11.7-3.3c3.4-1.8,6-4.1,8-6.9       C346.3,250.9,347.2,247.7,346.5,244.8L346.5,244.8z"></path>						<path class="st16" d="M346.5,244.8l3.3,12.1c0.7,2.8-0.2,6.1-2.7,9.8c-1.9,2.8-4.6,5.1-8,6.9c-3.4,1.8-7.3,2.9-11.7,3.3       c-4.4,0.4-9-0.1-13.8-1.4l-3.3-12.1c4.8,1.4,9.4,1.8,13.8,1.4c4.4-0.4,8.4-1.5,11.7-3.3c3.4-1.8,6-4.1,8-6.9       C346.3,250.9,347.2,247.7,346.5,244.8L346.5,244.8z"></path>					</g>					<path class="st15" d="M346.5,244.8c0.7,2.8-0.2,6.1-2.7,9.8c-1.9,2.8-4.6,5.1-8,6.9c-3.4,1.8-7.3,2.9-11.7,3.3      c-4.4,0.4-9-0.1-13.8-1.4l-4.3,6.2l-5.9-1.9l4.3-6.3c-6.2-2.6-10.3-5.9-12.4-10c-2.1-4.1-1.6-8.6,1.5-13.5l16.7,5.5      c-1.7,3.2-1.3,5.7,1.3,7.7l8.3-12.1c-4.1-2.6-7.2-4.8-9.4-6.7c-2.2-1.9-3.6-4.3-4.3-7.1c-0.7-2.9,0.3-6.1,2.8-9.9      c3.2-4.7,7.8-7.7,13.9-9.2c6.1-1.5,12.5-1.3,19.2,0.4l4.3-6.2l5.9,1.9l-4.3,6.2c6.2,2.5,10.2,5.7,12.1,9.7      c1.9,3.9,1.4,8.4-1.5,13.3l-16.8-5.5c1.5-2.9,1.2-5.2-1-6.9l-8.2,11.9c4.3,2.8,7.5,5.2,9.6,7      C344.4,239.7,345.8,242,346.5,244.8L346.5,244.8z M322.9,252.8c1.7-0.6,3.1-1.7,4.1-3.1c0.9-1.3,1.2-2.6,0.7-3.8      c-0.4-1.2-1.4-2.4-3-3.6l-7.5,10.9C319.3,253.6,321.2,253.4,322.9,252.8 M327.8,227.3l7.3-10.7c-1.9-0.3-3.6-0.2-5.2,0.3      c-1.6,0.5-2.9,1.5-3.9,3c-0.9,1.3-1.1,2.5-0.8,3.7C325.7,224.9,326.5,226.1,327.8,227.3L327.8,227.3z"></path>				</g>			</g>			<path class="st5" d="M249.3,100.9h-32.5c-1.4,0-2.2-1-1.8-2.3l0,0c0.5-1.3,2-2.3,3.4-2.3H251c1.4,0,2.2,1,1.8,2.3l0,0    C252.3,99.9,250.8,100.9,249.3,100.9z"></path>			<polygon class="st5" points="274.5,146 156.5,145.8 153.3,152.1 271.4,152.4    "></polygon>			<polygon class="st5" points="221.7,271.5 103.7,271.3 100.5,277.7 218.6,277.9    "></polygon>		</g>		<rect class="st17" width="380.6" height="380.6"></rect>	</g></g></svg>