<svg xmlns="http://www.w3.org/2000/svg" id="a" width="1458" height="443.39" viewBox="0 0 1458 443.39"><path d="M1401.6436,10c25.561,0,46.3564,20.7955,46.3564,46.3564V387.0305c0,25.5627-20.7954,46.3595-46.3564,46.3595H56.3596c-25.5627,0-46.3596-20.7968-46.3596-46.3595V56.3564C10,30.7955,30.7969,10,56.3596,10H1401.6436m0-10H56.3596C25.2322,0,0,25.2322,0,56.3564V387.0305c0,31.1273,25.2322,56.3595,56.3596,56.3595H1401.6436c31.1242,0,56.3564-25.2322,56.3564-56.3595V56.3564c0-31.1242-25.2322-56.3564-56.3564-56.3564h0Z"></path><g><g><path d="M453.4149,126.9373h-40.1872l-8.8096,19.4998h-5.4442l31.8727-69.2886h5.0483l31.8727,69.2886h-5.4442l-8.9085-19.4998Zm-1.8805-4.2561l-18.2132-39.9896-18.1138,39.9896h36.327Z"></path><path d="M517.6557,94.7677l-23.3604,51.6694h-5.0482l-23.2611-51.6694h5.2462l20.5886,46.2252,20.7866-46.2252h5.0483Z"></path><path d="M559.0318,99.2713c3.4303,3.2665,5.1471,8.0672,5.1471,14.4022v32.7636h-4.7514v-9.2056c-1.6501,3.0361-4.0583,5.3947-7.2256,7.0775-3.1674,1.6826-6.963,2.5241-11.3833,2.5241-5.7411,0-10.2789-1.3517-13.6103-4.0585-3.3329-2.705-4.9987-6.2684-4.9987-10.6902,0-4.2886,1.5345-7.77,4.603-10.4426,3.0685-2.6728,7.968-4.0089,14.6991-4.0089h17.7181v-4.1574c0-4.816-1.304-8.4785-3.9101-10.987-2.6076-2.5073-6.4183-3.7614-11.4326-3.7614-3.4318,0-6.7155,.5937-9.8489,1.7817-3.1349,1.1877-5.7904,2.7714-7.968,4.7511l-2.4746-3.5634c2.5734-2.309,5.6744-4.1078,9.3045-5.3946,3.6283-1.2869,7.4236-1.9302,11.383-1.9302,6.4,0,11.3166,1.6333,14.7487,4.8996Zm-6.5827,40.5339c3.0022-1.9797,5.2619-4.8502,6.7807-8.6116v-9.7004h-17.6193c-5.0821,0-8.76,.925-11.0365,2.7716-2.2768,1.8481-3.415,4.3894-3.415,7.6217,0,3.3653,1.2526,6.0225,3.7614,7.9683,2.507,1.9472,6.0379,2.9198,10.5913,2.9198,4.2887,0,7.9341-.9897,10.9374-2.9694Z"></path><path d="M584.1729,81.0583c-.792-.7577-1.188-1.6982-1.188-2.821,0-1.1213,.396-2.0785,1.188-2.8705,.7917-.792,1.7475-1.1877,2.8705-1.1877,1.1214,0,2.0786,.3804,2.8706,1.1382,.7917,.7595,1.1877,1.6999,1.1877,2.8212,0,1.1228-.396,2.0786-1.1877,2.8705-.792,.7917-1.7492,1.1878-2.8706,1.1878-1.123,0-2.0788-.379-2.8705-1.1385Zm.3957,13.7094h4.9494v51.6694h-4.9494v-51.6694Z"></path><path d="M610.402,72.9911h4.9494v73.446h-4.9494V72.9911Z"></path><path d="M668.4053,99.2713c3.4303,3.2665,5.1471,8.0672,5.1471,14.4022v32.7636h-4.7514v-9.2056c-1.6501,3.0361-4.0582,5.3947-7.2256,7.0775-3.1674,1.6826-6.963,2.5241-11.3833,2.5241-5.7411,0-10.2788-1.3517-13.6103-4.0585-3.333-2.705-4.9987-6.2684-4.9987-10.6902,0-4.2886,1.5345-7.77,4.603-10.4426,3.0685-2.6728,7.9681-4.0089,14.6991-4.0089h17.7181v-4.1574c0-4.816-1.3039-8.4785-3.9101-10.987-2.6076-2.5073-6.4183-3.7614-11.4326-3.7614-3.4318,0-6.7154,.5937-9.8489,1.7817-3.1349,1.1877-5.7903,2.7714-7.968,4.7511l-2.4745-3.5634c2.5734-2.309,5.6743-4.1078,9.3044-5.3946,3.6283-1.2869,7.4236-1.9302,11.383-1.9302,6.4,0,11.3166,1.6333,14.7487,4.8996Zm-6.5826,40.5339c3.0021-1.9797,5.2618-4.8502,6.7806-8.6116v-9.7004h-17.6192c-5.0822,0-8.7601,.925-11.0366,2.7716-2.2769,1.8481-3.415,4.3894-3.415,7.6217,0,3.3653,1.2526,6.0225,3.7614,7.9683,2.507,1.9472,6.038,2.9198,10.5913,2.9198,4.2887,0,7.9341-.9897,10.9375-2.9694Z"></path><path d="M732.9423,97.6876c3.8926,2.2116,6.9438,5.3126,9.1557,9.3044,2.2096,3.9936,3.3156,8.5296,3.3156,13.6103s-1.106,9.6016-3.3156,13.561c-2.2119,3.9591-5.2631,7.0618-9.1557,9.3045-3.8948,2.244-8.2502,3.3653-13.0662,3.3653-4.6198,0-8.7942-1.1044-12.5217-3.3161-3.7286-2.2101-6.6163-5.2955-8.6609-9.2549v12.175h-4.7514V72.9911h4.9494v33.5556c2.0446-3.8263,4.9151-6.8128,8.6116-8.958,3.6947-2.1438,7.8197-3.217,12.373-3.217,4.816,0,9.1714,1.1057,13.0662,3.3159Zm-2.6735,41.9196c3.168-1.8466,5.6585-4.4203,7.4738-7.7207,1.8142-3.299,2.7219-7.0604,2.7219-11.2842s-.9077-7.9837-2.7219-11.2841c-1.8153-3.2987-4.3058-5.8724-7.4738-7.7208-3.167-1.8467-6.7304-2.7714-10.6898-2.7714s-7.5071,.9247-10.6406,2.7714c-3.1353,1.8484-5.6098,4.4221-7.4239,7.7208-1.8156,3.3004-2.7221,7.0618-2.7221,11.2841s.9065,7.9852,2.7221,11.2842c1.8141,3.3004,4.2886,5.8741,7.4239,7.7207,3.1335,1.8484,6.6812,2.7717,10.6406,2.7717s7.5228-.9233,10.6898-2.7717Z"></path><path d="M760.7554,72.9911h4.949v73.446h-4.949V72.9911Z"></path><path d="M830.2402,121.7903h-44.4438c.1317,4.0258,1.1538,7.6063,3.0683,10.7397,1.9133,3.1349,4.5041,5.5599,7.7706,7.2752,3.2665,1.7168,6.9439,2.5737,11.0366,2.5737,3.3651,0,6.4835-.6093,9.3541-1.8313,2.8705-1.2204,5.2612-3.0189,7.1763-5.3946l2.8706,3.2665c-2.2444,2.7065-5.0654,4.7853-8.4635,6.236-3.3994,1.4523-7.0773,2.1776-11.0366,2.1776-5.1474,0-9.7341-1.1213-13.7584-3.3653-4.0261-2.2427-7.1764-5.3454-9.4532-9.3045-2.2769-3.9594-3.4153-8.4788-3.4153-13.561,0-5.014,1.0723-9.5178,3.217-13.5111,2.144-3.9919,5.0978-7.11,8.8594-9.3541,3.7612-2.2426,7.9838-3.3654,12.6696-3.3654s8.8919,1.1057,12.6206,3.3159c3.7274,2.2116,6.6647,5.2957,8.8093,9.2551,2.1441,3.9595,3.217,8.4476,3.217,13.4616l-.0986,1.386Zm-34.3473-20.6382c-2.9048,1.6176-5.2306,3.8945-6.9786,6.8299-1.7493,2.937-2.7561,6.2531-3.0187,9.9478h39.5933c-.1978-3.6947-1.1881-6.9937-2.9697-9.8982-1.7817-2.903-4.1247-5.1798-7.0277-6.8299-2.9047-1.6489-6.1713-2.4746-9.7996-2.4746s-6.896,.8089-9.799,2.425Z"></path><path d="M878.0963,143.4678c-3.9269-2.2427-7.0123-5.3607-9.2549-9.3541-2.2444-3.9918-3.3657-8.4957-3.3657-13.5114s1.1213-9.5178,3.3657-13.5111c2.2426-3.9919,5.328-7.11,9.2549-9.3541,3.9251-2.2426,8.3301-3.3654,13.2143-3.3654s9.2873,1.1228,13.2142,3.3654c3.9258,2.2441,7.0112,5.3622,9.2556,9.3541,2.2426,3.9933,3.365,8.4971,3.365,13.5111s-1.1224,9.5196-3.365,13.5114c-2.2444,3.9934-5.3298,7.1114-9.2556,9.3541-3.9269,2.244-8.3312,3.3653-13.2142,3.3653s-9.2892-1.1213-13.2143-3.3653Zm23.8555-3.8606c3.1331-1.8466,5.6077-4.4203,7.4236-7.7207,1.8142-3.299,2.7218-7.0604,2.7218-11.2842s-.9076-7.9837-2.7218-11.2841c-1.8159-3.2987-4.2905-5.8724-7.4236-7.7208-3.1355-1.8467-6.6818-2.7714-10.6412-2.7714s-7.5068,.9247-10.6406,2.7714c-3.1349,1.8484-5.6095,4.4221-7.4236,7.7208-1.816,3.3004-2.7225,7.0618-2.7225,11.2841s.9065,7.9852,2.7225,11.2842c1.8141,3.3004,4.2887,5.8741,7.4236,7.7207,3.1338,1.8484,6.6812,2.7717,10.6406,2.7717s7.5057-.9233,10.6412-2.7717Z"></path><path d="M973.0708,100.0137c3.7617,3.7614,5.6425,9.1731,5.6425,16.2335v30.1899h-4.9497v-29.7942c0-5.806-1.4689-10.2277-4.4043-13.2636-2.9372-3.0346-7.0448-4.5533-12.3238-4.5533-6.0721,0-10.8553,1.8156-14.3527,5.4442-3.4984,3.6298-5.2459,8.5125-5.2459,14.6496v27.5173h-4.9491v-51.6694h4.7509v11.185c1.7816-3.6283,4.4373-6.4664,7.9683-8.5124,3.5297-2.0446,7.7039-3.0686,12.5214-3.0686,6.4664,0,11.5813,1.8806,15.3424,5.642Z"></path><path d="M1050.177,143.1706c-1.2541,1.188-2.8209,2.0957-4.7018,2.7222-1.8808,.6264-3.8449,.9403-5.8892,.9403-4.4888,0-7.953-1.2372-10.3933-3.7118-2.4421-2.4748-3.6625-5.9222-3.6625-10.344v-33.7533h-9.5028v-4.2563h9.5028v-11.2841h4.949v11.2841h16.4313v4.2563h-16.4313v33.2585c0,3.3653,.8074,5.9234,2.425,7.6711,1.6164,1.7493,4.009,2.6233,7.1763,2.6233,3.2329,0,5.9052-.9561,8.018-2.8705l2.0785,3.4642Z"></path><path d="M1104.5183,100.0137c3.7618,3.7614,5.6426,9.1731,5.6426,16.2335v30.1899h-4.9497v-29.7942c0-5.806-1.4689-10.2277-4.4044-13.2636-2.9372-3.0346-7.0447-4.5533-12.3236-4.5533-6.0722,0-10.8555,1.8156-14.3527,5.4442-3.4985,3.6298-5.246,8.5125-5.246,14.6496v27.5173h-4.9491V72.9911h4.9491v32.5656c1.7817-3.5633,4.4203-6.3179,7.9188-8.2648,3.4966-1.9458,7.6213-2.9202,12.3726-2.9202,6.4664,0,11.5814,1.8806,15.3424,5.642Z"></path><path d="M1174.3001,121.7903h-44.4438c.1316,4.0258,1.1538,7.6063,3.0682,10.7397,1.9133,3.1349,4.5042,5.5599,7.7707,7.2752,3.2665,1.7168,6.9438,2.5737,11.0366,2.5737,3.3651,0,6.4835-.6093,9.354-1.8313,2.8705-1.2204,5.2613-3.0189,7.1763-5.3946l2.8706,3.2665c-2.2444,2.7065-5.0653,4.7853-8.4635,6.236-3.3993,1.4523-7.0772,2.1776-11.0365,2.1776-5.1474,0-9.7342-1.1213-13.7584-3.3653-4.0262-2.2427-7.1764-5.3454-9.4532-9.3045-2.2769-3.9594-3.4153-8.4788-3.4153-13.561,0-5.014,1.0723-9.5178,3.217-13.5111,2.144-3.9919,5.0978-7.11,8.8594-9.3541,3.7611-2.2426,7.9837-3.3654,12.6696-3.3654s8.8919,1.1057,12.6205,3.3159c3.7275,2.2116,6.6648,5.2957,8.8094,9.2551,2.144,3.9595,3.2169,8.4476,3.2169,13.4616l-.0985,1.386Zm-34.3473-20.6382c-2.9048,1.6176-5.2306,3.8945-6.9786,6.8299-1.7493,2.937-2.7561,6.2531-3.0188,9.9478h39.5933c-.1977-3.6947-1.188-6.9937-2.9697-9.8982-1.7817-2.903-4.1246-5.1798-7.0276-6.8299-2.9048-1.6489-6.1713-2.4746-9.7996-2.4746s-6.896,.8089-9.799,2.425Z"></path></g><g><path d="M477.8228,267.834h20.3334v46.1219c-5.9512,4.7399-12.8944,8.3768-20.8291,10.9106-7.935,2.5338-16.0922,3.8021-24.4663,3.8021-11.7941,0-22.4282-2.5622-31.9053-7.6868-9.4797-5.1247-16.9187-12.2048-22.3172-21.2429-5.4011-9.035-8.1002-19.2304-8.1002-30.5826s2.6991-21.5447,8.1002-30.5828c5.3985-9.0353,12.8662-16.1178,22.3998-21.2424,9.5314-5.1247,20.2508-7.6872,32.1532-7.6872,9.6966,0,18.5151,1.599,26.4501,4.7942,7.9349,3.1978,14.6017,7.8807,20.0026,14.0514l-13.5554,13.2252c-8.8185-8.8158-19.4526-13.2252-31.9053-13.2252-8.1571,0-15.4026,1.71-21.7385,5.1246-6.3389,3.4174-11.2981,8.2115-14.8783,14.3822-3.5825,6.1734-5.3725,13.2249-5.3725,21.16,0,7.7154,1.79,14.6586,5.3725,20.8294,3.5802,6.1733,8.5394,11.0215,14.8783,14.5474,6.3359,3.5283,13.527,5.2899,21.573,5.2899,9.0354,0,16.9703-1.9835,23.805-5.9512v-36.0378Z"></path><path d="M539.9782,322.3869c-7.1652-3.8564-12.7575-9.2292-16.7792-16.1181-4.0242-6.8863-6.0337-14.6844-6.0337-23.3916s2.0095-16.4744,6.0337-23.309c4.0217-6.832,9.614-12.1762,16.7792-16.0352,7.1627-3.8565,15.2087-5.7859,24.1355-5.7859,9.0353,0,17.1355,1.9294,24.301,5.7859,7.1625,3.859,12.7548,9.2032,16.7791,16.0352,4.0217,6.8346,6.0338,14.6044,6.0338,23.309s-2.0121,16.5053-6.0338,23.3916c-4.0243,6.8889-9.6166,12.2617-16.7791,16.1181-7.1655,3.8588-15.2657,5.786-24.301,5.786-8.9268,0-16.9728-1.9272-24.1355-5.786Zm42.981-19.5068c4.9595-5.068,7.439-11.7371,7.439-20.0029s-2.4795-14.9323-7.439-20.0026c-4.9594-5.068-11.241-7.6045-18.8455-7.6045s-13.8602,2.5365-18.763,7.6045c-4.9051,5.0703-7.3563,11.7371-7.3563,20.0026s2.4512,14.9349,7.3563,20.0029c4.9028,5.0703,11.1588,7.6042,18.763,7.6042s13.8861-2.5339,18.8455-7.6042Z"></path><path d="M646.6027,322.3869c-7.1651-3.8564-12.7574-9.2292-16.7791-16.1181-4.0243-6.8863-6.0338-14.6844-6.0338-23.3916s2.0095-16.4744,6.0338-23.309c4.0217-6.832,9.614-12.1762,16.7791-16.0352,7.1628-3.8565,15.2087-5.7859,24.1355-5.7859,9.0354,0,17.1356,1.9294,24.301,5.7859,7.1625,3.859,12.7549,9.2032,16.7791,16.0352,4.0217,6.8346,6.0339,14.6044,6.0339,23.309s-2.0122,16.5053-6.0339,23.3916c-4.0242,6.8889-9.6166,12.2617-16.7791,16.1181-7.1654,3.8588-15.2656,5.786-24.301,5.786-8.9268,0-16.9727-1.9272-24.1355-5.786Zm42.9811-19.5068c4.9594-5.068,7.4389-11.7371,7.4389-20.0029s-2.4795-14.9323-7.4389-20.0026c-4.9594-5.068-11.2411-7.6045-18.8456-7.6045s-13.8602,2.5365-18.763,7.6045c-4.9051,5.0703-7.3563,11.7371-7.3563,20.0026s2.4512,14.9349,7.3563,20.0029c4.9028,5.0703,11.1588,7.6042,18.763,7.6042s13.8862-2.5339,18.8456-7.6042Z"></path><path d="M825.3035,238.7388v74.8866c0,31.0784-15.8706,46.618-47.6106,46.618-8.4876,0-16.5315-1.0747-24.1352-3.2238-7.6048-2.149-13.8864-5.2639-18.8461-9.3402l9.2584-15.5392c3.8561,3.1952,8.7332,5.7576,14.6301,7.6872,5.8945,1.9268,11.874,2.8929,17.9362,2.8929,9.6963,0,16.8042-2.206,21.3248-6.6124,4.5182-4.4094,6.7774-11.1305,6.7774-20.1682v-4.6289c-3.528,3.8591-7.8255,6.778-12.8938,8.7615-5.0707,1.9838-10.6371,2.9759-16.6968,2.9759-8.3768,0-15.9521-1.7903-22.7307-5.3728-6.7774-3.5799-12.1242-8.622-16.0346-15.1261-3.9128-6.5012-5.8686-13.9405-5.8686-22.3169s1.9558-15.7874,5.8686-22.2346c3.9104-6.4472,9.2572-11.4323,16.0346-14.9609,6.7786-3.5256,14.3539-5.2898,22.7307-5.2898,6.3902,0,12.2045,1.0486,17.4403,3.1407,5.2336,2.0951,9.6137,5.2902,13.1429,9.5884v-11.7374h19.6724Zm-27.8555,59.7605c5.0139-4.6829,7.5221-10.7713,7.5221-18.2669,0-7.3823-2.5082-13.3905-7.5221-18.0191-5.0164-4.6289-11.435-6.9432-19.2593-6.9432-7.9341,0-14.4106,2.3143-19.4234,6.9432-5.0163,4.6286-7.5222,10.6368-7.5222,18.0191,0,7.4956,2.5059,13.584,7.5222,18.2669,5.0128,4.6856,11.4893,7.0256,19.4234,7.0256,7.8243,0,14.2429-2.34,19.2593-7.0256Z"></path><path d="M852.4114,204.354h20.6644v122.6616h-20.6644v-122.6616Z"></path><path d="M982.8403,289.4896h-69.2653c1.211,6.5042,4.3808,11.6545,9.5051,15.4569,5.1249,3.8021,11.4893,5.703,19.0935,5.703,9.6969,0,17.6882-3.1951,23.9705-9.588l11.0756,12.7292c-3.9671,4.7398-8.9835,8.3224-15.0432,10.7453-6.0622,2.4252-12.8944,3.6369-20.4987,3.6369-9.6992,0-18.2412-1.9272-25.6235-5.786-7.3848-3.8564-13.0881-9.2292-17.11-16.1181-4.0243-6.8863-6.0338-14.6844-6.0338-23.3916,0-8.5963,1.9558-16.3374,5.8686-23.2264,3.911-6.8862,9.3404-12.2588,16.2836-16.1178,6.9427-3.8565,14.7671-5.7859,23.4743-5.7859,8.5963,0,16.2831,1.9012,23.0611,5.7033,6.7774,3.8021,12.0676,9.1489,15.87,16.0352,3.8018,6.889,5.7027,14.8523,5.7027,23.8876,0,1.4335-.111,3.4716-.3305,6.1164Zm-61.0827-29.3427c-4.5744,3.9133-7.3564,9.1206-8.3485,15.6218h50.0899c-.8835-6.3902-3.5829-11.5716-8.1005-15.5392-4.5201-3.9673-10.1408-5.9512-16.8615-5.9512-6.6128,0-12.2075,1.9579-16.7794,5.8686Z"></path><path d="M1124.4274,216.2566c7.439,3.3061,13.1423,8.046,17.1094,14.2167,3.9676,6.1734,5.9512,13.5014,5.9512,21.9864,0,8.3768-1.9836,15.6788-5.9512,21.9041-3.9671,6.2274-9.6704,10.9932-17.1094,14.2993-7.4396,3.3064-16.1751,4.9594-26.2025,4.9594h-26.1193v33.3931h-21.4901v-115.7184h47.6094c10.0274,0,18.7629,1.653,26.2025,4.9594Zm-5.8691,53.2305c4.8487-3.9677,7.2737-9.6424,7.2737-17.0274s-2.425-13.0596-7.2737-17.027c-4.8505-3.9677-11.959-5.9512-21.3248-5.9512h-25.1279v45.9567h25.1279c9.3658,0,16.4743-1.9838,21.3248-5.9511Z"></path><path d="M1168.6475,204.354h20.6645v122.6616h-20.6645v-122.6616Z"></path><path d="M1279.9831,247.0872c6.8865,6.2277,10.3319,15.6218,10.3319,28.1858v51.7426h-19.5066v-10.7454c-2.5365,3.8591-6.1453,6.8063-10.8282,8.8442-4.6854,2.0381-10.332,3.0585-16.9441,3.0585s-12.3987-1.1314-17.3578-3.389c-4.9597-2.2577-8.7899-5.3985-11.4893-9.4228-2.7017-4.0217-4.0502-8.568-4.0502-13.6384,0-7.9349,2.9472-14.2995,8.8441-19.0934,5.8945-4.7942,15.1801-7.1911,27.855-7.1911h22.8132v-1.3226c0-6.1707-1.8466-10.9105-5.5381-14.2166-3.6938-3.3064-9.1746-4.9594-16.4483-4.9594-4.9597,0-9.8362,.7722-14.6301,2.3143-4.7944,1.5447-8.8441,3.6938-12.1508,6.4472l-8.0999-15.0435c4.6286-3.5256,10.1926-6.225,16.6962-8.1002,6.5018-1.8726,13.3907-2.8103,20.6645-2.8103,13.0024,0,22.9495,3.1151,29.8385,9.3401Zm-18.8456,62.4879c4.0219-2.3685,6.8605-5.7575,8.5136-10.1666v-10.2494h-21.3254c-11.9024,0-17.8536,3.9134-17.8536,11.7372,0,3.7477,1.4879,6.7237,4.4634,8.9267,2.9756,2.206,7.1085,3.3064,12.3987,3.3064,5.1786,0,9.7789-1.183,13.8033-3.5543Z"></path><path d="M1397.7678,238.7388l-41.3277,95.3853c-3.8591,9.588-8.542,16.3374-14.0518,20.2507-5.5121,3.9107-12.1785,5.8686-20.0028,5.8686-4.4091,0-8.7615-.7183-13.0597-2.1491-4.2981-1.4335-7.8237-3.4174-10.5798-5.9512l8.2658-15.2087c1.9835,1.8726,4.3235,3.3603,7.0258,4.4634,2.6989,1.1003,5.4266,1.653,8.1826,1.653,3.6372,0,6.6387-.9375,9.0094-2.8103,2.3689-1.8753,4.5466-5.0161,6.5301-9.4228l1.4878-3.4716-38.5179-88.6073h21.4906l27.7724,65.2983,27.9382-65.2983h19.837Z"></path></g></g><g><path d="M350.8259,216.0358l-55.5507-32.0562-45.6851,44.1643,41.7536,40.3623,59.4822-34.3342c3.2745-1.8864,5.2321-5.2806,5.2321-9.0632,0-3.7858-1.9576-7.1769-5.2321-9.073Z"></path><polygon points="285.8495 178.5339 224.7171 143.2484 90.7521 74.5963 242.0638 220.8635 285.8495 178.5339"></polygon><polygon points="92.975 379.5365 224.9469 306.8365 281.9149 273.9519 242.0638 235.4242 92.975 379.5365"></polygon><polygon points="81.8118 80.5144 81.6694 375.9093 234.531 228.1407 81.8118 80.5144"></polygon></g></svg>