<svg xmlns="http://www.w3.org/2000/svg" xmlns:xlink="http://www.w3.org/1999/xlink" width="271.67" height="373.75" viewBox="0 0 271.67 373.75"><defs><style>.ad{fill:#fad0ee;}.ae{fill:#000005;}.af{fill:#fff;}.ag{fill:#fca7fd;}.ah{fill:#e5e5e5;}.ai{fill:#919900;}.aj{fill:#808600;}.ak{fill:#99a200;}.al{fill:#7c8200;}.am{fill:#848b00;}.an{fill:#b5bf00;}.ao{fill:#9ea700;}.ap{fill:#b6c000;}.aq{fill:#737a00;}.ar{fill:#8c9500;}.as{fill:#abb400;}.at{fill:#b0ba00;}.au{fill:#adb600;}.av{fill:#a9b200;}.aw{fill:#a6b000;}.ax{fill:#afb900;}.ay{fill:#131313;}.b`{fill:#171717;}.ba{fill:#161616;}.bb{fill:#1e1e1e;}.bc{fill:#202020;}.bd{fill:#151515;}.be{fill:#141414;}.bf{fill:#1d1d1d;}.bg{fill:#1c1c1c;}.bh{fill:#191919;}.bi{fill:#181818;}.bj{fill:#1b1b1b;}.bk{fill:#1a1a1a;}.bl{fill:#707500;}.bm{fill:#a2ab00;}.bn{fill:#959e00;}.bo{fill:#6e7300;}.bp{fill:#888f00;}.bq{fill:#797e00;}.br{clip-path:url(#v);}.bs{clip-path:url(#u);}.bt{clip-path:url(#t);}.bu{clip-path:url(#y);}.bv{clip-path:url(#x);}.bw{clip-path:url(#w);}.bx{clip-path:url(#f);}.by{clip-path:url(#e);}.c`{clip-path:url(#d);}.ca{clip-path:url(#n);}.cb{clip-path:url(#m);}.cc{clip-path:url(#l);}.cd{clip-path:url(#k);}.ce{clip-path:url(#j);}.cf{clip-path:url(#i);}.cg{clip-path:url(#h);}.ch{clip-path:url(#g);}.ci{clip-path:url(#s);}.cj{clip-path:url(#r);}.ck{clip-path:url(#q);}.cl{clip-path:url(#p);}.cm{clip-path:url(#o);}.cn{clip-path:url(#ab);}.co{clip-path:url(#aa);}.cp{clip-path:url(#ac);}.cq{clip-path:url(#a`);}.cr{isolation:isolate;}</style><clipPath id="e"><path class="af" d="M114.14,231.5l-.04,34.19c-3.48-2.26-11.66-3.13-18.22-1.94l.04-34.19c6.56-1.19,14.74-.32,18.22,1.94Z"></path></clipPath><clipPath id="d"><path class="by" d="M114.75,266.88l-1-.65c-3.36-2.18-11.33-3.01-17.75-1.84l-.77,.14,.04-35.51,.53-.1c6.7-1.22,15.09-.31,18.69,2.03l.3,.19-.04,35.74Zm-12.65-4.31c4.39,0,8.67,.73,11.36,2.02l.04-32.72c-3.42-1.99-10.78-2.75-16.92-1.75l-.04,32.88c1.79-.28,3.69-.41,5.57-.41Z"></path></clipPath><clipPath id="f"><path class="ae" d="M1.37,268.24l.04-18.71c0-1.66,2.6-3.27,7.16-4.1l-.04,18.71c-4.55,.83-7.16,2.44-7.16,4.1Z"></path></clipPath><clipPath id="g"><path class="ae" d="M2.94,270.41c-1.07-.69-1.57-1.44-1.57-2.17l.04-18.71c0,.73,.5,1.48,1.57,2.17-.01,10.26-.03,8.46-.04,18.71Z"></path></clipPath><clipPath id="h"><path class="ae" d="M0,268.24l.04-18.71c0,.81,.56,1.63,1.73,2.39l-.04,18.71C.56,269.87,0,269.05,0,268.24Z"></path></clipPath><clipPath id="j"><path class="af" d="M133.61,275.63l-.04,34.19c0-.66-.64-1.41-1.92-2.24l.04-34.19c1.28,.83,1.92,1.58,1.92,2.24Z"></path></clipPath><clipPath id="i"><path class="ce" d="M134.22,309.82h-1.3c0-.15-.12-.72-1.62-1.7l-.3-.19,.04-35.74,1,.65c1.49,.97,2.21,1.88,2.21,2.79l-.04,34.19h0Zm-1.92-2.59c.23,.16,.43,.31,.62,.47l.04-32.07c0-.11-.06-.42-.62-.94l-.04,32.54Z"></path></clipPath><clipPath id="l"><path class="af" d="M141.93,275.98c.02,.44,0,1.03,0,1.46,0,8.16-.02,16.33-.03,24.49,.01-8.65,.02-17.31,.03-25.96h0Z"></path></clipPath><clipPath id="k"><path class="cc" d="M142.55,301.94h-1.3l.03-25.96,1.3-.02c.01,.31,0,.68,0,1.04v.43l-.03,24.52Z"></path></clipPath><clipPath id="n"><path class="af" d="M138.58,306.32c.02-11.4,.03-22.79,.04-34.19,2.11,1.37,3.2,2.65,3.3,3.85-.01,11.39-.03,22.79-.04,34.18,.01-11.39,.03-22.79,.04-34.18,0,.07,0,.14,0,.21l-.04,34.19c0-.07,0-.14,0-.21-.1-1.2-1.19-2.48-3.3-3.85Z"></path></clipPath><clipPath id="m"><path class="ca" d="M142.55,310.38h-1.3c0-.05,0-.1,0-.16-.08-.97-1.12-2.13-3.01-3.35l-.3-.19v-.35c.02-11.4,.03-22.79,.04-34.19v-1.2l1,.65c2.3,1.5,3.48,2.92,3.6,4.34h0c0,.09,0,.18,0,.26l-.04,34.19Zm-3.31-4.4c.83,.56,1.49,1.1,2.01,1.65l.04-31.64c-.06-.74-.75-1.63-2.01-2.6-.01,10.86-.02,21.73-.04,32.59Z"></path></clipPath><clipPath id="p"><path class="af" d="M120.8,312.74c-2.31-.28-4.31-.98-6.03-2.09l.04-34.19c1.71,1.11,3.72,1.81,6.03,2.09-.01,11.4-.03,22.79-.04,34.19Z"></path></clipPath><clipPath id="o"><path class="cl" d="M121.45,313.4h-.73c-2.39-.3-4.52-1.04-6.3-2.2l-.3-.19,.04-35.74,1,.65c1.62,1.05,3.56,1.72,5.75,1.99l.57,.07-.04,35.42Zm-6.03-3.11c1.37,.83,2.96,1.4,4.73,1.7l.04-32.88c-1.74-.27-3.32-.78-4.73-1.52l-.04,32.7Z"></path></clipPath><clipPath id="r"><path class="af" d="M121.35,312.8c-.19-.02-.37-.04-.55-.06,.01-11.4,.03-22.79,.04-34.19,.18,.02,.37,.04,.55,.06-.01,11.4-.03,22.79-.04,34.19Z"></path></clipPath><clipPath id="q"><path class="cj" d="M122,313.52l-.71-.07c-.19-.02-.38-.04-.57-.06l-.57-.07,.04-35.5,.73,.09c.18,.02,.36,.04,.53,.06l.59,.06-.04,35.5Z"></path></clipPath><clipPath id="t"><path class="af" d="M121.35,312.8c.01-11.4,.03-22.79,.04-34.19,2.15,.2,4.46,.08,6.92-.37,3.53-.64,5.3-1.51,5.3-2.61l-.04,34.19c0,1.1-1.77,1.97-5.3,2.61-2.46,.45-4.77,.57-6.92,.37Z"></path></clipPath><clipPath id="s"><path class="bt" d="M123.4,313.55c-.72,0-1.42-.03-2.11-.1l-.59-.06,.04-35.5,.71,.07c2.08,.2,4.35,.08,6.74-.36,4.53-.82,4.76-1.79,4.77-1.97h1.3l-.04,34.19c0,1.5-1.85,2.53-5.83,3.25-1.73,.31-3.4,.47-4.99,.47Zm-1.39-1.34c1.92,.12,3.98-.01,6.15-.41,4.54-.82,4.77-1.79,4.77-1.98l.04-32.34c-.96,.57-2.45,1.03-4.53,1.41-2.24,.41-4.39,.55-6.39,.43l-.04,32.89Z"></path></clipPath><clipPath id="v"><path class="af" d="M141.94,276.19l-.04,34.19c0,1.11-.76,2.09-2.27,2.93l.04-34.19c1.51-.84,2.27-1.82,2.27-2.93Z"></path></clipPath><clipPath id="u"><path class="br" d="M138.97,314.42l.04-35.68,.33-.19c1.3-.73,1.94-1.5,1.94-2.37h1.3l-.04,34.19c0,1.36-.88,2.54-2.6,3.5l-.97,.54Zm1.34-34.93l-.04,32.6c.65-.54,.97-1.1,.97-1.72l.04-31.59c-.28,.25-.6,.48-.97,.71Z"></path></clipPath><clipPath id="x"><path class="af" d="M139.67,279.12l-.04,34.19c-1.61,.89-3.85,1.6-6.73,2.13-2.63,.48-5.44,.71-8.43,.71-2.99,0-5.94-.34-8.85-1.02-2.92-.67-5.51-1.75-7.77-3.22l.04-34.19c2.27,1.47,4.85,2.54,7.77,3.22,2.91,.68,5.86,1.01,8.85,1.02,2.99,0,5.8-.23,8.43-.71,2.88-.52,5.12-1.23,6.73-2.13Z"></path></clipPath><clipPath id="w"><path class="bv" d="M124.57,316.8h-.11c-3.02,0-6.05-.35-8.99-1.04-2.97-.69-5.66-1.8-7.98-3.31l-.3-.19,.04-35.74,1,.65c2.2,1.42,4.74,2.48,7.56,3.13,2.85,.66,5.78,1,8.7,1,2.94,.05,5.74-.23,8.31-.7,2.79-.51,4.98-1.2,6.53-2.06l.97-.54-.04,35.68-.33,.19c-1.67,.93-4,1.67-6.93,2.2-2.62,.48-5.46,.72-8.44,.72Zm-16.08-5.24c2.13,1.33,4.57,2.32,7.27,2.94,2.85,.66,5.78,1,8.7,1,2.94,.03,5.74-.23,8.31-.7,2.59-.47,4.67-1.1,6.19-1.88l.04-32.75c-1.56,.7-3.56,1.28-5.96,1.72-2.66,.48-5.56,.69-8.55,.72-3.02,0-6.05-.35-8.99-1.03-2.55-.59-4.89-1.49-6.98-2.69l-.04,32.68Z"></path></clipPath><clipPath id="y"><path class="ae" d="M270.3,334.06l-.04,18.71c0-.73-.5-1.48-1.57-2.17l.04-18.71c1.07,.69,1.57,1.44,1.57,2.17Z"></path></clipPath><clipPath id="a`"><path class="ae" d="M270.26,352.78c0,1.66-2.6,3.27-7.16,4.1l.04-18.71c4.55-.83,7.16-2.44,7.16-4.1-.01,10.26-.03,8.46-.04,18.71Z"></path></clipPath><clipPath id="aa"><path class="ae" d="M271.67,334.06l-.04,18.71c0,1.83-2.86,3.6-7.88,4.51l.04-18.71c5.01-.91,7.88-2.68,7.88-4.51Z"></path></clipPath><clipPath id="ab"><path class="ae" d="M175.8,354.04l-.04,18.71c-6.56,1.19-14.74,.32-18.23-1.94l.04-18.71c3.49,2.26,11.66,3.13,18.23,1.94Z"></path></clipPath><clipPath id="ac"><path class="ae" d="M176.44,354.45l-.04,18.71c-7.23,1.31-16.23,.36-20.07-2.14l.04-18.71c3.84,2.49,12.84,3.45,20.07,2.14Z"></path></clipPath></defs><g id="a"></g><g id="b"><g id="c"><g><g class="cr"><g class="cr"><path class="af" d="M114.14,231.5l-.04,34.19c-3.48-2.26-11.66-3.13-18.22-1.94l.04-34.19c6.56-1.19,14.74-.32,18.22,1.94Z"></path><path d="M114.75,266.88l-1-.65c-3.36-2.18-11.33-3.01-17.75-1.84l-.77,.14,.04-35.51,.53-.1c6.7-1.22,15.09-.31,18.69,2.03l.3,.19-.04,35.74Zm-12.65-4.31c4.39,0,8.67,.73,11.36,2.02l.04-32.72c-3.42-1.99-10.78-2.75-16.92-1.75l-.04,32.88c1.79-.28,3.69-.41,5.57-.41Z"></path><g class="c`"><g class="cr"><path class="ay" d="M114.14,231.5l-.04,34.19c-.61-.39-1.35-.74-2.21-1.05l.04-34.19c.86,.31,1.6,.66,2.21,1.05"></path><path class="be" d="M111.93,230.45l-.04,34.19c-.35-.12-.71-.24-1.1-.35l.04-34.19c.38,.11,.75,.23,1.1,.35"></path><path class="bd" d="M110.83,230.1l-.04,34.19c-.3-.09-.62-.17-.94-.25l.04-34.19c.32,.08,.64,.16,.94,.25"></path><path class="bd" d="M109.89,229.85l-.04,34.19c-.28-.07-.57-.13-.87-.19l.04-34.19c.3,.06,.59,.12,.87,.19"></path><path class="ba" d="M109.02,229.66l-.04,34.19c-.27-.06-.55-.11-.84-.15l.04-34.19c.28,.05,.56,.1,.84,.15"></path><path class="b`" d="M108.18,229.51l-.04,34.19c-.27-.05-.55-.09-.82-.13l.04-34.19c.28,.04,.55,.08,.82,.13"></path><path class="bi" d="M107.36,229.38l-.04,34.19c-.27-.04-.54-.07-.82-.11l.04-34.19c.28,.03,.55,.07,.82,.11"></path><path class="bi" d="M106.54,229.27l-.04,34.19c-.27-.03-.55-.06-.83-.09l.04-34.19c.28,.03,.55,.05,.83,.09"></path><path class="bh" d="M105.71,229.18l-.04,34.19c-.28-.03-.56-.05-.84-.07l.04-34.19c.28,.02,.56,.04,.84,.07"></path><path class="bk" d="M104.87,229.12l-.04,34.19c-.28-.02-.57-.04-.85-.05l.04-34.19c.29,.01,.57,.03,.85,.05"></path><path class="bj" d="M104.02,229.07l-.04,34.19c-.29-.01-.58-.02-.87-.03l.04-34.19c.29,0,.58,.02,.87,.03"></path><path class="bj" d="M103.15,229.03l-.04,34.19c-.3,0-.6-.01-.9-.01l.04-34.19c.3,0,.6,0,.9,.01"></path><path class="bg" d="M102.24,229.02l-.04,34.19c-.32,0-.64,0-.95,0l.04-34.19c.32,0,.64-.01,.95,0"></path><path class="bf" d="M101.29,229.03l-.04,34.19c-.35,0-.7,.02-1.05,.04l.04-34.19c.35-.02,.7-.03,1.05-.04"></path><path class="bb" d="M100.24,229.07l-.04,34.19c-.42,.02-.84,.05-1.26,.08l.04-34.19c.42-.04,.84-.06,1.26-.08"></path><path class="bb" d="M98.98,229.16l-.04,34.19c-1.04,.09-2.07,.22-3.06,.4l.04-34.19c.99-.18,2.02-.31,3.06-.4"></path></g></g></g><polygon class="bc" points="95.92 229.56 95.87 263.75 8.52 264.15 8.57 245.43 95.92 229.56"></polygon><g class="cr"><path class="ae" d="M1.37,268.24l.04-18.71c0-1.66,2.6-3.27,7.16-4.1l-.04,18.71c-4.55,.83-7.16,2.44-7.16,4.1Z"></path><g class="bx"><g class="cr"><path class="ae" d="M8.57,245.43l-.04,18.71c-1.02,.19-1.94,.41-2.76,.67l.04-18.71c.82-.26,1.74-.48,2.76-.67"></path><path class="ae" d="M5.8,246.1l-.04,18.71c-.39,.12-.75,.25-1.09,.38l.04-18.71c.34-.13,.7-.26,1.09-.38"></path><path class="ae" d="M4.71,246.48l-.04,18.71c-.27,.11-.52,.22-.76,.33l.04-18.71c.24-.11,.49-.22,.76-.33"></path><path class="ae" d="M3.95,246.82l-.04,18.71c-.21,.1-.4,.2-.58,.3l.04-18.71c.18-.1,.38-.21,.58-.3"></path><path class="ae" d="M3.37,247.12l-.04,18.71c-.17,.1-.32,.19-.47,.29l.04-18.71c.15-.1,.3-.2,.47-.29"></path><path class="ae" d="M2.89,247.41l-.04,18.71c-.14,.09-.27,.19-.39,.28l.04-18.71c.12-.1,.25-.19,.39-.28"></path><path class="ae" d="M2.51,247.7l-.04,18.71c-.12,.09-.22,.19-.32,.28l.04-18.71c.1-.1,.21-.19,.32-.28"></path><path class="ae" d="M2.18,247.98l-.04,18.71c-.1,.09-.18,.19-.26,.28l.04-18.71c.08-.1,.17-.19,.26-.28"></path><path class="ae" d="M1.92,248.26l-.04,18.71c-.08,.1-.15,.19-.21,.29l.04-18.71c.06-.1,.13-.19,.21-.29"></path><path class="ae" d="M1.71,248.55l-.04,18.71c-.06,.1-.11,.2-.16,.3l.04-18.71c.04-.1,.1-.2,.16-.3"></path><path class="ae" d="M1.56,248.85l-.04,18.71c-.04,.1-.08,.21-.1,.31l.04-18.71c.02-.1,.06-.21,.1-.31"></path><path class="ae" d="M1.45,249.16l-.04,18.71c-.03,.11-.04,.22-.04,.33l.04-18.71c0-.11,.02-.22,.04-.33"></path><path class="ae" d="M1.41,249.49l-.04,18.71v.05l.04-18.71v-.05"></path></g></g></g><g class="cr"><path class="ae" d="M2.94,270.41c-1.07-.69-1.57-1.44-1.57-2.17l.04-18.71c0,.73,.5,1.48,1.57,2.17-.01,10.26-.03,8.46-.04,18.71Z"></path><g class="ch"><g class="cr"><path class="ae" d="M2.98,251.7l-.04,18.71c-1.07-.69-1.57-1.44-1.57-2.17l.04-18.71c0,.73,.5,1.48,1.57,2.17"></path></g></g></g><g class="cr"><path class="ae" d="M0,268.24l.04-18.71c0,.81,.56,1.63,1.73,2.39l-.04,18.71C.56,269.87,0,269.05,0,268.24Z"></path><g class="cg"><g class="cr"><path class="ae" d="M1.77,251.92l-.04,18.71C.56,269.87,0,269.05,0,268.24l.04-18.71c0,.81,.56,1.63,1.73,2.39"></path></g></g></g><polygon class="ae" points="268.73 331.89 268.69 350.6 114.1 265.69 114.14 231.5 268.73 331.89"></polygon><polygon class="bo" points="138.62 272.13 138.58 306.32 129.1 300.17 129.14 265.98 138.62 272.13"></polygon><polygon class="ap" points="129.14 265.98 129.1 300.17 77.39 309.57 77.43 275.37 129.14 265.98"></polygon><polygon class="ae" points="126.72 270.16 126.68 304.35 109.8 307.42 109.84 273.23 126.72 270.16"></polygon><polygon class="ae" points="131.7 273.39 131.66 307.58 126.68 304.35 126.72 270.16 131.7 273.39"></polygon><g class="cr"><path class="af" d="M133.61,275.63l-.04,34.19c0-.66-.64-1.41-1.92-2.24l.04-34.19c1.28,.83,1.92,1.58,1.92,2.24Z"></path><path d="M134.22,309.82h-1.3c0-.15-.12-.72-1.62-1.7l-.3-.19,.04-35.74,1,.65c1.49,.97,2.21,1.88,2.21,2.79l-.04,34.19h0Zm-1.92-2.59c.23,.16,.43,.31,.62,.47l.04-32.07c0-.11-.06-.42-.62-.94l-.04,32.54Z"></path><g class="cf"><g class="cr"><path class="ae" d="M133.61,275.63l-.04,34.19c0-.66-.64-1.41-1.92-2.24l.04-34.19c1.28,.83,1.92,1.58,1.92,2.24"></path></g></g></g><g class="cr"><path class="af" d="M141.93,275.98c.02,.44,0,1.03,0,1.46,0,8.16-.02,16.33-.03,24.49,.01-8.65,.02-17.31,.03-25.96h0Z"></path><path d="M142.55,301.94h-1.3l.03-25.96,1.3-.02c.01,.31,0,.68,0,1.04v.43l-.03,24.52Z"></path><g class="cd"><g class="cr"><path class="bl" d="M141.94,276.19l-.04,34.19c0-.07,0-.14,0-.21-.1-1.2-1.19-2.48-3.3-3.85l.04-34.19c2.11,1.37,3.2,2.65,3.3,3.85,0,.07,0,.14,0,.21"></path></g></g></g><g class="cr"><path class="af" d="M138.58,306.32c.02-11.4,.03-22.79,.04-34.19,2.11,1.37,3.2,2.65,3.3,3.85-.01,11.39-.03,22.79-.04,34.18,.01-11.39,.03-22.79,.04-34.18,0,.07,0,.14,0,.21l-.04,34.19c0-.07,0-.14,0-.21-.1-1.2-1.19-2.48-3.3-3.85Z"></path><path d="M142.55,310.38h-1.3c0-.05,0-.1,0-.16-.08-.97-1.12-2.13-3.01-3.35l-.3-.19v-.35c.02-11.4,.03-22.79,.04-34.19v-1.2l1,.65c2.3,1.5,3.48,2.92,3.6,4.34h0c0,.09,0,.18,0,.26l-.04,34.19Zm-3.31-4.4c.83,.56,1.49,1.1,2.01,1.65l.04-31.64c-.06-.74-.75-1.63-2.01-2.6-.01,10.86-.02,21.73-.04,32.59Z"></path><g class="cb"><g class="cr"><path class="bl" d="M141.94,276.19l-.04,34.19c0-.07,0-.14,0-.21-.1-1.2-1.19-2.48-3.3-3.85l.04-34.19c2.11,1.37,3.2,2.65,3.3,3.85,0,.07,0,.14,0,.21"></path></g></g></g><polygon class="bo" points="114.81 276.46 114.77 310.65 109.8 307.42 109.84 273.23 114.81 276.46"></polygon><polygon class="ae" points="107.89 277.72 107.85 311.91 102.87 308.68 102.91 274.49 107.89 277.72"></polygon><polygon class="ae" points="102.91 274.49 102.87 308.68 81.89 312.49 81.93 278.3 102.91 274.49"></polygon><polygon class="ae" points="81.93 278.3 81.89 312.49 77.39 309.57 77.43 275.37 81.93 278.3"></polygon><g class="cr"><path class="af" d="M120.8,312.74c-2.31-.28-4.31-.98-6.03-2.09l.04-34.19c1.71,1.11,3.72,1.81,6.03,2.09-.01,11.4-.03,22.79-.04,34.19Z"></path><path d="M121.45,313.4h-.73c-2.39-.3-4.52-1.04-6.3-2.2l-.3-.19,.04-35.74,1,.65c1.62,1.05,3.56,1.72,5.75,1.99l.57,.07-.04,35.42Zm-6.03-3.11c1.37,.83,2.96,1.4,4.73,1.7l.04-32.88c-1.74-.27-3.32-.78-4.73-1.52l-.04,32.7Z"></path><g class="cm"><g class="cr"><path class="bp" d="M120.95,278.56l-.04,34.19h-.11c-.11-.03-.22-.04-.34-.06l.04-34.19c.11,.02,.22,.03,.34,.04h.11"></path><path class="am" d="M120.51,278.51l-.04,34.19c-.16-.02-.31-.05-.46-.07l.04-34.19c.15,.03,.31,.05,.46,.07"></path><path class="aj" d="M120.05,278.44l-.04,34.19c-.16-.03-.33-.06-.49-.09l.04-34.19c.16,.03,.32,.06,.49,.09"></path><path class="al" d="M119.56,278.34l-.04,34.19c-.18-.04-.37-.08-.55-.12l.04-34.19c.18,.04,.36,.08,.55,.12"></path><path class="bq" d="M119.01,278.22l-.04,34.19c-.22-.05-.43-.11-.64-.17l.04-34.19c.21,.06,.43,.12,.64,.17"></path><path class="aq" d="M118.37,278.06l-.04,34.19c-.29-.08-.58-.17-.86-.27l.04-34.19c.28,.1,.57,.19,.86,.27"></path><path class="bl" d="M117.51,277.78l-.04,34.19c-.97-.34-1.87-.78-2.69-1.32l.04-34.19c.83,.54,1.73,.98,2.69,1.32"></path></g></g></g><g class="cr"><path class="af" d="M121.35,312.8c-.19-.02-.37-.04-.55-.06,.01-11.4,.03-22.79,.04-34.19,.18,.02,.37,.04,.55,.06-.01,11.4-.03,22.79-.04,34.19Z"></path><path d="M122,313.52l-.71-.07c-.19-.02-.38-.04-.57-.06l-.57-.07,.04-35.5,.73,.09c.18,.02,.36,.04,.53,.06l.59,.06-.04,35.5Z"></path><g class="ck"><g class="cr"><path class="ar" d="M121.42,278.61l-.04,34.19c-.16-.01-.31-.03-.47-.05l.04-34.19c.15,.02,.31,.03,.47,.05"></path><path class="bp" d="M120.95,278.56l-.04,34.19h-.11c-.11-.03-.22-.04-.34-.06l.04-34.19c.11,.02,.22,.03,.34,.04h.11"></path></g></g></g><g class="cr"><path class="af" d="M121.35,312.8c.01-11.4,.03-22.79,.04-34.19,2.15,.2,4.46,.08,6.92-.37,3.53-.64,5.3-1.51,5.3-2.61l-.04,34.19c0,1.1-1.77,1.97-5.3,2.61-2.46,.45-4.77,.57-6.92,.37Z"></path><path d="M123.4,313.55c-.72,0-1.42-.03-2.11-.1l-.59-.06,.04-35.5,.71,.07c2.08,.2,4.35,.08,6.74-.36,4.53-.82,4.76-1.79,4.77-1.97h1.3l-.04,34.19c0,1.5-1.85,2.53-5.83,3.25-1.73,.31-3.4,.47-4.99,.47Zm-1.39-1.34c1.92,.12,3.98-.01,6.15-.41,4.54-.82,4.77-1.79,4.77-1.98l.04-32.34c-.96,.57-2.45,1.03-4.53,1.41-2.24,.41-4.39,.55-6.39,.43l-.04,32.89Z"></path><g class="ci"><g class="cr"><path class="al" d="M133.61,275.63l-.04,34.19v.03l.04-34.19v-.03"></path><path class="aj" d="M133.61,275.66l-.04,34.19c0,.07-.01,.14-.03,.2l.04-34.19c.02-.07,.02-.13,.03-.2"></path><path class="am" d="M133.59,275.86l-.04,34.19c-.01,.06-.03,.12-.06,.18l.04-34.19c.03-.06,.05-.12,.06-.18"></path><path class="bp" d="M133.53,276.04l-.04,34.19c-.02,.06-.05,.11-.09,.16l.04-34.19c.03-.05,.06-.11,.09-.16"></path><path class="ar" d="M133.44,276.2l-.04,34.19c-.03,.05-.07,.1-.11,.16l.04-34.19c.04-.05,.08-.1,.11-.16"></path><path class="ai" d="M133.33,276.36l-.04,34.19c-.04,.05-.09,.1-.14,.15l.04-34.19c.05-.05,.1-.1,.14-.15"></path><path class="bn" d="M133.19,276.51l-.04,34.19c-.05,.05-.11,.1-.17,.15l.04-34.19c.06-.05,.12-.1,.17-.15"></path><path class="ak" d="M133.02,276.66l-.04,34.19c-.06,.05-.13,.1-.21,.15l.04-34.19c.07-.05,.14-.1,.21-.15"></path><path class="ao" d="M132.81,276.81l-.04,34.19c-.08,.05-.16,.11-.25,.16l.04-34.19c.09-.05,.18-.1,.25-.16"></path><path class="bm" d="M132.56,276.97l-.04,34.19c-.1,.06-.22,.12-.33,.17l.04-34.19c.12-.06,.23-.11,.33-.17"></path><path class="aw" d="M132.22,277.14l-.04,34.19c-.14,.07-.3,.14-.47,.2l.04-34.19c.17-.07,.32-.13,.47-.2"></path><path class="as" d="M131.76,277.34l-.04,34.19c-.24,.09-.5,.19-.78,.27l.04-34.19c.28-.09,.54-.18,.78-.27"></path><path class="ax" d="M130.98,277.62l-.04,34.19c-.73,.23-1.62,.44-2.66,.63-.94,.17-1.86,.3-2.76,.37l.04-34.19c.9-.08,1.82-.2,2.76-.37,1.04-.19,1.93-.4,2.66-.63"></path><path class="as" d="M125.55,278.61l-.04,34.19c-.3,.03-.6,.05-.89,.06l.04-34.19c.29-.01,.59-.03,.89-.06"></path><path class="aw" d="M124.66,278.68l-.04,34.19c-.23,.01-.45,.02-.67,.02l.04-34.19c.22,0,.45-.01,.67-.02"></path><path class="bm" d="M123.99,278.7l-.04,34.19c-.19,0-.39,0-.58,0l.04-34.19c.19,0,.38,0,.58,0"></path><path class="ao" d="M123.41,278.71l-.04,34.19c-.18,0-.35,0-.53,0l.04-34.19c.18,0,.35,0,.53,0"></path><path class="ak" d="M122.88,278.7l-.04,34.19c-.17,0-.33-.01-.5-.02l.04-34.19c.17,0,.33,.01,.5,.02"></path><path class="bn" d="M122.38,278.68l-.04,34.19c-.16,0-.32-.02-.48-.03l.04-34.19c.16,.01,.32,.02,.48,.03"></path><path class="ai" d="M121.9,278.65l-.04,34.19c-.16-.01-.32-.02-.48-.04l.04-34.19c.16,.01,.32,.03,.48,.04"></path><path class="ar" d="M121.42,278.61l-.04,34.19c-.16-.01-.31-.03-.47-.05l.04-34.19c.15,.02,.31,.03,.47,.05"></path></g></g></g><path class="af" d="M139.67,279.12c-1.61,.89-3.85,1.6-6.73,2.13-2.63,.48-5.44,.71-8.43,.71-2.99,0-5.94-.34-8.85-1.02-2.92-.67-5.51-1.75-7.77-3.22l-4.98-3.23-20.98,3.81-4.5-2.92,51.72-9.4,9.48,6.16c2.11,1.37,3.21,2.65,3.3,3.85,.1,1.2-.66,2.24-2.26,3.14Zm-18.82-.57c2.3,.28,4.8,.18,7.47-.31,5.66-1.03,6.78-2.64,3.38-4.85l-4.98-3.23-16.88,3.07,4.98,3.23c1.71,1.11,3.72,1.81,6.03,2.09"></path><path class="ae" d="M131.7,273.39c3.4,2.21,2.28,3.82-3.38,4.85-2.68,.49-5.17,.59-7.47,.31-2.31-.28-4.31-.98-6.03-2.09l-4.98-3.23,16.88-3.07,4.98,3.23Z"></path><g class="cr"><path class="af" d="M141.94,276.19l-.04,34.19c0,1.11-.76,2.09-2.27,2.93l.04-34.19c1.51-.84,2.27-1.82,2.27-2.93Z"></path><path d="M138.97,314.42l.04-35.68,.33-.19c1.3-.73,1.94-1.5,1.94-2.37h1.3l-.04,34.19c0,1.36-.88,2.54-2.6,3.5l-.97,.54Zm1.34-34.93l-.04,32.6c.65-.54,.97-1.1,.97-1.72l.04-31.59c-.28,.25-.6,.48-.97,.71Z"></path><g class="bs"><g class="cr"><path class="ae" d="M141.94,276.19l-.04,34.19s0,.05,0,.07l.04-34.19s0-.05,0-.07"></path><path class="ae" d="M141.94,276.26l-.04,34.19c0,.16-.03,.32-.06,.47l.04-34.19c.04-.15,.06-.31,.06-.47"></path><path class="ae" d="M141.87,276.73l-.04,34.19c-.03,.14-.08,.27-.13,.41l.04-34.19c.06-.13,.1-.27,.13-.41"></path><path class="ae" d="M141.74,277.13l-.04,34.19c-.05,.12-.12,.24-.19,.36l.04-34.19c.07-.12,.14-.24,.19-.36"></path><path class="ae" d="M141.55,277.5l-.04,34.19c-.07,.11-.15,.23-.24,.34l.04-34.19c.09-.11,.17-.22,.24-.34"></path><path class="ae" d="M141.3,277.83l-.04,34.19c-.09,.11-.19,.21-.29,.32l.04-34.19c.11-.1,.2-.21,.29-.32"></path><path class="ae" d="M141.01,278.15l-.04,34.19c-.11,.1-.22,.21-.35,.31l.04-34.19c.13-.1,.24-.2,.35-.31"></path><path class="ae" d="M140.66,278.46l-.04,34.19c-.13,.1-.27,.21-.42,.31l.04-34.19c.15-.1,.29-.2,.42-.31"></path><path class="ae" d="M140.24,278.77l-.04,34.19c-.16,.11-.33,.21-.51,.32l.04-34.19c.18-.1,.35-.21,.51-.32"></path><path class="ae" d="M139.73,279.08l-.04,34.19-.07,.04,.04-34.19,.07-.04"></path></g></g></g><g class="cr"><path class="af" d="M139.67,279.12l-.04,34.19c-1.61,.89-3.85,1.6-6.73,2.13-2.63,.48-5.44,.71-8.43,.71-2.99,0-5.94-.34-8.85-1.02-2.92-.67-5.51-1.75-7.77-3.22l.04-34.19c2.27,1.47,4.85,2.54,7.77,3.22,2.91,.68,5.86,1.01,8.85,1.02,2.99,0,5.8-.23,8.43-.71,2.88-.52,5.12-1.23,6.73-2.13Z"></path><path d="M124.57,316.8h-.11c-3.02,0-6.05-.35-8.99-1.04-2.97-.69-5.66-1.8-7.98-3.31l-.3-.19,.04-35.74,1,.65c2.2,1.42,4.74,2.48,7.56,3.13,2.85,.66,5.78,1,8.7,1,2.94,.05,5.74-.23,8.31-.7,2.79-.51,4.98-1.2,6.53-2.06l.97-.54-.04,35.68-.33,.19c-1.67,.93-4,1.67-6.93,2.2-2.62,.48-5.46,.72-8.44,.72Zm-16.08-5.24c2.13,1.33,4.57,2.32,7.27,2.94,2.85,.66,5.78,1,8.7,1,2.94,.03,5.74-.23,8.31-.7,2.59-.47,4.67-1.1,6.19-1.88l.04-32.75c-1.56,.7-3.56,1.28-5.96,1.72-2.66,.48-5.56,.69-8.55,.72-3.02,0-6.05-.35-8.99-1.03-2.55-.59-4.89-1.49-6.98-2.69l-.04,32.68Z"></path><g class="bw"><g class="cr"><path class="ae" d="M139.67,279.12l-.04,34.19c-.2,.11-.42,.22-.64,.33l.04-34.19c.22-.11,.44-.22,.64-.33"></path><path class="ae" d="M139.03,279.45l-.04,34.19c-.29,.14-.61,.28-.94,.41l.04-34.19c.33-.13,.64-.27,.94-.41"></path><path class="ae" d="M138.09,279.86l-.04,34.19c-.43,.17-.88,.33-1.37,.48l.04-34.19c.49-.15,.94-.31,1.37-.48"></path><path class="ae" d="M136.73,280.34l-.04,34.19c-1.11,.35-2.37,.65-3.79,.91-1.3,.24-2.65,.41-4.05,.53l.04-34.19c1.4-.12,2.75-.3,4.05-.53,1.42-.26,2.68-.56,3.79-.91"></path><path class="ae" d="M128.89,281.78l-.04,34.19c-.55,.05-1.11,.08-1.67,.11l.04-34.19c.56-.03,1.12-.07,1.67-.11"></path><path class="ae" d="M127.22,281.89l-.04,34.19c-.46,.02-.93,.04-1.39,.05l.04-34.19c.47-.01,.93-.03,1.39-.05"></path><path class="ae" d="M125.83,281.94l-.04,34.19c-.44,0-.87,.01-1.32,.01h-.03l.04-34.19h.03c.44,0,.88,0,1.32-.01"></path><path class="ae" d="M124.48,281.95l-.04,34.19c-.31,0-.61,0-.92-.01l.04-34.19c.3,0,.61,.01,.92,.01"></path><path class="ae" d="M123.56,281.94l-.04,34.19c-.3,0-.59-.02-.89-.03l.04-34.19c.3,.01,.59,.02,.89,.03"></path><path class="ae" d="M122.67,281.91l-.04,34.19c-.29-.01-.59-.03-.88-.05l.04-34.19c.29,.02,.59,.04,.88,.05"></path><path class="ae" d="M121.79,281.86l-.04,34.19c-.3-.02-.59-.04-.89-.07l.04-34.19c.3,.03,.59,.05,.89,.07"></path><path class="ae" d="M120.9,281.79l-.04,34.19c-.31-.03-.61-.06-.92-.1l.04-34.19c.3,.04,.61,.07,.92,.1"></path><path class="ae" d="M119.99,281.69l-.04,34.19c-.32-.04-.64-.08-.97-.12l.04-34.19c.32,.05,.64,.09,.97,.12"></path><path class="ae" d="M119.02,281.56l-.04,34.19c-.35-.05-.7-.1-1.04-.16l.04-34.19c.35,.06,.69,.11,1.04,.16"></path><path class="ae" d="M117.98,281.4l-.04,34.19c-.39-.07-.78-.14-1.17-.22l.04-34.19c.39,.08,.78,.15,1.17,.22"></path><path class="ae" d="M116.81,281.19l-.04,34.19c-.38-.08-.77-.16-1.15-.25-.06-.01-.11-.03-.17-.04l.04-34.19c.06,.01,.11,.03,.17,.04,.38,.09,.77,.17,1.15,.25"></path><path class="ae" d="M115.49,280.9l-.04,34.19c-.41-.1-.81-.2-1.21-.32l.04-34.19c.4,.11,.8,.22,1.21,.32"></path><path class="ae" d="M114.29,280.58l-.04,34.19c-.54-.15-1.06-.32-1.57-.5l.04-34.19c.51,.18,1.04,.35,1.57,.5"></path><path class="ae" d="M112.71,280.08l-.04,34.19c-1.75-.62-3.35-1.41-4.82-2.36l.04-34.19c1.47,.96,3.08,1.74,4.82,2.36"></path></g></g></g><polygon class="au" points="157.78 284.51 157.74 318.7 96.11 321.73 96.15 287.54 157.78 284.51"></polygon><polygon class="bo" points="162.99 287.9 162.95 322.09 157.74 318.7 157.78 284.51 162.99 287.9"></polygon><polygon class="ae" points="150.12 288.07 150.08 322.26 121.54 323.71 121.58 289.52 150.12 288.07"></polygon><polygon class="ae" points="113.4 289.95 113.35 324.14 100.81 324.78 100.85 290.59 113.4 289.95"></polygon><polygon class="ae" points="100.85 290.59 100.81 324.78 96.11 321.73 96.15 287.54 100.85 290.59"></polygon><polygon class="bo" points="130.55 295.34 130.51 329.53 121.54 323.71 121.58 289.52 130.55 295.34"></polygon><polygon class="an" points="150.12 288.07 150.08 322.26 130.51 329.53 130.55 295.34 150.12 288.07"></polygon><polygon class="bo" points="176.51 296.74 176.47 330.93 171.45 327.67 171.49 293.48 176.51 296.74"></polygon><polygon class="ae" points="124.89 297.42 124.85 331.61 113.35 324.14 113.4 289.95 124.89 297.42"></polygon><polygon class="an" points="124.89 297.42 124.85 331.61 116.26 334.81 116.3 300.62 124.89 297.42"></polygon><polygon class="ae" points="121.04 303.7 121 337.89 116.26 334.81 116.3 300.62 121.04 303.7"></polygon><path class="af" d="M162.99,287.9l-41.95,15.8-4.74-3.08,8.59-3.2-11.5-7.47-12.54,.64-4.7-3.05,61.62-3.02,5.21,3.39Zm-41.41,1.62l8.97,5.82,19.57-7.27-28.54,1.44"></path><polygon class="ae" points="162.99 287.9 162.95 322.09 121 337.89 121.04 303.7 162.99 287.9"></polygon><polygon class="at" points="171.49 293.48 171.45 327.67 147.62 339.59 147.66 305.4 171.49 293.48"></polygon><polygon class="ae" points="176.51 296.74 176.47 330.93 157.46 339.67 157.5 305.48 176.51 296.74"></polygon><polygon class="av" points="189.23 305 189.19 339.19 157.46 339.67 157.5 305.48 189.23 305"></polygon><polygon class="bo" points="194.21 308.23 194.17 342.42 189.19 339.19 189.23 305 194.21 308.23"></polygon><polygon class="ae" points="194.21 308.23 194.17 342.42 152.12 342.51 152.16 308.32 194.21 308.23"></polygon><polygon class="ap" points="147.66 305.4 147.62 339.59 128.87 343 128.91 308.8 147.66 305.4"></polygon><polygon class="ae" points="133.41 311.73 133.37 345.92 128.87 343 128.91 308.8 133.41 311.73"></polygon><polygon class="ae" points="152.16 308.32 152.12 342.51 133.37 345.92 133.41 311.73 152.16 308.32"></polygon><g class="cr"><path class="ae" d="M270.3,334.06l-.04,18.71c0-.73-.5-1.48-1.57-2.17l.04-18.71c1.07,.69,1.57,1.44,1.57,2.17Z"></path><g class="bu"><g class="cr"><path class="ae" d="M270.3,334.06l-.04,18.71c0-.73-.5-1.48-1.57-2.17l.04-18.71c1.07,.69,1.57,1.44,1.57,2.17"></path></g></g></g><g class="cr"><path class="ae" d="M270.26,352.78c0,1.66-2.6,3.27-7.16,4.1l.04-18.71c4.55-.83,7.16-2.44,7.16-4.1-.01,10.26-.03,8.46-.04,18.71Z"></path><g class="cq"><g class="cr"><path class="ae" d="M270.3,334.06l-.04,18.71v.05l.04-18.71v-.05"></path><path class="ae" d="M270.3,334.11l-.04,18.71c0,.11-.02,.22-.04,.33l.04-18.71c.03-.11,.04-.22,.04-.33"></path><path class="ae" d="M270.26,334.44l-.04,18.71c-.02,.1-.06,.21-.1,.31l.04-18.71c.04-.1,.08-.21,.1-.31"></path><path class="ae" d="M270.16,334.75l-.04,18.71c-.04,.1-.1,.2-.16,.3l.04-18.71c.06-.1,.11-.2,.16-.3"></path><path class="ae" d="M270,335.04l-.04,18.71c-.06,.1-.13,.19-.21,.29l.04-18.71c.08-.1,.15-.19,.21-.29"></path><path class="ae" d="M269.79,335.33l-.04,18.71c-.08,.1-.17,.19-.26,.28l.04-18.71c.1-.09,.18-.19,.26-.28"></path><path class="ae" d="M269.53,335.62l-.04,18.71c-.1,.1-.21,.19-.32,.28l.04-18.71c.12-.09,.22-.19,.32-.28"></path><path class="ae" d="M269.21,335.9l-.04,18.71c-.12,.1-.25,.19-.39,.28l.04-18.71c.14-.09,.27-.19,.39-.28"></path><path class="ae" d="M268.82,336.18l-.04,18.71c-.15,.1-.3,.2-.47,.29l.04-18.71c.17-.1,.32-.19,.47-.29"></path><path class="ae" d="M268.35,336.47l-.04,18.71c-.18,.1-.38,.21-.58,.3l.04-18.71c.21-.1,.4-.2,.58-.3"></path><path class="ae" d="M267.76,336.78l-.04,18.71c-.24,.11-.49,.22-.76,.33l.04-18.71c.27-.11,.52-.22,.76-.33"></path><path class="ae" d="M267,337.11l-.04,18.71c-.34,.13-.7,.26-1.09,.38l.04-18.71c.39-.12,.75-.25,1.09-.38"></path><path class="ae" d="M265.91,337.49l-.04,18.71c-.82,.26-1.74,.48-2.76,.67l.04-18.71c1.02-.19,1.94-.41,2.76-.67"></path></g></g></g><g class="cr"><path class="ae" d="M271.67,334.06l-.04,18.71c0,1.83-2.86,3.6-7.88,4.51l.04-18.71c5.01-.91,7.88-2.68,7.88-4.51Z"></path><g class="co"><g class="cr"><path class="ae" d="M271.67,334.06l-.04,18.71v.05l.04-18.71v-.05"></path><path class="ae" d="M271.66,334.12l-.04,18.71c0,.12-.02,.24-.05,.36l.04-18.71c.03-.12,.04-.24,.05-.36"></path><path class="ae" d="M271.62,334.48l-.04,18.71c-.03,.11-.06,.23-.11,.34l.04-18.71c.05-.11,.09-.23,.11-.34"></path><path class="ae" d="M271.5,334.82l-.04,18.71c-.05,.11-.1,.22-.17,.33l.04-18.71c.07-.11,.13-.22,.17-.33"></path><path class="ae" d="M271.33,335.14l-.04,18.71c-.07,.11-.14,.21-.23,.32l.04-18.71c.09-.11,.16-.21,.23-.32"></path><path class="ae" d="M271.1,335.46l-.04,18.71c-.09,.11-.18,.21-.29,.31l.04-18.71c.11-.1,.2-.21,.29-.31"></path><path class="ae" d="M270.81,335.77l-.04,18.71c-.11,.11-.23,.21-.35,.31l.04-18.71c.13-.1,.25-.21,.35-.31"></path><path class="ae" d="M270.46,336.08l-.04,18.71c-.13,.11-.27,.21-.43,.31l.04-18.71c.15-.1,.3-.21,.43-.31"></path><path class="ae" d="M270.03,336.4l-.04,18.71c-.16,.11-.33,.22-.52,.32l.04-18.71c.18-.1,.36-.21,.52-.32"></path><path class="ae" d="M269.51,336.72l-.04,18.71c-.2,.11-.42,.23-.64,.33l.04-18.71c.23-.11,.44-.22,.64-.33"></path><path class="ae" d="M268.87,337.05l-.04,18.71c-.26,.13-.54,.25-.84,.36l.04-18.71c.3-.12,.58-.24,.84-.36"></path><path class="ae" d="M268.03,337.42l-.04,18.71c-.37,.15-.77,.29-1.2,.42l.04-18.71c.43-.13,.83-.27,1.2-.42"></path><path class="ae" d="M266.83,337.84l-.04,18.71c-.9,.28-1.92,.53-3.04,.73l.04-18.71c1.13-.2,2.14-.45,3.04-.73"></path></g></g></g><polygon class="ae" points="157.57 352.1 157.53 370.81 2.94 270.41 2.98 251.7 157.57 352.1"></polygon><polygon class="ae" points="263.15 338.16 263.11 356.87 175.76 372.75 175.8 354.04 263.15 338.16"></polygon><g class="cr"><path class="ae" d="M175.8,354.04l-.04,18.71c-6.56,1.19-14.74,.32-18.23-1.94l.04-18.71c3.49,2.26,11.66,3.13,18.23,1.94Z"></path><g class="cn"><g class="cr"><path class="ae" d="M175.8,354.04l-.04,18.71c-.99,.18-2.02,.31-3.06,.4l.04-18.71c1.04-.09,2.07-.22,3.06-.4"></path><path class="ae" d="M172.74,354.44l-.04,18.71c-.42,.04-.84,.06-1.26,.08l.04-18.71c.42-.02,.84-.05,1.26-.08"></path><path class="ae" d="M171.47,354.52l-.04,18.71c-.35,.02-.7,.03-1.05,.04l.04-18.71c.35,0,.7-.02,1.05-.04"></path><path class="ae" d="M170.42,354.56l-.04,18.71c-.32,0-.64,.01-.95,0l.04-18.71c.32,0,.64,0,.95,0"></path><path class="ae" d="M169.47,354.57l-.04,18.71c-.3,0-.6,0-.9-.01l.04-18.71c.3,0,.6,.01,.9,.01"></path><path class="ae" d="M168.57,354.56l-.04,18.71c-.29,0-.58-.02-.87-.03l.04-18.71c.29,.01,.58,.02,.87,.03"></path><path class="ae" d="M167.7,354.53l-.04,18.71c-.29-.01-.57-.03-.85-.05l.04-18.71c.28,.02,.57,.04,.85,.05"></path><path class="ae" d="M166.84,354.48l-.04,18.71c-.28-.02-.56-.04-.84-.07l.04-18.71c.28,.03,.56,.05,.84,.07"></path><path class="ae" d="M166.01,354.41l-.04,18.71c-.28-.03-.55-.05-.83-.09l.04-18.71c.27,.03,.55,.06,.83,.09"></path><path class="ae" d="M165.18,354.32l-.04,18.71c-.28-.03-.55-.07-.82-.11l.04-18.71c.27,.04,.54,.07,.82,.11"></path><path class="ae" d="M164.36,354.22l-.04,18.71c-.28-.04-.55-.08-.82-.13l.04-18.71c.27,.05,.55,.09,.82,.13"></path><path class="ae" d="M163.53,354.09l-.04,18.71c-.28-.05-.56-.1-.84-.15l.04-18.71c.27,.06,.55,.11,.84,.15"></path><path class="ae" d="M162.7,353.93l-.04,18.71c-.3-.06-.59-.12-.87-.19l.04-18.71c.28,.07,.58,.13,.87,.19"></path><path class="ae" d="M161.82,353.74l-.04,18.71c-.32-.08-.64-.16-.94-.25l.04-18.71c.3,.09,.62,.17,.94,.25"></path><path class="ae" d="M160.88,353.5l-.04,18.71c-.38-.11-.75-.23-1.1-.35l.04-18.71c.35,.12,.71,.24,1.1,.35"></path><path class="ae" d="M159.79,353.15l-.04,18.71c-.86-.31-1.61-.66-2.21-1.05l.04-18.71c.61,.39,1.36,.75,2.21,1.05"></path></g></g></g><path class="af" d="M269.93,331.67c3.84,2.49,1.08,5.59-6.15,6.9l-87.35,15.88c-7.23,1.31-16.23,.36-20.07-2.14L1.77,251.92c-3.84-2.49-1.08-5.59,6.15-6.9l87.35-15.88c7.23-1.31,16.23-.35,20.07,2.14l154.59,100.39Zm-94.13,22.36l87.35-15.88c6.56-1.19,9.07-4.01,5.58-6.27L114.14,231.5c-3.48-2.26-11.66-3.13-18.22-1.94l-87.35,15.88c-6.56,1.19-9.07,4.01-5.59,6.27l154.59,100.39c3.49,2.26,11.66,3.13,18.23,1.94"></path><polygon class="ae" points="150.12 288.07 121.58 289.52 130.55 295.34 150.12 288.07"></polygon><polygon class="af" points="194.21 308.23 152.16 308.32 133.41 311.73 128.91 308.8 147.66 305.4 171.49 293.48 176.51 296.74 157.5 305.48 189.23 305 194.21 308.23"></polygon><polygon class="ae" points="156.36 352.31 156.32 371.03 1.73 270.63 1.77 251.92 156.36 352.31"></polygon><polygon class="ae" points="263.79 338.57 263.75 357.29 176.4 373.16 176.44 354.45 263.79 338.57"></polygon><path class="ae" d="M268.73,331.89c3.49,2.26,.98,5.08-5.58,6.27l-87.35,15.88c-6.56,1.19-14.74,.32-18.23-1.94L2.98,251.7c-3.48-2.26-.98-5.07,5.59-6.27l87.35-15.88c6.56-1.19,14.74-.32,18.22,1.94l154.59,100.39Zm-152.43-31.27l4.74,3.08,41.95-15.8-5.21-3.39-61.62,3.02,4.7,3.05,12.54-.64,11.5,7.47-8.59,3.2m35.86,7.7l42.05-.09-4.98-3.23-31.73,.48,19.01-8.74-5.02-3.26-23.84,11.92-18.75,3.41,4.5,2.92,18.75-3.41m-36.5-27.38c2.91,.68,5.86,1.01,8.85,1.02,2.99,0,5.8-.23,8.43-.71,2.88-.52,5.12-1.23,6.73-2.13,1.6-.9,2.36-1.94,2.26-3.14-.1-1.2-1.19-2.48-3.3-3.85l-9.48-6.16-51.72,9.4,4.5,2.92,20.98-3.81,4.98,3.23c2.27,1.47,4.85,2.54,7.77,3.22"></path><g class="cr"><path class="ae" d="M176.44,354.45l-.04,18.71c-7.23,1.31-16.23,.36-20.07-2.14l.04-18.71c3.84,2.49,12.84,3.45,20.07,2.14Z"></path><g class="cp"><g class="cr"><path class="ae" d="M176.44,354.45l-.04,18.71c-1.09,.2-2.23,.35-3.38,.44l.04-18.71c1.15-.1,2.28-.24,3.38-.44"></path><path class="ae" d="M173.06,354.89l-.04,18.71c-.46,.04-.93,.07-1.39,.09l.04-18.71c.47-.02,.93-.05,1.39-.09"></path><path class="ae" d="M171.67,354.99l-.04,18.71c-.38,.02-.77,.03-1.16,.04l.04-18.71c.39,0,.77-.02,1.16-.04"></path><path class="ae" d="M170.51,355.03l-.04,18.71c-.35,0-.7,.01-1.05,.01l.04-18.71c.35,0,.7,0,1.05-.01"></path><path class="ae" d="M169.46,355.04l-.04,18.71c-.33,0-.66,0-1-.01l.04-18.71c.33,0,.66,.01,1,.01"></path><path class="ae" d="M168.47,355.03l-.04,18.71c-.32,0-.64-.02-.96-.03l.04-18.71c.32,.02,.64,.03,.96,.03"></path><path class="ae" d="M167.51,354.99l-.04,18.71c-.31-.01-.63-.03-.94-.06l.04-18.71c.31,.02,.62,.04,.94,.06"></path><path class="ae" d="M166.57,354.94l-.04,18.71c-.31-.02-.62-.05-.92-.08l.04-18.71c.3,.03,.61,.05,.92,.08"></path><path class="ae" d="M165.65,354.86l-.04,18.71c-.31-.03-.61-.06-.91-.1l.04-18.71c.3,.04,.6,.07,.91,.1"></path><path class="ae" d="M164.74,354.77l-.04,18.71c-.3-.04-.61-.07-.9-.12l.04-18.71c.3,.04,.6,.08,.9,.12"></path><path class="ae" d="M163.83,354.65l-.04,18.71c-.31-.04-.61-.09-.91-.14l.04-18.71c.3,.05,.6,.1,.91,.14"></path><path class="ae" d="M162.93,354.51l-.04,18.71c-.31-.05-.62-.11-.92-.17l.04-18.71c.3,.06,.61,.12,.92,.17"></path><path class="ae" d="M162,354.34l-.04,18.71c-.33-.07-.65-.14-.96-.21l.04-18.71c.31,.07,.63,.14,.96,.21"></path><path class="ae" d="M161.04,354.13l-.04,18.71c-.36-.08-.7-.17-1.04-.27l.04-18.71c.33,.1,.68,.19,1.04,.27"></path><path class="ae" d="M160.01,353.86l-.04,18.71c-.42-.12-.82-.25-1.21-.39l.04-18.71c.38,.14,.79,.27,1.21,.39"></path><path class="ae" d="M158.8,353.47l-.04,18.71c-.94-.34-1.77-.72-2.44-1.16l.04-18.71c.67,.43,1.49,.82,2.44,1.16"></path></g></g></g><path class="af" d="M102.17,229.02c4.84,0,9.54,.9,11.96,2.47l154.59,100.39c3.49,2.26,.98,5.08-5.58,6.27l-87.35,15.88c-2,.36-4.14,.53-6.26,.53-4.85,0-9.54-.9-11.97-2.48L2.98,251.7c-3.48-2.26-.98-5.07,5.59-6.27l87.35-15.88c2-.36,4.14-.53,6.26-.53m0-1.3c-2.25,0-4.49,.19-6.49,.56l-87.35,15.88c-4.82,.88-7.72,2.58-8.17,4.8-.16,.81-.11,2.4,2.1,3.83l154.59,100.39c2.55,1.66,7.41,2.69,12.68,2.69,2.25,0,4.49-.19,6.49-.56l87.35-15.88c4.82-.88,7.72-2.58,8.17-4.8,.16-.82,.11-2.4-2.11-3.84L114.85,230.41c-2.55-1.66-7.4-2.68-12.67-2.68h0Z"></path></g><g><g><line class="ag" x1="71.62" y1="73.89" x2="74.75" y2="75.17"></line><rect x="72.54" y="72.84" width="1.3" height="3.37" transform="translate(-23.49 114.09) rotate(-67.78)"></rect></g><g><g><path class="ag" d="M126.17,67.81l-8.79-13.01,8.96-6.53-24.04-4.43-11.28,6.01-7.65,10.81-1.2,7.52-1.61,3.06c-1.07,2.03-.27,4.54,1.78,5.57,1.84,.93,4.06,.33,5.21-1.33l.34,.08-.73,1.88c-.94,2.43,.3,5.16,2.75,6.05,1.78,.65,3.71,.14,4.95-1.15-.12,2.12,1.22,4.13,3.36,4.74,2.44,.7,4.99-.67,5.74-3.1l.05-.16c-.33,2.41,1.14,4.77,3.56,5.47,2.61,.75,5.35-.72,6.15-3.32l.62-1.99c.63,.45,1.37,.76,2.17,.89,3.17,.51,6.03-1.97,5.98-5.18l-.04-2.73,3.94-6.18c.6-.94,.51-2.16-.23-2.99Z"></path><g><g><path class="ag" d="M117.37,54.8l8.79,13.01c.73,.84,.83,2.06,.23,2.99l-3.94,6.18,.04,2.73c.05,3.21-2.81,5.69-5.98,5.18h0c-2-.32-3.64-1.78-4.17-3.74"></path><path d="M117.33,85.6c-.31,0-.62-.02-.92-.07-2.25-.36-4.09-2.01-4.69-4.21l1.25-.34c.47,1.71,1.9,2.99,3.65,3.27,1.32,.21,2.66-.17,3.67-1.05,1.01-.88,1.58-2.14,1.56-3.48l-.04-2.92,4.05-6.34c.44-.69,.37-1.6-.17-2.21l-8.84-13.08,1.08-.73,8.79,13.01c.87,.98,.99,2.53,.24,3.71l-3.84,6.01,.04,2.53c.03,1.72-.71,3.36-2.01,4.49-1.07,.92-2.42,1.42-3.8,1.42Z"></path></g><g><polyline class="af" points="81.25 74.04 83.37 60.66 91.02 49.85"></polyline><polygon points="81.89 74.15 80.6 73.94 82.76 60.41 90.49 49.48 91.56 50.23 83.99 60.91 81.89 74.15"></polygon></g><line class="ag" x1="89.89" y1="82.78" x2="89.89" y2="82.78"></line><g><path class="ag" d="M82.34,76.81h0c-2.05-1.03-2.85-3.54-1.78-5.57l4.44-8.39c1.04-1.97,3.47-2.75,5.46-1.75h0c2.05,1.03,2.85,3.54,1.78,5.57l-4.44,8.39c-1.04,1.97-3.47,2.75-5.46,1.75Z"></path><path d="M84.16,77.89c-.71,0-1.44-.16-2.11-.5-1.15-.58-2-1.57-2.39-2.8s-.28-2.53,.32-3.66l4.44-8.39c1.2-2.27,4.04-3.17,6.33-2.02,1.15,.58,2,1.57,2.39,2.8s.28,2.53-.32,3.66l-4.44,8.39c-.85,1.6-2.51,2.52-4.22,2.52Zm4.47-16.58c-1.24,0-2.45,.67-3.06,1.83l-4.44,8.39c-.44,.83-.52,1.77-.24,2.66s.9,1.61,1.73,2.03h0c1.67,.84,3.73,.18,4.6-1.47l4.44-8.39c.44-.83,.52-1.77,.24-2.66s-.9-1.61-1.73-2.03c-.49-.25-1.02-.36-1.53-.36Z"></path></g><g><path class="ag" d="M89.92,83.49h0c-2.45-.89-3.69-3.62-2.75-6.05l3.89-10.07c.91-2.37,3.55-3.57,5.94-2.7h0c2.45,.89,3.69,3.62,2.75,6.05l-3.89,10.07c-.91,2.37-3.55,3.57-5.94,2.7Z"></path><path d="M91.49,84.42c-.6,0-1.2-.1-1.79-.31h0c-1.35-.49-2.42-1.48-3.02-2.79-.6-1.31-.64-2.77-.12-4.11l3.89-10.07c1.03-2.68,4.07-4.05,6.76-3.08,1.35,.49,2.42,1.48,3.02,2.79,.6,1.31,.64,2.77,.12,4.11l-3.89,10.07c-.81,2.09-2.84,3.39-4.97,3.39Zm3.93-19.38c-1.61,0-3.15,.98-3.76,2.56l-3.89,10.07c-.39,1.01-.36,2.11,.09,3.1s1.26,1.74,2.28,2.11h0c2.03,.74,4.33-.3,5.11-2.32l3.89-10.07c.39-1.01,.36-2.11-.09-3.1-.45-.99-1.26-1.74-2.28-2.11-.44-.16-.9-.24-1.35-.24Z"></path></g><g><path class="ag" d="M98.23,87.09h0c-2.51-.72-3.93-3.36-3.16-5.85l3.19-10.31c.75-2.42,3.3-3.8,5.74-3.1h0c2.51,.72,3.93,3.36,3.16,5.85l-3.19,10.31c-.75,2.42-3.3,3.8-5.74,3.1Z"></path><path d="M99.5,87.92c-.48,0-.97-.07-1.45-.21h0c-1.38-.4-2.52-1.32-3.2-2.58-.68-1.27-.82-2.72-.4-4.09l3.19-10.31c.85-2.74,3.78-4.32,6.54-3.53,1.38,.4,2.52,1.31,3.2,2.58,.68,1.26,.82,2.72,.4,4.09l-3.19,10.31c-.7,2.26-2.82,3.73-5.09,3.73Zm-1.09-1.46c2.08,.6,4.3-.6,4.94-2.66l3.19-10.31c.32-1.04,.21-2.13-.3-3.09-.52-.96-1.37-1.65-2.42-1.95-2.08-.61-4.3,.6-4.94,2.66l-3.19,10.31c-.32,1.04-.21,2.13,.3,3.09,.52,.96,1.37,1.65,2.42,1.95h0Z"></path></g><g><path class="ag" d="M106.9,89.3h0c-2.69-.77-4.21-3.6-3.39-6.27l3.42-11.05c.8-2.6,3.54-4.07,6.15-3.32h0c2.69,.77,4.21,3.6,3.39,6.27l-3.42,11.05c-.8,2.6-3.54,4.07-6.15,3.32Z"></path><path d="M108.26,90.15c-.51,0-1.03-.07-1.54-.22h0c-1.47-.42-2.68-1.4-3.4-2.74-.73-1.34-.88-2.89-.42-4.35l3.42-11.05c.9-2.91,4.02-4.59,6.95-3.75,1.47,.42,2.68,1.4,3.4,2.74,.73,1.35,.88,2.89,.42,4.35l-3.42,11.05c-.75,2.4-3,3.97-5.41,3.97Zm-1.18-1.47c2.26,.66,4.66-.65,5.35-2.89l3.42-11.05c.35-1.12,.23-2.31-.33-3.35-.56-1.03-1.49-1.78-2.62-2.11-2.26-.65-4.66,.64-5.35,2.89l-3.42,11.05c-.35,1.12-.23,2.31,.33,3.35,.56,1.03,1.49,1.78,2.62,2.11h0Z"></path></g></g><g><path class="ag" d="M109.34,61.95s.43,7.41,10.72,8.78"></path><path d="M119.97,71.37c-10.69-1.42-11.28-9.3-11.28-9.38l1.3-.08c.02,.28,.56,6.9,10.15,8.17l-.17,1.29Z"></path></g></g><g><polygon class="af" points="78.09 234.07 127.18 198.55 148.58 218.54 101.19 251.48 77.7 236.84 78.09 234.07"></polygon><path d="M101.21,252.26l-24.22-15.09,.49-3.47,49.75-36,22.37,20.91-48.39,33.64Zm-22.81-15.75l22.77,14.19,46.37-32.23-20.41-19.08-48.44,35.04-.29,2.08Z"></path></g><g><g><g><path class="af" d="M74.28,284.2c3.82,0,3.82,2.69,7.63,2.69s3.82-2.69,7.63-2.69,3.82,2.69,7.63,2.69,3.82-2.69,7.63-2.69,3.82,2.69,7.63,2.69,3.82-2.69,7.63-2.69,3.82,2.69,7.63,2.69,3.82-2.69,7.63-2.69,3.82,2.69,7.63,2.69,3.82-2.69,7.63-2.69,3.82,2.69,7.63,2.69,3.82-2.69,7.63-2.69,3.82,2.69,7.63,2.69,3.82-2.69,7.64-2.69,3.82,2.69,7.64,2.69"></path><path d="M188.77,287.54c-2.12,0-3.22-.78-4.19-1.46-.93-.66-1.74-1.23-3.44-1.23s-2.51,.57-3.44,1.23c-.97,.69-2.08,1.46-4.19,1.46s-3.22-.78-4.19-1.46c-.93-.66-1.74-1.23-3.44-1.23s-2.51,.57-3.44,1.23c-.97,.69-2.08,1.46-4.19,1.46s-3.22-.78-4.19-1.46c-.93-.66-1.74-1.23-3.44-1.23s-2.51,.57-3.44,1.23c-.97,.69-2.08,1.46-4.19,1.46s-3.22-.78-4.19-1.46c-.93-.66-1.74-1.23-3.44-1.23s-2.51,.57-3.44,1.23c-.97,.69-2.08,1.46-4.19,1.46s-3.22-.78-4.19-1.46c-.93-.66-1.74-1.23-3.44-1.23s-2.51,.57-3.44,1.23c-.97,.69-2.08,1.46-4.19,1.46s-3.22-.78-4.19-1.46c-.93-.66-1.74-1.23-3.44-1.23s-2.51,.57-3.44,1.23c-.97,.69-2.08,1.46-4.19,1.46s-3.22-.78-4.19-1.46c-.93-.66-1.74-1.23-3.44-1.23s-2.51,.57-3.44,1.23c-.97,.69-2.08,1.46-4.19,1.46s-3.22-.78-4.19-1.46c-.93-.66-1.74-1.23-3.44-1.23v-1.3c2.11,0,3.22,.78,4.19,1.46,.93,.66,1.74,1.23,3.44,1.23s2.51-.57,3.44-1.23c.97-.69,2.08-1.46,4.19-1.46s3.22,.78,4.19,1.46c.93,.66,1.74,1.23,3.44,1.23s2.51-.57,3.44-1.23c.97-.69,2.08-1.46,4.19-1.46s3.22,.78,4.19,1.46c.93,.66,1.74,1.23,3.44,1.23s2.51-.57,3.44-1.23c.97-.69,2.08-1.46,4.19-1.46s3.22,.78,4.19,1.46c.93,.66,1.74,1.23,3.44,1.23s2.51-.57,3.44-1.23c.97-.69,2.08-1.46,4.19-1.46s3.22,.78,4.19,1.46c.93,.66,1.74,1.23,3.44,1.23s2.51-.57,3.44-1.23c.97-.69,2.08-1.46,4.19-1.46s3.22,.78,4.19,1.46c.93,.66,1.74,1.23,3.44,1.23s2.51-.57,3.44-1.23c.97-.69,2.08-1.46,4.19-1.46s3.22,.78,4.19,1.46c.93,.66,1.74,1.23,3.44,1.23s2.51-.57,3.44-1.23c.97-.69,2.08-1.46,4.19-1.46s3.22,.78,4.19,1.46c.93,.66,1.74,1.23,3.45,1.23v1.3Z"></path></g><g><path class="af" d="M159.58,249.76s51.49-10.4,37.02,23.24c0,0-1.44,13.89-7.83,13.89-1.67,0-3.82-2.69-7.64-2.69s-3.82,2.69-7.64,2.69-3.82-2.69-7.63-2.69-3.82,2.69-7.63,2.69-3.82-2.69-7.63-2.69-3.82,2.69-7.63,2.69-3.82-2.69-7.63-2.69-3.82,2.69-7.63,2.69-3.82-2.69-7.63-2.69-3.82,2.69-7.63,2.69-3.82-2.69-7.63-2.69-3.82,2.69-7.63,2.69-3.82-2.69-7.63-2.69-3.82,2.69-7.63,2.69-5.82-1.15-7.76-2.32c0,0-5.73-3.01-2.56-11.46,0,0-8.43-42.82,9.86-41.06,0,0,4.68,13.34,32.01,4.63"></path><path d="M188.77,287.54c-.84,0-1.66-.47-2.62-1.02-1.29-.74-2.89-1.66-5.02-1.66-1.7,0-2.51,.57-3.44,1.23-.97,.69-2.08,1.46-4.19,1.46s-3.22-.78-4.19-1.46c-.93-.66-1.74-1.23-3.44-1.23s-2.51,.57-3.44,1.23c-.97,.69-2.08,1.46-4.19,1.46s-3.22-.78-4.19-1.46c-.93-.66-1.74-1.23-3.44-1.23s-2.51,.57-3.44,1.23c-.97,.69-2.08,1.46-4.19,1.46s-3.22-.78-4.19-1.46c-.93-.66-1.74-1.23-3.44-1.23s-2.51,.57-3.44,1.23c-.97,.69-2.08,1.46-4.19,1.46s-3.22-.78-4.19-1.46c-.93-.66-1.74-1.23-3.44-1.23s-2.51,.57-3.44,1.23c-.97,.69-2.08,1.46-4.19,1.46s-3.22-.78-4.19-1.46c-.93-.66-1.74-1.23-3.44-1.23s-2.51,.57-3.44,1.23c-.97,.69-2.08,1.46-4.19,1.46s-3.22-.78-4.19-1.46c-.93-.66-1.74-1.23-3.44-1.23s-2.51,.57-3.44,1.23c-.97,.69-2.08,1.46-4.19,1.46-4.1,0-6.22-1.29-8.1-2.42-.03-.01-6.08-3.32-2.9-12.07-.52-2.71-5.43-29.75,2.75-38.78,2.01-2.22,4.65-3.19,7.85-2.88l.41,.04,.14,.39c.05,.12,4.88,12.62,31.2,4.22l.39,1.24c-25.25,8.05-31.6-2.36-32.65-4.63-2.62-.16-4.71,.65-6.38,2.49-8,8.82-2.46,37.54-2.4,37.83l.04,.18-.06,.17c-2.93,7.81,2.2,10.62,2.25,10.65,1.76,1.06,3.72,2.25,7.46,2.25,1.7,0,2.51-.57,3.44-1.23,.97-.69,2.08-1.46,4.19-1.46s3.22,.78,4.19,1.46c.93,.66,1.74,1.23,3.44,1.23s2.51-.57,3.44-1.23c.97-.69,2.08-1.46,4.19-1.46s3.22,.78,4.19,1.46c.93,.66,1.74,1.23,3.44,1.23s2.51-.57,3.44-1.23c.97-.69,2.08-1.46,4.19-1.46s3.22,.78,4.19,1.46c.93,.66,1.74,1.23,3.44,1.23s2.51-.57,3.44-1.23c.97-.69,2.08-1.46,4.19-1.46s3.22,.78,4.19,1.46c.93,.66,1.74,1.23,3.44,1.23s2.51-.57,3.44-1.23c.97-.69,2.08-1.46,4.19-1.46s3.22,.78,4.19,1.46c.93,.66,1.74,1.23,3.44,1.23s2.51-.57,3.44-1.23c.97-.69,2.08-1.46,4.19-1.46s3.22,.78,4.19,1.46c.93,.66,1.74,1.23,3.44,1.23s2.51-.57,3.44-1.23c.97-.69,2.08-1.46,4.19-1.46,2.47,0,4.32,1.06,5.67,1.84,.79,.46,1.48,.85,1.97,.85,5.73,0,7.16-13.17,7.18-13.3l.05-.19c3.3-7.67,3.34-13.57,.12-17.53-8.39-10.33-36.13-4.87-36.41-4.82l-.26-1.27c1.17-.24,28.8-5.67,37.68,5.27,3.53,4.35,3.57,10.67,.1,18.78-.16,1.39-1.79,14.37-8.46,14.37Z"></path></g></g><rect x="71.59" y="272.35" width="125.01" height="1.3"></rect><rect x="144.39" y="257.05" width="1.3" height="15.95"></rect><g><rect class="af" x="68.64" y="273" width="129.17" height="5.77" rx="2.89" ry="2.89"></rect><path d="M194.93,279.42H71.53c-1.95,0-3.54-1.59-3.54-3.54s1.59-3.54,3.54-3.54h123.4c1.95,0,3.54,1.59,3.54,3.54s-1.59,3.54-3.54,3.54Zm-123.4-5.77c-1.23,0-2.24,1-2.24,2.24s1,2.24,2.24,2.24h123.4c1.23,0,2.24-1,2.24-2.24s-1-2.24-2.24-2.24H71.53Z"></path></g></g><g><g><path class="af" d="M159.58,249.76s-7.71-15.1-40.56-16.01c0,0-11.35,3.76-11.38,12.81-.03,8.68,20.31-4.64,37.39,10.49l14.54-7.29Z"></path><path d="M144.93,257.83l-.33-.29c-9.68-8.57-20.62-7.81-27.86-7.3-4.17,.29-7.18,.5-8.74-.96-.69-.64-1.02-1.53-1.01-2.72,.03-9.4,11.34-13.26,11.82-13.42l.11-.04h.11c32.85,.91,40.8,15.74,41.12,16.37l.3,.58-15.52,7.78Zm-21.88-9.18c6.66,0,14.67,1.23,22.08,7.62l13.52-6.78c-1.82-2.7-11.22-14.28-39.53-15.09-1.11,.4-10.8,4.14-10.83,12.15,0,.81,.19,1.38,.6,1.77,1.15,1.07,4.07,.87,7.76,.61,1.91-.13,4.07-.28,6.4-.28Z"></path></g><g><path class="af" d="M116.53,234.83s-4.54,2.34-5.17,10.38c0,0,6.52-7.21,11.66-8.95,0,0-1.24,3.52-2.73,8.46,0,0,6.38-7.08,11.97-7.77,0,0-3.23,6.1-2.86,8.44,0,0,6.4-6.1,10.61-6.58,0,0-2.61,4.59-2.42,8.06,0,0,5.34-4.31,9.12-4.9,0,0-1.72,6.31-2.36,9.3,0,0,3.8-4.4,8.52-5.89"></path><path d="M143.19,253.62l.53-2.47c.48-2.24,1.57-6.36,2.08-8.29-3.46,1.04-7.75,4.49-7.8,4.53l-.99,.8-.07-1.27c-.13-2.51,1.07-5.49,1.86-7.15-3.88,1.3-8.89,6.05-8.94,6.1l-.9,.86-.19-1.22c-.3-1.9,1.36-5.66,2.31-7.63-4.96,1.43-10.25,7.23-10.3,7.3l-1.94,2.15,.83-2.77c.93-3.09,1.77-5.65,2.27-7.13-4.68,2.28-10.04,8.17-10.09,8.23l-1.28,1.42,.15-1.9c.65-8.3,5.32-10.81,5.52-10.91l.6,1.15c-.16,.08-3.53,1.94-4.58,7.94,2.22-2.23,6.71-6.39,10.56-7.69l1.26-.43-.44,1.26s-.84,2.4-1.95,5.93c2.36-2.21,6.56-5.61,10.5-6.1l1.24-.15-.58,1.1c-.68,1.29-2.19,4.44-2.66,6.57,2.1-1.82,6.49-5.29,9.77-5.66l1.27-.14-.63,1.11s-1.9,3.38-2.28,6.39c1.8-1.32,5.44-3.74,8.31-4.19l.99-.15-.26,.97s-1.08,3.96-1.83,7.05c1.59-1.46,4.18-3.48,7.17-4.42l.39,1.24c-4.48,1.41-8.18,5.65-8.22,5.69l-1.65,1.91Z"></path></g><g><path class="af" d="M85.99,236.96s-10.29,2.37-6.47,24.28c0,0-5.96,1.36-9.53-1.69"></path><path d="M76.41,262.2c-2.1,0-4.81-.41-6.85-2.16l.85-.99c2.64,2.26,6.81,1.89,8.36,1.66-3.57-21.67,6.63-24.28,7.07-24.38l.29,1.27-.15-.63,.15,.63c-.1,.02-9.63,2.59-5.98,23.53l.11,.61-.6,.14c-.12,.03-1.47,.33-3.25,.33Z"></path></g></g><g><polygon class="af" points="94.89 246.84 131.89 204.6 153.28 224.59 118 264.25 94.5 249.61 94.89 246.84"></polygon><path d="M118.12,265.1l-24.32-15.15,.48-3.38,.13-.15,37.44-42.75,22.35,20.89-36.07,40.54Zm-22.92-15.81l22.67,14.13,34.5-38.78-20.44-19.1-36.43,41.59-.31,2.16Z"></path></g><g><g><path class="af" d="M173.02,264.55s51.49-10.4,37.02,23.24c0,0-1.44,13.89-7.83,13.89-1.67,0-3.82-2.69-7.64-2.69s-3.82,2.69-7.64,2.69-3.82-2.69-7.63-2.69-3.82,2.69-7.63,2.69-3.82-2.69-7.63-2.69-3.82,2.69-7.63,2.69-3.82-2.69-7.63-2.69-3.82,2.69-7.63,2.69-3.82-2.69-7.63-2.69-3.82,2.69-7.63,2.69-3.82-2.69-7.63-2.69-3.82,2.69-7.63,2.69-3.82-2.69-7.63-2.69-3.82,2.69-7.63,2.69c-3.92,0-6.09-.72-7.96-2.06,0,0-5.53-3.28-2.36-11.72,0,0-8.43-42.82,9.86-41.06,0,0,4.68,13.34,32.01,4.63"></path><path d="M202.21,302.33c-.84,0-1.66-.47-2.62-1.02-1.29-.74-2.89-1.66-5.02-1.66-1.7,0-2.51,.57-3.44,1.23-.97,.69-2.08,1.46-4.19,1.46s-3.22-.78-4.19-1.46c-.93-.66-1.74-1.23-3.44-1.23s-2.51,.57-3.44,1.23c-.97,.69-2.08,1.46-4.19,1.46s-3.22-.78-4.19-1.46c-.93-.66-1.74-1.23-3.44-1.23s-2.51,.57-3.44,1.23c-.97,.69-2.08,1.46-4.19,1.46s-3.22-.78-4.19-1.46c-.93-.66-1.74-1.23-3.44-1.23s-2.51,.57-3.44,1.23c-.97,.69-2.08,1.46-4.19,1.46s-3.22-.78-4.19-1.46c-.93-.66-1.74-1.23-3.44-1.23s-2.51,.57-3.44,1.23c-.97,.69-2.08,1.46-4.19,1.46s-3.22-.78-4.19-1.46c-.93-.66-1.74-1.23-3.44-1.23s-2.51,.57-3.44,1.23c-.97,.69-2.08,1.46-4.19,1.46s-3.22-.78-4.19-1.46c-.93-.66-1.74-1.23-3.44-1.23s-2.51,.57-3.44,1.23c-.97,.69-2.08,1.46-4.19,1.46-3.77,0-6.19-.63-8.34-2.19-.01,0-5.83-3.58-2.65-12.3-.52-2.71-5.43-29.75,2.75-38.78,2.01-2.22,4.65-3.18,7.85-2.88l.41,.04,.14,.39c.04,.12,4.89,12.62,31.2,4.22l.39,1.24c-25.25,8.05-31.6-2.36-32.65-4.63-2.62-.16-4.71,.65-6.38,2.49-8,8.82-2.46,37.54-2.4,37.83l.04,.18-.06,.17c-2.94,7.84,2.03,10.9,2.08,10.93,1.96,1.41,4.16,1.97,7.63,1.97,1.7,0,2.51-.57,3.44-1.23,.97-.69,2.08-1.46,4.19-1.46s3.22,.78,4.19,1.46c.93,.66,1.74,1.23,3.44,1.23s2.51-.57,3.44-1.23c.97-.69,2.08-1.46,4.19-1.46s3.22,.78,4.19,1.46c.93,.66,1.74,1.23,3.44,1.23s2.51-.57,3.44-1.23c.97-.69,2.08-1.46,4.19-1.46s3.22,.78,4.19,1.46c.93,.66,1.74,1.23,3.44,1.23s2.51-.57,3.44-1.23c.97-.69,2.08-1.46,4.19-1.46s3.22,.78,4.19,1.46c.93,.66,1.74,1.23,3.44,1.23s2.51-.57,3.44-1.23c.97-.69,2.08-1.46,4.19-1.46s3.22,.78,4.19,1.46c.93,.66,1.74,1.23,3.44,1.23s2.51-.57,3.44-1.23c.97-.69,2.08-1.46,4.19-1.46s3.22,.78,4.19,1.46c.93,.66,1.74,1.23,3.44,1.23s2.51-.57,3.44-1.23c.97-.69,2.08-1.46,4.19-1.46,2.47,0,4.32,1.06,5.67,1.84,.79,.46,1.48,.85,1.97,.85,5.73,0,7.16-13.17,7.18-13.3l.05-.19c3.3-7.67,3.34-13.57,.12-17.53-8.38-10.33-36.13-4.87-36.41-4.82l-.26-1.27c1.17-.24,28.8-5.67,37.68,5.27,3.53,4.35,3.57,10.67,.1,18.78-.16,1.39-1.79,14.37-8.46,14.37Z"></path></g><rect x="85.03" y="287.14" width="125.01" height="1.3"></rect><rect x="157.83" y="271.84" width="1.3" height="15.95"></rect><g><rect class="af" x="82.09" y="287.79" width="129.17" height="5.77" rx="2.89" ry="2.89"></rect><path d="M208.37,294.21H84.97c-1.95,0-3.54-1.59-3.54-3.54s1.59-3.54,3.54-3.54h123.4c1.95,0,3.54,1.59,3.54,3.54s-1.59,3.54-3.54,3.54Zm-123.4-5.77c-1.23,0-2.24,1-2.24,2.24s1,2.24,2.24,2.24h123.4c1.23,0,2.24-1,2.24-2.24s-1-2.24-2.24-2.24H84.97Z"></path></g></g><g><g><path class="ah" d="M103.99,213.33l79.04-51.94-59.06-12.26c-9.57-1.99-15.72-11.35-13.73-20.92,1.99-9.57,11.35-15.71,20.92-13.73l102.09,21.19c7.07,1.47,12.54,7.08,13.82,14.19,1.28,7.11-1.89,14.28-8,18.12l-116.25,75.31-18.83-29.97Z"></path><path d="M122.61,244.2l-19.51-31.06,78.26-51.43-57.53-11.94c-9.9-2.06-16.29-11.79-14.23-21.69,2.05-9.9,11.78-16.28,21.69-14.23l102.09,21.19c7.37,1.53,12.99,7.3,14.33,14.71,1.33,7.41-1.92,14.78-8.3,18.78l-116.8,75.67Zm-17.74-30.68l18.14,28.87,115.7-74.96c5.93-3.72,8.95-10.58,7.72-17.46-1.24-6.88-6.46-12.25-13.31-13.67l-102.09-21.19c-9.2-1.91-18.24,4.03-20.15,13.22-1.91,9.2,4.02,18.24,13.23,20.15l60.6,12.58-79.81,52.45Z"></path></g><g><path class="ah" d="M129.06,251.29l116.84-112.15c5.73-4.99,7.63-13.09,4.72-20.11-2.91-7.02-9.97-11.41-17.55-10.88l-122.07,8.33c-9.75,.67-17.11,9.11-16.45,18.86,.67,9.75,9.1,17.1,18.86,16.45l72.93-4.75-80.53,77.58,23.25,26.68Z"></path><path d="M129.02,252.23l-24.11-27.66,79.7-76.77-71.16,4.63c-10.09,.69-18.86-6.97-19.55-17.05-.69-10.09,6.96-18.86,17.05-19.55l122.07-8.33c7.87-.53,15.18,3.99,18.2,11.29,3.02,7.29,1.05,15.66-4.9,20.85l-117.3,112.6Zm-22.32-27.58l22.4,25.7,116.34-111.68c5.55-4.84,7.37-12.62,4.57-19.39-2.81-6.78-9.6-11-16.91-10.49l-122.07,8.33c-9.38,.64-16.48,8.79-15.84,18.17,.64,9.37,8.8,16.47,18.17,15.84l74.71-4.87-81.37,78.38Z"></path></g><g><polyline class="ah" points="98.28 123.21 110.31 109.08 147.03 115.52"></polyline><polygon points="98.77 123.63 97.78 122.79 110.06 108.38 110.43 108.44 147.14 114.87 146.92 116.16 110.57 109.79 98.77 123.63"></polygon></g></g><g><g><path class="af" d="M173.02,264.55s-7.71-15.1-40.56-16.01c0,0-11.35,3.76-11.38,12.81-.03,8.68,20.31-4.64,37.39,10.49l14.54-7.29Z"></path><path d="M158.38,272.62l-.33-.29c-9.68-8.57-20.62-7.81-27.86-7.3-4.17,.29-7.18,.5-8.74-.96-.69-.64-1.02-1.53-1.01-2.72,.03-9.4,11.34-13.26,11.82-13.42l.11-.04h.11c32.85,.92,40.8,15.74,41.12,16.37l.3,.58-15.52,7.78Zm-21.88-9.18c6.66,0,14.67,1.23,22.08,7.62l13.52-6.77c-1.82-2.7-11.23-14.28-39.53-15.1-1.11,.4-10.8,4.14-10.83,12.15,0,.81,.19,1.38,.6,1.77,1.15,1.07,4.07,.87,7.76,.61,1.91-.13,4.07-.28,6.4-.28Z"></path></g><path d="M156.63,268.41l.53-2.47c.48-2.24,1.57-6.36,2.08-8.29-3.46,1.04-7.75,4.49-7.8,4.53l-.99,.8-.07-1.27c-.13-2.51,1.07-5.49,1.86-7.15-3.88,1.3-8.89,6.05-8.94,6.1l-.9,.86-.19-1.22c-.3-1.9,1.36-5.66,2.31-7.63-4.96,1.43-10.25,7.23-10.3,7.3l-1.94,2.15,.83-2.77c.93-3.09,1.77-5.65,2.27-7.13-4.68,2.28-10.04,8.17-10.09,8.23l-1.28,1.42,.15-1.9c.65-8.3,5.32-10.81,5.52-10.91l.6,1.15c-.16,.08-3.53,1.94-4.58,7.94,2.22-2.23,6.71-6.39,10.56-7.69l1.26-.43-.44,1.26s-.84,2.4-1.95,5.93c2.36-2.21,6.56-5.61,10.5-6.1l1.24-.15-.58,1.1c-.68,1.29-2.19,4.44-2.66,6.57,2.1-1.82,6.49-5.29,9.77-5.66l1.27-.14-.63,1.11s-1.9,3.39-2.28,6.39c1.8-1.32,5.44-3.74,8.31-4.18l.99-.15-.26,.97s-1.08,3.95-1.83,7.04c1.59-1.46,4.18-3.48,7.17-4.42l.39,1.24c-4.48,1.41-8.18,5.65-8.22,5.69l-1.65,1.91Z"></path><g><path class="af" d="M99.43,251.75s-9.62,2.37-5.8,24.28c0,0-5.45,2.47-10.2-1.69"></path><path d="M89.79,277.42c-2,0-4.46-.56-6.79-2.6l.86-.98c3.65,3.2,7.69,2.23,9.05,1.77-3.64-21.76,5.96-24.39,6.37-24.49l.31,1.26-.16-.63,.16,.63c-.09,.02-8.97,2.6-5.32,23.54l.09,.5-.46,.21c-.13,.06-1.81,.8-4.11,.8Z"></path></g></g><g><line class="af" x1="103.2" y1="242.12" x2="112.18" y2="231.85"></line><rect x="100.87" y="236.34" width="13.64" height="1.3" transform="translate(-141.48 161.67) rotate(-48.75)"></rect></g><g><line class="af" x1="108.6" y1="241.22" x2="114.55" y2="234.43"></line><rect x="107.06" y="237.17" width="9.03" height="1.3" transform="translate(-140.79 164.88) rotate(-48.75)"></rect></g><g><line class="af" x1="115.9" y1="244.24" x2="119.61" y2="240"></line><rect x="114.93" y="241.47" width="5.64" height="1.3" transform="translate(-141.91 170.99) rotate(-48.75)"></rect></g><g><line class="ae" x1="164.65" y1="167.93" x2="212.6" y2="121.73"></line><rect x="155.33" y="144.18" width="66.59" height="1.3" transform="translate(-47.69 171.54) rotate(-43.97)"></rect></g><g><line class="af" x1="106.77" y1="217.36" x2="97.76" y2="223.95"></line><rect x="96.69" y="220" width="11.16" height="1.3" transform="translate(-110.5 102.86) rotate(-36.16)"></rect></g><g><path class="ag" d="M102.72,39.17L149.68,5.26c3.95-2.85,9.34-2.65,13.07,.49l46.12,38.88c4.49,3.78,5.06,10.49,1.28,14.97-3.78,4.49-10.48,5.06-14.97,1.28l-39.78-33.53-38.02,27.46"></path><path d="M202.01,64.02c-2.65,0-5.2-.92-7.25-2.66l-39.39-33.2-37.61,27.16-.76-1.05,38.44-27.76,40.17,33.86c2.04,1.72,4.62,2.54,7.28,2.31,2.65-.23,5.06-1.47,6.78-3.51,1.72-2.04,2.54-4.62,2.31-7.28s-1.47-5.06-3.51-6.78L162.33,6.24c-3.51-2.96-8.55-3.15-12.27-.46l-46.97,33.92-.76-1.05L149.3,4.73c4.2-3.03,9.91-2.82,13.87,.52l46.12,38.88c2.3,1.94,3.71,4.66,3.97,7.66,.26,3-.67,5.92-2.61,8.22-1.94,2.3-4.66,3.71-7.66,3.97-.33,.03-.65,.04-.98,.04Z"></path></g><g><path class="ae" d="M203.58,30.04s-2.26-19.06,5.25-21.15l.15,3.61-1.74,9.68-3.67,7.86Z"></path><g><g><path class="ag" d="M169.43,52.9c-17.38,32.72-45.54,30.2-66.24,56.19,0,0,17.89,18.42,109.63,.45-8.63-21.91,21.53-83.49,21.53-83.49,2.58-6.47-.12-13.84-6.26-17.11h0c-7.36-3.92-16.48-.4-19.28,7.45l-8.25,22.12"></path><path d="M144.18,118.1c-32.58,0-40.96-8.05-41.46-8.56l-.4-.41,.36-.45c9.23-11.58,20-17.6,30.43-23.41,13.44-7.5,26.13-14.58,35.75-32.67l1.15,.61c-9.79,18.43-23.25,25.94-36.26,33.2-10.16,5.67-20.67,11.53-29.65,22.59,3.25,2.46,25.73,16.02,107.85,.04-3.23-9.39-.61-26.09,7.79-49.69,6.4-17.96,13.95-33.44,14.03-33.59,2.44-6.12-.12-13.13-5.98-16.25-3.34-1.78-7.28-2.02-10.81-.65-3.53,1.36-6.28,4.19-7.56,7.75l-8.25,22.13-1.22-.46,8.25-22.12c1.4-3.91,4.43-7.02,8.31-8.52,3.88-1.5,8.22-1.24,11.89,.72,6.44,3.43,9.26,11.14,6.56,17.92-.32,.66-29.95,61.61-21.53,83.01l.29,.73-.77,.15c-30.28,5.93-52.53,7.93-68.76,7.93Z"></path></g><g><g><ellipse class="af" cx="228.81" cy="23.16" rx="11.41" ry="3.92" transform="translate(-1.13 27.5) rotate(-6.86)"></ellipse><path d="M225.56,27.93c-4.49,0-8.45-1.02-8.73-3.33-.16-1.36,1-2.68,3.35-3.81,2.12-1.02,4.99-1.79,8.08-2.17,5.81-.7,12.17,.15,12.52,3.1,.35,2.95-5.63,5.28-11.43,5.98-1.26,.15-2.55,.23-3.8,.23Zm6.57-8.25c-1.13,0-2.38,.07-3.71,.23-2.96,.36-5.68,1.08-7.67,2.04-1.71,.83-2.71,1.78-2.63,2.49,.16,1.36,4.45,2.76,11.08,1.96,6.62-.8,10.46-3.18,10.3-4.53-.13-1.08-2.89-2.19-7.36-2.19Z"></path></g><ellipse class="ae" cx="235.97" cy="22.3" rx="3.86" ry="3.04" transform="translate(-.97 28.35) rotate(-6.86)"></ellipse><g><path class="af" d="M233.06,17.06s-6.17-.23-11.9,2.23"></path><path d="M221.41,19.88l-.51-1.2c5.8-2.48,11.93-2.29,12.18-2.28l-.05,1.3c-.06,0-6.1-.19-11.62,2.17Z"></path></g></g></g><ellipse class="ae" cx="230.11" cy="9.49" rx="4.52" ry="9.81" transform="translate(211.97 239.08) rotate(-87.85)"></ellipse><ellipse class="ae" cx="221.15" cy="6.3" rx="7.86" ry="4.06" transform="translate(28.69 115.41) rotate(-31.18)"></ellipse><ellipse class="ae" cx="211.89" cy="12.45" rx="9.8" ry="4.06" transform="translate(141.24 212.61) rotate(-73.92)"></ellipse><path class="ae" d="M216.28,11.54s8.59,3.5,17.39,2.27l-8.09-5.09-9.35-.27,.06,3.08Z"></path><g><path class="ag" d="M212.82,21.3c-.23-2.25-2.02-3.92-4.01-3.72s-3.42,2.19-3.2,4.44,2.02,3.92,4.01,3.72"></path><path d="M209.3,26.41c-2.19,0-4.09-1.86-4.34-4.32-.12-1.25,.19-2.47,.89-3.43,.71-.99,1.74-1.6,2.89-1.72,2.36-.25,4.46,1.69,4.72,4.3l-1.29,.13c-.19-1.89-1.67-3.31-3.3-3.14-.77,.08-1.47,.5-1.97,1.18-.51,.71-.74,1.61-.65,2.55,.19,1.89,1.67,3.3,3.3,3.14l.13,1.29c-.13,.01-.26,.02-.39,.02Z"></path></g></g><g><path class="ag" d="M196.19,38.42s-9.84,.77-19.68,8.36"></path><path d="M176.91,47.29l-.79-1.03c9.88-7.62,19.61-8.46,20.02-8.49l.1,1.3c-.1,0-9.77,.86-19.33,8.23Z"></path></g><g><path class="ag" d="M173.91,55.34l-40.62-23.16-34.3,32.08c-2.28,2.01-5.19,2.86-7.99,2.6-2.61-.24-5.13-1.44-7-3.57-3.87-4.41-6.76-8.25-2.35-12.12L124.94,11.23c3.4-2.98,8.31-3.49,12.24-1.27l50.95,29.01c5.11,2.89,6.91,9.37,4.02,14.48"></path><path d="M92,67.55c-.35,0-.71-.02-1.07-.05-2.88-.27-5.52-1.61-7.43-3.79-3.32-3.79-7.46-8.5-2.29-13.04L124.5,10.76c3.61-3.17,8.83-3.71,13-1.35l50.95,29.01c5.41,3.06,7.32,9.95,4.27,15.36l-1.13-.64c2.71-4.79,1.01-10.89-3.78-13.59l-50.95-29.01c-3.69-2.08-8.3-1.61-11.49,1.19l-43.28,39.92c-3.91,3.44-1.59,6.67,2.4,11.21,1.69,1.92,4.02,3.11,6.57,3.35,2.76,.25,5.42-.61,7.51-2.44l34.64-32.39,41.04,23.39-.64,1.13-40.21-22.92-33.95,31.75c-2.1,1.84-4.7,2.82-7.43,2.82Z"></path></g><g><path class="af" d="M160.13,66.37s-11.03,14.06-29.14,28.11"></path><path d="M131.39,94.99l-.8-1.03c17.83-13.84,28.92-27.86,29.03-28l1.02,.8c-.11,.14-11.29,14.28-29.25,28.22Z"></path></g><path d="M177.75,111.62v-1.3c19.22,0,29.79-3.69,29.89-3.73l.44,1.22c-.11,.04-10.86,3.81-30.33,3.81Z"></path><g><polyline class="ag" points="174.92 31.46 161.18 51.18 175.57 56.13"></polyline><polygon points="175.36 56.75 160.16 51.51 174.39 31.09 175.46 31.83 162.21 50.85 175.78 55.52 175.36 56.75"></polygon></g><g><line class="ag" x1="186.49" y1="25.76" x2="179.89" y2="34.29"></line><rect x="177.8" y="29.37" width="10.79" height="1.3" transform="translate(47.4 156.59) rotate(-52.29)"></rect></g><g><path class="ae" d="M102.58,118.71c5.7-3.4,9.67-3.78,31.86-1.58,0,0-19.76-1.4-26.53-5.22l-5.33,6.81Z"></path><path d="M99.91,121.06l7.83-10,.49,.28c4.31,2.44,14.18,3.88,20.52,4.59,1.77,.16,3.68,.34,5.75,.55l-.11,1.29c-.28-.02-2.7-.2-6.05-.57-17.23-1.54-20.59-.83-25.44,2.06l-3,1.79Zm8.17-8.32l-3.14,4.01c2.66-1.15,5.57-1.68,10.39-1.64-2.82-.65-5.4-1.43-7.25-2.37Z"></path></g><g><polygon class="ae" points="132.9 150.79 182.81 150.43 186.34 147.04 132.9 150.79"></polygon><path d="M132.9,151.44l-.05-1.3,55.23-3.88-5,4.82-50.17,.36Zm51.69-3.63l-31.06,2.18,29.02-.21,2.05-1.97Z"></path></g><g><path class="ae" d="M231.05,153.39s13-12.48,16.27-1.23c0,0,.29-5.15-4-10.38l-12.28,11.61Z"></path><path d="M247.76,156l-1.06-3.65c-.67-2.29-1.8-3.66-3.37-4.09-4.48-1.2-11.28,5.09-11.79,5.57l-.03,.03-.9-.94s.05-.05,.1-.1l12.69-12,.44,.54c4.39,5.37,4.15,10.61,4.14,10.83l-.21,3.8Zm-5.61-9.19c.52,0,1.02,.06,1.51,.19,.96,.26,1.79,.77,2.49,1.52-.46-1.65-1.31-3.7-2.89-5.79l-5.49,5.19c1.44-.66,2.95-1.12,4.38-1.12Z"></path></g><g><polygon class="ae" points="166.56 57.85 172.42 55.05 168.92 53.84 166.56 57.85"></polygon><path d="M164.91,59.35l3.72-6.29,5.5,1.89-9.22,4.4Zm4.3-4.72l-1.01,1.71,2.5-1.2-1.49-.51Z"></path></g><g><path class="ag" d="M90.35,65.57l5.77,21.15c.53,1.96,2.17,3.42,4.17,3.74h0c3.17,.51,6.03-1.97,5.98-5.18l-.04-2.73,3.94-6.18c.6-.94,.51-2.16-.23-2.99l-7.81-12.08,7.99-7.47"></path><path d="M101.12,91.18c-.31,0-.62-.02-.92-.07-2.25-.36-4.09-2.01-4.69-4.21l-5.77-21.15,1.25-.34,5.77,21.15c.47,1.71,1.9,2.99,3.65,3.27,1.32,.21,2.66-.17,3.67-1.04,1.01-.88,1.58-2.15,1.56-3.48l-.04-2.92,4.05-6.34c.44-.69,.37-1.6-.17-2.22l-8.17-12.61,8.38-7.84,.89,.95-7.59,7.1,7.52,11.62c.86,.97,.98,2.52,.23,3.7l-3.84,6.01,.04,2.53c.03,1.72-.71,3.36-2.01,4.49-1.07,.92-2.42,1.42-3.8,1.42Z"></path></g><g><path class="ag" d="M98.26,88.76l-30.28-7.08c-1.84-.84,.57-1.11-2.04-2.44l-.41-5.16,9.28-18.65,11.28-6.01"></path><path class="ad" d="M98.13,89.29l-30.38-7.11c-1.01-.46-1.15-.93-1.06-1.53,.03-.17,.06-.38-1.01-.92l-.27-.14-.45-5.62,9.43-18.95,11.43-6.1,.51,.96-11.12,5.93-9.14,18.36,.37,4.71c1.24,.69,1.43,1.24,1.32,1.93,0,.04-.01,.09-.02,.11,.01-.02,.09,.08,.4,.23l30.22,7.06-.25,1.06Z"></path></g><g><polyline class="ag" points="65.03 79.62 65.53 74.08 74.81 55.43 86.09 49.41"></polyline><polygon points="65.68 79.68 64.39 79.56 64.95 73.79 74.32 54.95 85.78 48.84 86.39 49.99 75.3 55.9 66.17 74.26 65.68 79.68"></polygon></g><g><path class="ag" d="M65.53,74.08l-.5,5.54c-.32,1.81,.62,3.61,2.3,4.37h0c2.31,1.05,5-.26,5.6-2.72"></path><path d="M69.01,85.01c-.66,0-1.33-.14-1.95-.43-1.94-.89-3.04-2.97-2.67-5.08l.49-5.48,1.29,.12-.5,5.54c-.28,1.57,.52,3.08,1.92,3.72,.92,.42,1.97,.41,2.88-.03,.91-.44,1.57-1.26,1.81-2.25l1.26,.31c-.33,1.36-1.24,2.5-2.5,3.11-.65,.31-1.35,.47-2.05,.47Z"></path></g><g><path class="ag" d="M80.57,83.65l-1.23,2.6c-1.01,2.12-3.51,3.05-5.66,2.11h0c-1.94-.85-2.99-2.98-2.47-5.04l1.02-4.07"></path><path d="M75.43,89.38c-.67,0-1.35-.14-2.01-.42-2.24-.98-3.44-3.42-2.84-5.79l1.02-4.07,1.26,.32-1.02,4.07c-.44,1.76,.44,3.56,2.1,4.28,1.84,.81,3.95,.01,4.81-1.8l1.23-2.6,1.17,.56-1.23,2.6c-.86,1.8-2.63,2.86-4.5,2.86Z"></path></g><g><path class="ag" d="M89.05,85.23l-2.66,4.7c-1.06,1.87-3.37,2.62-5.32,1.72h0c-1.99-.91-2.93-3.2-2.15-5.24l1.81-4.73"></path><path d="M82.8,92.69c-.67,0-1.35-.14-2.01-.44-2.29-1.05-3.38-3.71-2.48-6.06l1.81-4.73,1.21,.46-1.81,4.73c-.65,1.71,.14,3.66,1.81,4.42,1.66,.76,3.59,.13,4.48-1.46l2.66-4.7,1.13,.64-2.66,4.7c-.88,1.55-2.48,2.44-4.15,2.44Z"></path></g><g><path class="ag" d="M90.55,80.38l-2.6,7.19c-1.08,2.83,.54,5.97,3.46,6.74h0c2.7,.71,5.46-.88,6.21-3.56l4.51-14.54-.44-9.06"></path><path d="M92.71,95.13c-.48,0-.97-.06-1.45-.19-1.57-.42-2.9-1.48-3.64-2.93-.74-1.45-.84-3.15-.26-4.67l2.59-7.18,1.22,.44-2.6,7.19c-.45,1.19-.38,2.5,.2,3.62s1.6,1.95,2.82,2.27c2.34,.62,4.77-.78,5.42-3.11l4.48-14.44-.43-8.95,1.3-.06,.44,9.18-4.54,14.64c-.7,2.52-3.02,4.19-5.54,4.19Z"></path></g><g><line class="ag" x1="80.57" y1="77.84" x2="83.99" y2="78.98"></line><rect x="81.63" y="76.61" width="1.3" height="3.6" transform="translate(-18.13 131.67) rotate(-71.57)"></rect></g><g><line class="af" x1="119.87" y1="58.49" x2="115.75" y2="52.44"></line><rect x="117.16" y="51.81" width="1.3" height="7.32" transform="translate(-10.79 75.92) rotate(-34.25)"></rect></g><g><polygon class="ae" points="130.47 34.82 141.9 37.09 133.29 32.18 130.47 34.82"></polygon><path d="M145.7,38.5l-16.6-3.29,4.1-3.83,12.5,7.12Zm-13.86-4.07l6.27,1.24-4.72-2.69-1.55,1.45Z"></path></g></g><g><line class="ae" x1="197.12" y1="179.7" x2="190.13" y2="186.34"></line><rect x="188.81" y="182.37" width="9.64" height="1.3" transform="translate(-72.8 183.59) rotate(-43.51)"></rect></g><g><line class="ae" x1="218.18" y1="159.69" x2="200.99" y2="176.02"></line><rect x="197.73" y="167.2" width="23.71" height="1.3" transform="translate(-57.98 190.41) rotate(-43.51)"></rect></g><g><path class="ah" d="M242.69,114.11s4.67,3.71,6.4,10.84"></path><path d="M248.45,125.11c-1.65-6.84-6.12-10.45-6.17-10.49l.81-1.02c.2,.16,4.87,3.93,6.62,11.2l-1.26,.3Z"></path></g><g><line class="ah" x1="115.9" y1="220.65" x2="121.84" y2="227.92"></line><rect x="118.22" y="219.6" width="1.3" height="9.39" transform="translate(-115.11 125.84) rotate(-39.26)"></rect></g><g><path class="ag" d="M125.55,12.9c-.35-2.95,1.75-5.62,4.69-5.98,2.95-.35,5.62,1.75,5.98,4.69"></path><path d="M124.91,12.98c-.19-1.6,.25-3.17,1.24-4.44s2.42-2.07,4.02-2.26c3.3-.39,6.3,1.96,6.7,5.26l-1.29,.16c-.31-2.59-2.67-4.44-5.25-4.13-1.25,.15-2.37,.78-3.15,1.77s-1.12,2.23-.97,3.48l-1.29,.16Z"></path></g><g><path class="ag" d="M150.73,5.82c.11-2.97,2.61-5.28,5.57-5.17s5.28,2.61,5.17,5.57"></path><path d="M162.12,6.25l-1.3-.05c.1-2.6-1.94-4.8-4.54-4.9-1.26-.05-2.46,.4-3.39,1.26s-1.46,2.03-1.51,3.29l-1.3-.05c.06-1.61,.74-3.1,1.92-4.19,1.18-1.09,2.72-1.67,4.32-1.6,3.32,.12,5.92,2.93,5.79,6.25Z"></path></g></g><g><polygon class="ae" points="106.77 233.28 127.72 250.91 128.34 250.45 110.07 229.51 106.77 233.28"></polygon><path d="M127.72,251.56c-.15,0-.3-.05-.42-.15l-20.95-17.63c-.13-.11-.22-.27-.23-.45-.01-.17,.04-.35,.16-.48l3.3-3.77c.12-.14,.3-.22,.49-.22h0c.19,0,.37,.08,.49,.22l18.27,20.94c.12,.14,.18,.32,.16,.5-.02,.18-.11,.34-.26,.45l-.62,.46c-.12,.09-.25,.13-.39,.13Zm-20.03-18.35l17.82,14.99-15.44-17.7-2.37,2.71Z"></path></g><g><polygon class="ae" points="104.5 214.97 102.75 216.23 107.89 222.6 109.09 221.45 104.5 214.97"></polygon><path d="M107.89,223.25s-.03,0-.04,0c-.18-.01-.35-.1-.47-.24l-5.14-6.37c-.11-.14-.16-.32-.14-.49,.02-.18,.12-.34,.26-.44l1.75-1.26c.14-.1,.31-.14,.49-.12,.17,.03,.32,.12,.42,.27l4.59,6.49c.19,.26,.15,.62-.08,.84l-1.2,1.15c-.12,.12-.28,.18-.45,.18Zm-4.21-6.9l4.27,5.29,.28-.27-3.89-5.49-.66,.48Z"></path></g></g></g></g></svg>