<svg xmlns="http://www.w3.org/2000/svg" xmlns:xlink="http://www.w3.org/1999/xlink" id="Layer_1" x="0px" y="0px" viewBox="0 0 393.2 558.8" style="enable-background:new 0 0 393.2 558.8;" xml:space="preserve"><style type="text/css">	.st0{fill:#FFFFFF;}	.st1{fill:#FCA7FD;}	.st2{fill:none;}	.st3{fill:#000005;}	.st4{fill:#E5E5E5;}	.st5{fill:#D5E100;}	.st6{fill:#252525;}</style><g id="a"></g><g id="b">	<g id="c">		<g>			<g>				<polygon class="st0" points="125.7,274.4 65.2,308.9 98.7,273.6 39.1,277.4 93.2,261.5 41.8,238.3 101.1,248.8 91.3,215.8      116,243.1 166.1,200.8 140.8,245 206.1,237.7 141.5,261.3 169.3,278.3     "></polygon>				<path d="M61.8,311.7l35.3-37.3l-63.7,4l58-17l-54.6-24.6l63.4,11.2l-10.2-34.7l26.2,29l52.5-44.3L142,244.2l69.3-7.8l-68.4,25     l29.1,17.7l-46.2-4.1L61.8,311.7L61.8,311.7z M100.3,272.8l-31.6,33.4l56.8-32.5l0.2,0l40.9,3.6L140,261.2l60.8-22.2l-61.2,6.9     l24.1-42.1L115.9,244l-23.2-25.6l9.2,31.3l-55.2-9.8l48.3,21.8l-50.2,14.7L100.3,272.8L100.3,272.8z"></path>			</g>			<g>				<g>					<path class="st1" d="M82,55.5L71.8,67.7c-1.3,1.5-3.5,1.9-5.2,0.9l0,0c-2.2-1.3-2.8-4.2-1.2-6.2l5.9-7.3"></path>					<path d="M68.6,69.8c-0.8,0-1.6-0.2-2.4-0.6c-1.2-0.7-2.1-1.9-2.3-3.3c-0.3-1.4,0.1-2.8,1-3.9l5.9-7.3l1,0.8l-5.9,7.3      c-0.7,0.8-0.9,1.8-0.7,2.9c0.2,1,0.8,1.9,1.7,2.4c1.5,0.8,3.3,0.5,4.4-0.8l10.2-12.1l1,0.8L72.3,68.1      C71.3,69.2,70,69.8,68.6,69.8L68.6,69.8z"></path>				</g>				<g>					<path class="st1" d="M74.3,56.4L64.1,68.5c-1.3,1.5-3.5,1.9-5.2,0.9l0,0c-2.2-1.3-2.8-4.2-1.2-6.2l7.8-9"></path>					<path d="M60.9,70.6c-0.8,0-1.6-0.2-2.4-0.6c-1.2-0.7-2.1-1.9-2.3-3.3s0.1-2.8,1-3.9l7.8-9l1,0.8l-7.8,9      c-0.6,0.8-0.9,1.8-0.7,2.8c0.2,1,0.8,1.9,1.7,2.4c1.5,0.8,3.3,0.5,4.4-0.8L73.8,56l1,0.8L64.6,68.9      C63.6,70,62.3,70.6,60.9,70.6L60.9,70.6z"></path>				</g>				<g>					<path class="st1" d="M322.9,56.6l9.2-5.2c1.6-0.9,3.4-1.1,5.1-0.6l11.9,3.3"></path>					<path d="M323.2,57.2l-0.6-1.1l9.2-5.2c1.7-1,3.7-1.2,5.6-0.7l11.9,3.3l-0.4,1.2L337,51.4c-1.6-0.4-3.2-0.2-4.6,0.6L323.2,57.2      L323.2,57.2z"></path>				</g>				<path class="st1" d="M320.9,67.2l-3.6,11.7c0,0.2,0.1,0.3,0.2,0.3l19.6,8.4c0,0,0.1,0,0.2,0l0,0l19.1-0.2c3,0,5.5-2.4,5.7-5.4     c0.1-1.1-0.2-2.1-0.7-3.1c1-0.4,1.8-1.1,2.3-2.1c0.1-0.2,0.2-0.4,0.3-0.7l1,1.7c1.1,2,3.6,2.9,5.8,2c2.3-1,3.4-3.7,2.4-6     l-3.6-8.6c0-0.1-0.1-0.1-0.1-0.2l-11.4-9.9c-0.1-0.1-0.1-0.1-0.2-0.1l-14.1-2.3 M348.1,75.4C348.1,75.4,348.1,75.5,348.1,75.4     l-6.6-0.3c1-0.9,2.8-2.5,4.4-4.8L348.1,75.4z"></path>				<g>					<path class="st1" d="M344.6,66l3.9,9.3c0.8,1.8,2.7,2.9,4.7,2.5l0,0c2.5-0.5,3.9-3.2,3-5.6l-3.5-8.7"></path>					<path d="M352.3,78.5c-1.9,0-3.7-1.1-4.4-2.9l-3.9-9.3l1.2-0.5l3.9,9.3c0.6,1.5,2.3,2.4,3.9,2.1c1-0.2,1.9-0.8,2.4-1.8      s0.5-2,0.2-2.9l-3.5-8.7l1.2-0.5l3.5,8.7c0.5,1.3,0.4,2.8-0.2,4c-0.7,1.2-1.9,2.1-3.2,2.4C352.9,78.4,352.6,78.5,352.3,78.5z"></path>				</g>				<g>					<path class="st1" d="M351.4,65.4l4.6,10.9c0.8,1.8,2.7,2.9,4.7,2.5l0,0c2.5-0.5,3.9-3.2,3-5.6l-3.5-8.7"></path>					<path d="M359.8,79.6c-1.9,0-3.7-1.1-4.4-2.9l-4.6-10.9l1.2-0.5l4.6,10.9c0.6,1.5,2.3,2.4,3.9,2.1c1-0.2,1.9-0.9,2.4-1.8      c0.5-0.9,0.5-2,0.2-2.9l-3.5-8.7l1.2-0.5l3.5,8.7c0.5,1.3,0.4,2.8-0.2,4s-1.9,2.1-3.2,2.4C360.4,79.5,360.1,79.5,359.8,79.6      L359.8,79.6z"></path>				</g>				<g>					<path class="st1" d="M276.7,91.9c-1,0.3-2.1,0.5-3.2,0.5c-0.9,0-1.7-0.1-2.6-0.3l-47-12.1c-5.6-1.4-8.9-7.1-7.5-12.7      c1.4-5.6,7.1-8.9,12.7-7.5l44.1,11.3l52-15.2l16.1-4.5c1.1-0.3,2.4-0.3,3.5,0.1l13,4.1l11.4,9.9l3.6,8.6      c0.9,2.1-0.1,4.6-2.2,5.5l0,0c-2,0.8-4.2,0.1-5.3-1.8l-5.2-9.2l-12.1-3.1c-2.5,6.2-7.7,10-7.7,10l16.2,0.8      c3,0.2,5.3,2.7,5.1,5.7l0,0c-0.2,2.8-2.5,5-5.3,5l-19.1,0.2l-19.6-8.4l0,0L276.7,91.9L276.7,91.9z"></path>					<path d="M273.5,93.1c-0.9,0-1.9-0.1-2.8-0.3l-47-12.1c-5.9-1.5-9.5-7.6-8-13.5c1.5-5.9,7.6-9.5,13.5-8l44,11.3L325,55.3      l16.2-4.5c1.3-0.3,2.6-0.3,3.9,0.1l13,4.1c0.1,0,0.2,0.1,0.2,0.1l11.4,9.9c0.1,0.1,0.1,0.1,0.2,0.2l3.6,8.6      c1,2.4-0.1,5.3-2.5,6.3c-2.3,1-4.9,0.1-6.1-2.1l-5-9l-11.3-2.9c-1.8,4.2-4.7,7.2-6.4,8.7l14.5,0.7c1.6,0.1,3.1,0.8,4.2,2      c1.1,1.2,1.6,2.8,1.5,4.4c-0.2,3.1-2.8,5.6-6,5.6l-19.1,0.2c-0.1,0-0.2,0-0.3-0.1l-19.4-8.3l-40.7,13l0,0      C275.8,92.9,274.7,93.1,273.5,93.1L273.5,93.1z M226.5,60.1c-4.4,0-8.3,2.9-9.5,7.3c-1.3,5.2,1.8,10.6,7,11.9l47,12.1      c1.8,0.5,3.7,0.4,5.4-0.2l41-13.1c0.1-0.1,0.3,0,0.5,0l19.5,8.3l19-0.2c2.5,0,4.5-2,4.7-4.4c0.1-1.3-0.3-2.5-1.2-3.4      c-0.9-0.9-2-1.5-3.3-1.6l-16.2-0.8c-0.3,0-0.5-0.2-0.6-0.5s0-0.6,0.2-0.7c0,0,5.1-3.8,7.5-9.7c0.1-0.3,0.5-0.5,0.8-0.4      l12.1,3.1c0.2,0,0.3,0.2,0.4,0.3l5.2,9.2c0.9,1.6,2.8,2.2,4.5,1.5c1.8-0.8,2.6-2.8,1.9-4.6l-3.6-8.4l-11.1-9.7l-12.9-4      c-1-0.3-2.1-0.3-3.1,0l-16.1,4.5l-52,15.2c-0.1,0-0.2,0-0.3,0l-44.1-11.3C228.1,60.2,227.3,60.1,226.5,60.1L226.5,60.1z"></path>				</g>				<g>					<line class="st2" x1="340.4" y1="75.5" x2="335.9" y2="71.7"></line>					<rect x="337.5" y="70.7" transform="matrix(0.6424 -0.7664 0.7664 0.6424 64.523 285.5007)" width="1.3" height="5.9"></rect>				</g>				<g>					<line class="st2" x1="354.6" y1="67.2" x2="345.6" y2="64.9"></line>					<rect x="349.5" y="61.4" transform="matrix(0.248 -0.9688 0.9688 0.248 199.3444 388.8101)" width="1.3" height="9.3"></rect>				</g>				<g>					<polygon class="st0" points="233.5,246.2 237.2,226.4 267.6,230.6 262.9,266.4 234.2,261.2      "></polygon>					<path d="M263.5,267.2l-29.9-5.5l-0.8-15.6l3.9-20.5l31.6,4.4L263.5,267.2z M234.8,260.6l27.5,5l4.5-34.5l-29.1-4.1l-3.6,19.2      L234.8,260.6z"></path>				</g>				<g>					<polygon class="st0" points="145.7,254.3 169.1,230 191.2,252.2 161.7,285.5 141.2,260.1      "></polygon>					<path d="M161.7,286.5l-21.3-26.4l4.9-6.2l23.8-24.8l23,23.1L161.7,286.5L161.7,286.5z M142,260.1l19.7,24.4l28.6-32.2L169,231      l-22.8,23.8L142,260.1L142,260.1z"></path>				</g>				<g>					<polyline class="st1" points="184.2,71 200.8,60.9 209.6,59.1 206.8,68.5      "></polyline>					<polygon points="184.6,71.5 183.9,70.4 200.7,60.3 210.5,58.2 207.4,68.7 206.1,68.3 208.6,59.9 201.1,61.5      "></polygon>				</g>				<g>					<polyline class="st1" points="249.4,65 241.3,87.3 223.9,80      "></polyline>					<polygon points="241.6,88.2 223.7,80.6 224.2,79.4 240.9,86.4 248.8,64.8 250,65.2      "></polygon>				</g>				<g>					<path class="st3" d="M210.3,56.2c0,0-3.3-18.9,4-21.4l0.4,3.6l-1.2,9.8L210.3,56.2z"></path>					<g>						<g>							<path class="st1" d="M180.5,76.8c-16.1,18.3-49.3,31-59.9,52.8c0,0,34.4-16,109.5-11.4c-9.9-21.4,10.8-67.8,10.8-67.8        c2.2-6.6-0.9-13.8-7.2-16.7l0,0c-7.6-3.5-16.5,0.5-18.8,8.5l-7,22.6"></path>							<path d="M120.5,130.3c-0.2,0-0.3-0.1-0.5-0.2c-0.2-0.2-0.2-0.5-0.1-0.7c6.3-12.9,20.5-22.7,34.2-32.2        c9.9-6.8,19.2-13.2,25.8-20.7l1,0.9c-6.7,7.6-16.5,14.4-26,20.9c-13,9-26.5,18.2-33,30.1c7.7-3,42.4-14.6,107.1-10.8        c-3.7-9.1-3-23,2.1-41.4c3.9-14.2,9.1-25.9,9.1-26c2.1-6.2-0.9-13.1-6.9-15.9c-3.4-1.6-7.4-1.6-10.8,0        c-3.4,1.6-6,4.5-7.1,8.2l-7,22.6l-1.2-0.4l7-22.6c1.2-4,4-7.3,7.8-9c3.8-1.7,8.1-1.7,11.9,0c6.6,3.1,9.9,10.6,7.6,17.5        c-0.2,0.5-20.5,46.5-10.8,67.3c0.1,0.2,0.1,0.4-0.1,0.6s-0.4,0.3-0.6,0.3c-74-4.6-108.8,11.1-109.2,11.3        C120.7,130.2,120.6,130.3,120.5,130.3L120.5,130.3z"></path>						</g>						<g>							<g>																	<ellipse transform="matrix(0.3168 -0.9485 0.9485 0.3168 112.7517 254.9914)" class="st0" cx="233.4" cy="49.2" rx="3.9" ry="11.4"></ellipse>								<path d="M240.1,55.1c-2.4,0-5.4-0.6-8.1-1.5c-3-1-5.6-2.3-7.5-3.8c-2.1-1.6-2.9-3.1-2.5-4.4c0.9-2.8,7.3-2.4,12.9-0.5         c3,1,5.6,2.3,7.5,3.8c2.1,1.6,2.9,3.1,2.5,4.4C244.4,54.5,242.5,55.1,240.1,55.1z M226.8,44.7c-2.1,0-3.4,0.5-3.6,1.1         c-0.2,0.7,0.6,1.8,2.1,3c1.8,1.3,4.3,2.6,7.1,3.5c6.3,2.1,10.8,1.6,11.2,0.3c0.2-0.7-0.6-1.8-2.1-3         c-1.8-1.3-4.3-2.6-7.1-3.5C231.3,45.1,228.7,44.7,226.8,44.7z"></path>							</g>															<ellipse transform="matrix(0.1155 -0.9933 0.9933 0.1155 160.3516 283.7433)" class="st3" cx="239.5" cy="51.8" rx="2.6" ry="4.5"></ellipse>							<g>								<path class="st0" d="M239.8,44.9c0,0-5.5-2.8-11.7-3.1"></path>								<path d="M239.5,45.5c-0.1,0-5.4-2.8-11.4-3l0.1-1.3c6.3,0.2,11.8,3,12,3.2L239.5,45.5L239.5,45.5z"></path>							</g>						</g>					</g>											<ellipse transform="matrix(0.8719 -0.4897 0.4897 0.8719 14.4289 120.2881)" class="st3" cx="237.1" cy="32.6" rx="8.9" ry="4.8"></ellipse>											<ellipse transform="matrix(0.8245 -0.5658 0.5658 0.8245 21.9206 133.69)" class="st3" cx="226.5" cy="31.5" rx="7.9" ry="4.1"></ellipse>											<ellipse transform="matrix(0.2215 -0.9751 0.9751 0.2215 133.0264 241.6379)" class="st3" cx="217.9" cy="37.5" rx="10.5" ry="4.1"></ellipse>					<path class="st3" d="M221.9,37c0,0,8.8,3,17.5,1.3l-8.4-4.6l-9.4,0.3C221.7,33.9,221.9,37,221.9,37z"></path>					<g>						<path class="st1" d="M219.1,47c-0.4-2.2-2.2-3.8-4.2-3.5c-2,0.3-3.3,2.4-2.9,4.6c0.4,2.2,2.2,3.8,4.2,3.5"></path>						<path d="M215.6,52.2c-2.1,0-4-1.7-4.4-4.1c-0.2-1.2,0.1-2.5,0.7-3.5c0.7-1,1.6-1.7,2.8-1.9c2.3-0.4,4.6,1.4,5,4l-1.3,0.2       c-0.3-1.9-1.9-3.2-3.5-2.9c-0.8,0.1-1.4,0.6-1.9,1.3c-0.5,0.7-0.6,1.7-0.5,2.6c0.3,1.9,1.9,3.2,3.5,2.9l0.2,1.3       C216,52.2,215.8,52.2,215.6,52.2L215.6,52.2z"></path>					</g>				</g>				<g>					<path class="st4" d="M150.6,247.6l50-54.3l-61.1-56.9c-7.6-6.6-8.4-18-1.8-25.6c6.6-7.6,18-8.4,25.6-1.8l75.1,69.1      c3.7,3.2,5.9,7.8,6.2,12.6s-1.4,9.7-4.7,13.3L177,273L150.6,247.6L150.6,247.6z"></path>					<path d="M177.1,274l-27.4-26.3l50-54.3L139,136.9c-7.8-6.8-8.7-18.7-1.9-26.5c3.3-3.8,7.9-6.1,12.9-6.4s9.9,1.2,13.6,4.5      l75.1,69.1c3.8,3.3,6.1,8,6.4,13.1s-1.5,10-4.8,13.8L177.1,274L177.1,274z M151.5,247.6l25.5,24.5l62.4-68.6      c3.1-3.5,4.8-8.1,4.5-12.8s-2.5-9.1-6-12.2l-75.1-69.1c-3.5-3.1-8-4.5-12.7-4.2c-4.7,0.3-8.9,2.5-12,6      c-6.3,7.3-5.5,18.4,1.8,24.7l61.6,57.4L151.5,247.6L151.5,247.6z"></path>				</g>				<g>					<path class="st4" d="M233.2,239.8l17.6-98.7l-108.3,16.3c-0.1,0-0.1,0-0.2,0c-9.8,1.5-19-5.2-20.6-15      c-1.6-9.9,5.1-19.2,15-20.8l132-20.1c5.6-0.9,11.3,0.8,15.4,4.8c4.1,3.9,6.2,9.5,5.5,15.2l-20.7,124.4L233.2,239.8L233.2,239.8      z"></path>					<path d="M269.4,246.5l-36.9-6.2l0.1-0.6l17.4-97.8L142.4,158c-10.1,1.6-19.7-5.4-21.4-15.6c-0.8-5,0.4-9.9,3.3-14      s7.3-6.8,12.2-7.6l132-20.1c5.9-0.9,11.7,0.8,16,4.9c4.2,4,6.4,9.9,5.7,15.7L269.4,246.5L269.4,246.5z M234,239.2l34.3,5.8      l20.6-123.7c0.6-5.4-1.4-10.8-5.3-14.6c-4-3.8-9.4-5.5-14.9-4.6l-132,20.1c-4.6,0.8-8.6,3.2-11.4,7c-2.7,3.8-3.8,8.4-3.1,13      c1.5,9.4,10.5,15.9,19.9,14.5l0.2,0l109.2-16.4L234,239.2L234,239.2z"></path>				</g>				<g>					<line class="st2" x1="187.7" y1="207.2" x2="210.8" y2="182.2"></line>					<rect x="182.2" y="194" transform="matrix(0.6776 -0.7354 0.7354 0.6776 -78.9584 209.2647)" width="34" height="1.3"></rect>				</g>				<g>					<g>						<g>							<path class="st0" d="M297.6,294.2c0,0,51.3,11.4,24.4,36.3c0,0-7,12.1-12.8,9.5c-1.5-0.7-2.4-4-5.9-5.6s-4.6,0.9-8.1-0.6        c-3.5-1.5-2.4-4-5.9-5.6s-4.6,0.9-8.1-0.6c-3.5-1.5-2.4-4-5.9-5.6s-4.6,0.9-8.1-0.6s-2.4-4-5.9-5.6s-4.6,0.9-8.1-0.6        c-3.5-1.5-2.4-4-5.9-5.6s-4.6,0.9-8.1-0.6s-2.4-4-5.9-5.6s-4.6,0.9-8.1-0.6s-2.4-4-5.9-5.6s-4.6,0.9-8.1-0.6        c-3.6-1.6-5.3-3.1-6.4-5.1c0,0-3.7-5.2,2.6-11.7c0,0,9.7-42.6,25.7-33.5c0,0-1.1,14.1,27.4,17.2"></path>							<path d="M310.9,341c-0.7,0-1.3-0.1-2-0.4c-0.8-0.3-1.3-1.1-2-2c-0.9-1.2-2-2.7-3.9-3.6c-1.6-0.7-2.5-0.5-3.6-0.3        c-1.2,0.2-2.5,0.5-4.4-0.4c-1.9-0.9-2.6-2-3.2-3c-0.6-1-1.1-1.8-2.6-2.5s-2.5-0.5-3.6-0.3c-1.2,0.2-2.5,0.5-4.4-0.4        c-1.9-0.9-2.6-2-3.2-3c-0.6-1-1.1-1.8-2.6-2.5c-1.5-0.7-2.5-0.5-3.6-0.3c-1.2,0.2-2.5,0.5-4.4-0.4c-1.9-0.9-2.6-2-3.2-3        c-0.6-1-1.1-1.8-2.6-2.5s-2.5-0.5-3.6-0.3c-1.2,0.2-2.5,0.5-4.4-0.4s-2.6-2-3.2-3c-0.6-1-1.1-1.8-2.6-2.5s-2.5-0.5-3.6-0.3        c-1.2,0.2-2.5,0.5-4.4-0.4s-2.6-2-3.2-3c-0.6-1-1.1-1.8-2.6-2.5s-2.5-0.5-3.6-0.3c-1.2,0.2-2.5,0.5-4.4-0.4s-2.6-2-3.2-3        c-0.6-1-1.1-1.8-2.6-2.5c-1.6-0.7-2.5-0.5-3.6-0.3c-1.2,0.2-2.5,0.5-4.4-0.4c-3.4-1.5-5.4-3.1-6.7-5.4c0,0-3.9-5.6,2.6-12.3        c0.6-2.7,7.1-29.4,18.3-34.3c2.7-1.2,5.5-1,8.3,0.6l0.4,0.2l0,0.4c0,0.1-0.7,13.5,26.8,16.5l-0.1,1.3        c-26.4-2.9-27.9-15-27.9-17.5c-2.3-1.2-4.6-1.3-6.8-0.3c-10.9,4.8-17.5,33.3-17.6,33.6l0,0.2l-0.1,0.1        c-5.8,5.9-2.7,10.6-2.5,10.8c1.2,2.1,3,3.5,6.2,4.9c1.6,0.7,2.5,0.5,3.6,0.3c1.2-0.2,2.5-0.5,4.4,0.4s2.6,2,3.2,3        c0.6,1,1.1,1.8,2.6,2.5s2.5,0.5,3.6,0.3c1.2-0.2,2.5-0.5,4.4,0.4s2.6,2,3.2,3c0.6,1,1.1,1.8,2.6,2.5s2.5,0.5,3.6,0.3        c1.2-0.2,2.5-0.5,4.4,0.4s2.6,2,3.2,3c0.6,1,1.1,1.8,2.6,2.5s2.5,0.5,3.6,0.3c1.2-0.2,2.5-0.5,4.4,0.4c1.9,0.9,2.6,2,3.2,3        c0.6,1,1.1,1.8,2.6,2.5c1.5,0.7,2.5,0.5,3.6,0.3c1.2-0.2,2.5-0.5,4.4,0.4c1.9,0.9,2.6,2,3.2,3c0.6,1,1.1,1.8,2.6,2.5        s2.5,0.5,3.6,0.3c1.2-0.2,2.5-0.5,4.4,0.4c1.9,0.9,2.6,2,3.2,3c0.6,1,1.1,1.8,2.6,2.5s2.5,0.5,3.6,0.3        c1.2-0.2,2.5-0.5,4.4,0.4c2.3,1,3.5,2.7,4.4,4c0.5,0.7,1,1.4,1.5,1.6c5.2,2.3,11.9-9.1,12-9.2l0.1-0.1c6.1-5.7,8.6-11,7.2-16        c-3.5-12.9-31-19.1-31.3-19.2l0.3-1.3c1.2,0.3,28.6,6.5,32.3,20.1c1.5,5.4-1.1,11.2-7.5,17.2        C321.9,331.9,316.4,340.9,310.9,341L310.9,341z"></path>						</g>						<g>							<line class="st2" x1="207.8" y1="279.6" x2="322" y2="330.5"></line>							<rect x="264.3" y="242.5" transform="matrix(0.4066 -0.9136 0.9136 0.4066 -121.4583 423.0146)" width="1.3" height="125"></rect>						</g>						<g>							<line class="st2" x1="281.4" y1="294.9" x2="274.9" y2="309.5"></line>							<rect x="270.2" y="301.5" transform="matrix(0.4071 -0.9134 0.9134 0.4071 -111.0859 433.2163)" width="16" height="1.3"></rect>						</g>						<g>							<path class="st0" d="M207.8,279.6l112.7,50.2c1.5,0.6,2.1,2.4,1.5,3.8v0c-0.6,1.5-2.4,2.1-3.8,1.5l-112.7-50.2        c-1.5-0.6-2.1-2.4-1.5-3.8l0,0C204.6,279.6,206.3,278.9,207.8,279.6z"></path>							<path d="M319.3,335.9c-0.5,0-1-0.1-1.4-0.3l-112.7-50.2c-0.9-0.4-1.5-1.1-1.9-2s-0.3-1.8,0.1-2.7c0.4-0.9,1.1-1.5,2-1.9        s1.8-0.3,2.7,0.1l112.7,50.2c1.8,0.8,2.6,2.9,1.8,4.7C322,335.2,320.7,336,319.3,335.9L319.3,335.9z M318.4,334.5        c1.1,0.5,2.5,0,3-1.1s0-2.5-1.1-3l-112.7-50.2c-0.6-0.2-1.1-0.3-1.7,0c-0.6,0.2-1,0.6-1.2,1.2c-0.2,0.5-0.3,1.1,0,1.7        c0.2,0.6,0.6,1,1.2,1.2L318.4,334.5L318.4,334.5z"></path>						</g>					</g>					<g>						<g>							<path class="st0" d="M297.6,294.2c0,0-0.9-16.9-30.5-31.1c0,0-11.9-1.2-15.6,7.1c-3.6,7.9,20.4,4,29.9,24.8L297.6,294.2        L297.6,294.2z"></path>							<path d="M281,295.6l-0.2-0.4c-5.4-11.8-15.7-15.5-22.5-18c-3.9-1.4-6.8-2.5-7.6-4.4c-0.4-0.9-0.3-1.8,0.2-2.9        c3.9-8.6,15.8-7.5,16.3-7.5l0.2,0.1c29.6,14.2,30.9,31,30.9,31.7l0,0.6L281,295.6L281,295.6z M265.6,263.6        c-3.2,0-10.8,0.7-13.5,6.7c-0.3,0.7-0.4,1.3-0.2,1.9c0.6,1.5,3.4,2.5,6.8,3.7c7,2.5,17.4,6.3,23,18.3l15.1-0.7        c-0.6-3.2-4.5-17.6-30-29.9C266.7,263.7,266.3,263.6,265.6,263.6L265.6,263.6z"></path>						</g>						<g>							<path class="st0" d="M264.4,263c0,0-5.1,0.3-8.9,7.4c0,0,8.9-3.9,14.3-3.4c0,0-2.6,2.7-5.9,6.6c0,0,8.7-3.9,14.1-2.2        c0,0-5.4,4.3-6,6.5c0,0,8.3-3,12.4-1.7c0,0-4.2,3.1-5.5,6.4c0,0,6.6-1.8,10.3-0.8c0,0-4.1,5.1-5.9,7.5c0,0,5.3-2.5,10.2-1.9"></path>							<path d="M281.1,291l1.5-2c1.4-1.9,4-5.2,5.3-6.7c-3.6-0.5-8.9,1-9,1l-1.2,0.3l0.5-1.2c0.9-2.4,3.2-4.6,4.6-5.8        c-4.1-0.4-10.6,1.9-10.6,1.9l-1.2,0.4l0.3-1.2c0.5-1.9,3.5-4.6,5.2-6c-5.1-0.7-12.3,2.4-12.4,2.5l-2.6,1.2l1.9-2.2        c2.1-2.5,3.9-4.4,5-5.6c-5.2,0.2-12.5,3.4-12.6,3.4l-1.7,0.8l0.9-1.7c4-7.3,9.3-7.7,9.5-7.7l0.1,1.3l0-0.6l0,0.6        c-0.2,0-4,0.3-7.4,5.4c2.9-1.1,8.7-3.1,12.8-2.7l1.3,0.1l-0.9,1c0,0-1.7,1.9-4.2,4.6c3-1.1,8.3-2.5,12.1-1.3l1.2,0.4l-1,0.8        c-1.1,0.9-3.8,3.2-5.1,4.9c2.7-0.8,8.1-2.2,11.2-1.2l1.2,0.4l-1,0.8c0,0-3.1,2.3-4.7,4.9c2.2-0.5,6.5-1.2,9.3-0.4l1,0.3        l-0.6,0.8c0,0-2.6,3.2-4.5,5.7c2-0.7,5.2-1.5,8.4-1.1l-0.1,1.3c-4.7-0.5-9.8,1.8-9.8,1.9L281.1,291L281.1,291z"></path>						</g>						<g>							<path class="st0" d="M235.6,252.6c0,0-9.8-1.7-15.2,19.8c0,0-6,0-8.6-5.7"></path>							<path d="M220.4,273c-0.4,0-6.5-0.1-9.2-6.1l1.2-0.5c2,4.4,6.1,5.2,7.6,5.3c5.5-21.4,15.4-19.9,15.8-19.8l-0.2,1.3        c-0.1,0-9.2-1.3-14.4,19.3L221,273L220.4,273L220.4,273z"></path>						</g>					</g>				</g>				<g>					<g>						<g>							<path class="st0" d="M184.1,324.6c0,0,41.9,31.7,7.1,43.1c0,0-11.4,8.1-15.6,3.3c-1.1-1.2-0.5-4.6-3-7.5s-4.5-1.1-7.1-4        c-2.5-2.9-0.5-4.6-3-7.5c-2.5-2.9-4.5-1.1-7.1-4c-2.5-2.9-0.5-4.6-3-7.5s-4.5-1.1-7.1-3.9s-0.5-4.6-3-7.5s-4.5-1.1-7.1-4        c-2.5-2.9-0.5-4.6-3-7.5s-4.5-1.1-7.1-4s-0.5-4.6-3-7.5s-4.5-1.1-7.1-3.9c-2.5-2.9-0.5-4.6-3-7.5s-4.5-1.1-7.1-4        c-2.6-2.9-3.5-5-3.7-7.3c0,0-1.2-6.3,7.2-9.5c0,0,26.5-34.6,37.3-19.8c0,0-6.9,12.3,17.7,27.1"></path>							<path d="M179.4,373.3c-1.6,0-3.2-0.5-4.3-1.7c-0.6-0.6-0.7-1.6-1-2.6c-0.3-1.5-0.7-3.3-2.1-4.9c-1.1-1.3-2.1-1.5-3.2-1.8        c-1.2-0.3-2.5-0.6-3.9-2.2s-1.6-2.9-1.7-4.1c-0.1-1.1-0.2-2.1-1.4-3.4c-1.1-1.3-2.1-1.5-3.2-1.8c-1.2-0.3-2.5-0.6-3.9-2.2        c-1.4-1.6-1.5-2.9-1.7-4.1c-0.1-1.1-0.2-2.1-1.4-3.4c-1.1-1.3-2.1-1.5-3.2-1.8c-1.2-0.3-2.5-0.6-3.9-2.2        c-1.4-1.6-1.5-2.9-1.7-4.1c-0.1-1.1-0.2-2.1-1.4-3.4c-1.1-1.3-2.1-1.5-3.2-1.8c-1.2-0.3-2.5-0.6-3.9-2.2        c-1.4-1.6-1.5-2.9-1.7-4.1c-0.1-1.1-0.2-2.1-1.4-3.4c-1.1-1.3-2.1-1.5-3.2-1.8c-1.2-0.3-2.5-0.6-3.9-2.2        c-1.4-1.6-1.6-2.9-1.7-4.1c-0.1-1.1-0.2-2.1-1.4-3.4c-1.1-1.3-2.1-1.5-3.2-1.8c-1.2-0.3-2.5-0.6-3.9-2.2        c-1.4-1.6-1.5-2.9-1.7-4.1c-0.1-1.1-0.2-2.1-1.4-3.4c-1.1-1.3-2.1-1.5-3.2-1.8c-1.2-0.3-2.5-0.6-3.9-2.2        c-2.5-2.8-3.6-5.1-3.9-7.7c0,0-1.2-6.7,7.5-10.1c1.7-2.2,18.6-23.6,30.8-23.6c0.1,0,0.1,0,0.1,0c3,0,5.5,1.4,7.4,4l0.2,0.3        l-0.2,0.4c-0.1,0.1-6.2,12,17.5,26.2l-0.7,1.1c-22.7-13.6-19.1-25.3-18.1-27.6c-1.6-2.1-3.6-3.1-6.1-3.1c0,0-0.1,0-0.1,0        c-11.9,0-29.7,23-29.8,23.2l-0.1,0.1l-0.2,0.1c-7.8,3-6.9,8.5-6.8,8.8c0.2,2.4,1.3,4.4,3.6,7c1.1,1.3,2.1,1.5,3.2,1.8        c1.2,0.3,2.5,0.6,3.9,2.2c1.4,1.6,1.5,2.9,1.7,4.1c0.1,1.1,0.2,2.1,1.4,3.4c1.1,1.3,2.1,1.5,3.2,1.8c1.2,0.3,2.5,0.6,3.9,2.2        c1.4,1.6,1.6,2.9,1.7,4.1c0.1,1.1,0.2,2.1,1.4,3.4c1.1,1.3,2.1,1.5,3.2,1.8c1.2,0.3,2.5,0.6,3.9,2.2c1.4,1.6,1.5,2.9,1.7,4.1        c0.1,1.1,0.2,2.1,1.4,3.4c1.1,1.3,2.1,1.5,3.2,1.8c1.2,0.3,2.5,0.6,3.9,2.2c1.4,1.6,1.6,2.9,1.7,4.1c0.1,1.1,0.2,2.1,1.4,3.4        c1.1,1.3,2.1,1.5,3.2,1.8c1.2,0.3,2.5,0.6,3.9,2.2c1.4,1.6,1.6,2.9,1.7,4.1c0.1,1.1,0.2,2.1,1.4,3.4c1.1,1.3,2.1,1.5,3.2,1.8        c1.2,0.3,2.5,0.6,3.9,2.2c1.4,1.6,1.5,2.9,1.7,4.1c0.1,1.1,0.2,2.1,1.4,3.4c1.1,1.3,2.1,1.5,3.2,1.8c1.2,0.3,2.5,0.6,3.9,2.2        c1.6,1.9,2.1,3.9,2.4,5.5c0.2,0.9,0.3,1.7,0.7,2c3.8,4.3,14.6-3.3,14.7-3.4l0.2-0.1c7.9-2.6,12.4-6.5,13.2-11.5        c2.2-13.1-20.2-30.3-20.5-30.5l0.8-1c0.9,0.7,23.3,17.9,21,31.7c-0.9,5.5-5.6,9.7-14,12.5        C190.7,368.9,184.4,373.2,179.4,373.3L179.4,373.3z"></path>						</g>						<g>							<line class="st2" x1="108.5" y1="274" x2="191.2" y2="367.8"></line>							<rect x="149.2" y="258.4" transform="matrix(0.75 -0.6614 0.6614 0.75 -174.7946 179.3417)" width="1.3" height="125"></rect>						</g>						<g>							<line class="st2" x1="169.1" y1="318.6" x2="157.1" y2="329.1"></line>							<rect x="155.1" y="323.2" transform="matrix(0.7496 -0.6618 0.6618 0.7496 -173.4848 189.0053)" width="15.9" height="1.3"></rect>						</g>						<g>							<path class="st0" d="M108.5,274l81.6,92.5c1.1,1.2,0.9,3-0.3,4.1l0,0c-1.2,1.1-3,0.9-4.1-0.3l-81.6-92.5        c-1.1-1.2-0.9-3,0.3-4.1l0,0C105.6,272.7,107.4,272.8,108.5,274z"></path>							<path d="M187.9,372c-1,0-2-0.4-2.6-1.2l-81.6-92.6c-1.3-1.5-1.2-3.7,0.3-5c1.5-1.3,3.7-1.1,5,0.3l81.6,92.5        c1.3,1.5,1.1,3.7-0.3,5C189.6,371.7,188.8,372,187.9,372L187.9,372z M186.2,369.9c0.8,0.9,2.2,1,3.2,0.2        c0.9-0.8,1-2.2,0.2-3.2L108,274.4c-0.8-0.9-2.2-1-3.2-0.2c-0.9,0.8-1,2.2-0.2,3.2L186.2,369.9L186.2,369.9z"></path>						</g>					</g>					<g>						<g>							<path class="st0" d="M184.1,324.6c0,0,6.2-15.8-14.8-41c0,0-10.3-6-17.1-0.1c-6.5,5.7,16.9,12.2,16.9,35L184.1,324.6        L184.1,324.6z"></path>							<path d="M184.5,325.5l-16.1-6.5v-0.4c0-12.9-7.8-20.6-12.9-25.7c-3-2.9-5.1-5-5.1-7.2c0-0.9,0.5-1.8,1.4-2.6        c7.1-6.2,17.4-0.3,17.9,0l0.2,0.1c21.1,25.2,15.2,41,14.9,41.7L184.5,325.5L184.5,325.5z M169.7,318.1l14,5.7        c0.8-3.1,3.3-17.9-14.8-39.6c-1-0.6-10.2-5.4-16.3-0.1c-0.6,0.5-0.9,1.1-0.9,1.6c-0.1,1.6,2,3.6,4.7,6.2        C161.6,297.1,169.5,304.9,169.7,318.1L169.7,318.1z"></path>						</g>						<g>							<path class="st0" d="M166.9,282.5c0,0-4.8-1.9-11.2,3c0,0,9.7,0.1,14.4,2.8c0,0-3.5,1.4-8.1,3.5c0,0,9.5,0.1,13.8,3.8        c0,0-6.7,1.6-8.2,3.4c0,0,8.8,0.8,11.9,3.6c0,0-5.2,1.1-7.6,3.5c0,0,6.8,1.1,9.7,3.6c0,0-5.9,2.9-8.5,4.4        c0,0,5.8-0.1,10.1,2.5"></path>							<path d="M182.6,317.3c-4-2.4-9.7-2.4-9.7-2.4l-2.5,0l2.2-1.2c2-1.1,5.8-3,7.6-3.9c-3.1-1.9-8.5-2.8-8.6-2.9l-1.2-0.2l0.9-0.9        c1.8-1.8,4.8-2.8,6.6-3.3c-3.5-2-10.4-2.7-10.5-2.7l-1.2-0.1l0.8-1c1.2-1.5,5.1-2.7,7.3-3.3c-4.4-2.8-12.2-2.9-12.3-2.9        l-2.9,0l2.6-1.2c2.9-1.4,5.4-2.4,6.8-3c-4.8-2-12.8-2.1-12.9-2.1l-1.9,0l1.5-1.1c6.7-5,11.6-3.1,11.8-3.1l-0.5,1.2        c-0.2-0.1-3.8-1.4-9,1.8c3.1,0.2,9.2,0.8,12.8,2.8l1.2,0.7l-1.2,0.5c0,0-2.4,1-5.7,2.5c3.2,0.3,8.6,1.2,11.5,3.8l0.9,0.8        l-1.2,0.3c-1.4,0.3-4.8,1.3-6.7,2.4c2.8,0.4,8.3,1.4,10.7,3.6l0.9,0.9l-1.2,0.3c0,0-3.8,0.8-6.3,2.5c2.2,0.5,6.4,1.6,8.6,3.5        l0.8,0.6l-0.9,0.4c0,0-3.7,1.8-6.5,3.3c2.1,0.2,5.4,0.8,8.1,2.5L182.6,317.3L182.6,317.3z"></path>						</g>						<g>							<path class="st0" d="M145.1,261c0,0-8.1-5.6-22,11.7c0,0-5.5-2.5-5.5-8.8"></path>							<path d="M123.2,273.5l-0.5-0.2c-0.2-0.1-5.8-2.7-5.9-9.4h1.3c0,4.9,3.4,7.2,4.7,8c13.9-17.1,22.2-11.7,22.6-11.4l-0.7,1.1        c-0.1,0-7.9-5-21.2,11.6L123.2,273.5L123.2,273.5z"></path>						</g>					</g>				</g>				<g>					<path class="st4" d="M273.7,105.9c0,0,6.9,1.3,11.2,9.8"></path>					<path d="M284.3,116c-4.1-8.2-10.7-9.5-10.8-9.5l0.2-1.3c0.3,0.1,7.2,1.4,11.7,10.2L284.3,116z"></path>				</g>				<g>					<line class="st2" x1="214.9" y1="224.4" x2="219.5" y2="219.4"></line>					<rect x="213.8" y="221.2" transform="matrix(0.6744 -0.7383 0.7383 0.6744 -93.0772 232.605)" width="6.8" height="1.3"></rect>				</g>				<g>					<line class="st2" x1="195.6" y1="245.5" x2="211.7" y2="227.9"></line>					<rect x="191.7" y="236" transform="matrix(0.6744 -0.7383 0.7383 0.6744 -108.4351 227.4282)" width="23.9" height="1.3"></rect>				</g>				<g>					<path class="st1" d="M221,108.9c-16.7,3.1-23.5,12.6-56.9,11.1c-24.9-1.2-43.6,9.6-43.6,9.6s-1.7-17.6,30.8-30.2      c15.3-5.9,24.8-10.3,24.8-10.3"></path>					<path d="M120,130.7l-0.1-1c-0.1-0.7-1.4-18.3,31.2-30.9c15.1-5.8,24.7-10.2,24.8-10.2l0.5,1.2c-0.1,0-9.7,4.4-24.9,10.3      c-27.2,10.5-30.1,24.6-30.4,28.5c4.2-2.2,21.4-10.2,43-9.2c22.3,1,32.8-3,42.1-6.6c4.7-1.8,9.1-3.5,14.6-4.5l0.2,1.3      c-5.4,1-9.7,2.7-14.3,4.4c-9.4,3.6-20.1,7.7-42.7,6.7c-24.4-1.1-43.1,9.4-43.3,9.5C120.8,130.2,120,130.7,120,130.7z"></path>				</g>				<g>					<path class="st1" d="M214.6,106.5c0,0-7.2,1.9-12.2,4.2c-9.1,4.2-17.5,3-17.5,3"></path>					<path d="M187.9,114.5c-1.9,0-3-0.2-3.1-0.2l0.2-1.3c0.1,0,8.4,1.1,17.2-2.9c5-2.3,12.2-4.3,12.3-4.3l0.3,1.3      c-0.1,0-7.2,1.9-12.1,4.2C196.8,114,191.2,114.5,187.9,114.5L187.9,114.5z"></path>				</g>				<g>					<line class="st2" x1="164.3" y1="260.8" x2="158.6" y2="267.8"></line>					<rect x="156.9" y="263.6" transform="matrix(0.637 -0.7708 0.7708 0.637 -145.1224 220.3839)" width="9" height="1.3"></rect>				</g>				<g>					<line class="st2" x1="167.2" y1="263.6" x2="161.4" y2="270.5"></line>					<rect x="159.8" y="266.4" transform="matrix(0.637 -0.7708 0.7708 0.637 -146.1816 223.588)" width="9" height="1.3"></rect>				</g>				<g>					<line class="st2" x1="154.8" y1="251.7" x2="151" y2="256.3"></line>					<rect x="150" y="253.3" transform="matrix(0.637 -0.7708 0.7708 0.637 -140.2771 210.0914)" width="5.9" height="1.3"></rect>				</g>				<g>					<path class="st3" d="M121.9,135.3c1-1.7,7.3-13,34.8-15.3c0,0-14.8-0.4-30.7,7C126,127,122.4,132.2,121.9,135.3z"></path>					<path d="M121.9,135.9c-0.1,0-0.1,0-0.2,0c-0.3-0.1-0.5-0.4-0.4-0.7c0.6-3.2,4-8.3,4.2-8.5c0.1-0.1,0.2-0.2,0.3-0.2      c15.9-7.4,30.9-7.1,31-7.1c0.3,0,0.6,0.3,0.6,0.6s-0.2,0.6-0.6,0.7c-24.4,2-32.1,11.1-34.3,14.9      C122.3,135.8,122.1,135.9,121.9,135.9L121.9,135.9z M121.3,135l0.6,0.3L121.3,135z M126.4,127.5c-0.3,0.5-1.3,1.9-2.2,3.6      c2.1-2.2,5.4-4.7,10.4-6.8C132,125.2,129.2,126.2,126.4,127.5L126.4,127.5z"></path>				</g>				<g>					<path class="st1" d="M225.4,91c0,0-1.5,6.8,2.4,10.8c2.3,2.4-0.3,5.9-0.3,5.9s-8.4,1.5-12.5,2.8"></path>					<path d="M215.2,111l-0.4-1.2c3.7-1.1,10.8-2.4,12.3-2.7c0.5-0.7,1.8-3.1,0.2-4.8c-4-4.2-2.6-11.1-2.5-11.4l1.3,0.3      c0,0.1-1.4,6.5,2.2,10.2c2.1,2.2,0.8,5.3-0.2,6.7l-0.1,0.2l-0.2,0.1C227.5,108.3,219.2,109.8,215.2,111L215.2,111z"></path>				</g>				<g>					<polygon class="st3" points="148.8,251.1 151.4,248.4 174.7,270.8      "></polygon>					<path d="M174.7,271.5c-0.1,0-0.3,0-0.4-0.1l-25.9-19.7c-0.1-0.1-0.2-0.3-0.2-0.5s0.1-0.4,0.2-0.5l2.6-2.7      c0.2-0.3,0.7-0.3,0.9,0l23.3,22.4c0.2,0.2,0.3,0.6,0,0.9C175.1,271.4,174.9,271.5,174.7,271.5L174.7,271.5z M149.8,251.1      l16.3,12.4l-14.7-14.1L149.8,251.1L149.8,251.1z"></path>				</g>				<g>					<line class="st2" x1="249.2" y1="150.2" x2="252.6" y2="131"></line>					<rect x="241.1" y="139.9" transform="matrix(0.1757 -0.9844 0.9844 0.1757 68.3929 362.8363)" width="19.5" height="1.3"></rect>				</g>				<g>					<polygon class="st3" points="159.2,154.9 205.5,147.9 210,152 160.4,155.9      "></polygon>					<path d="M160.4,156.6c-0.2,0-0.3-0.1-0.4-0.2l-1.2-1.1c-0.2-0.2-0.2-0.4-0.2-0.7s0.3-0.4,0.5-0.4l46.3-7c0.2,0,0.4,0,0.5,0.2      l4.4,4.1c0.2,0.2,0.3,0.4,0.2,0.7s-0.3,0.4-0.6,0.4L160.4,156.6C160.5,156.6,160.4,156.6,160.4,156.6L160.4,156.6z       M205.3,148.6l-44.1,6.6l47.2-3.8L205.3,148.6L205.3,148.6z"></path>				</g>				<g>					<polygon class="st3" points="243.1,184.4 239.4,204.9 236,208.3 242.3,182.9      "></polygon>					<path d="M236,208.9c-0.1,0-0.2,0-0.3-0.1c-0.2-0.1-0.4-0.4-0.3-0.7l6.3-25.3c0.1-0.3,0.3-0.5,0.6-0.5c0.3,0,0.5,0.1,0.6,0.3      l0.8,1.5c0.1,0.1,0.1,0.3,0.1,0.4l-3.6,20.4c0,0.1-0.1,0.2-0.2,0.4l-3.4,3.4C236.3,208.9,236.2,208.9,236,208.9L236,208.9z       M241.9,187l-4.7,19.1l1.6-1.6L241.9,187L241.9,187z"></path>				</g>				<g>					<line class="st2" x1="239.7" y1="240.9" x2="238.8" y2="247"></line>					<rect x="236.1" y="243.3" transform="matrix(0.1397 -0.9902 0.9902 0.1397 -35.7111 446.7619)" width="6.3" height="1.3"></rect>				</g>				<g>					<line class="st2" x1="261.2" y1="244.4" x2="259.6" y2="255.5"></line>					<rect x="254.8" y="249.3" transform="matrix(0.1397 -0.9902 0.9902 0.1397 -23.4592 472.8805)" width="11.2" height="1.3"></rect>				</g>				<g>					<line class="st2" x1="255.4" y1="243.5" x2="254.3" y2="252.5"></line>					<rect x="250.3" y="247.4" transform="matrix(0.1278 -0.9918 0.9918 0.1278 -23.669 469.1036)" width="9.1" height="1.3"></rect>				</g>				<g>					<polygon class="st3" points="234.6,240 265.7,245.5 265.1,249.5      "></polygon>					<path d="M265.1,250.1c-0.1,0-0.1,0-0.2,0l-30.5-9.5c-0.3-0.1-0.5-0.4-0.4-0.8s0.4-0.6,0.8-0.5l31,5.5c0.3,0.1,0.6,0.4,0.5,0.7      l-0.5,4c0,0.2-0.1,0.4-0.3,0.5C265.4,250.1,265.3,250.1,265.1,250.1L265.1,250.1z M244.7,242.4l19.9,6.2l0.3-2.6L244.7,242.4z"></path>				</g>				<g>					<line class="st2" x1="273.7" y1="74.5" x2="274.4" y2="81.1"></line>					<rect x="273.4" y="74.5" transform="matrix(0.9946 -0.1037 0.1037 0.9946 -6.585 28.8248)" width="1.3" height="6.6"></rect>				</g>				<g>					<g>						<path class="st1" d="M93.7,52.3l-11.2-7c-1.5-1-3.3-1.2-5.1-0.8l-11.9,3.3"></path>						<path d="M93.3,52.8l-11.2-7c-1.3-0.8-3-1.1-4.5-0.7l-11.9,3.3l-0.3-1.2l11.9-3.3c1.9-0.5,3.9-0.2,5.6,0.8l11.2,7L93.3,52.8z"></path>					</g>					<g>						<path class="st1" d="M65.5,57.6L55.4,69.7c-1.3,1.5-3.5,1.9-5.2,0.9l0,0c-2.2-1.3-2.8-4.2-1.2-6.2l6-7.3"></path>						<path d="M52.2,71.8c-0.8,0-1.6-0.2-2.4-0.6c-1.2-0.7-2.1-1.9-2.3-3.3s0.1-2.8,1-3.9l6-7.3l1,0.8l-6,7.3       c-0.7,0.8-0.9,1.8-0.7,2.8s0.8,1.9,1.7,2.4c1.5,0.8,3.3,0.5,4.4-0.8L65,57.2l1,0.8L55.8,70.2C54.9,71.2,53.5,71.8,52.2,71.8       L52.2,71.8z"></path>					</g>					<g>						<path class="st1" d="M204.3,64c-0.9-5.7-6.2-9.6-11.9-8.8l-55.2,10L99,55.6l-9.5-5.9l-16.2-4.5c-1.2-0.3-2.4-0.3-3.5,0.1       l-13,4.1L43,58.9c-2.1,1.5-2.7,4.3-1.3,6.5l0,0c1.5,2.3,4.5,2.8,6.7,1.2l6-4.3l12.1-3.1c2.5,6.2,7.7,10.7,7.7,10.7L57,73.6       c-2.5,0.6-4.1,3.1-3.7,5.6l0,0c0.4,2.7,2.9,4.6,5.6,4.2l18.5-2.5l11.5,1.3c4.1,0.5,8.1-0.7,11.4-3.2l1.4-1.1l32.1,7.9       c0.9,0.3,1.9,0.4,2.8,0.4c0.5,0,1,0,1.6-0.1l48.7-9"></path>						<path d="M136.6,86.9c-1,0-2-0.1-3-0.4l-31.8-7.8l-1.2,0.9c-3.4,2.6-7.6,3.8-11.8,3.3l-11.4-1.3L59,84c-3,0.4-5.9-1.7-6.3-4.7       c-0.4-2.9,1.3-5.6,4.2-6.3l16-3.5c-1.6-1.6-4.8-5-6.7-9.5l-11.4,2.9l-5.9,4.2c-1.2,0.9-2.7,1.2-4.1,0.9       c-1.5-0.3-2.7-1.1-3.5-2.3c-1.6-2.5-1-5.7,1.4-7.4l13.8-9.5c0,0,0.1-0.1,0.2-0.1l13-4.1c1.3-0.4,2.6-0.4,3.9-0.1L89.6,49       c0.1,0,0.1,0,0.2,0.1l9.4,5.8l38.1,9.6l55-10c2.9-0.4,5.9,0.3,8.2,2s3.9,4.3,4.4,7.3l-1.3,0.2c-0.4-2.6-1.8-4.9-3.9-6.4       s-4.7-2.2-7.2-1.8l-55.1,10c-0.1,0-0.2,0-0.3,0l-38.3-9.7c-0.1,0-0.1,0-0.2-0.1l-9.4-5.8l-16.1-4.5c-1-0.3-2.1-0.3-3.1,0       l-13,4l-13.7,9.5c-1.8,1.3-2.3,3.7-1.1,5.6c0.6,0.9,1.6,1.6,2.7,1.8c1.1,0.2,2.2,0,3.1-0.7l6-4.3c0.1,0,0.1-0.1,0.2-0.1       l12.1-3.1c0.3-0.1,0.6,0.1,0.8,0.4c2.4,6,7.4,10.4,7.5,10.4c0.2,0.2,0.3,0.4,0.2,0.7s-0.2,0.4-0.5,0.5l-17.2,3.7       c-2.2,0.6-3.5,2.6-3.2,4.9c0.4,2.3,2.5,4,4.9,3.6l18.5-2.5c0.1,0,0.1,0,0.2,0L89,81.6c3.9,0.4,7.8-0.6,10.9-3l1.4-1.1       c0.2-0.1,0.4-0.2,0.6-0.1l32.1,7.9c1.4,0.4,2.8,0.5,4.1,0.3l48.7-9l0.2,1.3l-48.7,9C137.7,86.9,137.2,86.9,136.6,86.9       L136.6,86.9z"></path>					</g>					<g>						<line class="st2" x1="60" y1="60.9" x2="69" y2="58.6"></line>						<rect x="59.9" y="59.1" transform="matrix(0.9688 -0.2478 0.2478 0.9688 -12.7868 17.8481)" width="9.3" height="1.3"></rect>					</g>				</g>				<g>					<polyline class="st1" points="172.9,58.8 172.6,81.7 190,77.7      "></polyline>					<polygon points="171.9,82.6 172.2,58.7 173.5,58.8 173.3,80.9 189.9,77.1 190.1,78.3      "></polygon>				</g>				<g>					<line class="st2" x1="70.8" y1="70.6" x2="79.7" y2="68.7"></line>					<rect x="70.7" y="69" transform="matrix(0.9773 -0.212 0.212 0.9773 -13.0529 17.5415)" width="9.1" height="1.3"></rect>				</g>				<g>					<line class="st2" x1="136.5" y1="70.5" x2="134.8" y2="74.5"></line>					<rect x="133.5" y="71.9" transform="matrix(0.3954 -0.9185 0.9185 0.3954 15.4128 168.4498)" width="4.4" height="1.3"></rect>				</g>			</g>			<g>				<polygon class="st0" points="294.7,158.3 352.2,129.7 319.8,160 375.3,158.9 324.4,171 371.4,193.7 316.6,182.1 324.4,212      302.5,186.6 254.3,222.6 279.5,184.1 218.5,188.2 279.5,169.4 254.3,153.3     "></polygon>				<path d="M251.7,225.4l26.6-40.6l-65.3,4.4l65-20l-26.5-16.9l43.1,5.4l61.4-30.6l-34.5,32.2l59.9-1.3l-55,13.1l50.2,24.2     l-59-12.4l8.2,31.5l-23.3-27L251.7,225.4L251.7,225.4z M280.8,183.3l-24,36.6l45.8-34.2l20.5,23.7l-7.4-28.2l50.5,10.7     l-43.8-21.1l46.8-11.2l-51.2,1.1l30.5-28.5L294.8,159l-37.8-4.7l24,15.4l-57,17.5L280.8,183.3L280.8,183.3z"></path>			</g>			<g>				<g>					<path class="st5" d="M55.9,143.1c-8.5-1-8-5-16.4-6c-8.5-1-8.9,3-17.4,2c-8.4-1-8-5-16.4-6l-4.9-21.7c8.4,1,8,5,16.4,6      c8.5,1,8.9-3,17.4-2s8,5,16.4,6L55.9,143.1L55.9,143.1z"></path>					<path class="st6" d="M56.7,143.9l-0.9-0.1c-4.4-0.5-6.5-1.8-8.5-3.1c-2-1.2-3.9-2.4-7.9-2.9c-4.1-0.5-6.2,0.2-8.4,1      c-2.3,0.8-4.6,1.6-9,1s-6.5-1.8-8.5-3.1c-2-1.2-3.9-2.4-7.9-2.9l-0.5-0.1L0,110.6l0.9,0.1c4.4,0.5,6.5,1.8,8.5,3.1      c2,1.2,3.9,2.4,7.9,2.9c4.1,0.5,6.2-0.2,8.4-1c2.3-0.8,4.6-1.6,9-1c4.4,0.5,6.5,1.8,8.5,3.1c2,1.2,3.9,2.4,7.9,2.9l0.5,0.1      L56.7,143.9L56.7,143.9z M36.9,136.3c0.8,0,1.7,0.1,2.7,0.2c4.4,0.5,6.5,1.8,8.5,3.1c1.8,1.1,3.6,2.2,7,2.8L50.5,122      c-4.1-0.6-6.1-1.8-8-3c-2-1.2-3.9-2.4-7.9-2.9c-4.1-0.5-6.2,0.2-8.4,1c-2.3,0.8-4.6,1.6-9,1c-4.4-0.5-6.5-1.8-8.5-3.1      c-1.8-1.2-3.6-2.2-7-2.8l4.6,20.4c4.1,0.6,6.1,1.8,8,3c2,1.2,3.9,2.4,7.9,2.9c4.1,0.5,6.2-0.2,8.4-1      C32.3,136.9,34.2,136.3,36.9,136.3L36.9,136.3z"></path>				</g>				<g>											<ellipse transform="matrix(4.152684e-02 -0.9991 0.9991 4.152684e-02 -99.1515 149.3445)" class="st5" cx="28.3" cy="126.4" rx="3" ry="7.5"></ellipse>					<path class="st6" d="M28.9,130c-0.3,0-0.5,0-0.8,0c-2.1-0.1-4-0.5-5.5-1.1c-1.6-0.7-2.5-1.7-2.5-2.8c0-1.1,1-2,2.7-2.6      c1.5-0.5,3.5-0.8,5.6-0.7s4,0.5,5.5,1.1c1.6,0.7,2.5,1.7,2.5,2.8l0,0c0,1.1-1,2-2.7,2.6C32.4,129.7,30.7,130,28.9,130L28.9,130      z M27.6,124c-1.6,0-3.1,0.2-4.3,0.6c-1.1,0.4-1.8,0.9-1.8,1.4s0.6,1.1,1.7,1.6c1.3,0.6,3.1,0.9,5,1s3.7-0.1,5.1-0.6      c1.1-0.4,1.8-0.9,1.8-1.4l0,0c0-0.5-0.6-1.1-1.7-1.6c-1.3-0.6-3.1-0.9-5-1C28.1,124,27.8,124,27.6,124L27.6,124z"></path>				</g>			</g>			<g>				<g>					<path class="st5" d="M168.7,32.5c-8.4-1-8-5-16.4-6s-8.9,3-17.4,2c-8.4-1-8-5-16.4-6l-4.9-21.7c8.4,1,8,5,16.4,6      c8.4,1,8.9-3,17.4-2s8,5,16.4,6L168.7,32.5L168.7,32.5z"></path>					<path class="st6" d="M169.6,33.3l-0.9-0.1c-4.4-0.5-6.5-1.8-8.5-3.1c-2-1.2-3.9-2.4-7.9-2.9c-4.1-0.5-6.2,0.2-8.4,1      c-2.3,0.8-4.6,1.5-9,1c-4.4-0.5-6.5-1.8-8.5-3.1c-2-1.2-3.9-2.4-7.9-2.9l-0.5,0L112.8,0l0.9,0.1c4.4,0.5,6.5,1.8,8.5,3.1      c2,1.3,3.9,2.4,7.9,2.9c4.1,0.5,6.2-0.2,8.4-1c2.3-0.8,4.6-1.5,9-1s6.5,1.8,8.5,3.1c2,1.2,3.9,2.4,7.9,2.9l0.5,0.1L169.6,33.3      L169.6,33.3z M149.7,25.7c0.8,0,1.7,0,2.7,0.2c4.4,0.5,6.5,1.8,8.5,3.1c1.8,1.1,3.6,2.2,7,2.8l-4.6-20.4c-4.1-0.6-6.1-1.8-8-3      c-2-1.2-3.9-2.4-7.9-2.9c-4.1-0.5-6.2,0.2-8.4,1c-2.3,0.8-4.6,1.6-9,1c-4.4-0.5-6.5-1.8-8.5-3.1c-1.8-1.2-3.6-2.2-7-2.8      l4.6,20.4c4.1,0.5,6.1,1.8,8,3c2,1.2,3.9,2.4,7.9,2.9c4.1,0.5,6.2-0.2,8.4-1C145.2,26.3,147,25.7,149.7,25.7z"></path>				</g>				<g>											<ellipse transform="matrix(4.152684e-02 -0.9991 0.9991 4.152684e-02 119.5357 156.0353)" class="st5" cx="141.1" cy="15.7" rx="2.9" ry="7.5"></ellipse>					<path class="st6" d="M141.7,19.3c-0.3,0-0.5,0-0.8,0c-3.9-0.2-8.1-1.6-7.9-3.9s4.3-3.4,8.2-3.3c2.1,0.1,4,0.5,5.5,1.1      c1.6,0.7,2.5,1.7,2.5,2.8l0,0C149.1,18.2,145.4,19.3,141.7,19.3L141.7,19.3z M140.4,13.4c-3.7,0-6.1,1.1-6.1,2      c0,0.9,2.6,2.4,6.7,2.6c4.2,0.2,6.9-1.1,6.9-2l0,0c0-0.5-0.6-1.1-1.7-1.6c-1.3-0.6-3.1-0.9-5-1      C140.9,13.4,140.7,13.4,140.4,13.4L140.4,13.4z"></path>				</g>			</g>			<g>				<g>					<path class="st5" d="M392.4,267.1c-8.5-1-8-5-16.4-6c-8.5-1-8.9,3-17.4,2c-8.5-1-8-5-16.4-6l-4.9-21.7c8.5,1,8,5,16.4,6      c8.5,1,8.9-3,17.4-2c8.5,1,8,5,16.4,6L392.4,267.1z"></path>					<path class="st6" d="M393.2,267.8l-0.9-0.1c-4.4-0.5-6.5-1.8-8.5-3.1c-2-1.2-3.9-2.4-7.9-2.9c-4.1-0.5-6.2,0.2-8.4,1      c-2.3,0.8-4.6,1.5-9,1s-6.5-1.8-8.5-3.1c-2-1.2-3.9-2.4-7.9-2.9l-0.5,0l-5.2-23.1l0.9,0.1c4.4,0.5,6.5,1.8,8.5,3.1      c2,1.2,3.9,2.4,7.9,2.9c4.1,0.5,6.2-0.2,8.4-1c2.3-0.8,4.6-1.6,9-1s6.5,1.8,8.5,3.1c2,1.2,3.9,2.4,7.9,2.9l0.5,0.1L393.2,267.8      L393.2,267.8z M373.4,260.2c0.8,0,1.7,0,2.7,0.2c4.4,0.5,6.5,1.8,8.5,3.1c1.8,1.1,3.6,2.2,7,2.8l-4.6-20.4      c-4.1-0.6-6.1-1.8-8-3c-2-1.2-3.9-2.4-7.9-2.9c-4.1-0.5-6.2,0.2-8.4,1c-2.3,0.8-4.6,1.6-9,1s-6.5-1.8-8.5-3.1      c-1.8-1.1-3.6-2.2-7-2.8l4.6,20.4c4.1,0.5,6.1,1.8,8,3c2,1.2,3.9,2.4,7.9,2.9c4.1,0.5,6.2-0.2,8.4-1      C368.9,260.9,370.6,260.2,373.4,260.2L373.4,260.2z"></path>				</g>				<g>											<ellipse transform="matrix(4.152684e-02 -0.9991 0.9991 4.152684e-02 99.572 604.3507)" class="st5" cx="364.8" cy="250.3" rx="3" ry="7.5"></ellipse>					<path class="st6" d="M365.4,253.9c-0.3,0-0.5,0-0.8,0c-2.1-0.1-4-0.5-5.5-1.1c-1.6-0.7-2.5-1.7-2.5-2.8c0-1.1,1-2,2.7-2.6      c1.5-0.5,3.5-0.8,5.5-0.7c2.1,0.1,4,0.5,5.5,1.1c1.6,0.7,2.5,1.7,2.5,2.8l0,0c0,1.1-1,2-2.7,2.6      C368.8,253.6,367.2,253.9,365.4,253.9L365.4,253.9z M364.1,248c-1.6,0-3.1,0.2-4.3,0.6c-1.1,0.4-1.8,0.9-1.8,1.4      c0,0.5,0.6,1.1,1.7,1.6c1.3,0.6,3.1,0.9,5,1s3.7-0.1,5.1-0.6c1.1-0.4,1.8-0.9,1.8-1.4l0,0c0-0.5-0.6-1.1-1.7-1.6      c-1.3-0.6-3.1-0.9-5-1C364.6,248,364.3,247.9,364.1,248L364.1,248z"></path>				</g>			</g>		</g>	</g></g><rect x="179.6" y="524.8" class="st2" width="34" height="34"></rect></svg>