<svg xmlns="http://www.w3.org/2000/svg" xmlns:xlink="http://www.w3.org/1999/xlink" id="Layer_1" x="0px" y="0px" viewBox="0 0 393.2 558.8" style="enable-background:new 0 0 393.2 558.8;" xml:space="preserve"><style type="text/css">	.st0{fill:#FFFFFF;}	.st1{clip-path:url(#SVGID_00000028308838633423146150000010748159419352160133_);}	.st2{clip-path:url(#SVGID_00000044147871363899064130000016655581776849647010_);}	.st3{fill:#131313;}	.st4{fill:#141414;}	.st5{fill:#151515;}	.st6{fill:#161616;}	.st7{fill:#171717;}	.st8{fill:#181818;}	.st9{fill:#191919;}	.st10{fill:#1A1A1A;}	.st11{fill:#1B1B1B;}	.st12{fill:#1C1C1C;}	.st13{fill:#1D1D1D;}	.st14{fill:#1E1E1E;}	.st15{fill:#202020;}	.st16{clip-path:url(#SVGID_00000154418040256913268140000013928712042901530796_);}	.st17{clip-path:url(#SVGID_00000144331463733688286380000008840468399265590693_);}	.st18{clip-path:url(#SVGID_00000098906472405877868530000017675484568808654244_);}	.st19{clip-path:url(#SVGID_00000169517947330333571100000003777935648899738512_);}	.st20{fill:#707500;}	.st21{clip-path:url(#SVGID_00000146460194696380516530000002391776052524317590_);}	.st22{clip-path:url(#SVGID_00000010283764537340667260000010051778290985948290_);}	.st23{fill:#000005;}	.st24{fill:#6E7300;}	.st25{fill:#B6C000;}	.st26{clip-path:url(#SVGID_00000032635456049973127510000003454965635226485656_);}	.st27{clip-path:url(#SVGID_00000072973432765887487610000002581215560734966150_);}	.st28{clip-path:url(#SVGID_00000039825128904686115070000000585175233132599709_);}	.st29{clip-path:url(#SVGID_00000093158064001146376320000003068189241226937771_);}	.st30{clip-path:url(#SVGID_00000096044559962190999140000010036820426829596317_);}	.st31{clip-path:url(#SVGID_00000006672476588470151490000010189095343743868332_);}	.st32{clip-path:url(#SVGID_00000007399086950597343210000000423347699418512777_);}	.st33{clip-path:url(#SVGID_00000178890383333631773070000008915505765890639243_);}	.st34{fill:#888F00;}	.st35{fill:#848B00;}	.st36{fill:#808600;}	.st37{fill:#7C8200;}	.st38{fill:#797E00;}	.st39{fill:#737A00;}	.st40{clip-path:url(#SVGID_00000087379270687134087860000003230909512397384863_);}	.st41{clip-path:url(#SVGID_00000115490512191970958920000016855404676316673965_);}	.st42{fill:#8C9500;}	.st43{clip-path:url(#SVGID_00000016766575555012342000000008624978885323163291_);}	.st44{clip-path:url(#SVGID_00000170245362181600463280000013178000654556328374_);}	.st45{fill:#919900;}	.st46{fill:#959E00;}	.st47{fill:#99A200;}	.st48{fill:#9EA700;}	.st49{fill:#A2AB00;}	.st50{fill:#A6B000;}	.st51{fill:#ABB400;}	.st52{fill:#D5E100;}	.st53{clip-path:url(#SVGID_00000178190666421856771220000009597810004273986707_);}	.st54{clip-path:url(#SVGID_00000176738562402935351560000018107000673251689389_);}	.st55{fill:#ADB600;}	.st56{fill:#B5BF00;}	.st57{fill:#B0BA00;}	.st58{fill:#A9B200;}	.st59{clip-path:url(#SVGID_00000024718319572025696540000014824746742804105119_);}	.st60{clip-path:url(#SVGID_00000083808633617784118560000014215741705140612757_);}	.st61{clip-path:url(#SVGID_00000147193145368886645220000016677450571764725438_);}	.st62{clip-path:url(#SVGID_00000035505263465921066650000018444966922788148150_);}	.st63{clip-path:url(#SVGID_00000020375688332104213740000007241732036161330312_);}	.st64{fill:none;}</style><g id="a"></g><g id="b">	<g id="c">		<g>			<g>				<g>					<path class="st0" d="M189.7,401l0,34.2c-3.5-2.3-11.7-3.1-18.2-1.9l0-34.2C178,397.9,186.2,398.8,189.7,401z"></path>					<path d="M190.3,436.4l-1-0.6c-3.4-2.2-11.3-3-17.8-1.8l-0.8,0.1l0-35.5l0.5-0.1c6.7-1.2,15.1-0.3,18.7,2l0.3,0.2L190.3,436.4z       M177.7,432.1c4.4,0,8.7,0.7,11.4,2l0-32.7c-3.4-2-10.8-2.8-16.9-1.8l0,32.9C173.9,432.2,175.8,432.1,177.7,432.1L177.7,432.1z      "></path>					<g>						<defs>							<path id="SVGID_1_" d="M189.7,401l0,34.2c-3.5-2.3-11.7-3.1-18.2-1.9l0-34.2C178,397.9,186.2,398.8,189.7,401z"></path>						</defs>						<defs>							<path id="SVGID_00000179638951762479096140000000327479371628874883_" d="M190.3,436.4l-1-0.6c-3.4-2.2-11.3-3-17.8-1.8        l-0.8,0.1l0-35.5l0.5-0.1c6.7-1.2,15.1-0.3,18.7,2l0.3,0.2L190.3,436.4z M177.7,432.1c4.4,0,8.7,0.7,11.4,2l0-32.7        c-3.4-2-10.8-2.8-16.9-1.8l0,32.9C173.9,432.2,175.8,432.1,177.7,432.1L177.7,432.1z"></path>						</defs>						<clipPath id="SVGID_00000006672134470688076820000016989792167208897953_">							<use xlink:href="#SVGID_1_" style="overflow:visible;"></use>						</clipPath>													<clipPath id="SVGID_00000158010541444819633620000010317449398835615106_" style="clip-path:url(#SVGID_00000006672134470688076820000016989792167208897953_);">							<use xlink:href="#SVGID_00000179638951762479096140000000327479371628874883_" style="overflow:visible;"></use>						</clipPath>						<g style="clip-path:url(#SVGID_00000158010541444819633620000010317449398835615106_);">							<g>								<path class="st3" d="M189.7,401l0,34.2c-0.6-0.4-1.4-0.7-2.2-1l0-34.2C188.3,400.3,189.1,400.6,189.7,401"></path>								<path class="st4" d="M187.5,400l0,34.2c-0.4-0.1-0.7-0.2-1.1-0.4l0-34.2C186.8,399.7,187.1,399.9,187.5,400"></path>								<path class="st5" d="M186.4,399.6l0,34.2c-0.3-0.1-0.6-0.2-0.9-0.2l0-34.2C185.8,399.4,186.1,399.5,186.4,399.6"></path>								<path class="st5" d="M185.4,399.4l0,34.2c-0.3-0.1-0.6-0.1-0.9-0.2l0-34.2C184.9,399.2,185.2,399.3,185.4,399.4"></path>								<path class="st6" d="M184.6,399.2l0,34.2c-0.3-0.1-0.6-0.1-0.8-0.1l0-34.2C184,399.1,184.3,399.1,184.6,399.2"></path>								<path class="st7" d="M183.7,399l0,34.2c-0.3,0-0.6-0.1-0.8-0.1l0-34.2C183.2,398.9,183.5,399,183.7,399"></path>								<path class="st8" d="M182.9,398.9l0,34.2c-0.3,0-0.5-0.1-0.8-0.1l0-34.2C182.4,398.8,182.6,398.9,182.9,398.9"></path>								<path class="st8" d="M182.1,398.8l0,34.2c-0.3,0-0.6-0.1-0.8-0.1l0-34.2C181.6,398.7,181.8,398.8,182.1,398.8"></path>								<path class="st9" d="M181.3,398.7l0,34.2c-0.3,0-0.6,0-0.8-0.1l0-34.2C180.7,398.7,181,398.7,181.3,398.7"></path>								<path class="st10" d="M180.4,398.6l0,34.2c-0.3,0-0.6,0-0.9,0l0-34.2C179.9,398.6,180.1,398.6,180.4,398.6"></path>								<path class="st11" d="M179.6,398.6l0,34.2c-0.3,0-0.6,0-0.9,0l0-34.2C179,398.6,179.3,398.6,179.6,398.6"></path>								<path class="st11" d="M178.7,398.6l0,34.2c-0.3,0-0.6,0-0.9,0l0-34.2C178.1,398.5,178.4,398.5,178.7,398.6"></path>								<path class="st12" d="M177.8,398.5l0,34.2c-0.3,0-0.6,0-0.9,0l0-34.2C177.2,398.5,177.5,398.5,177.8,398.5"></path>								<path class="st13" d="M176.9,398.6l0,34.2c-0.4,0-0.7,0-1.1,0l0-34.2C176.2,398.6,176.5,398.6,176.9,398.6"></path>								<path class="st14" d="M175.8,398.6l0,34.2c-0.4,0-0.8,0-1.3,0.1l0-34.2C175,398.6,175.4,398.6,175.8,398.6"></path>								<path class="st14" d="M174.5,398.7l0,34.2c-1,0.1-2.1,0.2-3.1,0.4l0-34.2C172.5,398.9,173.5,398.8,174.5,398.7"></path>							</g>						</g>					</g>				</g>				<polygon class="st15" points="171.5,399.1 171.4,433.3 84.1,449.1 84.1,415     "></polygon>				<g>					<path class="st0" d="M76.9,453.2l0-34.2c0-1.7,2.6-3.3,7.2-4.1l0,34.2C79.5,450,76.9,451.6,76.9,453.2z"></path>					<path d="M77.6,453.2h-1.3l0-34.2c0-2.1,2.9-3.9,7.7-4.7l0.8-0.1l0,35.5l-0.5,0.1C79.7,450.6,77.6,452.2,77.6,453.2L77.6,453.2z       M83.5,415.8c-4,0.9-5.8,2.3-5.9,3.3l0,31.9c1.2-1,3.2-1.8,5.8-2.3L83.5,415.8L83.5,415.8z"></path>					<g>						<defs>							<path id="SVGID_00000103229562123691284460000018013196222671018426_" d="M76.9,453.2l0-34.2c0-1.7,2.6-3.3,7.2-4.1l0,34.2        C79.5,450,76.9,451.6,76.9,453.2z"></path>						</defs>						<defs>							<path id="SVGID_00000140002585963571119680000016989565578624793217_" d="M77.6,453.2h-1.3l0-34.2c0-2.1,2.9-3.9,7.7-4.7        l0.8-0.1l0,35.5l-0.5,0.1C79.7,450.6,77.6,452.2,77.6,453.2L77.6,453.2z M83.5,415.8c-4,0.9-5.8,2.3-5.9,3.3l0,31.9        c1.2-1,3.2-1.8,5.8-2.3L83.5,415.8L83.5,415.8z"></path>						</defs>						<clipPath id="SVGID_00000003095024137753283580000018178820455454049442_">							<use xlink:href="#SVGID_00000103229562123691284460000018013196222671018426_" style="overflow:visible;"></use>						</clipPath>													<clipPath id="SVGID_00000166662435034718843300000012422438477877404094_" style="clip-path:url(#SVGID_00000003095024137753283580000018178820455454049442_);">							<use xlink:href="#SVGID_00000140002585963571119680000016989565578624793217_" style="overflow:visible;"></use>						</clipPath>						<g style="clip-path:url(#SVGID_00000166662435034718843300000012422438477877404094_);">							<g>								<path class="st14" d="M84.1,415l0,34.2c-1,0.2-1.9,0.4-2.8,0.7l0-34.2C82.2,415.4,83.1,415.1,84.1,415"></path>								<path class="st14" d="M81.4,415.6l0,34.2c-0.4,0.1-0.8,0.2-1.1,0.4l0-34.2C80.6,415.9,81,415.7,81.4,415.6"></path>								<path class="st13" d="M80.3,416l0,34.2c-0.3,0.1-0.5,0.2-0.8,0.3l0-34.2C79.8,416.2,80,416.1,80.3,416"></path>								<path class="st12" d="M79.5,416.3l0,34.2c-0.2,0.1-0.4,0.2-0.6,0.3l0-34.2C79.1,416.5,79.3,416.4,79.5,416.3"></path>								<path class="st11" d="M78.9,416.6l0,34.2c-0.2,0.1-0.3,0.2-0.5,0.3l0-34.2C78.6,416.8,78.8,416.7,78.9,416.6"></path>								<path class="st11" d="M78.5,416.9l0,34.2c-0.1,0.1-0.3,0.2-0.4,0.3l0-34.2C78.2,417.1,78.3,417,78.5,416.9"></path>								<path class="st10" d="M78.1,417.2l0,34.2c-0.1,0.1-0.2,0.2-0.3,0.3l0-34.2C77.8,417.4,78,417.3,78.1,417.2"></path>								<path class="st9" d="M77.8,417.5l0,34.2c-0.1,0.1-0.2,0.2-0.3,0.3l0-34.2C77.6,417.7,77.7,417.6,77.8,417.5"></path>								<path class="st8" d="M77.5,417.8l0,34.2c-0.1,0.1-0.2,0.2-0.2,0.3l0-34.2C77.3,418,77.4,417.9,77.5,417.8"></path>								<path class="st8" d="M77.3,418.1l0,34.2c-0.1,0.1-0.1,0.2-0.2,0.3l0-34.2C77.1,418.3,77.2,418.2,77.3,418.1"></path>								<path class="st7" d="M77.1,418.4l0,34.2c0,0.1-0.1,0.2-0.1,0.3l0-34.2C77,418.6,77.1,418.5,77.1,418.4"></path>								<path class="st6" d="M77,418.7l0,34.2c0,0.1,0,0.2,0,0.3l0-34.2C77,418.9,77,418.8,77,418.7"></path>								<path class="st5" d="M77,419l0,34.2v0L77,419L77,419"></path>							</g>						</g>					</g>				</g>				<g>					<path class="st0" d="M78.5,455.4c-1.1-0.7-1.6-1.4-1.6-2.2l0-34.2c0,0.7,0.5,1.5,1.6,2.2C78.5,431.5,78.5,445.1,78.5,455.4z"></path>					<path d="M79.2,456.6l-1-0.6c-1.5-1-1.9-2-1.9-2.7l0-34.2h1.3c0,0.7,0.7,1.2,1.3,1.6l0.3,0.2L79.2,456.6z M77.6,421.4l0,31.9      c0,0.3,0.1,0.5,0.3,0.7l0-32.4C77.8,421.5,77.7,421.4,77.6,421.4L77.6,421.4z"></path>					<g>						<defs>							<path id="SVGID_00000059282240400237400290000018279933216526554246_" d="M78.5,455.4c-1.1-0.7-1.6-1.4-1.6-2.2l0-34.2        c0,0.7,0.5,1.5,1.6,2.2C78.5,431.5,78.5,445.1,78.5,455.4z"></path>						</defs>						<defs>							<path id="SVGID_00000176019466094830679620000002842035251850429361_" d="M79.2,456.6l-1-0.6c-1.5-1-1.9-2-1.9-2.7l0-34.2        h1.3c0,0.7,0.7,1.2,1.3,1.6l0.3,0.2L79.2,456.6z M77.6,421.4l0,31.9c0,0.3,0.1,0.5,0.3,0.7l0-32.4        C77.8,421.5,77.7,421.4,77.6,421.4L77.6,421.4z"></path>						</defs>						<clipPath id="SVGID_00000121991570065431650150000001395953831707951518_">							<use xlink:href="#SVGID_00000059282240400237400290000018279933216526554246_" style="overflow:visible;"></use>						</clipPath>													<clipPath id="SVGID_00000171692205547540434920000015027647065980627129_" style="clip-path:url(#SVGID_00000121991570065431650150000001395953831707951518_);">							<use xlink:href="#SVGID_00000176019466094830679620000002842035251850429361_" style="overflow:visible;"></use>						</clipPath>						<g style="clip-path:url(#SVGID_00000171692205547540434920000015027647065980627129_);">							<g>								<path class="st20" d="M78.5,421.2l0,34.2c-1.1-0.7-1.6-1.4-1.6-2.2l0-34.2C77,419.8,77.5,420.5,78.5,421.2"></path>							</g>						</g>					</g>				</g>				<g>					<path class="st0" d="M75.6,453.2l0-34.2c0,0.8,0.6,1.6,1.7,2.4l0,34.2C76.1,454.9,75.6,454.1,75.6,453.2z"></path>					<path d="M77.9,456.8l-1-0.6c-1.7-1.1-2-2.2-2-2.9l0-34.2h1.3c0,0.8,0.8,1.4,1.4,1.9l0.3,0.2C78,421.1,77.9,456.8,77.9,456.8z       M76.2,421.4l0,31.8c0,0.4,0.2,0.7,0.4,1l0-32.5C76.5,421.7,76.4,421.6,76.2,421.4z"></path>					<g>						<defs>							<path id="SVGID_00000127763327943672392810000010070641732196160135_" d="M75.6,453.2l0-34.2c0,0.8,0.6,1.6,1.7,2.4l0,34.2        C76.1,454.9,75.6,454.1,75.6,453.2z"></path>						</defs>						<defs>							<path id="SVGID_00000165937017493220098490000002821044727027013815_" d="M77.9,456.8l-1-0.6c-1.7-1.1-2-2.2-2-2.9l0-34.2        h1.3c0,0.8,0.8,1.4,1.4,1.9l0.3,0.2C78,421.1,77.9,456.8,77.9,456.8z M76.2,421.4l0,31.8c0,0.4,0.2,0.7,0.4,1l0-32.5        C76.5,421.7,76.4,421.6,76.2,421.4z"></path>						</defs>						<clipPath id="SVGID_00000081636737820648646130000005825343162219849148_">							<use xlink:href="#SVGID_00000127763327943672392810000010070641732196160135_" style="overflow:visible;"></use>						</clipPath>													<clipPath id="SVGID_00000012463202465874302380000014125147739422209463_" style="clip-path:url(#SVGID_00000081636737820648646130000005825343162219849148_);">							<use xlink:href="#SVGID_00000165937017493220098490000002821044727027013815_" style="overflow:visible;"></use>						</clipPath>						<g style="clip-path:url(#SVGID_00000012463202465874302380000014125147739422209463_);">							<g>								<path class="st23" d="M77.3,421.4l0,34.2c-1.2-0.8-1.7-1.6-1.7-2.4l0-34.2C75.6,419.9,76.2,420.7,77.3,421.4"></path>							</g>						</g>					</g>				</g>				<polygon class="st23" points="344.3,501.4 344.2,535.6 189.7,435.2 189.7,401     "></polygon>				<polygon class="st24" points="214.2,441.6 214.1,475.9 204.7,469.7 204.7,435.5     "></polygon>				<polygon class="st25" points="204.7,435.5 204.7,469.7 152.9,479.1 153,444.9     "></polygon>				<polygon class="st23" points="202.3,439.7 202.2,473.9 185.4,476.9 185.4,442.8     "></polygon>				<polygon class="st23" points="207.3,442.9 207.2,477.1 202.2,473.9 202.3,439.7     "></polygon>				<g>					<path class="st0" d="M209.2,445.1l0,34.2c0-0.7-0.6-1.4-1.9-2.2l0-34.2C208.5,443.7,209.2,444.5,209.2,445.1z"></path>					<path d="M209.8,479.3h-1.3c0-0.1-0.1-0.7-1.6-1.7l-0.3-0.2l0-35.7l1,0.6c1.5,1,2.2,1.9,2.2,2.8L209.8,479.3L209.8,479.3z       M207.9,476.8c0.2,0.2,0.4,0.3,0.6,0.5l0-32.1c0-0.1-0.1-0.4-0.6-0.9L207.9,476.8z"></path>					<g>						<defs>							<path id="SVGID_00000092424916451575953410000008887168305871543444_" d="M209.2,445.1l0,34.2c0-0.7-0.6-1.4-1.9-2.2l0-34.2        C208.5,443.7,209.2,444.5,209.2,445.1z"></path>						</defs>						<defs>							<path id="SVGID_00000055677691264218780050000017700758224264843707_" d="M209.8,479.3h-1.3c0-0.1-0.1-0.7-1.6-1.7l-0.3-0.2        l0-35.7l1,0.6c1.5,1,2.2,1.9,2.2,2.8L209.8,479.3L209.8,479.3z M207.9,476.8c0.2,0.2,0.4,0.3,0.6,0.5l0-32.1        c0-0.1-0.1-0.4-0.6-0.9L207.9,476.8z"></path>						</defs>						<clipPath id="SVGID_00000062872445085333664070000016388277952817272508_">							<use xlink:href="#SVGID_00000092424916451575953410000008887168305871543444_" style="overflow:visible;"></use>						</clipPath>													<clipPath id="SVGID_00000051343986972604703980000013071324947211229883_" style="clip-path:url(#SVGID_00000062872445085333664070000016388277952817272508_);">							<use xlink:href="#SVGID_00000055677691264218780050000017700758224264843707_" style="overflow:visible;"></use>						</clipPath>						<g style="clip-path:url(#SVGID_00000051343986972604703980000013071324947211229883_);">							<g>								<path class="st23" d="M209.2,445.1l0,34.2c0-0.7-0.6-1.4-1.9-2.2l0-34.2C208.5,443.7,209.2,444.5,209.2,445.1"></path>							</g>						</g>					</g>				</g>				<g>					<path class="st0" d="M217.5,445.5c0,0.4,0,1,0,1.5c0,8.2,0,16.3,0,24.5C217.5,462.8,217.5,454.1,217.5,445.5L217.5,445.5      L217.5,445.5z"></path>					<path d="M218.1,471.5h-1.3l0-26l1.3,0c0,0.3,0,0.7,0,1v0.5L218.1,471.5L218.1,471.5z"></path>					<g>						<defs>							<path id="SVGID_00000132088696140592637040000008703828458696992163_" d="M217.5,445.5c0,0.4,0,1,0,1.5c0,8.2,0,16.3,0,24.5        C217.5,462.8,217.5,454.1,217.5,445.5L217.5,445.5L217.5,445.5z"></path>						</defs>						<defs>							<path id="SVGID_00000002366368112328162040000009991278804200418486_" d="M218.1,471.5h-1.3l0-26l1.3,0c0,0.3,0,0.7,0,1v0.5        L218.1,471.5L218.1,471.5z"></path>						</defs>						<clipPath id="SVGID_00000080885910372054148220000000829707815881048220_">							<use xlink:href="#SVGID_00000132088696140592637040000008703828458696992163_" style="overflow:visible;"></use>						</clipPath>													<clipPath id="SVGID_00000165956449898734532450000004735004928218482077_" style="clip-path:url(#SVGID_00000080885910372054148220000000829707815881048220_);">							<use xlink:href="#SVGID_00000002366368112328162040000009991278804200418486_" style="overflow:visible;"></use>						</clipPath>						<g style="clip-path:url(#SVGID_00000165956449898734532450000004735004928218482077_);">							<g>								<path class="st20" d="M217.5,445.7l0,34.2c0-0.1,0-0.1,0-0.2c-0.1-1.2-1.2-2.5-3.3-3.9l0-34.2c2.1,1.4,3.2,2.6,3.3,3.9         C217.5,445.6,217.5,445.6,217.5,445.7"></path>							</g>						</g>					</g>				</g>				<g>					<path class="st0" d="M214.1,475.9c0-11.4,0-22.8,0-34.2c2.1,1.4,3.2,2.6,3.3,3.9c0,11.4,0,22.8,0,34.2c0-11.4,0-22.8,0-34.2      c0,0.1,0,0.1,0,0.2l0,34.2c0-0.1,0-0.1,0-0.2C217.3,478.5,216.3,477.2,214.1,475.9z"></path>					<path d="M218.1,479.9h-1.3c0,0,0-0.1,0-0.2c-0.1-1-1.1-2.1-3-3.4l-0.3-0.2v-0.4c0-11.4,0-22.8,0-34.2v-1.2l1,0.6      c2.3,1.5,3.5,2.9,3.6,4.3l0,0c0,0.1,0,0.2,0,0.3L218.1,479.9L218.1,479.9z M214.8,475.5c0.8,0.6,1.5,1.1,2,1.6l0-31.6      c-0.1-0.7-0.8-1.6-2-2.6C214.8,453.8,214.8,464.6,214.8,475.5z"></path>					<g>						<defs>							<path id="SVGID_00000005225239461933756250000010419838375496032926_" d="M214.1,475.9c0-11.4,0-22.8,0-34.2        c2.1,1.4,3.2,2.6,3.3,3.9c0,11.4,0,22.8,0,34.2c0-11.4,0-22.8,0-34.2c0,0.1,0,0.1,0,0.2l0,34.2c0-0.1,0-0.1,0-0.2        C217.3,478.5,216.3,477.2,214.1,475.9z"></path>						</defs>						<defs>							<path id="SVGID_00000090978590306576212130000014422728821983424151_" d="M218.1,479.9h-1.3c0,0,0-0.1,0-0.2        c-0.1-1-1.1-2.1-3-3.4l-0.3-0.2v-0.4c0-11.4,0-22.8,0-34.2v-1.2l1,0.6c2.3,1.5,3.5,2.9,3.6,4.3l0,0c0,0.1,0,0.2,0,0.3        L218.1,479.9L218.1,479.9z M214.8,475.5c0.8,0.6,1.5,1.1,2,1.6l0-31.6c-0.1-0.7-0.8-1.6-2-2.6        C214.8,453.8,214.8,464.6,214.8,475.5z"></path>						</defs>						<clipPath id="SVGID_00000117636163924398407040000001248815898872216995_">							<use xlink:href="#SVGID_00000005225239461933756250000010419838375496032926_" style="overflow:visible;"></use>						</clipPath>													<clipPath id="SVGID_00000132802640088786370600000017787747306976243361_" style="clip-path:url(#SVGID_00000117636163924398407040000001248815898872216995_);">							<use xlink:href="#SVGID_00000090978590306576212130000014422728821983424151_" style="overflow:visible;"></use>						</clipPath>						<g style="clip-path:url(#SVGID_00000132802640088786370600000017787747306976243361_);">							<g>								<path class="st20" d="M217.5,445.7l0,34.2c0-0.1,0-0.1,0-0.2c-0.1-1.2-1.2-2.5-3.3-3.9l0-34.2c2.1,1.4,3.2,2.6,3.3,3.9         C217.5,445.6,217.5,445.6,217.5,445.7"></path>							</g>						</g>					</g>				</g>				<polygon class="st24" points="190.4,446 190.3,480.2 185.4,476.9 185.4,442.8     "></polygon>				<polygon class="st23" points="183.4,447.2 183.4,481.4 178.4,478.2 178.5,444     "></polygon>				<polygon class="st23" points="178.5,444 178.4,478.2 157.4,482 157.5,447.8     "></polygon>				<polygon class="st23" points="157.5,447.8 157.4,482 152.9,479.1 153,444.9     "></polygon>				<g>					<path class="st0" d="M196.4,482.3c-2.3-0.3-4.3-1-6-2.1l0-34.2c1.7,1.1,3.7,1.8,6,2.1C196.4,459.5,196.4,470.9,196.4,482.3z"></path>					<path d="M197,483l-0.7-0.1c-2.4-0.3-4.5-1-6.3-2.2l-0.3-0.2l0-35.7l1,0.6c1.6,1,3.6,1.7,5.8,2l0.6,0.1L197,483L197,483z       M191,479.8c1.4,0.8,3,1.4,4.7,1.7l0-32.9c-1.7-0.3-3.3-0.8-4.7-1.5L191,479.8L191,479.8z"></path>					<g>						<defs>							<path id="SVGID_00000006687804480429176460000018380664354977723783_" d="M196.4,482.3c-2.3-0.3-4.3-1-6-2.1l0-34.2        c1.7,1.1,3.7,1.8,6,2.1C196.4,459.5,196.4,470.9,196.4,482.3z"></path>						</defs>						<defs>							<path id="SVGID_00000128460095353937939680000006851410186650272912_" d="M197,483l-0.7-0.1c-2.4-0.3-4.5-1-6.3-2.2l-0.3-0.2        l0-35.7l1,0.6c1.6,1,3.6,1.7,5.8,2l0.6,0.1L197,483L197,483z M191,479.8c1.4,0.8,3,1.4,4.7,1.7l0-32.9        c-1.7-0.3-3.3-0.8-4.7-1.5L191,479.8L191,479.8z"></path>						</defs>						<clipPath id="SVGID_00000000192101342600981300000009283203695676479669_">							<use xlink:href="#SVGID_00000006687804480429176460000018380664354977723783_" style="overflow:visible;"></use>						</clipPath>													<clipPath id="SVGID_00000157287604311697361000000001171900857482918545_" style="clip-path:url(#SVGID_00000000192101342600981300000009283203695676479669_);">							<use xlink:href="#SVGID_00000128460095353937939680000006851410186650272912_" style="overflow:visible;"></use>						</clipPath>						<g style="clip-path:url(#SVGID_00000157287604311697361000000001171900857482918545_);">							<g>								<path class="st34" d="M196.5,448.1l0,34.2h-0.1c-0.1,0-0.2,0-0.3-0.1l0-34.2c0.1,0,0.2,0,0.3,0L196.5,448.1"></path>								<path class="st35" d="M196.1,448l0,34.2c-0.2,0-0.3,0-0.5-0.1l0-34.2C195.8,448,195.9,448,196.1,448"></path>								<path class="st36" d="M195.6,448l0,34.2c-0.2,0-0.3-0.1-0.5-0.1l0-34.2C195.3,447.9,195.4,447.9,195.6,448"></path>								<path class="st37" d="M195.1,447.9l0,34.2c-0.2,0-0.4-0.1-0.6-0.1l0-34.2C194.7,447.8,194.9,447.8,195.1,447.9"></path>								<path class="st38" d="M194.6,447.8l0,34.2c-0.2,0-0.4-0.1-0.6-0.2l0-34.2C194.1,447.6,194.4,447.7,194.6,447.8"></path>								<path class="st39" d="M193.9,447.6l0,34.2c-0.3-0.1-0.6-0.2-0.9-0.3l0-34.2C193.3,447.4,193.6,447.5,193.9,447.6"></path>								<path class="st20" d="M193.1,447.3l0,34.2c-1-0.3-1.9-0.8-2.7-1.3l0-34.2C191.2,446.5,192.1,447,193.1,447.3"></path>							</g>						</g>					</g>				</g>				<g>					<path class="st0" d="M196.9,482.3c-0.2,0-0.4,0-0.6-0.1c0-11.4,0-22.8,0-34.2c0.2,0,0.4,0,0.6,0.1      C196.9,459.5,196.9,470.9,196.9,482.3z"></path>					<path d="M197.6,483l-0.7-0.1c-0.2,0-0.4,0-0.6-0.1l-0.6-0.1l0-35.5l0.7,0.1c0.2,0,0.4,0,0.5,0.1l0.6,0.1L197.6,483L197.6,483z"></path>					<g>						<defs>							<path id="SVGID_00000057845334842998864190000000965817911707121288_" d="M196.9,482.3c-0.2,0-0.4,0-0.6-0.1        c0-11.4,0-22.8,0-34.2c0.2,0,0.4,0,0.6,0.1C196.9,459.5,196.9,470.9,196.9,482.3z"></path>						</defs>						<defs>							<path id="SVGID_00000097463255056441029390000013122815078940023742_" d="M197.6,483l-0.7-0.1c-0.2,0-0.4,0-0.6-0.1l-0.6-0.1        l0-35.5l0.7,0.1c0.2,0,0.4,0,0.5,0.1l0.6,0.1L197.6,483L197.6,483z"></path>						</defs>						<clipPath id="SVGID_00000136406636664859940030000004302222877138290617_">							<use xlink:href="#SVGID_00000057845334842998864190000000965817911707121288_" style="overflow:visible;"></use>						</clipPath>													<clipPath id="SVGID_00000011735482937065380840000009242566279698822794_" style="clip-path:url(#SVGID_00000136406636664859940030000004302222877138290617_);">							<use xlink:href="#SVGID_00000097463255056441029390000013122815078940023742_" style="overflow:visible;"></use>						</clipPath>						<g style="clip-path:url(#SVGID_00000011735482937065380840000009242566279698822794_);">							<g>								<path class="st42" d="M197,448.1l0,34.2c-0.2,0-0.3,0-0.5,0l0-34.2C196.7,448.1,196.8,448.1,197,448.1"></path>								<path class="st34" d="M196.5,448.1l0,34.2h-0.1c-0.1,0-0.2,0-0.3-0.1l0-34.2c0.1,0,0.2,0,0.3,0L196.5,448.1"></path>							</g>						</g>					</g>				</g>				<g>					<path class="st0" d="M196.9,482.3c0-11.4,0-22.8,0-34.2c2.1,0.2,4.5,0.1,6.9-0.4c3.5-0.6,5.3-1.5,5.3-2.6l0,34.2      c0,1.1-1.8,2-5.3,2.6C201.4,482.4,199.1,482.5,196.9,482.3z"></path>					<path d="M199,483.1c-0.7,0-1.4,0-2.1-0.1l-0.6-0.1l0-35.4h0.7c2.1,0.2,4.4,0.1,6.7-0.4c4.5-0.8,4.8-1.8,4.8-2h1.3l0,34.2      c0,1.5-1.9,2.5-5.8,3.2C202.2,482.9,200.6,483.1,199,483.1L199,483.1z M197.6,481.7c1.9,0.1,4,0,6.1-0.4c4.5-0.8,4.8-1.8,4.8-2      l0-32.3c-1,0.6-2.4,1-4.5,1.4c-2.2,0.4-4.4,0.5-6.4,0.4L197.6,481.7L197.6,481.7z"></path>					<g>						<defs>							<path id="SVGID_00000015341387140822845360000009319730892217861764_" d="M196.9,482.3c0-11.4,0-22.8,0-34.2        c2.1,0.2,4.5,0.1,6.9-0.4c3.5-0.6,5.3-1.5,5.3-2.6l0,34.2c0,1.1-1.8,2-5.3,2.6C201.4,482.4,199.1,482.5,196.9,482.3z"></path>						</defs>						<defs>							<path id="SVGID_00000158723500111946252970000005691482337032269974_" d="M199,483.1c-0.7,0-1.4,0-2.1-0.1l-0.6-0.1l0-35.4        h0.7c2.1,0.2,4.4,0.1,6.7-0.4c4.5-0.8,4.8-1.8,4.8-2h1.3l0,34.2c0,1.5-1.9,2.5-5.8,3.2C202.2,482.9,200.6,483.1,199,483.1        L199,483.1z M197.6,481.7c1.9,0.1,4,0,6.1-0.4c4.5-0.8,4.8-1.8,4.8-2l0-32.3c-1,0.6-2.4,1-4.5,1.4c-2.2,0.4-4.4,0.5-6.4,0.4        L197.6,481.7L197.6,481.7z"></path>						</defs>						<clipPath id="SVGID_00000026124610409729953260000011532483622694600843_">							<use xlink:href="#SVGID_00000015341387140822845360000009319730892217861764_" style="overflow:visible;"></use>						</clipPath>													<clipPath id="SVGID_00000040558865984626192930000007102091351206859428_" style="clip-path:url(#SVGID_00000026124610409729953260000011532483622694600843_);">							<use xlink:href="#SVGID_00000158723500111946252970000005691482337032269974_" style="overflow:visible;"></use>						</clipPath>						<g style="clip-path:url(#SVGID_00000040558865984626192930000007102091351206859428_);">							<g>								<path class="st37" d="M209.2,445.1l0,34.2v0L209.2,445.1L209.2,445.1"></path>								<path class="st36" d="M209.2,445.2l0,34.2c0,0.1,0,0.1,0,0.2l0-34.2C209.2,445.3,209.2,445.2,209.2,445.2"></path>								<path class="st35" d="M209.1,445.4l0,34.2c0,0.1,0,0.1-0.1,0.2l0-34.2C209.1,445.5,209.1,445.4,209.1,445.4"></path>								<path class="st34" d="M209.1,445.6l0,34.2c0,0.1-0.1,0.1-0.1,0.2l0-34.2C209,445.7,209.1,445.6,209.1,445.6"></path>								<path class="st42" d="M209,445.7l0,34.2c0,0-0.1,0.1-0.1,0.2l0-34.2C208.9,445.8,209,445.8,209,445.7"></path>								<path class="st45" d="M208.9,445.9l0,34.2c0,0-0.1,0.1-0.1,0.1l0-34.2C208.8,446,208.9,445.9,208.9,445.9"></path>								<path class="st46" d="M208.8,446l0,34.2c-0.1,0-0.1,0.1-0.2,0.1l0-34.2C208.6,446.1,208.7,446.1,208.8,446"></path>								<path class="st47" d="M208.6,446.2l0,34.2c-0.1,0-0.1,0.1-0.2,0.1l0-34.2C208.4,446.3,208.5,446.2,208.6,446.2"></path>								<path class="st48" d="M208.4,446.3l0,34.2c-0.1,0-0.2,0.1-0.2,0.2l0-34.2C208.2,446.4,208.3,446.4,208.4,446.3"></path>								<path class="st49" d="M208.1,446.5l0,34.2c-0.1,0.1-0.2,0.1-0.3,0.2l0-34.2C207.9,446.6,208,446.6,208.1,446.5"></path>								<path class="st50" d="M207.8,446.7l0,34.2c-0.1,0.1-0.3,0.1-0.5,0.2l0-34.2C207.5,446.8,207.6,446.7,207.8,446.7"></path>								<path class="st51" d="M207.3,446.9l0,34.2c-0.2,0.1-0.5,0.2-0.8,0.3l0-34.2C206.8,447,207.1,447,207.3,446.9"></path>								<path d="M206.5,447.1l0,34.2c-0.7,0.2-1.6,0.4-2.7,0.6c-0.9,0.2-1.9,0.3-2.8,0.4l0-34.2c0.9-0.1,1.8-0.2,2.8-0.4         C204.9,447.6,205.8,447.4,206.5,447.1"></path>								<path class="st51" d="M201.1,448.1l0,34.2c-0.3,0-0.6,0-0.9,0.1l0-34.2C200.5,448.2,200.8,448.2,201.1,448.1"></path>								<path class="st50" d="M200.2,448.2l0,34.2c-0.2,0-0.4,0-0.7,0l0-34.2C199.8,448.2,200,448.2,200.2,448.2"></path>								<path class="st49" d="M199.6,448.2l0,34.2c-0.2,0-0.4,0-0.6,0l0-34.2C199.2,448.2,199.4,448.2,199.6,448.2"></path>								<path class="st48" d="M199,448.2l0,34.2c-0.2,0-0.4,0-0.5,0l0-34.2C198.6,448.2,198.8,448.2,199,448.2"></path>								<path class="st47" d="M198.4,448.2l0,34.2c-0.2,0-0.3,0-0.5,0l0-34.2C198.1,448.2,198.3,448.2,198.4,448.2"></path>								<path class="st46" d="M197.9,448.2l0,34.2c-0.2,0-0.3,0-0.5,0l0-34.2C197.6,448.2,197.8,448.2,197.9,448.2"></path>								<path class="st45" d="M197.5,448.2l0,34.2c-0.2,0-0.3,0-0.5,0l0-34.2C197.1,448.1,197.3,448.2,197.5,448.2"></path>								<path class="st42" d="M197,448.1l0,34.2c-0.2,0-0.3,0-0.5,0l0-34.2C196.7,448.1,196.8,448.1,197,448.1"></path>							</g>						</g>					</g>				</g>				<path class="st23" d="M215.2,448.6c-1.6,0.9-3.9,1.6-6.7,2.1c-2.6,0.5-5.4,0.7-8.4,0.7c-3,0-5.9-0.3-8.9-1     c-2.9-0.7-5.5-1.8-7.8-3.2l-5-3.2l-21,3.8l-4.5-2.9l51.7-9.4l9.5,6.2c2.1,1.4,3.2,2.6,3.3,3.9     C217.6,446.7,216.8,447.8,215.2,448.6L215.2,448.6z M196.4,448.1c2.3,0.3,4.8,0.2,7.5-0.3c5.7-1,6.8-2.6,3.4-4.9l-5-3.2     l-16.9,3.1l5,3.2C192.1,447.1,194.1,447.8,196.4,448.1"></path>				<path class="st52" d="M207.3,442.9c3.4,2.2,2.3,3.8-3.4,4.9c-2.7,0.5-5.2,0.6-7.5,0.3c-2.3-0.3-4.3-1-6-2.1l-5-3.2l16.9-3.1     L207.3,442.9z"></path>				<g>					<path class="st0" d="M217.5,445.7l0,34.2c0,1.1-0.8,2.1-2.3,2.9l0-34.2C216.7,447.8,217.5,446.8,217.5,445.7z"></path>					<path d="M214.5,483.9l0-35.7l0.3-0.2c1.3-0.7,1.9-1.5,1.9-2.4h1.3l0,34.2c0,1.4-0.9,2.5-2.6,3.5L214.5,483.9L214.5,483.9z       M215.9,449l0,32.6c0.6-0.5,1-1.1,1-1.7l0-31.6C216.6,448.6,216.2,448.8,215.9,449z"></path>					<g>						<g>							<path class="st23" d="M217.5,445.7l0,34.2c0,0,0,0,0,0.1L217.5,445.7C217.5,445.8,217.5,445.7,217.5,445.7"></path>							<path class="st23" d="M217.5,445.8l0,34.2c0,0.2,0,0.3-0.1,0.5l0-34.2C217.5,446.1,217.5,445.9,217.5,445.8"></path>							<path class="st23" d="M217.4,446.2l0,34.2c0,0.1-0.1,0.3-0.1,0.4l0-34.2C217.4,446.5,217.4,446.4,217.4,446.2"></path>							<path class="st23" d="M217.3,446.7l0,34.2c-0.1,0.1-0.1,0.2-0.2,0.4l0-34.2C217.2,446.9,217.2,446.8,217.3,446.7"></path>							<path class="st23" d="M217.1,447l0,34.2c-0.1,0.1-0.1,0.2-0.2,0.3l0-34.2C217,447.2,217,447.1,217.1,447"></path>							<path class="st23" d="M216.9,447.4l0,34.2c-0.1,0.1-0.2,0.2-0.3,0.3l0-34.2C216.7,447.6,216.8,447.5,216.9,447.4"></path>							<path class="st23" d="M216.6,447.7l0,34.2c-0.1,0.1-0.2,0.2-0.4,0.3l0-34.2C216.4,447.9,216.5,447.8,216.6,447.7"></path>							<path class="st23" d="M216.2,448l0,34.2c-0.1,0.1-0.3,0.2-0.4,0.3l0-34.2C215.9,448.2,216.1,448.1,216.2,448"></path>							<path class="st23" d="M215.8,448.3l0,34.2c-0.2,0.1-0.3,0.2-0.5,0.3l0-34.2C215.5,448.5,215.7,448.4,215.8,448.3"></path>							<path class="st23" d="M215.3,448.6l0,34.2l-0.1,0L215.3,448.6L215.3,448.6"></path>						</g>					</g>				</g>				<g>					<path class="st0" d="M215.2,448.6l0,34.2c-1.6,0.9-3.9,1.6-6.7,2.1c-2.6,0.5-5.4,0.7-8.4,0.7s-5.9-0.3-8.9-1      c-2.9-0.7-5.5-1.8-7.8-3.2l0-34.2c2.3,1.5,4.9,2.5,7.8,3.2c2.9,0.7,5.9,1,8.9,1c3,0,5.8-0.2,8.4-0.7      C211.4,450.3,213.6,449.5,215.2,448.6z"></path>					<path d="M200.1,486.3H200c-3,0-6.1-0.4-9-1c-3-0.7-5.7-1.8-8-3.3l-0.3-0.2l0-35.7l1,0.6c2.2,1.4,4.7,2.5,7.6,3.1      c2.9,0.7,5.8,1,8.7,1c2.9,0,5.7-0.2,8.3-0.7c2.8-0.5,5-1.2,6.5-2.1l1-0.5l0,35.7l-0.3,0.2c-1.7,0.9-4,1.7-6.9,2.2      C205.9,486.1,203.1,486.3,200.1,486.3L200.1,486.3z M184.1,481.1c2.1,1.3,4.6,2.3,7.3,2.9c2.9,0.7,5.8,1,8.7,1      c2.9,0,5.7-0.2,8.3-0.7c2.6-0.5,4.7-1.1,6.2-1.9l0-32.8c-1.6,0.7-3.6,1.3-6,1.7c-2.6,0.5-5.5,0.8-8.6,0.7c-3,0-6.1-0.4-9-1      c-2.6-0.6-4.9-1.5-7-2.7L184.1,481.1L184.1,481.1z"></path>					<g>						<defs>							<path id="SVGID_00000078766721456986359180000001587932883184454846_" d="M215.2,448.6l0,34.2c-1.6,0.9-3.9,1.6-6.7,2.1        c-2.6,0.5-5.4,0.7-8.4,0.7s-5.9-0.3-8.9-1c-2.9-0.7-5.5-1.8-7.8-3.2l0-34.2c2.3,1.5,4.9,2.5,7.8,3.2c2.9,0.7,5.9,1,8.9,1        c3,0,5.8-0.2,8.4-0.7C211.4,450.3,213.6,449.5,215.2,448.6z"></path>						</defs>						<defs>							<path id="SVGID_00000005240647996064440440000015823128207199377832_" d="M200.1,486.3H200c-3,0-6.1-0.4-9-1        c-3-0.7-5.7-1.8-8-3.3l-0.3-0.2l0-35.7l1,0.6c2.2,1.4,4.7,2.5,7.6,3.1c2.9,0.7,5.8,1,8.7,1c2.9,0,5.7-0.2,8.3-0.7        c2.8-0.5,5-1.2,6.5-2.1l1-0.5l0,35.7l-0.3,0.2c-1.7,0.9-4,1.7-6.9,2.2C205.9,486.1,203.1,486.3,200.1,486.3L200.1,486.3z         M184.1,481.1c2.1,1.3,4.6,2.3,7.3,2.9c2.9,0.7,5.8,1,8.7,1c2.9,0,5.7-0.2,8.3-0.7c2.6-0.5,4.7-1.1,6.2-1.9l0-32.8        c-1.6,0.7-3.6,1.3-6,1.7c-2.6,0.5-5.5,0.8-8.6,0.7c-3,0-6.1-0.4-9-1c-2.6-0.6-4.9-1.5-7-2.7L184.1,481.1L184.1,481.1z"></path>						</defs>						<clipPath id="SVGID_00000090979564316211940170000015433396703124615852_">							<use xlink:href="#SVGID_00000078766721456986359180000001587932883184454846_" style="overflow:visible;"></use>						</clipPath>													<clipPath id="SVGID_00000037664627839773342110000009406324173722018212_" style="clip-path:url(#SVGID_00000090979564316211940170000015433396703124615852_);">							<use xlink:href="#SVGID_00000005240647996064440440000015823128207199377832_" style="overflow:visible;"></use>						</clipPath>						<g style="clip-path:url(#SVGID_00000037664627839773342110000009406324173722018212_);">							<g>								<path class="st23" d="M215.2,448.6l0,34.2c-0.2,0.1-0.4,0.2-0.6,0.3l0-34.2C214.8,448.9,215,448.8,215.2,448.6"></path>								<path class="st23" d="M214.6,449l0,34.2c-0.3,0.1-0.6,0.3-0.9,0.4l0-34.2C214,449.2,214.3,449.1,214.6,449"></path>								<path class="st23" d="M213.6,449.4l0,34.2c-0.4,0.2-0.9,0.3-1.4,0.5l0-34.2C212.8,449.7,213.2,449.6,213.6,449.4"></path>								<path class="st23" d="M212.3,449.9l0,34.2c-1.1,0.4-2.4,0.6-3.8,0.9c-1.3,0.2-2.6,0.4-4.1,0.5l0-34.2         c1.4-0.1,2.8-0.3,4.1-0.5C209.9,450.5,211.2,450.2,212.3,449.9"></path>								<path class="st23" d="M204.4,451.3l0,34.2c-0.6,0-1.1,0.1-1.7,0.1l0-34.2C203.3,451.4,203.9,451.3,204.4,451.3"></path>								<path class="st23" d="M202.8,451.4l0,34.2c-0.5,0-0.9,0-1.4,0l0-34.2C201.9,451.4,202.3,451.4,202.8,451.4"></path>								<path class="st23" d="M201.4,451.5l0,34.2c-0.4,0-0.9,0-1.3,0h0l0-34.2h0C200.5,451.5,200.9,451.5,201.4,451.5"></path>								<path class="st23" d="M200,451.5l0,34.2c-0.3,0-0.6,0-0.9,0l0-34.2C199.4,451.5,199.7,451.5,200,451.5"></path>								<path class="st23" d="M199.1,451.5l0,34.2c-0.3,0-0.6,0-0.9,0l0-34.2C198.5,451.4,198.8,451.4,199.1,451.5"></path>								<path class="st23" d="M198.2,451.4l0,34.2c-0.3,0-0.6,0-0.9,0l0-34.2C197.6,451.4,197.9,451.4,198.2,451.4"></path>								<path class="st23" d="M197.4,451.4l0,34.2c-0.3,0-0.6,0-0.9-0.1l0-34.2C196.8,451.3,197.1,451.4,197.4,451.4"></path>								<path class="st23" d="M196.5,451.3l0,34.2c-0.3,0-0.6-0.1-0.9-0.1l0-34.2C195.9,451.2,196.2,451.3,196.5,451.3"></path>								<path class="st23" d="M195.6,451.2l0,34.2c-0.3,0-0.6-0.1-1-0.1l0-34.2C194.9,451.1,195.2,451.2,195.6,451.2"></path>								<path class="st23" d="M194.6,451.1l0,34.2c-0.4,0-0.7-0.1-1-0.2l0-34.2C193.9,451,194.2,451,194.6,451.1"></path>								<path class="st23" d="M193.5,450.9l0,34.2c-0.4-0.1-0.8-0.1-1.2-0.2l0-34.2C192.8,450.8,193.1,450.9,193.5,450.9"></path>								<path class="st23" d="M192.4,450.7l0,34.2c-0.4-0.1-0.8-0.2-1.1-0.2c-0.1,0-0.1,0-0.2,0l0-34.2c0.1,0,0.1,0,0.2,0         C191.6,450.5,192,450.6,192.4,450.7"></path>								<path class="st23" d="M191.1,450.4l0,34.2c-0.4-0.1-0.8-0.2-1.2-0.3l0-34.2C190.2,450.2,190.6,450.3,191.1,450.4"></path>								<path class="st23" d="M189.9,450.1l0,34.2c-0.5-0.1-1.1-0.3-1.6-0.5l0-34.2C188.8,449.8,189.3,450,189.9,450.1"></path>								<path class="st23" d="M188.3,449.6l0,34.2c-1.8-0.6-3.4-1.4-4.8-2.4l0-34.2C184.9,448.2,186.5,449,188.3,449.6"></path>							</g>						</g>					</g>				</g>				<polygon class="st55" points="233.3,454 233.3,488.2 171.7,491.2 171.7,457.1     "></polygon>				<polygon class="st24" points="238.6,457.4 238.5,491.6 233.3,488.2 233.3,454     "></polygon>				<polygon class="st23" points="225.7,457.6 225.6,491.8 197.1,493.2 197.1,459     "></polygon>				<polygon class="st23" points="189,459.5 188.9,493.7 176.4,494.3 176.4,460.1     "></polygon>				<polygon class="st23" points="176.4,460.1 176.4,494.3 171.7,491.2 171.7,457.1     "></polygon>				<polygon class="st24" points="206.1,464.9 206.1,499 197.1,493.2 197.1,459     "></polygon>				<polygon class="st56" points="225.7,457.6 225.6,491.8 206.1,499 206.1,464.9     "></polygon>				<polygon class="st24" points="252.1,466.3 252,500.5 247,497.2 247.1,463     "></polygon>				<polygon class="st23" points="200.4,466.9 200.4,501.1 188.9,493.7 189,459.5     "></polygon>				<polygon class="st56" points="200.4,466.9 200.4,501.1 191.8,504.3 191.9,470.1     "></polygon>				<polygon class="st23" points="196.6,473.2 196.6,507.4 191.8,504.3 191.9,470.1     "></polygon>				<path class="st23" d="M238.6,457.4l-41.9,15.8l-4.7-3.1l8.6-3.2l-11.5-7.5l-12.5,0.6l-4.7-3l61.6-3L238.6,457.4L238.6,457.4z      M197.1,459l9,5.8l19.6-7.3L197.1,459"></path>				<polygon class="st23" points="238.6,457.4 238.5,491.6 196.6,507.4 196.6,473.2     "></polygon>				<polygon class="st57" points="247.1,463 247,497.2 223.2,509.1 223.2,474.9     "></polygon>				<polygon class="st23" points="252.1,466.3 252,500.5 233,509.2 233.1,475     "></polygon>				<polygon class="st58" points="264.8,474.5 264.8,508.7 233,509.2 233.1,475     "></polygon>				<polygon class="st24" points="269.8,477.8 269.7,512 264.8,508.7 264.8,474.5     "></polygon>				<polygon class="st23" points="269.8,477.8 269.7,512 227.7,512 227.7,477.8     "></polygon>				<polygon class="st25" points="223.2,474.9 223.2,509.1 204.4,512.5 204.5,478.3     "></polygon>				<polygon class="st23" points="209,481.2 208.9,515.4 204.4,512.5 204.5,478.3     "></polygon>				<polygon class="st23" points="227.7,477.8 227.7,512 208.9,515.4 209,481.2     "></polygon>				<g>					<path class="st23" d="M345.9,503.6l0,34.2c0-0.7-0.5-1.5-1.6-2.2l0-34.2C345.4,502.1,345.9,502.9,345.9,503.6z"></path>					<g>						<defs>							<path id="SVGID_00000045604220983230125890000001313821254691590044_" d="M345.9,503.6l0,34.2c0-0.7-0.5-1.5-1.6-2.2l0-34.2        C345.4,502.1,345.9,502.9,345.9,503.6z"></path>						</defs>						<clipPath id="SVGID_00000152974131717595009010000012220558006534145159_">							<use xlink:href="#SVGID_00000045604220983230125890000001313821254691590044_" style="overflow:visible;"></use>						</clipPath>						<g style="clip-path:url(#SVGID_00000152974131717595009010000012220558006534145159_);">							<g>								<path class="st23" d="M345.9,503.6l0,34.2c0-0.7-0.5-1.5-1.6-2.2l0-34.2C345.4,502.1,345.9,502.9,345.9,503.6"></path>							</g>						</g>					</g>				</g>				<g>					<path class="st23" d="M345.8,537.8c0,1.7-2.6,3.3-7.2,4.1l0-34.2c4.5-0.8,7.2-2.4,7.2-4.1C345.9,513.8,345.8,527.5,345.8,537.8      L345.8,537.8z"></path>					<g>						<defs>							<path id="SVGID_00000048478938587006417310000000255968976424731561_" d="M345.8,537.8c0,1.7-2.6,3.3-7.2,4.1l0-34.2        c4.5-0.8,7.2-2.4,7.2-4.1C345.9,513.8,345.8,527.5,345.8,537.8L345.8,537.8z"></path>						</defs>						<clipPath id="SVGID_00000047741824283049324020000006336762241902278026_">							<use xlink:href="#SVGID_00000048478938587006417310000000255968976424731561_" style="overflow:visible;"></use>						</clipPath>						<g style="clip-path:url(#SVGID_00000047741824283049324020000006336762241902278026_);">							<g>								<path class="st23" d="M345.9,503.6l0,34.2v0L345.9,503.6L345.9,503.6"></path>								<path class="st23" d="M345.9,503.6l0,34.2c0,0.1,0,0.2,0,0.3l0-34.2C345.9,503.9,345.9,503.7,345.9,503.6"></path>								<path class="st23" d="M345.8,504l0,34.2c0,0.1-0.1,0.2-0.1,0.3l0-34.2C345.8,504.2,345.8,504.1,345.8,504"></path>								<path class="st23" d="M345.7,504.3l0,34.2c0,0.1-0.1,0.2-0.2,0.3l0-34.2C345.6,504.5,345.7,504.4,345.7,504.3"></path>								<path class="st23" d="M345.6,504.6l0,34.2c-0.1,0.1-0.1,0.2-0.2,0.3l0-34.2C345.4,504.7,345.5,504.7,345.6,504.6"></path>								<path class="st23" d="M345.4,504.9l0,34.2c-0.1,0.1-0.2,0.2-0.3,0.3l0-34.2C345.2,505,345.3,504.9,345.4,504.9"></path>								<path class="st23" d="M345.1,505.1l0,34.2c-0.1,0.1-0.2,0.2-0.3,0.3l0-34.2C344.9,505.3,345,505.2,345.1,505.1"></path>								<path class="st23" d="M344.8,505.4l0,34.2c-0.1,0.1-0.2,0.2-0.4,0.3l0-34.2C344.5,505.6,344.6,505.5,344.8,505.4"></path>								<path class="st23" d="M344.4,505.7l0,34.2c-0.1,0.1-0.3,0.2-0.5,0.3l0-34.2C344.1,505.9,344.2,505.8,344.4,505.7"></path>								<path class="st23" d="M343.9,506l0,34.2c-0.2,0.1-0.4,0.2-0.6,0.3l0-34.2C343.5,506.2,343.7,506.1,343.9,506"></path>								<path class="st23" d="M343.3,506.3l0,34.2c-0.2,0.1-0.5,0.2-0.8,0.3l0-34.2C342.8,506.5,343.1,506.4,343.3,506.3"></path>								<path class="st23" d="M342.6,506.6l0,34.2c-0.3,0.1-0.7,0.3-1.1,0.4l0-34.2C341.9,506.9,342.2,506.8,342.6,506.6"></path>								<path class="st23" d="M341.5,507l0,34.2c-0.8,0.3-1.7,0.5-2.8,0.7l0-34.2C339.7,507.5,340.6,507.3,341.5,507"></path>							</g>						</g>					</g>				</g>				<g>					<path class="st23" d="M347.2,503.6l0,34.2c0,1.8-2.9,3.6-7.9,4.5l0-34.2C344.4,507.2,347.2,505.4,347.2,503.6L347.2,503.6z"></path>					<g>						<defs>							<path id="SVGID_00000144308284002379923590000002653344386667659963_" d="M347.2,503.6l0,34.2c0,1.8-2.9,3.6-7.9,4.5l0-34.2        C344.4,507.2,347.2,505.4,347.2,503.6L347.2,503.6z"></path>						</defs>						<clipPath id="SVGID_00000060719344742456379140000014867937973474926238_">							<use xlink:href="#SVGID_00000144308284002379923590000002653344386667659963_" style="overflow:visible;"></use>						</clipPath>						<g style="clip-path:url(#SVGID_00000060719344742456379140000014867937973474926238_);">							<g>								<path class="st23" d="M347.2,503.6l0,34.2v0L347.2,503.6L347.2,503.6"></path>								<path class="st23" d="M347.2,503.6l0,34.2c0,0.1,0,0.2,0,0.4l0-34.2C347.2,503.9,347.2,503.8,347.2,503.6"></path>								<path class="st23" d="M347.2,504l0,34.2c0,0.1-0.1,0.2-0.1,0.3l0-34.2C347.1,504.2,347.2,504.1,347.2,504"></path>								<path class="st23" d="M347.1,504.3l0,34.2c0,0.1-0.1,0.2-0.2,0.3l0-34.2C347,504.6,347,504.4,347.1,504.3"></path>								<path class="st23" d="M346.9,504.7l0,34.2c-0.1,0.1-0.1,0.2-0.2,0.3l0-34.2C346.8,504.9,346.8,504.8,346.9,504.7"></path>								<path class="st23" d="M346.7,505l0,34.2c-0.1,0.1-0.2,0.2-0.3,0.3l0-34.2C346.5,505.2,346.6,505.1,346.7,505"></path>								<path class="st23" d="M346.4,505.3l0,34.2c-0.1,0.1-0.2,0.2-0.4,0.3l0-34.2C346.1,505.5,346.3,505.4,346.4,505.3"></path>								<path class="st23" d="M346,505.6l0,34.2c-0.1,0.1-0.3,0.2-0.4,0.3l0-34.2C345.7,505.8,345.9,505.7,346,505.6"></path>								<path class="st23" d="M345.6,505.9l0,34.2c-0.2,0.1-0.3,0.2-0.5,0.3l0-34.2C345.2,506.1,345.4,506,345.6,505.9"></path>								<path class="st23" d="M345.1,506.2l0,34.2c-0.2,0.1-0.4,0.2-0.6,0.3l0-34.2C344.7,506.5,344.9,506.4,345.1,506.2"></path>								<path class="st23" d="M344.4,506.6l0,34.2c-0.3,0.1-0.5,0.2-0.8,0.4l0-34.2C343.9,506.8,344.2,506.7,344.4,506.6"></path>								<path class="st23" d="M343.6,506.9l0,34.2c-0.4,0.2-0.8,0.3-1.2,0.4l0-34.2C342.8,507.2,343.2,507.1,343.6,506.9"></path>								<path class="st23" d="M342.4,507.4l0,34.2c-0.9,0.3-1.9,0.5-3,0.7l0-34.2C340.5,507.9,341.5,507.6,342.4,507.4"></path>							</g>						</g>					</g>				</g>				<polygon class="st23" points="233.1,521.6 233.1,555.8 78.5,455.4 78.5,421.2     "></polygon>				<polygon class="st23" points="338.7,507.7 338.7,541.9 251.3,557.8 251.4,523.6     "></polygon>				<g>					<path class="st23" d="M251.4,523.6l0,34.2c-6.6,1.2-14.7,0.3-18.2-1.9l0-34.2C236.6,523.9,244.8,524.8,251.4,523.6z"></path>					<g>						<defs>							<path id="SVGID_00000139258568634654292640000012575329809353454493_" d="M251.4,523.6l0,34.2c-6.6,1.2-14.7,0.3-18.2-1.9        l0-34.2C236.6,523.9,244.8,524.8,251.4,523.6z"></path>						</defs>						<clipPath id="SVGID_00000164474794893133997240000017789469242372699575_">							<use xlink:href="#SVGID_00000139258568634654292640000012575329809353454493_" style="overflow:visible;"></use>						</clipPath>						<g style="clip-path:url(#SVGID_00000164474794893133997240000017789469242372699575_);">							<g>								<path class="st23" d="M251.4,523.6l0,34.2c-1,0.2-2,0.3-3.1,0.4l0-34.2C249.3,523.9,250.4,523.7,251.4,523.6"></path>								<path class="st23" d="M248.3,524l0,34.2c-0.4,0-0.8,0.1-1.3,0.1l0-34.2C247.5,524,247.9,524,248.3,524"></path>								<path class="st23" d="M247,524l0,34.2c-0.4,0-0.7,0-1.1,0l0-34.2C246.3,524.1,246.7,524.1,247,524"></path>								<path class="st23" d="M246,524.1l0,34.2c-0.3,0-0.6,0-0.9,0l0-34.2C245.4,524.1,245.7,524.1,246,524.1"></path>								<path class="st23" d="M245,524.1l0,34.2c-0.3,0-0.6,0-0.9,0l0-34.2C244.4,524.1,244.7,524.1,245,524.1"></path>								<path class="st23" d="M244.1,524.1l0,34.2c-0.3,0-0.6,0-0.9,0l0-34.2C243.6,524.1,243.8,524.1,244.1,524.1"></path>								<path class="st23" d="M243.3,524l0,34.2c-0.3,0-0.6,0-0.9,0l0-34.2C242.7,524,243,524,243.3,524"></path>								<path class="st23" d="M242.4,524l0,34.2c-0.3,0-0.6,0-0.8-0.1l0-34.2C241.9,524,242.1,524,242.4,524"></path>								<path class="st23" d="M241.6,523.9l0,34.2c-0.3,0-0.6,0-0.8-0.1l0-34.2C241,523.9,241.3,523.9,241.6,523.9"></path>								<path class="st23" d="M240.7,523.8l0,34.2c-0.3,0-0.6-0.1-0.8-0.1l0-34.2C240.2,523.8,240.5,523.8,240.7,523.8"></path>								<path class="st23" d="M239.9,523.7l0,34.2c-0.3,0-0.6-0.1-0.8-0.1l0-34.2C239.4,523.7,239.6,523.7,239.9,523.7"></path>								<path class="st23" d="M239.1,523.6l0,34.2c-0.3,0-0.6-0.1-0.8-0.2l0-34.2C238.5,523.5,238.8,523.6,239.1,523.6"></path>								<path class="st23" d="M238.3,523.5l0,34.2c-0.3-0.1-0.6-0.1-0.9-0.2l0-34.2C237.7,523.3,238,523.4,238.3,523.5"></path>								<path class="st23" d="M237.4,523.3l0,34.2c-0.3-0.1-0.6-0.2-0.9-0.2l0-34.2C236.8,523.1,237.1,523.2,237.4,523.3"></path>								<path class="st23" d="M236.4,523l0,34.2c-0.4-0.1-0.8-0.2-1.1-0.3l0-34.2C235.7,522.8,236.1,522.9,236.4,523"></path>								<path class="st23" d="M235.4,522.7l0,34.2c-0.9-0.3-1.6-0.7-2.2-1l0-34.2C233.8,522,234.5,522.4,235.4,522.7"></path>							</g>						</g>					</g>				</g>				<path class="st12" d="M345.5,501.2c3.8,2.5,1.1,5.6-6.1,6.9L252,524c-7.2,1.3-16.2,0.4-20.1-2.1L77.3,421.4     c-3.8-2.5-1.1-5.6,6.2-6.9l87.3-15.9c7.2-1.3,16.2-0.4,20.1,2.1L345.5,501.2L345.5,501.2z M251.4,523.6l87.4-15.9     c6.6-1.2,9.1-4,5.6-6.3L189.7,401c-3.5-2.3-11.7-3.1-18.2-1.9L84.1,415c-6.6,1.2-9.1,4-5.6,6.3l154.6,100.4     C236.6,523.9,244.8,524.8,251.4,523.6"></path>				<polygon class="st52" points="225.7,457.6 197.1,459 206.1,464.9     "></polygon>				<polygon class="st23" points="269.8,477.8 227.7,477.8 209,481.2 204.5,478.3 223.2,474.9 247.1,463 252.1,466.3 233.1,475      264.8,474.5     "></polygon>				<polygon class="st23" points="231.9,521.8 231.9,556 77.3,455.6 77.3,421.4     "></polygon>				<polygon class="st23" points="339.4,508.1 339.3,542.3 252,558.2 252,524     "></polygon>				<g>					<path class="st52" d="M344.3,501.4c3.5,2.3,1,5.1-5.6,6.3l-87.4,15.9c-6.6,1.2-14.7,0.3-18.2-1.9L78.5,421.2      c-3.5-2.3-1-5.1,5.6-6.3l87.3-15.9c6.6-1.2,14.7-0.3,18.2,1.9L344.3,501.4L344.3,501.4z M191.9,470.1l4.7,3.1l41.9-15.8      l-5.2-3.4l-61.6,3l4.7,3l12.5-0.6l11.5,7.5L191.9,470.1 M227.7,477.8l42-0.1l-5-3.2l-31.7,0.5l19-8.7l-5-3.3l-23.8,11.9      l-18.8,3.4l4.5,2.9L227.7,477.8 M191.2,450.5c2.9,0.7,5.9,1,8.9,1c3,0,5.8-0.2,8.4-0.7c2.9-0.5,5.1-1.2,6.7-2.1      c1.6-0.9,2.4-1.9,2.3-3.1s-1.2-2.5-3.3-3.9l-9.5-6.2l-51.7,9.4l4.5,2.9l21-3.8l5,3.2C185.7,448.7,188.3,449.8,191.2,450.5"></path>					<path d="M245.1,524.7c-5,0-9.9-0.9-12.4-2.6L78.2,421.8c-1.8-1.2-2-2.4-1.8-3.2c0.4-1.9,3.2-3.5,7.7-4.3l87.3-15.9      c6.7-1.2,15.1-0.3,18.7,2l154.6,100.4c1.8,1.2,2,2.4,1.8,3.2c-0.4,1.9-3.2,3.5-7.6,4.3l-87.4,15.9      C249.4,524.6,247.3,524.7,245.1,524.7L245.1,524.7z M177.8,399.2c-2.1,0-4.2,0.2-6.2,0.5l-87.3,15.9c-4.6,0.8-6.4,2.3-6.6,3.3      c-0.2,0.7,0.6,1.4,1.2,1.8l154.6,100.4c3.4,2.2,11.3,3,17.8,1.8l87.4-15.9c4.6-0.8,6.4-2.3,6.6-3.3c0.1-0.7-0.6-1.4-1.3-1.8      L189.3,401.6C187,400,182.5,399.2,177.8,399.2z M208.8,481.9l-6.1-4l20.3-3.7l24.1-12l6.3,4.1l-17.3,8l28.9-0.4l7,4.5      l-44.2,0.1L208.8,481.9L208.8,481.9z M206.2,478.7l2.9,1.9l18.6-3.4l39.9-0.1l-3-1.9l-34.6,0.5l20.7-9.5l-3.7-2.4l-23.7,11.8      L206.2,478.7L206.2,478.7z M196.5,473.9l-6.1-4l8.6-3.2l-10.2-6.6l-12.5,0.6l-6.6-4.3l63.8-3.1l6.5,4.2L196.5,473.9      L196.5,473.9z M193.3,470.3l3.4,2.2l40.4-15.2l-4-2.6l-59.4,2.9l2.8,1.8l12.5-0.6l12.8,8.3L193.3,470.3L193.3,470.3z       M200.2,452.1L200.2,452.1c-3.1,0-6.1-0.4-9.1-1l0,0c-3-0.7-5.7-1.8-8-3.3l-4.8-3.1l-21,3.8l-6.1-4l53.6-9.7l9.7,6.3      c2.3,1.5,3.5,2.9,3.6,4.3c0.1,1.5-0.8,2.7-2.6,3.8c-1.7,0.9-4,1.7-6.9,2.2C206,451.9,203.2,452.1,200.2,452.1L200.2,452.1z       M178.6,443.3l5.2,3.4c2.2,1.4,4.7,2.5,7.6,3.1l0,0c2.9,0.7,5.8,1,8.7,1c2.9,0,5.7-0.2,8.3-0.7c2.8-0.5,5-1.2,6.5-2.1      c1.4-0.8,2-1.6,1.9-2.5c-0.1-1-1.1-2.1-3-3.4l-9.3-6l-49.8,9.1l2.9,1.9L178.6,443.3L178.6,443.3z"></path>				</g>				<g>					<path class="st23" d="M252,524l0,34.2c-7.2,1.3-16.2,0.4-20.1-2.1l0-34.2C235.8,524.3,244.8,525.3,252,524z"></path>					<g>						<defs>							<path id="SVGID_00000042001859354771035910000002927754208138317193_" d="M252,524l0,34.2c-7.2,1.3-16.2,0.4-20.1-2.1l0-34.2        C235.8,524.3,244.8,525.3,252,524z"></path>						</defs>						<clipPath id="SVGID_00000164471821156305491920000010114395798950778552_">							<use xlink:href="#SVGID_00000042001859354771035910000002927754208138317193_" style="overflow:visible;"></use>						</clipPath>						<g style="clip-path:url(#SVGID_00000164471821156305491920000010114395798950778552_);">							<g>								<path class="st23" d="M252,524l0,34.2c-1.1,0.2-2.2,0.3-3.4,0.4l0-34.2C249.8,524.3,250.9,524.2,252,524"></path>								<path class="st23" d="M248.6,524.4l0,34.2c-0.5,0-0.9,0.1-1.4,0.1l0-34.2C247.7,524.5,248.2,524.5,248.6,524.4"></path>								<path class="st23" d="M247.2,524.5l0,34.2c-0.4,0-0.8,0-1.2,0l0-34.2C246.5,524.5,246.8,524.5,247.2,524.5"></path>								<path class="st23" d="M246.1,524.5l0,34.2c-0.4,0-0.7,0-1.1,0l0-34.2C245.4,524.6,245.7,524.6,246.1,524.5"></path>								<path class="st23" d="M245,524.6l0,34.2c-0.3,0-0.7,0-1,0l0-34.2C244.4,524.5,244.7,524.6,245,524.6"></path>								<path class="st23" d="M244,524.5l0,34.2c-0.3,0-0.6,0-1,0l0-34.2C243.4,524.5,243.7,524.5,244,524.5"></path>								<path class="st23" d="M243.1,524.5l0,34.2c-0.3,0-0.6,0-0.9-0.1l0-34.2C242.4,524.5,242.8,524.5,243.1,524.5"></path>								<path class="st23" d="M242.1,524.5l0,34.2c-0.3,0-0.6,0-0.9-0.1l0-34.2C241.5,524.4,241.8,524.4,242.1,524.5"></path>								<path class="st23" d="M241.2,524.4l0,34.2c-0.3,0-0.6-0.1-0.9-0.1l0-34.2C240.6,524.3,240.9,524.4,241.2,524.4"></path>								<path class="st23" d="M240.3,524.3l0,34.2c-0.3,0-0.6-0.1-0.9-0.1l0-34.2C239.7,524.2,240,524.2,240.3,524.3"></path>								<path class="st23" d="M239.4,524.2l0,34.2c-0.3,0-0.6-0.1-0.9-0.1l0-34.2C238.8,524.1,239.1,524.1,239.4,524.2"></path>								<path class="st23" d="M238.5,524l0,34.2c-0.3,0-0.6-0.1-0.9-0.2l0-34.2C237.9,523.9,238.2,524,238.5,524"></path>								<path class="st23" d="M237.6,523.9l0,34.2c-0.3-0.1-0.6-0.1-1-0.2l0-34.2C236.9,523.7,237.2,523.8,237.6,523.9"></path>								<path class="st23" d="M236.6,523.7l0,34.2c-0.4-0.1-0.7-0.2-1-0.3l0-34.2C235.9,523.5,236.2,523.6,236.6,523.7"></path>								<path class="st23" d="M235.6,523.4l0,34.2c-0.4-0.1-0.8-0.2-1.2-0.4l0-34.2C234.7,523.1,235.1,523.3,235.6,523.4"></path>								<path class="st23" d="M234.4,523l0,34.2c-0.9-0.3-1.8-0.7-2.4-1.2l0-34.2C232.6,522.3,233.4,522.7,234.4,523"></path>							</g>						</g>					</g>				</g>			</g>		</g>	</g></g><rect x="182.6" class="st64" width="28" height="28"></rect></svg>