<svg xmlns="http://www.w3.org/2000/svg" width="383.57" height="516.2" viewBox="0 0 383.57 516.2"><defs><style>.d,.e{fill:none;}.d,.e,.f,.g,.h,.i,.j{stroke:#000;stroke-width:1.3px;}.d,.i,.j{stroke-linejoin:round;}.e,.f,.g,.h{stroke-miterlimit:10;}.k,.i{fill:#000005;}.l,.g,.j{fill:#fca7fd;}.f{fill:#fff;}.h{fill:#e5e5e5;}</style></defs><g id="a"></g><g id="b"><g id="c"><g><polygon class="j" points="212.4 148.36 204.06 155.7 204.06 167.19 221.4 153.05 212.4 148.36"></polygon><polygon class="f" points="158.33 388.76 192.73 371.64 208.14 394.77 183.11 415.88 155.62 399.17 158.33 388.76"></polygon><g><path class="f" d="M209.92,447.45s45.09,22.84,14.1,39.62c0,0-9.37,9.63-14.19,5.82-1.26-.99-1.28-4.31-4.17-6.58s-4.49-.25-7.37-2.52-1.28-4.31-4.16-6.58c-2.88-2.28-4.49-.25-7.37-2.52-2.88-2.27-1.28-4.31-4.16-6.58s-4.48-.24-7.37-2.52c-2.88-2.28-1.28-4.31-4.16-6.58s-4.49-.24-7.37-2.52c-2.88-2.27-1.28-4.31-4.16-6.58s-4.49-.24-7.37-2.52c-2.88-2.27-1.28-4.31-4.16-6.58-2.88-2.27-4.48-.24-7.37-2.52-2.88-2.27-1.28-4.31-4.16-6.58-2.88-2.27-4.48-.24-7.37-2.52s-4.17-4.17-4.78-6.3c0,0-2.22-5.77,5.2-10.25,0,0,19.16-37.37,31.92-25.13,0,0-4.42,12.87,21.41,22.58"></path><line class="e" x1="129.62" y1="412.55" x2="224.02" y2="487.07"></line><line class="e" x1="194.6" y1="444.29" x2="185.09" y2="456.34"></line><rect class="f" x="112.31" y="448.7" width="124.28" height="5.55" rx="2.78" ry="2.78" transform="translate(317.24 -10.99) rotate(38.29)"></rect></g><g><path class="f" d="M209.92,447.45s3.18-16-21.09-36.27c0,0-10.82-3.92-16.23,2.89-5.2,6.54,18.1,8.6,21.99,30.22l15.33,3.17Z"></path><path class="e" d="M186.32,410.51s-4.83-.94-10.1,4.76c0,0,9.22-1.56,14.14,.19,0,0-3.03,1.92-7.11,4.77,0,0,9.04-1.54,13.68,1.27,0,0-6.07,2.68-7.19,4.67,0,0,8.47-.8,11.93,1.35,0,0-4.7,1.91-6.63,4.65,0,0,6.6-.07,9.81,1.74,0,0-5.06,3.74-7.33,5.62,0,0,5.5-1.06,9.94,.63"></path><path class="e" d="M161.98,393.92s-8.68-3.94-18.85,14.88c0,0-5.59-1.38-6.7-7.36"></path></g><path class="f" d="M263.16,464.81l-10.92-30.34,30.87-10.28,13.83,38.22s-21.85,15.83-22.35,15.42-11.43-13.02-11.43-13.02Z"></path><path class="h" d="M166.3,383.17l102.03-73.73-55.99-86.67c-5.23-8.1-2.91-18.91,5.19-24.14,8.1-5.23,18.91-2.91,24.14,5.19l64.73,100.2c4.94,7.64,3.18,17.79-4.04,23.33l-107.77,83.88-28.29-28.06Z"></path><path class="h" d="M253.11,456.51l-69.41-227.66c-2.97-9.18,5.9-18.98,15.07-21.95,9.18-2.97,19.02,2.06,21.99,11.24l73.49,225.27-41.14,13.1Z"></path><path class="j" d="M236.05,170.87h-.03c-5.53-.27-9.8-4.96-9.53-10.5l3.58-74.67-10.56-60.14c-.84-5.47,2.92-10.59,8.4-11.42,5.47-.83,10.59,2.92,11.42,8.4l10.87,62.12-3.68,76.67c-.27,5.52-4.95,9.78-10.46,9.53Z"></path><polyline class="g" points="241.52 139.83 250.19 145.24 246.54 166.22"></polyline><g><g><path class="k" d="M211.36,143.47s-12.29-17.31-6.11-23.31l2.06,3.43,3.44,10.31,.6,9.57Z"></path><g><path class="g" d="M212.92,153.29l-3.72-25.85c-1.44-9.11,5.55-17.36,14.77-17.46h0c7.7-.08,14.22,5.65,15.14,13.29,0,0,9.73,81.12,29.72,97.81-71.64,54.81-110.29,14-110.29,14,9.33-23.73,29.31-38.3,34.23-64.21"></path><g><ellipse class="f" cx="230.85" cy="124.74" rx="12.62" ry="4.34" transform="translate(-28.23 83.16) rotate(-19.27)"></ellipse><ellipse class="k" cx="238.08" cy="121.69" rx="4.7" ry="2.82" transform="translate(-25.33 75.82) rotate(-17.19)"></ellipse></g></g><ellipse class="k" cx="226.22" cy="109.47" rx="10.85" ry="5" transform="translate(-25.08 112.34) rotate(-26.48)"></ellipse><ellipse class="k" cx="215.83" cy="111.11" rx="8.7" ry="4.49" transform="translate(11.27 241.8) rotate(-59.81)"></ellipse><ellipse class="k" cx="210.11" cy="121.99" rx="4.49" ry="10.84" transform="translate(-21.49 48.58) rotate(-12.55)"></ellipse><path class="k" d="M213.89,118.78s10.19-1.16,18.09-7.01l-10.55-.65-9.22,4.7,1.69,2.96Z"></path><path class="g" d="M215.7,130.09c-1.41-2.07-4.04-2.73-5.87-1.48-1.83,1.25-2.16,3.94-.75,6,1.41,2.07,4.04,2.73,5.87,1.48"></path></g><path class="g" d="M222.52,131.65s5.09-7.18,13.54-2.35"></path></g><path class="j" d="M210.67,156.68L152.34,25.52c-2.29-5.04-10.51-6.99-15.55-4.7-5.04,2.3-7.26,8.24-4.97,13.28l60.8,134.06s.64,3.14-.7,6.53"></path><g><path class="f" d="M339.75,456.19s43.5-25.74,40.99,9.41c0,0,3.09,13.07-2.72,15.09-1.51,.53-4.32-1.24-7.79-.03-3.47,1.21-2.62,3.65-6.09,4.86-3.47,1.21-4.32-1.24-7.79-.03-3.47,1.21-2.62,3.65-6.09,4.86s-4.32-1.24-7.79-.03c-3.47,1.21-2.62,3.65-6.08,4.86-3.47,1.21-4.32-1.24-7.79-.03-3.47,1.21-2.62,3.65-6.08,4.86s-4.32-1.24-7.79-.03-2.62,3.65-6.09,4.86c-3.47,1.21-4.32-1.24-7.79-.03-3.47,1.21-2.62,3.65-6.08,4.86-3.47,1.21-4.32-1.24-7.78-.03-3.47,1.21-2.62,3.65-6.08,4.86-3.56,1.24-5.76,1.28-7.89,.64,0,0-6.06-1.23-5.85-9.9,0,0-21.21-36.24-4.03-40.43,0,0,8.48,10.64,30.55-5.92"></path><line class="e" x1="267.15" y1="505.14" x2="380.74" y2="465.6"></line><line class="e" x1="328.84" y1="467.41" x2="333.89" y2="481.91"></line><rect class="f" x="261.93" y="485.49" width="124.28" height="5.55" rx="2.78" ry="2.78" transform="translate(-142.52 133.7) rotate(-19.2)"></rect></g><g><path class="f" d="M339.75,456.19s-11.78-11.28-41.92-1.72c0,0-9.12,7.01-6.29,15.24,2.72,7.9,16.99-10.64,37.3-2.29l10.91-11.22Z"></path><path class="e" d="M295.91,456.24s-3.38,3.57-1.42,11.07c0,0,3.64-8.61,7.76-11.82,0,0-.01,3.59,.2,8.55,0,0,3.56-8.45,8.42-10.85,0,0-1.01,6.56,.07,8.58,0,0,3.88-7.57,7.56-9.34,0,0-.92,4.99,.35,8.09,0,0,3.49-5.61,6.74-7.33,0,0,.43,6.28,.8,9.2,0,0,2.06-5.2,5.88-8.04"></path><path class="e" d="M268.83,467.84s-7.99,5.2,2.41,23.89c0,0-4.17,3.97-9.81,1.69"></path></g><line class="h" x1="257.93" y1="316.96" x2="272.8" y2="306.32"></line><line class="h" x1="262.84" y1="453.41" x2="266" y2="462.2"></line><line class="h" x1="266" y1="452.44" x2="269.15" y2="461.17"></line><line class="h" x1="283.09" y1="446.79" x2="286.38" y2="455.46"></line><line class="h" x1="275.6" y1="449.35" x2="278.45" y2="457.35"></line><line class="h" x1="171.86" y1="388.68" x2="165.39" y2="393.03"></line><line class="h" x1="175.48" y1="392.04" x2="169.01" y2="396.39"></line><path class="h" d="M234.9,343.51s11.84,2.22,16.14-2.87"></path><line class="h" x1="244.26" y1="409.94" x2="252.33" y2="435.62"></line><line class="h" x1="240.2" y1="289" x2="247.65" y2="311.64"></line><line class="h" x1="235.77" y1="275.55" x2="238.54" y2="283.96"></line><path class="h" d="M304.72,309.68s1.22,7.33-2.1,10.65"></path><line class="h" x1="196.64" y1="366.23" x2="220.43" y2="349.33"></line><line class="h" x1="237.75" y1="83.27" x2="243.01" y2="81.9"></line><path class="j" d="M169.77,102.48c-2.18,1.84-5.45,1.56-7.29-.63s-1.56-5.45,.63-7.29"></path><path class="j" d="M188.39,243.16s28.4,4.71,44.33-5.3"></path><path class="d" d="M247.65,186.79s7.67,21.77,21.18,34.3"></path><path class="l" d="M221.54,37.73l-13.05-10.13c-1.01-.48-2.44-1.88-2.27-2.98l1.53-7.89-.98-7.24,41.65,5.4-4.23,21.91"></path><path class="l" d="M248.17,12.63l1.23,3.41c.66,1.82,.79,3.79,.4,5.69l-1.31,6.24c-.53,2.52-1.64,4.87-3.24,6.89l-3.87,9.2-2.64-8.72"></path><g><path class="g" d="M207.75,16.73l-.93-8.59c-.24-2.17,1.1-4.21,3.19-4.85h0c2.63-.81,5.37,.87,5.84,3.58l1.47,8.58"></path><path class="e" d="M248.17,12.63l1.23,3.41c.66,1.82,.79,3.79,.4,5.68l-1.31,6.24c-.53,2.52-1.64,4.87-3.24,6.89l-2.48,7.4h0"></path><line class="g" x1="235.62" y1="1.13" x2="235.62" y2="1.13"></line><path class="g" d="M245.06,6.06h0c2.27,.35,3.81,2.49,3.42,4.75l-1.61,9.36c-.38,2.2-2.45,3.69-4.65,3.35h0c-2.27-.35-3.81-2.49-3.42-4.75l1.61-9.36c.38-2.2,2.45-3.69,4.65-3.35Z"></path><path class="g" d="M236.87,2.47h0c2.61,.09,4.63,2.3,4.5,4.9l-.57,10.78c-.13,2.53-2.27,4.49-4.81,4.41h0c-2.61-.09-4.63-2.3-4.5-4.9l.57-10.78c.13-2.53,2.27-4.49,4.81-4.41Z"></path><path class="g" d="M228.03,.65h0c2.61-.09,4.78,1.98,4.82,4.59l.16,10.79c.04,2.54-1.96,4.64-4.5,4.72h0c-2.61,.09-4.78-1.98-4.82-4.59l-.16-10.79c-.04-2.54,1.96-4.64,4.5-4.72Z"></path><path class="g" d="M214.53,18.54l-.17-11.57c-.04-2.72,2.1-4.97,4.82-5.06h0c2.79-.1,5.12,2.12,5.16,4.91l.29,12.28"></path></g><path class="g" d="M215.95,22.8l1.09-5.88c.18-.98,.19-1.98,.02-2.95l-.85-7.67c-.33-3-3.19-5.06-6.15-4.42h0c-2.69,.58-4.43,3.19-3.94,5.89l1.62,8.96-1.22,6.29c-.29,1.5,.07,3.05,.99,4.27l6.67,8.87c2.11,2.8,5.3,4.58,8.79,4.89l5.27,.48"></path><path class="g" d="M216.71,18.72s8.13-3.38,13.48,5.86"></path><g><path class="l" d="M159.91,45.09l8.06-17.24c.78-.8,1.63-2.62,1.08-3.58l-4.19-6.86-1.61-7.12-37.13,19.61,11.62,19.06"></path><path class="l" d="M143.66,52.06l-7.6-4.58c-2.2-1.33-4.06-3.15-5.44-5.32l-3.4-5.39c-1.03-1.64-1.59-3.53-1.62-5.47l-.04-3.62"></path><g><path class="g" d="M164.86,17.4l-2.13-8.38c-.54-2.12-2.5-3.56-4.68-3.43h0c-2.75,.16-4.73,2.69-4.22,5.4l1.61,8.55"></path><line class="g" x1="133.3" y1="12.52" x2="133.3" y2="12.52"></line><path class="g" d="M132.73,23.08c-.74-2.11-3.02-3.23-5.14-2.54h0c-2.18,.71-3.35,3.08-2.59,5.25l.03,.09c.36,1.2,.54,2.43,.56,3.68l.02,1.74c.02,1.94,.58,3.83,1.62,5.46l3.4,5.39c1.37,2.17,3.24,4,5.44,5.32l2.58,1.55"></path><path class="g" d="M141.2,24.69l-2.45-7.26c-.81-2.4-3.4-3.72-5.81-2.95h0c-2.49,.78-3.85,3.46-3.01,5.93l3.73,11.33"></path><path class="g" d="M148.19,22.36l-3.62-10.17c-.85-2.39-3.46-3.66-5.86-2.86h0c-2.47,.83-3.79,3.52-2.91,5.98l3.98,11.12"></path></g><path class="g" d="M156.22,20.83c-.51-.85-.87-1.79-1.05-2.76l-1.88-7.49c-.74-2.93,1.22-5.86,4.21-6.29h0c2.72-.39,5.26,1.44,5.75,4.14l1.61,8.97,3.34,5.47c.8,1.3,1,2.88,.57,4.35l-3.15,10.64c-.78,2.62-2.66,5.08-4.83,6.67"></path><path class="g" d="M147.7,23.11l-3.2-9.29c-.94-2.63,.47-5.52,3.12-6.41h0c2.58-.86,5.37,.5,6.28,3.06l3.88,10.9,2.66,4.15"></path><line class="g" x1="136.4" y1="32.84" x2="138.64" y2="31.48"></line><line class="g" x1="146.47" y1="26.91" x2="150.02" y2="25.58"></line></g><line class="g" x1="136.93" y1="47.98" x2="141.2" y2="50.58"></line><line class="e" x1="64.67" y1="143.97" x2="129.08" y2="171.59"></line><line class="e" x1="73.62" y1="163.88" x2="138.03" y2="191.5"></line><line class="e" x1=".26" y1="187.23" x2="64.67" y2="214.85"></line><polyline class="g" points="203.18 140.49 184.07 158.21 198.24 174.69"></polyline><polygon class="i" points="259.44 454.49 290.5 444.61 261.23 459.47 259.44 454.49"></polygon><polygon class="i" points="191.51 408.8 164.08 385.9 167.39 384.25 191.51 408.8"></polygon><path class="i" d="M229.28,244.27s-22.61,10.61-37.83,10.02l-1.57-5.16s23.45,1.86,39.4-4.85Z"></path><polygon class="i" points="247.41 235.33 259.32 231.13 257.88 228.91 247.41 235.33"></polygon><polygon class="i" points="186.52 153.51 203.18 140.49 187.21 155.02 186.52 153.51"></polygon><polygon class="i" points="241.52 139.83 247.46 141.41 247.34 143.47 241.52 139.83"></polygon><line class="g" x1="161.69" y1="46.55" x2="159.84" y2="42.46"></line></g></g></g></svg>