<svg xmlns="http://www.w3.org/2000/svg" id="a" width="124.54" height="20.83" viewBox="0 0 124.54 20.83"><defs><style>.b{fill:#fff;}</style></defs><path class="b" d="M51.77,2.17V20.5h-2.6V6.6l-5.8,13.9h-2.05l-5.83-13.9v13.9h-2.6V2.17h3.58l5.88,14.15,5.88-14.15h3.55Z"></path><path class="b" d="M60.47,20.83c-1.67,0-2.98-.38-3.95-1.12-.97-.77-1.63-1.67-2-2.7-.37-1.05-.55-2.07-.55-3.05s.18-1.99,.55-3.03c.37-1.05,1.03-1.95,2-2.7,.97-.77,2.28-1.15,3.95-1.15s2.96,.38,3.92,1.15c.97,.75,1.63,1.65,2,2.7,.38,1.03,.57,2.04,.57,3.02s-.19,2-.57,3.05c-.37,1.03-1.03,1.93-2,2.7-.97,.75-2.28,1.12-3.92,1.13Zm0-2.3c1.35,0,2.35-.44,3-1.33,.65-.88,.98-1.97,.98-3.25s-.32-2.37-.97-3.25c-.65-.88-1.65-1.32-3-1.32s-2.35,.44-3,1.32c-.65,.88-.97,1.97-.97,3.25s.33,2.37,.97,3.25c.65,.88,1.65,1.33,3,1.33Z"></path><path class="b" d="M75.82,7.07c1.25,0,2.41,.37,3.47,1.1,1.07,.72,1.6,2.04,1.6,3.97v8.35h-2.68v-7.93c-.05-.95-.32-1.7-.8-2.25-.47-.55-1.07-.82-1.82-.82-.53,0-1.07,.15-1.6,.45-.52,.28-.96,.73-1.32,1.32-.37,.58-.58,1.32-.65,2.2v7.03h-2.68V7.4h2.68v1.72c.45-.63,1.03-1.13,1.75-1.5s1.4-.55,2.05-.55Z"></path><path class="b" d="M88.62,20.8c-1.52,0-2.78-.28-3.78-.85-1-.57-1.71-1.36-2.12-2.38l2.4-1.33c.12,.57,.49,1.08,1.12,1.52,.65,.45,1.43,.67,2.35,.67,1,0,1.78-.13,2.32-.4,.57-.28,.85-.68,.85-1.2,0-.4-.18-.71-.53-.93-.35-.23-.85-.44-1.5-.62-.35-.1-.88-.23-1.57-.4-.9-.22-1.58-.4-2.05-.55-.97-.32-1.71-.73-2.22-1.23-.5-.5-.75-1.19-.75-2.07,0-.82,.24-1.52,.72-2.13,.5-.6,1.15-1.05,1.95-1.35,.8-.32,1.67-.47,2.6-.47,1.22,0,2.32,.26,3.32,.78,1.02,.5,1.72,1.28,2.1,2.33l-2.35,1.15c-.23-.67-.63-1.17-1.2-1.5-.57-.33-1.24-.5-2.03-.5-.7,0-1.3,.14-1.8,.43-.5,.27-.75,.66-.75,1.18,0,.28,.12,.52,.35,.73,.25,.2,.7,.39,1.35,.57l1.38,.35c.82,.17,1.53,.35,2.15,.55,1.12,.35,1.97,.78,2.57,1.3,.62,.52,.93,1.24,.93,2.18,0,.7-.21,1.37-.62,2-.4,.63-1.04,1.16-1.93,1.58-.87,.4-1.96,.6-3.28,.6h0Z"></path><path class="b" d="M101.45,4.12c-.48,0-.86,.14-1.12,.43-.27,.27-.4,.74-.4,1.43v1.43h2.67v2.1h-2.67v11h-2.68V9.5h-2.22v-2.1h2.22v-1.67c0-1.03,.24-1.96,.72-2.78,.5-.83,1.46-1.25,2.87-1.25,.52,0,1.12,.08,1.8,.23v2.35c-.53-.1-.93-.15-1.2-.15h0Z"></path><path class="b" d="M105.47,14.62c.12,1.13,.47,2.07,1.07,2.8,.6,.73,1.47,1.1,2.6,1.1,.87,0,1.54-.17,2.03-.52,.48-.35,.92-.95,1.3-1.8l2.5,.8c-.42,1.12-1.1,2.03-2.05,2.75-.95,.72-2.21,1.08-3.78,1.08s-2.89-.38-3.82-1.12c-.93-.77-1.58-1.67-1.95-2.7-.35-1.05-.53-2.07-.53-3.05s.18-1.99,.53-3.03c.37-1.05,1.02-1.95,1.95-2.7,.93-.77,2.21-1.15,3.82-1.15s2.89,.38,3.82,1.15c.95,.75,1.6,1.65,1.95,2.7,.37,1.03,.55,2.04,.55,3.02,0,.28,0,.51-.03,.68h-9.97Zm3.68-5.25c-1,0-1.8,.29-2.4,.88-.58,.58-.97,1.34-1.15,2.27h7.12c-.18-.93-.57-1.69-1.18-2.27-.58-.58-1.38-.88-2.4-.88Z"></path><path class="b" d="M120.02,9.65c1.07-1.63,2.57-2.45,4.53-2.45v2.8c-.27-.03-.47-.05-.6-.05-.57,0-1.14,.12-1.72,.38-.57,.25-1.06,.61-1.47,1.07-.4,.47-.64,.99-.72,1.57v7.53h-2.68V7.4h2.68v2.25Z"></path><path class="b" d="M20.14,3.46C17.92,1.24,14.92,0,11.79,0h0c-1.55,0-3.08,.31-4.51,.9-1.43,.59-2.73,1.46-3.83,2.56-1.1,1.1-1.96,2.4-2.56,3.83S0,10.25,0,11.8v8.76H23.59V11.8c0-3.13-1.24-6.13-3.46-8.34Zm-8.34,12.55c-5.62,0-10.17-1.43-10.17-3.27s4.55-3.27,10.17-3.27,10.17,1.46,10.17,3.27-4.55,3.27-10.17,3.27h0Z"></path></svg>