<svg xmlns="http://www.w3.org/2000/svg" width="195" height="114" viewBox="0 0 195 114" fill="none"><path d="M192.492 111.738C163.333 108.25 164.998 94.4242 135.932 90.9677C106.867 87.5113 105.107 101.337 75.9786 97.8491C46.8502 94.3613 48.4527 80.567 19.4185 77.1105L2.63916 2.10547C31.799 5.56192 30.1336 19.3877 59.1992 22.8442C88.2648 26.3006 89.9931 12.5063 119.153 15.9627C148.313 19.4192 146.679 33.2764 175.713 36.7329L192.492 111.738Z" fill="#E6E6E6" stroke="black" stroke-width="1.8388" stroke-miterlimit="10"></path><path d="M122.915 54.9645C123.149 49.3467 111.826 44.314 97.6256 43.7238C83.4249 43.1336 71.7237 47.2093 71.4902 52.8271C71.2567 58.445 82.5793 63.4776 96.78 64.0678C110.981 64.6581 122.682 60.5824 122.915 54.9645Z" fill="#E6E6E6" stroke="black" stroke-width="1.8388" stroke-miterlimit="10"></path></svg>