<svg xmlns="http://www.w3.org/2000/svg" id="a" width="724.893" height="743.1178" viewBox="0 0 724.893 743.1178"><defs><style>.b{fill:none;}.c{fill:#d5e100;}.c,.d,.e{stroke:#000;stroke-miterlimit:10;stroke-width:1.3px;}.d{fill:#fff;}</style></defs><g><path class="d" d="M264.424,455.8426c2.3238,2.216,4.4349,4.6532,6.2994,7.2777"></path><g><path class="e" d="M546.2496,457.1757c10.2564,5.0649,12.343,7.7195,23.761,8.4101l-8.225-28.7866c-11.418-.6906-11.0906-6.1033-22.5085-6.7939-11.4164-.6905-11.7438,4.7223-23.1602,4.0318-11.4158-.6905-11.0884-6.1032-22.5043-6.7937l8.2796,29.692s9.6907,4.3093,20.2452-.1156c14.8564-6.2284,19.9214-1.7136,24.1122,.3559Z"></path><ellipse class="e" cx="527.1971" cy="445.1116" rx="10.0267" ry="3.9661" transform="translate(-32.6553 41.842) rotate(-4.4086)"></ellipse></g><g><path class="c" d="M449.3023,681.5915c-11.4388,0-11.4388-5.4226-22.8776-5.4226s-11.4373,5.4226-22.8745,5.4226-11.4367-5.4226-22.8734-5.4226l-9.948-28.2376c11.4367,0,11.4367,5.4226,22.8734,5.4226s11.4373-5.4226,22.8745-5.4226,11.4388,5.4226,22.8776,5.4226l9.948,28.2376Z"></path><ellipse class="c" cx="409.7196" cy="663.5483" rx="10.0267" ry="3.9661" transform="translate(-49.7939 33.458) rotate(-4.4086)"></ellipse></g><g><path class="c" d="M311.3046,284.5107c-11.4388,0-11.4388-5.4226-22.8776-5.4226s-11.4373,5.4226-22.8745,5.4226-11.4367-5.4226-22.8734-5.4226l-9.948-28.2376c11.4367,0,11.4367,5.4226,22.8734,5.4226s11.4373-5.4226,22.8745-5.4226,11.4388,5.4226,22.8776,5.4226l9.948,28.2376Z"></path><ellipse class="c" cx="271.7219" cy="266.4675" rx="10.0267" ry="3.9661" transform="translate(-19.6791 21.6754) rotate(-4.4086)"></ellipse></g><g><path class="c" d="M297.0086,590.8155c-11.4388,0-11.4388-5.4226-22.8776-5.4226s-11.4373,5.4226-22.8745,5.4226-11.4367-5.4226-22.8734-5.4226l-9.948-28.2376c11.4367,0,11.4367,5.4226,22.8734,5.4226s11.4373-5.4226,22.8745-5.4226,11.4388,5.4226,22.8776,5.4226l9.948,28.2376Z"></path><ellipse class="c" cx="257.4259" cy="572.7723" rx="10.0267" ry="3.9661" transform="translate(-43.2667 21.4827) rotate(-4.4086)"></ellipse></g><g><path class="c" d="M555.6771,452.1767c-11.4388,0-11.4388-5.4226-22.8776-5.4226s-11.4373,5.4226-22.8745,5.4226-11.4367-5.4226-22.8734-5.4226l-9.948-28.2376c11.4367,0,11.4367,5.4226,22.8734,5.4226s11.4373-5.4226,22.8745-5.4226,11.4388,5.4226,22.8776,5.4226l9.948,28.2376Z"></path><ellipse class="c" cx="516.0944" cy="434.1335" rx="10.0267" ry="3.9661" transform="translate(-31.8443 40.9561) rotate(-4.4086)"></ellipse></g><g><path class="c" d="M382.1609,464.5749c-27.3531,0-27.3531-12.9669-54.7062-12.9669s-27.3493,12.9669-54.6987,12.9669-27.348-12.9669-54.696-12.9669l-23.788-67.5231c27.348,0,27.348,12.9669,54.696,12.9669s27.3493-12.9669,54.6987-12.9669,27.3531,12.9669,54.7062,12.9669l23.788,67.5231Z"></path><ellipse class="c" cx="287.5088" cy="421.4292" rx="23.9763" ry="9.484" transform="translate(-31.5441 23.3474) rotate(-4.4086)"></ellipse></g></g><rect class="b" width="724.893" height="743.1178"></rect></svg>