<svg xmlns="http://www.w3.org/2000/svg" xmlns:xlink="http://www.w3.org/1999/xlink" width="724.893" height="747.055" viewBox="0 0 724.893 747.055"><defs><style>      .uuid-a8650d4a-34a6-4b13-998c-643914b24bfb, .uuid-bc2c7401-1564-4920-a1de-99a89495d9f6, .uuid-08017190-b207-4985-99d3-51fc967ac68b {        fill: none;      }      .uuid-bc2c7401-1564-4920-a1de-99a89495d9f6, .uuid-08017190-b207-4985-99d3-51fc967ac68b, .uuid-ce7ccfc7-6f3a-4bff-8cc2-eea33cb1aa9e, .uuid-32b90074-062b-4a83-a14b-4236ffd8089e, .uuid-924b0848-97fd-46c0-9fd2-ee0f9321a5ba, .uuid-e21da159-aaf3-4c82-b60f-91c6b965983a, .uuid-1a00abb8-8531-47e7-85f9-3a77767d6f56, .uuid-c7ef6e82-a63b-4a11-b2fd-d6af54eb70d8, .uuid-365cee87-cb63-4137-b8d2-5cb163f04551, .uuid-591b1a03-dea3-41aa-b802-87dac7667a34 {        stroke: #000;        stroke-width: 1.3px;      }      .uuid-bc2c7401-1564-4920-a1de-99a89495d9f6, .uuid-c7ef6e82-a63b-4a11-b2fd-d6af54eb70d8, .uuid-365cee87-cb63-4137-b8d2-5cb163f04551 {        stroke-linejoin: round;      }      .uuid-08017190-b207-4985-99d3-51fc967ac68b, .uuid-ce7ccfc7-6f3a-4bff-8cc2-eea33cb1aa9e, .uuid-32b90074-062b-4a83-a14b-4236ffd8089e, .uuid-924b0848-97fd-46c0-9fd2-ee0f9321a5ba, .uuid-e21da159-aaf3-4c82-b60f-91c6b965983a, .uuid-1a00abb8-8531-47e7-85f9-3a77767d6f56, .uuid-591b1a03-dea3-41aa-b802-87dac7667a34 {        stroke-miterlimit: 10;      }      .uuid-abbd06c1-637c-4bc2-a7a7-6319719663db {        clip-path: url(#uuid-8380a50a-102f-4a81-9ba1-621dc366894c);      }      .uuid-cc97d5f6-0cf0-48eb-a8f0-a9fedcc94b3e {        clip-path: url(#uuid-f012bbbd-1784-498c-88a8-3b8b38f0b3d1);      }      .uuid-c1d9f2e0-7be7-4e22-aae9-b3886678a090 {        clip-path: url(#uuid-26a57dd0-38ba-4cdb-998f-9ec6c395427b);      }      .uuid-ce7ccfc7-6f3a-4bff-8cc2-eea33cb1aa9e {        fill: #1488ff;      }      .uuid-32b90074-062b-4a83-a14b-4236ffd8089e, .uuid-c7ef6e82-a63b-4a11-b2fd-d6af54eb70d8 {        fill: #fff;      }      .uuid-924b0848-97fd-46c0-9fd2-ee0f9321a5ba {        fill: #fcf2f1;      }      .uuid-e21da159-aaf3-4c82-b60f-91c6b965983a {        fill: #fca7fd;      }      .uuid-1a00abb8-8531-47e7-85f9-3a77767d6f56 {        fill: #e5e5e5;      }      .uuid-ce8a8907-cab0-4e08-8334-e0d982619403 {        clip-path: url(#uuid-935e89d5-2952-4ee2-aba5-c9cf5115d002);      }      .uuid-48c1692c-bc7d-464e-b138-0b41a8d50996 {        clip-path: url(#uuid-397ee332-0965-46f0-bc82-ed311c0723c2);      }      .uuid-5ba9f7be-0f4f-4935-bd2d-d7524b7a5d3a {        isolation: isolate;      }      .uuid-8bf3c021-22ea-4db8-a356-31f3cfe251c7 {        clip-path: url(#uuid-07d56dbf-1300-4f6c-b82c-fb6453f322f7);      }      .uuid-80043aa9-5cec-40a7-82c9-e5fc5373a4c2 {        clip-path: url(#uuid-dd867071-bb08-4205-a72f-f150bc4e475f);      }    </style><clipPath id="uuid-dd867071-bb08-4205-a72f-f150bc4e475f"><path d="M245.3993,646.6355c1.0971,12.918-8.4857,23.39-21.4037,23.39H63.4505c-12.9176,0-24.2792-10.4719-25.3763-23.39L8.541,298.8603l65.218-77.1374,41.245,32.4659" style="fill: none;"></path></clipPath><clipPath id="uuid-f012bbbd-1784-498c-88a8-3b8b38f0b3d1"><path d="M182.504,653.5163l-5.529,7.2681c-1.3254-2.8893-3.3671-4.5928-6.1163-5.1116l5.529-7.2681c2.7492,.5189,4.7909,2.2223,6.1163,5.1116Z" style="fill: none;"></path></clipPath><clipPath id="uuid-26a57dd0-38ba-4cdb-998f-9ec6c395427b"><path d="M162.7724,657.7801l5.529-7.268c.5931-.7796,1.4942-1.3715,2.6909-1.7796l-5.529,7.2681c-1.1967,.4081-2.0978,1-2.6909,1.7796Z" style="fill: none;"></path></clipPath><clipPath id="uuid-07d56dbf-1300-4f6c-b82c-fb6453f322f7"><path d="M191.9677,682.2209l-5.529,7.2681c.6072-1.1613,.6476-2.5027,.1296-4.0258-.4802-1.4122-1.3213-2.5042-2.5284-3.267-1.2015-.7724-2.7934-1.3648-4.7631-1.769l5.529-7.2681c1.9697,.4042,3.5616,.9966,4.7631,1.769,1.2071,.7628,2.0481,1.8548,2.5284,3.267,.518,1.5231,.4775,2.8645-.1296,4.0258Z" style="fill: none;"></path></clipPath><clipPath id="uuid-8380a50a-102f-4a81-9ba1-621dc366894c"><path d="M191.5586,682.8687l-5.529,7.2681c.1545-.2031,.2909-.419,.4091-.6478l5.529-7.2681c-.1182,.2288-.2546,.4447-.4091,.6478Z" style="fill: none;"></path></clipPath><clipPath id="uuid-935e89d5-2952-4ee2-aba5-c9cf5115d002"><path d="M179.0234,672.3486l-5.529,7.2681c-4.6313-.4786-8.3866-1.0627-11.2889-1.7396-2.8906-.6697-5.678-2.0169-8.3731-4.023-2.6897-2.0161-4.6992-5.0058-6.0464-8.9675-1.6819-4.9459-1.1857-9.1667,1.4862-12.6713l5.529-7.2681c-2.6719,3.5046-3.1682,7.7254-1.4862,12.6713,1.3473,3.9617,3.3567,6.9514,6.0464,8.9675,2.6951,2.0061,5.4826,3.3533,8.3731,4.023,2.9023,.6768,6.6576,1.261,11.2889,1.7396Z" style="fill: none;"></path></clipPath><clipPath id="uuid-397ee332-0965-46f0-bc82-ed311c0723c2"><path d="M204.8957,688.7447l-5.529,7.2681c-.7164,.9418-1.5814,1.8245-2.5961,2.6483-2.4856,2.0348-5.7786,3.4208-9.8757,4.1673l5.529-7.268c4.0972-.7466,7.3901-2.1326,9.8757-4.1673,1.0147-.8239,1.8797-1.7066,2.5961-2.6484Z" style="fill: none;"></path></clipPath></defs><g id="uuid-c63931d4-3d66-44a3-88b2-fe077e6ce72f" data-name="Layer 1"></g><g id="uuid-36829c81-bfd9-42d7-933a-91f8ebcd1de1" data-name="Layer 2"><g id="uuid-084c7527-d1e0-4d5f-b163-1f4dbed5dc43" data-name="Layer 1"><g><g><g><path d="M6.9177,255.7783l-4.5524-26.7284c2.6963-.4589,3.4271-.9064,5.3803-2.1032,3.0132-1.8446,7.1393-4.3715,14.9855-5.7086,7.8506-1.3345,12.5778-.3177,16.0323,.4245,2.24,.4828,3.0785,.6628,5.773,.203,2.6963-.4589,3.4262-.9064,5.3785-2.1023,3.0132-1.8446,7.1402-4.3724,14.9864-5.7086s12.576-.3186,16.0305,.4254c2.2374,.4828,3.0749,.6637,5.7695,.203l4.5542,26.7284c-7.8436,1.3354-12.576,.3195-16.0314-.4254-2.2365-.4819-3.0723-.6619-5.7695-.203-2.6963,.4589-3.4262,.9064-5.3785,2.1023-3.0132,1.8446-7.1402,4.3724-14.9864,5.7086-7.8462,1.3389-12.5752,.3186-16.0305-.4245-2.24-.4819-3.0785-.6611-5.7748-.203-2.6954,.4589-3.4262,.9064-5.3794,2.1023-3.0132,1.8455-7.1402,4.3724-14.9873,5.7095Z"></path><path d="M4.5542,242.0823L0,215.3539c2.6963-.4589,3.4271-.9064,5.3803-2.1032,3.0132-1.8455,7.1402-4.3724,14.9864-5.7095,7.848-1.3371,12.5787-.3195,16.0331,.4254,2.2383,.4828,3.0749,.6637,5.773,.203,2.6945-.4589,3.4253-.9064,5.3776-2.1023,3.0132-1.8455,7.1393-4.3724,14.9855-5.7095,7.8454-1.3345,12.5769-.3177,16.0314,.4254,2.2374,.4828,3.0741,.6628,5.7695,.203l4.5542,26.7284c-7.8436,1.3362-12.576,.3195-16.0314-.4254-2.2365-.481-3.0732-.6611-5.7695-.203-2.6954,.4589-3.4262,.9064-5.3785,2.1023-3.0132,1.8455-7.1393,4.3724-14.9855,5.7095-7.8489,1.3345-12.5796,.3177-16.0331-.4254-2.2391-.4819-3.0767-.6611-5.773-.203-2.6954,.4589-3.4262,.9064-5.3794,2.1032-3.0132,1.8455-7.1402,4.3724-14.9864,5.7095Z"></path></g><circle cx="230.7621" cy="472.3781" r="56.7535" style="fill: #fff; stroke: #000; stroke-miterlimit: 10; stroke-width: 1.3px;"></circle><path d="M280.2647,480.1393c-1.4872,9.4788-5.6759,18.2587-11.8995,25.3394" style="fill: #fff; stroke: #000; stroke-miterlimit: 10; stroke-width: 1.3px;"></path><path d="M264.424,457.8112c2.3238,2.216,4.4349,4.6532,6.2994,7.2777" style="fill: #fff; stroke: #000; stroke-miterlimit: 10; stroke-width: 1.3px;"></path><path d="M179.7645,494.0687c0-27.666,22.4277-50.0938,50.0938-50.0938,10.3256,0,19.9215,3.1241,27.8942,8.4786" style="fill: #fff; stroke: #000; stroke-miterlimit: 10; stroke-width: 1.3px;"></path><g><g><polygon points="214.7016 455.4122 209.2979 452.5316 199.8202 456.2474 205.2242 459.1276 214.7016 455.4122" style="stroke: #000; stroke-linejoin: round; stroke-width: 1.3px;"></polygon><path d="M216.6238,475.8002c.166,.0873,.3294,.1636,.4913,.229,.121,.0488,.2406,.0914,.3591,.128,.0998,.0306,.1984,.0571,.2962,.0791,.0869,.0197,.173,.0355,.2591,.0482,.0786,.0117,.1564,.0204,.234,.0262,.074,.0055,.1473,.0086,.2199,.0086,.0705,.0002,.1404-.0019,.21-.0069,.0693-.0046,.1376-.0119,.2056-.0213,.0683-.0098,.1365-.0217,.2039-.036,.0695-.0152,.1384-.0329,.207-.0533,.0717-.0212,.1427-.0447,.2134-.0718l.0268-.0104,9.4781-3.7155-.0268,.0104c-.0711,.0268-.142,.051-.2137,.0722-.0686,.0204-.1378,.0378-.207,.0526-.0678,.0147-.1355,.0269-.2043,.0364-.0676,.0097-.1363,.0167-.2052,.0216-.0693,.0046-.1392,.0068-.2097,.0065-.073-.0003-.1463-.0027-.2199-.0086-.0775-.0058-.1561-.0144-.2347-.0261-.0854-.0127-.1719-.0289-.2588-.0486-.0981-.0216-.1967-.0481-.2965-.0787-.1179-.0367-.2378-.0796-.3588-.1284-.1614-.0652-.3252-.1417-.4913-.229l-.0286-.0152c-.3342-.1776-.6439-.3738-.9286-.5871-.261-.195-.5015-.4054-.7216-.6301-.1837-.1881-.3533-.3859-.5089-.5948-.0875-.117-.1701-.2371-.2485-.3608-.0625-.0989-.1223-.1996-.1792-.3023-.0502-.0904-.0981-.1828-.1437-.2765-.0169-.0339-.0328-.0682-.0487-.1026-.0334-.0707-.0655-.1415-.0962-.2131-.0432-.1007-.0844-.2024-.1231-.3047-.0086-.0228-.0158-.0457-.0243-.0685l1.7192,.9168,9.4777-3.7158-9.5648-5.0979,4.7053-1.8446,2.9099-14.0785c-.1998-.0881-.398-.1718-.5951-.2514-.4999-.2022-.9916-.378-1.4743-.5269-.3953-.1218-.7846-.2255-1.1681-.3118-.3337-.0752-.663-.1368-.9876-.1843-.2907-.0428-.5778-.0751-.8615-.0964-.2651-.0199-.5274-.0305-.7865-.0308-.2453-.0008-.4878,.0069-.7276,.0232-.2328,.0155-.4629,.0395-.6903,.0714-.2253,.0317-.4473,.0711-.6673,.1185-.221,.0478-.4398,.1032-.6559,.1671-.2219,.0656-.4407,.1394-.6571,.2222-.0269,.0097-.0537,.0202-.0801,.031l-9.4778,3.7151,.0801-.031c.2161-.0824,.4352-.1565,.6575-.2219,.2157-.0635,.4344-.1196,.6559-.1671,.2193-.0473,.442-.0868,.6666-.1184,.2274-.0319,.4579-.0556,.691-.0715,.2394-.0166,.482-.0243,.7273-.0235,.2591,.001,.5211,.0113,.7869,.0311,.2833,.021,.5704,.0533,.8611,.0961,.3247,.0483,.654,.1098,.9876,.1843,.3835,.0863,.7729,.1907,1.1682,.3125,.4826,.1489,.9739,.3244,1.4746,.5265,.1971,.0796,.3953,.1633,.5947,.2511l-2.5377,12.2801-3.961,1.5524c-.7466,.2928-1.3758,.8527-1.8882,1.6798l4.5535,2.4267-5.9077,2.3157c-.0093,.2009-.0134,.3983-.0124,.5935,.001,.1824,.0066,.3621,.0169,.5391,.0092,.1545,.0213,.3069,.0375,.4575,.0142,.1362,.0315,.2711,.0518,.4045,.0184,.123,.0398,.2446,.0633,.3653,.0228,.1144,.0471,.2275,.0742,.3396,.0259,.108,.0539,.215,.0839,.3212,.0301,.1043,.0615,.2071,.0953,.3093,.0339,.1028,.0697,.2041,.1078,.304,.0388,.103,.0796,.2044,.1231,.3047,.0307,.0717,.0628,.1432,.0959,.2135,.0159,.0344,.0321,.0683,.0487,.1026,.0456,.0937,.0938,.1858,.1437,.2765,.0573,.1031,.1171,.2037,.1795,.3019,.0784,.1237,.1613,.2441,.2489,.3611,.1552,.2086,.3249,.4072,.5089,.5948,.2194,.2248,.4601,.4348,.7209,.6302,.2851,.2136,.5947,.4091,.9286,.5871l.029,.0155Z" style="stroke: #000; stroke-linejoin: round; stroke-width: 1.3px;"></path><path d="M238.185,486.8475c.152,.0347,.3018,.0625,.4488,.0843,.1304,.0194,.2596,.0339,.3858,.0435,.1161,.0086,.2304,.0131,.3427,.0136,.1056,.0002,.2094-.0029,.3121-.0095,.0981-.0071,.1951-.0169,.2904-.0301,.0935-.0133,.1848-.0296,.2755-.049,.09-.0193,.1784-.0423,.2656-.0677,.0885-.0262,.1755-.0555,.2608-.0881l.0323-.0125,9.4778-3.7151-.0323,.0125c-.0857,.0323-.1727,.0615-.2608,.0881-.0871,.0254-.176,.0481-.2657,.067-.0903,.0197-.1823,.036-.2755,.049-.0956,.0136-.1922,.0237-.2904,.0301-.1023,.0069-.2065,.0104-.3118,.0098-.1127-.0001-.2269-.0047-.3427-.0136-.1268-.0095-.2556-.0238-.3865-.0434-.147-.0218-.2965-.05-.4488-.0843-.1788-.0402-.3615-.0891-.5479-.1469-.2334-.0716-.4722-.1571-.7168-.2562l-.0122-.0047-9.4778,3.7151,.0119,.005c.2449,.0987,.4841,.1845,.7172,.2565,.1861,.0574,.3687,.1064,.5483,.1465Z" style="stroke: #000; stroke-linejoin: round; stroke-width: 1.3px;"></path><path d="M252.4009,454.6727c-.0347-.0188-.0701-.0375-.1051-.0559-.581-.3058-1.1456-.5691-1.6938-.7907-.3882-.157-.7677-.293-1.1395-.4075-.2995-.0925-.5939-.1708-.8828-.2358-.2479-.0558-.4918-.1014-.7318-.1369-.2147-.0319-.4265-.0556-.6351-.0712-.1912-.0143-.3801-.0218-.5662-.0226-.1761-.0004-.3499,.0049-.5211,.0167-.1652,.0115-.3281,.028-.4893,.051-.1577,.0219-.3133,.0493-.4669,.0829-.1536,.0328-.3052,.0718-.4547,.1155-.1512,.045-.3001,.095-.4465,.1507l-.0398,.0147c-.0394,.0151-.0784,.0304-.1175,.0458l-9.4778,3.7151c.039-.0154,.0781-.03,.1175-.0451l.0394-.0151c.1472-.0558,.2956-.1062,.4469-.1504,.1495-.0444,.3011-.0827,.4547-.1162,.1536-.0328,.3096-.0606,.4669-.0829,.1612-.0223,.324-.0395,.4896-.0507,.1709-.0114,.345-.0171,.5208-.0163,.1864,.0003,.375,.0075,.5666,.0222,.2083,.0153,.42,.039,.6347,.0709,.2399,.0354,.4843,.0814,.7322,.1372,.2886,.0647,.583,.1436,.8825,.2362,.3718,.1145,.7516,.2501,1.1398,.4071,.5482,.2216,1.1124,.4853,1.6931,.7908l.1058,.0558c.7281,.3881,1.4263,.8321,2.0942,1.3315,.7069,.528,1.3798,1.1186,2.0186,1.7719,.6047,.6178,1.1792,1.2917,1.7235,2.0218,.1628,.2191,.3236,.4431,.4811,.672,.1481,.2151,.2924,.4335,.4332,.6554,.2273,.3586,.4454,.7263,.6538,1.103,.1861,.3359,.3642,.6787,.535,1.0291,.1597,.3275,.313,.6615,.4592,1.0011,.1424,.3309,.2787,.6678,.4085,1.0104,.129,.3413,.2518,.6878,.3686,1.0404,.1181,.3581,.2299,.7225,.3352,1.0927,.1096,.3831,.2114,.7728,.3066,1.1692,.0844,.3516,.1631,.708,.2366,1.0701,.0126,.0617,.0252,.1233,.0374,.1847,.0767,.39,.1449,.7827,.2048,1.1778,.0623,.4104,.1154,.8236,.1593,1.2396,.0027,.0238,.0036,.0481,.0059,.0716l-9.1937-4.9004c.8721-1.3567,1.7598-2.2652,2.6692-2.7141,.0769-.038,.1544-.073,.2329-.1034l-9.4778,3.7151c-.0784,.0311-.156,.0653-.2328,.1041-.9095,.4489-1.7972,1.3567-2.6696,2.7138l3.6219,1.9303-5.9077,2.3157c-1.7166,3.5249-3.2452,6.2557-4.5863,8.188-1.267,1.8443-2.9444,3.1635-5.0218,3.978l9.4774-3.7154c2.0778-.8142,3.7552-2.1334,5.0221-3.9784,.9898-1.4259,2.0824-3.2896,3.2763-5.5835l3.5865,1.9116,9.2236-3.6154c.0325,.3464,.0647,.6932,.0849,1.0439,.0294,.5083,.0458,1.021,.0489,1.5376,.0034,.6023-.0113,1.2098-.0435,1.8232-.0403,.7617-.108,1.5321-.2038,2.3107-.0664,.5389-.1454,1.0817-.2382,1.6289l4.8282,2.5734-5.9077,2.3157c-1.5304,5.2225-3.8466,8.8593-6.9599,10.8973-.5699,.3747-1.1591,.681-1.7666,.9192l9.4781-3.7155c.6072-.2378,1.196-.5445,1.7666-.9192,1.716-1.1233,3.1807-2.7506,4.4141-4.8434l8.0112-3.1406,1.0173-4.9222-5.404-2.8801c.0927-.5472,.1725-1.0901,.2389-1.629,.0951-.7785,.1635-1.549,.2034-2.311,.0325-.6131,.0469-1.2209,.0435-1.8232-.0034-.5162-.0191-1.0289-.0485-1.5372-.0265-.4569-.0636-.9109-.1113-1.3612-.0442-.4163-.0973-.8295-.1594-1.2403-.0599-.3951-.1284-.7874-.2047-1.1771-.0123-.062-.0249-.1237-.0371-.185-.0736-.362-.1526-.7188-.237-1.0704-.0951-.3957-.1973-.7857-.3062-1.1689-.1053-.3701-.2174-.7342-.3359-1.0926-.1164-.3522-.2393-.6995-.3683-1.0401-.1299-.3426-.2658-.6799-.4085-1.0104-.1463-.3404-.2992-.674-.4589-1.0015-.1711-.35-.3495-.6932-.535-1.0291-.2088-.3769-.4265-.7444-.6542-1.1033-.1407-.2213-.2853-.4399-.4328-.6551-.1582-.2289-.3183-.4529-.4814-.6716-.5443-.7301-1.1188-1.404-1.7232-2.0222-.6395-.6532-1.3123-1.2438-2.019-1.7722-.6679-.4994-1.3661-.9426-2.0945-1.3311Z" style="stroke: #000; stroke-linejoin: round; stroke-width: 1.3px;"></path></g><g style="isolation: isolate;"><path d="M229.0281,472.4042l-9.4777,3.7154c-.8961,.3513-1.879,.2389-2.9554-.3348-1.2902-.6877-2.2139-1.6387-2.7793-2.8544-.5669-1.2083-.8104-2.5944-.7372-4.1521l9.4777-3.7154c-.0732,1.5577,.1703,2.9437,.7372,4.1521,.5654,1.2156,1.4891,2.1667,2.7793,2.8544,1.0764,.5737,2.0593,.6861,2.9554,.3348Z" style="stroke: #000; stroke-linejoin: round; stroke-width: 1.3px;"></path><path d="M216.3209,462.3564l9.4777-3.7154c-.7466,.2927-1.376,.8526-1.8883,1.6793l-9.4777,3.7154c.5123-.8267,1.1417-1.3866,1.8883-1.6793Z" style="stroke: #000; stroke-linejoin: round; stroke-width: 1.3px;"></path><path d="M232.2967,487.5419l-9.4777,3.7154c2.0777-.8145,3.7551-2.1337,5.0221-3.9782,1.3411-1.9323,2.8697-4.6627,4.5864-8.1877l9.4777-3.7154c-1.7167,3.5249-3.2453,6.2554-4.5864,8.1877-1.267,1.8445-2.9444,3.1637-5.0221,3.9782Z" style="stroke: #000; stroke-linejoin: round; stroke-width: 1.3px;"></path><path d="M213.4679,447.7554l9.4777-3.7154c2.6804-1.0507,5.8007-.7939,9.3517,.7683l-9.4777,3.7154c-3.551-1.5623-6.6714-1.8191-9.3517-.7684Z" style="stroke: #000; stroke-linejoin: round; stroke-width: 1.3px;"></path><path d="M250.2768,483.0168l-9.4777,3.7154c-1.077,.4222-2.3732,.3232-3.8912-.2925l9.4777-3.7154c1.5181,.6157,2.8143,.7146,3.8913,.2925Z" style="stroke: #000; stroke-linejoin: round; stroke-width: 1.3px;"></path><path d="M237.6157,472.0275l9.4777-3.7154c-.0785,.0308-.1562,.0654-.2329,.1038-.9095,.449-1.7971,1.3569-2.6694,2.7141l-9.4777,3.7154c.8722-1.3571,1.7599-2.2651,2.6693-2.7141,.0768-.0384,.1544-.0731,.2329-.1038Z" style="stroke: #000; stroke-linejoin: round; stroke-width: 1.3px;"></path><path d="M234.633,457.1447l9.4777-3.7154c.0521-.0204,.1045-.0406,.1572-.0604l-9.4777,3.7154c-.0527,.0199-.105,.04-.1572,.0604Z" style="stroke: #000; stroke-linejoin: round; stroke-width: 1.3px;"></path><path d="M252.7254,497.6108l-9.4777,3.7154c.6074-.2381,1.1962-.5445,1.7666-.9191,3.113-2.0383,5.4291-5.675,6.9597-10.8974l9.4777-3.7154c-1.5306,5.2225-3.8467,8.8591-6.9597,10.8974-.5704,.3746-1.1592,.681-1.7666,.9191Z" style="stroke: #000; stroke-linejoin: round; stroke-width: 1.3px;"></path><g><path d="M234.7902,457.0843l9.4777-3.7154c2.221-.8441,4.93-.4036,8.1333,1.3037,2.4462,1.3038,4.5521,3.2335,6.3176,5.7972,1.7652,2.5651,3.016,5.6195,3.7368,9.1712,.7226,3.5429,.7477,7.2976,.0755,11.2641l-9.4777,3.7154c.6722-3.9666,.6471-7.7213-.0755-11.2642-.7208-3.5516-1.9716-6.6061-3.7368-9.1712-1.7655-2.5636-3.8715-4.4934-6.3176-5.7972-3.2033-1.7074-5.9122-2.1478-8.1333-1.3037Z"></path><path d="M234.7902,457.0843l9.4777-3.7154c2.221-.8441,4.93-.4036,8.1333,1.3037,2.4462,1.3038,4.5521,3.2335,6.3176,5.7972,1.7652,2.5651,3.016,5.6195,3.7368,9.1712,.7226,3.5429,.7477,7.2976,.0755,11.2641l-9.4777,3.7154c.6722-3.9666,.6471-7.7213-.0755-11.2642-.7208-3.5516-1.9716-6.6061-3.7368-9.1712-1.7655-2.5636-3.8715-4.4934-6.3176-5.7972-3.2033-1.7074-5.9122-2.1478-8.1333-1.3037Z" style="fill: none; stroke: #000; stroke-linejoin: round; stroke-width: 1.3px;"></path></g><path d="M234.7902,457.0843c2.221-.8441,4.93-.4036,8.1333,1.3037,2.4462,1.3038,4.5521,3.2335,6.3176,5.7972,1.7652,2.5651,3.016,5.6195,3.7368,9.1712,.7226,3.5429,.7477,7.2976,.0755,11.2641l5.4038,2.8802-1.0173,4.9222-5.4659-2.9133c-1.5306,5.2225-3.8467,8.8592-6.9597,10.8974-3.1145,2.0456-6.7811,2.056-10.9997,.0312l2.8932-13.9986c2.7351,1.1093,4.7501,.5412,6.0602-1.7302l-10.5405-5.6181c-1.7167,3.525-3.2453,6.2554-4.5864,8.1877-1.335,1.9436-3.1258,3.304-5.3605,4.1051-2.2419,.7957-4.9775,.3345-8.2302-1.3992-4.044-2.1555-6.9378-5.6188-8.6678-10.381-1.7236-4.7589-2.1848-9.9472-1.3759-15.5543l-5.4038-2.8802,1.0173-4.9222,5.4038,2.8802c1.4697-5.1933,3.7096-8.7263,6.711-10.5988,3.0005-1.8746,6.634-1.875,10.8846-.005l-2.9098,14.0789c-2.4605-.9694-4.2857-.4898-5.4773,1.433l10.3367,5.5095c1.9018-3.7067,3.4931-6.5091,4.7746-8.384,1.2767-1.8856,3.0268-3.24,5.2464-4.0768Zm8.5486,18.3026c-.663-1.3487-1.6155-2.3508-2.8551-3.0115-1.156-.6161-2.19-.7004-3.1009-.2441-.9095,.449-1.7971,1.3569-2.6694,2.7141l9.4681,5.0465c.0997-1.6522-.1798-3.1563-.8428-4.505m-20.9808-1.6626l-9.2795-4.946c-.0732,1.5577,.1703,2.9437,.7372,4.1521,.5654,1.2156,1.4891,2.1667,2.7793,2.8544,1.1142,.5939,2.1282,.6934,3.0494,.2961,.9207-.3878,1.8221-1.1718,2.7135-2.3566Z" style="fill: #fff; stroke: #000; stroke-linejoin: round; stroke-width: 1.3px;"></path></g></g><g><path d="M61.5859,677.5054H227.1307c15.6813,0,27.3139-12.7122,25.9823-28.3935l-29.9364-352.5241c-1.3317-15.6813-15.1234-28.3935-30.8046-28.3935H26.8272c-15.6813,0-27.3139,12.7122-25.9823,28.3935l29.9364,352.5241c1.3317,15.6813,15.1234,28.3935,30.8046,28.3935Z" style="fill: #fff; stroke: #000; stroke-miterlimit: 10; stroke-width: 1.3px;"></path><path d="M86.1791,286.1722h49.8943c1.4776,0,2.5738-1.1979,2.4483-2.6755h0c-.1255-1.4776-1.4251-2.6755-2.9027-2.6755h-49.8943c-1.4776,0-2.5738,1.1979-2.4483,2.6755h0c.1255,1.4776,1.4251,2.6755,2.9027,2.6755Z" style="fill: #fff; stroke: #000; stroke-miterlimit: 10; stroke-width: 1.3px;"></path><path d="M63.4507,670.0257H223.9955c12.918,0,22.5008-10.4721,21.4038-23.3901l-29.5331-347.7751H8.5412l29.5331,347.7751c1.097,12.918,12.4584,23.3901,25.3764,23.3901Z" style="stroke: #000; stroke-miterlimit: 10; stroke-width: 1.3px;"></path></g><g><path d="M279.6463,104.9035l2.512-26.6569c.3786-4.0173,3.9752-7.3041,7.9924-7.3041h0c4.0173,0,6.9944,3.2869,6.6158,7.3041l-1.6202,17.1935" style="fill: #1488ff; stroke: #000; stroke-miterlimit: 10; stroke-width: 1.3px;"></path><g><g><path d="M263.1422,128.8448l4.593-52.4504c.4089-4.6692,4.2934-8.4895,8.6323-8.4895h.7643c4.3389,0,7.5544,3.8203,7.1455,8.4895l-3.5237,40.2386" style="stroke: #000; stroke-miterlimit: 10; stroke-width: 1.3px;"></path><path d="M276.8071,120.4191l4.4276-50.5611c.4089-4.6692,4.2934-8.4895,8.6323-8.4895h.7643c4.3389,0,7.5544,3.8203,7.1455,8.4895l-3.2949,45.1999" style="stroke: #000; stroke-miterlimit: 10; stroke-width: 1.3px;"></path><path d="M291.5416,120.4191l3.8552-44.0248c.4089-4.6692,4.2934-8.4895,8.6323-8.4895h.7643c4.3389,0,7.5544,3.8203,7.1455,8.4895l-3.4511,36.4422" style="stroke: #000; stroke-miterlimit: 10; stroke-width: 1.3px;"></path></g><path d="M300.4272,127.2027l4.5098-17.7224c1.3913-5.4677,6.2919-9.2626,11.6113-8.1558h0c4.9949,.982,7.9432,6.259,6.5519,11.7267l-12.1269,43.8203" style="stroke: #000; stroke-miterlimit: 10; stroke-width: 1.3px;"></path></g></g><path d="M28.7841,537.2362l69.2676-152.6661c7.1198-16.0089,25.8962-23.1807,41.8754-15.9946h0c15.8857,7.1441,23.0065,25.7868,15.9284,41.702l-118.1725,231.7512-8.899-104.7926Z" style="fill: #fca7fd; stroke: #000; stroke-miterlimit: 10; stroke-width: 1.3px;"></path><g><path d="M68.2507,410.7538l146.4507-73.0635c13.06-6.3862,28.792-3.0458,38.1311,8.0928,9.3408,11.1395,9.8868,27.2117,1.3231,38.9591l-171.9864,234.9999-51.1221-37.2683,96.843-131.9223-9.2473,4.8232c-10.7734,5.6192-22.4114,9.3-34.3836,10.9122-8.271,1.1138-16.6505-1.0646-23.3597-6.028h0c-11.2056-8.2899-15.7906-22.8576-11.3529-36.0709l16.5441-49.2606,105.712-23.8549,4.8469,5.6018" style="fill: #fca7fd; stroke: #000; stroke-miterlimit: 10; stroke-width: 1.3px;"></path><line x1="171.8027" y1="390.3145" x2="109.2965" y2="476.0571" style="fill: #fff; stroke: #000; stroke-miterlimit: 10; stroke-width: 1.3px;"></line></g><g><path d="M310.5345,155.6371c-1.3913,5.0809-8.424,8.4913-13.4189,7.5788h0l-128.1546,120.2809,16.3127,68.8749-82.3523,41.0852s-36.9711,18.754-59.8478,10.2206l.3507-.8541c5.4677-13.3152,9.239-27.2653,11.2251-41.5218l13.4392-96.4703,64.1554-15.1099,118.5606-111.9677,1.0073-10.6895,2.512-26.6569c.3786-4.0173,3.9752-7.3041,7.9924-7.3041h0c4.0173,0,6.9944,3.2869,6.6158,7.3041l-1.6202,17.1935,46.525-5.4117" style="fill: #fff; stroke: #000; stroke-miterlimit: 10; stroke-width: 1.3px;"></path><g><path d="M260.4309,128.59l4.593-48.7398c.4089-4.3389,4.2934-7.8889,8.6323-7.8889h.7643c4.3389,0,7.5544,3.55,7.1455,7.8889l-3.5237,37.3919" style="fill: #fff; stroke: #000; stroke-miterlimit: 10; stroke-width: 1.3px;"></path><path d="M274.0957,120.7605l4.4276-46.9841c.4089-4.3389,4.2934-7.8889,8.6323-7.8889h.7643c4.3389,0,7.5544,3.55,7.1455,7.8889l-3.2949,42.0023" style="fill: #fff; stroke: #000; stroke-miterlimit: 10; stroke-width: 1.3px;"></path><path d="M288.8303,120.7605l3.8552-40.9103c.4089-4.3389,4.2934-7.8889,8.6323-7.8889h.7643c4.3389,0,7.5544,3.55,7.1455,7.8889l-3.4511,33.8641" style="fill: #fff; stroke: #000; stroke-miterlimit: 10; stroke-width: 1.3px;"></path></g><path d="M297.7159,127.0641l4.5098-16.4686c1.3913-5.0809,6.2919-8.6073,11.6113-7.5788h0c4.9949,.9125,7.9432,5.8163,6.5519,10.8971l-9.8544,41.7232" style="fill: #fff; stroke: #000; stroke-miterlimit: 10; stroke-width: 1.3px;"></path></g><g><path d="M133.3842,263.13l-3.969-46.6768c-.5725-12.3738-10.3598-22.337-22.7213-23.1299h0c-14.8039-.9495-26.9972,11.4699-25.776,26.2538l2.8935,40.8641-15.4291,4.5237" style="fill: #fff; stroke: #000; stroke-miterlimit: 10; stroke-width: 1.3px;"></path><g><ellipse cx="115.3272" cy="218.8489" rx="20.3129" ry="6.9766" transform="translate(-36.3202 23.4052) rotate(-10.0204)" style="fill: #fff; stroke: #000; stroke-miterlimit: 10; stroke-width: 1.3px;"></ellipse><ellipse cx="127.965" cy="216.616" rx="6.8632" ry="5.4071" transform="translate(-35.739 25.5701) rotate(-10.0204)"></ellipse><line x1="110.1923" y1="207.3417" x2="111.065" y2="212.2809" style="fill: #fff; stroke: #000; stroke-miterlimit: 10; stroke-width: 1.3px;"></line><line x1="101.5661" y1="210.4126" x2="103.6073" y2="214.9941" style="fill: #fff; stroke: #000; stroke-miterlimit: 10; stroke-width: 1.3px;"></line><line x1="118.8151" y1="206.687" x2="118.4674" y2="211.6907" style="fill: #fff; stroke: #000; stroke-miterlimit: 10; stroke-width: 1.3px;"></line></g></g><g style="clip-path: url(#uuid-dd867071-bb08-4205-a72f-f150bc4e475f);"><path d="M66.1095,317.4177L-16.9712,461.8062c-4.18,7.2637-11.7852,11.3289-19.605,11.3289-3.8234,0-7.6953-.9708-11.2477-3.014-10.8153-6.2231-14.538-20.0366-8.3149-30.8527L38.941,274.028c6.224-10.8162,20.0339-14.538,30.8527-8.3158,2.0325,1.1695,3.8145,2.6071,5.3271,4.2424" style="fill: #fff; stroke: #000; stroke-miterlimit: 10; stroke-width: 1.3px;"></path></g><path d="M19.452,298.8604H8.5412l29.5331,347.7751c1.097,12.918,12.4584,23.3901,25.3764,23.3901H223.9955" style="fill: none; stroke: #000; stroke-miterlimit: 10; stroke-width: 1.3px;"></path><polyline points="23.0005 301.7311 66.0128 332.869 77.2184 304.6204" style="fill: #fff; stroke: #000; stroke-miterlimit: 10; stroke-width: 1.3px;"></polyline><line x1="84.1805" y1="265.6533" x2="83.5375" y2="256.5725" style="fill: #fff; stroke: #000; stroke-miterlimit: 10; stroke-width: 1.3px;"></line><g><circle cx="96.5085" cy="193.2722" r="10.087"></circle><circle cx="83.5375" cy="203.3614" r="10.087"></circle><circle cx="110.5296" cy="189.0723" r="10.601"></circle><polygon points="86.7854 208.5528 86.7854 226.0357 80.0894 226.3873 80.0894 212.8368 86.7854 208.5528"></polygon></g><path d="M88.3329,225.8281c-.627-2.611-3.2519-4.2194-5.8629-3.5924-2.611,.627-4.2194,3.2519-3.5924,5.8629,.627,2.611,3.2519,4.2194,5.8629,3.5924" style="fill: #fff; stroke: #000; stroke-miterlimit: 10; stroke-width: 1.3px;"></path><path d="M96.7664,228.7178s10.6811-8.5244,23.5652-.9928" style="fill: #fff; stroke: #000; stroke-miterlimit: 10; stroke-width: 1.3px;"></path><polyline points="157.4062 225.9583 188.97 269.6552 169.9585 287.4986" style="fill: #fff; stroke: #000; stroke-miterlimit: 10; stroke-width: 1.3px;"></polyline><line x1="166.2939" y1="273.7473" x2="169.9585" y2="287.1431" style="fill: #fff; stroke: #000; stroke-miterlimit: 10; stroke-width: 1.3px;"></line><path d="M24.0499,613.5338l-6.4084,27.3492,31.8969,102.117c22.9763-21.6571,22.0444-59.5168,21.0956-73.9497-.7481-11.3791,1.095-22.7237,5.61-32.8157l15.961-35.676c-11.6714-57.3499-39.213-52.1151-39.213-52.1151l-47.5696,51.294,7.7558,25.2652,10.8716-11.4689Z" style="fill: #e5e5e5; stroke: #000; stroke-miterlimit: 10; stroke-width: 1.3px;"></path><path d="M171.8027,390.3145L18.5007,574.3555l79.7107,56.6429,45.0934-104.31c4.5852-10.6064,10.9877-20.3305,18.9191-28.7337l6.4949-6.8814" style="fill: #fca7fd; stroke: #000; stroke-miterlimit: 10; stroke-width: 1.3px;"></path><g><circle cx="177.1639" cy="670.3641" r="60.8225" style="fill: #fff; stroke: #000; stroke-miterlimit: 10; stroke-width: 1.3px;"></circle><g style="isolation: isolate;"><polygon points="167.3084 637.8997 161.7794 645.1677 159.536 638.5706 165.0649 631.3025 167.3084 637.8997" style="stroke: #000; stroke-linejoin: round; stroke-width: 1.3px;"></polygon><g style="isolation: isolate;"><g style="clip-path: url(#uuid-f012bbbd-1784-498c-88a8-3b8b38f0b3d1);"><path d="M182.504,653.5163l-5.529,7.2681c-1.3254-2.8893-3.3671-4.5928-6.1163-5.1116l5.529-7.2681c2.7492,.5189,4.7909,2.2223,6.1163,5.1116" style="stroke: #000; stroke-linejoin: round; stroke-width: 1.3px;"></path></g></g><polygon points="197.5124 651.407 191.9834 658.675 176.975 660.7843 182.504 653.5163 197.5124 651.407" style="stroke: #000; stroke-linejoin: round; stroke-width: 1.3px;"></polygon><g style="isolation: isolate;"><g style="clip-path: url(#uuid-26a57dd0-38ba-4cdb-998f-9ec6c395427b);"><path d="M170.9923,648.7324l-5.529,7.2681c-1.1967,.4081-2.0978,1-2.6909,1.7796l5.529-7.2681c.5931-.7796,1.4942-1.3715,2.6909-1.7796" style="stroke: #000; stroke-linejoin: round; stroke-width: 1.3px;"></path></g></g><polygon points="174.8421 660.0531 169.3131 667.3211 165.4633 656.0005 170.9923 648.7324 174.8421 660.0531" style="stroke: #000; stroke-linejoin: round; stroke-width: 1.3px;"></polygon><g style="isolation: isolate;"><g style="clip-path: url(#uuid-07d56dbf-1300-4f6c-b82c-fb6453f322f7);"><path d="M191.9677,682.2209l-5.529,7.2681c.6072-1.1613,.6476-2.5027,.1296-4.0258-.4802-1.4122-1.3213-2.5042-2.5284-3.267-1.2015-.7724-2.7934-1.3648-4.7631-1.769l5.529-7.2681c1.9697,.4042,3.5616,.9966,4.7631,1.769,1.2071,.7628,2.0481,1.8548,2.5284,3.267,.518,1.5231,.4775,2.8645-.1296,4.0258" style="stroke: #000; stroke-linejoin: round; stroke-width: 1.3px;"></path></g></g><g style="isolation: isolate;"><g style="clip-path: url(#uuid-8380a50a-102f-4a81-9ba1-621dc366894c);"><path d="M191.5586,682.8687l-5.529,7.2681c.1545-.2031,.2909-.419,.4091-.6478l5.529-7.2681c-.1182,.2288-.2546,.4447-.4091,.6478" style="stroke: #000; stroke-linejoin: round; stroke-width: 1.3px;"></path></g></g><g style="isolation: isolate;"><g style="clip-path: url(#uuid-935e89d5-2952-4ee2-aba5-c9cf5115d002);"><path d="M179.0234,672.3486l-5.529,7.2681c-4.6313-.4786-8.3866-1.0627-11.2889-1.7396-2.8906-.6697-5.678-2.0169-8.3731-4.023-2.6897-2.0161-4.6992-5.0058-6.0464-8.9675-1.6819-4.9459-1.1857-9.1667,1.4862-12.6713l5.529-7.2681c-2.6719,3.5046-3.1682,7.7254-1.4862,12.6713,1.3473,3.9617,3.3567,6.9514,6.0464,8.9675,2.6951,2.0061,5.4826,3.3533,8.3731,4.023,2.9023,.6768,6.6576,1.261,11.2889,1.7396" style="stroke: #000; stroke-linejoin: round; stroke-width: 1.3px;"></path></g></g><polygon points="183.3998 685.2179 177.8709 692.486 173.4944 679.6167 179.0234 672.3486 183.3998 685.2179" style="stroke: #000; stroke-linejoin: round; stroke-width: 1.3px;"></polygon><g style="isolation: isolate;"><g style="clip-path: url(#uuid-397ee332-0965-46f0-bc82-ed311c0723c2);"><path d="M204.8957,688.7447l-5.529,7.2681c-.7164,.9418-1.5814,1.8245-2.5961,2.6484-2.4856,2.0348-5.7786,3.4208-9.8757,4.1673l5.529-7.2681c4.0972-.7465,7.3901-2.1325,9.8757-4.1673,1.0147-.8239,1.8797-1.7066,2.5961-2.6484" style="stroke: #000; stroke-linejoin: round; stroke-width: 1.3px;"></path></g></g><polygon points="189.4116 702.8962 183.8827 710.1642 181.61 703.4812 187.139 696.2132 189.4116 702.8962" style="stroke: #000; stroke-linejoin: round; stroke-width: 1.3px;"></polygon><polygon points="194.6673 702.1575 189.1384 709.4256 183.8827 710.1642 189.4116 702.8962 194.6673 702.1575" style="stroke: #000; stroke-linejoin: round; stroke-width: 1.3px;"></polygon><path d="M200.5574,666.8118c2.7037,1.9782,4.725,4.9219,6.0547,8.8321,1.0156,2.9864,1.1771,5.8506,.4761,8.5937-.7008,2.7436-2.2914,5.1278-4.7887,7.1555-2.4856,2.0348-5.7786,3.4208-9.8757,4.1673l2.2435,6.5971-5.2557,.7386-2.2727-6.683c-5.9552,.3262-11.2185-.7362-15.775-3.1982-4.5648-2.4603-7.8223-6.2255-9.7744-11.3032l14.9219-2.0971c1.4358,3.2138,3.7342,5.0875,6.8883,5.6034l-4.3764-12.8693c-4.6313-.4786-8.3866-1.0627-11.2889-1.7396-2.8906-.6697-5.678-2.0169-8.3731-4.023-2.6897-2.0161-4.6992-5.0058-6.0464-8.9675-1.6819-4.9459-1.1857-9.1667,1.4862-12.6713,2.6719-3.5046,6.8458-5.8574,12.5072-7.0475l-2.2435-6.5971,5.2557-.7386,2.2435,6.5971c5.886-.37,10.9798,.6448,15.3029,3.0583,4.3118,2.4064,7.532,6.1409,9.6454,11.1876l-15.0084,2.1093c-1.3254-2.8893-3.3671-4.5928-6.1163-5.1116l4.292,12.6209c4.9565,.6124,8.8413,1.2318,11.6285,1.8626,2.7955,.6291,5.5427,1.9372,8.2492,3.9237Zm-8.5897,15.409c.6072-1.1613,.6476-2.5027,.1296-4.0258-.4802-1.4122-1.3213-2.5042-2.5284-3.267-1.2015-.7724-2.7934-1.3648-4.7631-1.769l3.9341,11.5685c1.5438-.5039,2.6234-1.3371,3.2277-2.5068m-20.9754-33.4884c-1.4316,.4882-2.4402,1.2394-3.0044,2.2604-.5761,1.0134-.5965,2.3072-.0582,3.8903,.4597,1.3518,1.2717,2.4391,2.4356,3.2348,1.1618,.8139,2.653,1.456,4.4768,1.9352l-3.8498-11.3207Z" style="fill: #fff; stroke: #000; stroke-linejoin: round; stroke-width: 1.3px;"></path><g style="isolation: isolate;"></g><path d="M187.139,696.2132l-5.529,7.2681c-5.9552,.3262-11.2185-.7362-15.775-3.1982-4.5648-2.4603-7.8223-6.2255-9.7744-11.3032l5.529-7.2681c1.9521,5.0777,5.2096,8.8429,9.7744,11.3032,4.5565,2.462,9.8198,3.5244,15.775,3.1982" style="stroke: #000; stroke-linejoin: round; stroke-width: 1.3px;"></path></g><path d="M218.7061,635.7779c3.3729,4.0468,6.1655,8.5941,8.2503,13.5142" style="fill: none; stroke: #000; stroke-miterlimit: 10; stroke-width: 1.3px;"></path><path d="M155.4669,620.8411c6.6411-2.9137,13.9802-4.5308,21.697-4.5308,13.912,0,26.5965,5.2557,36.1763,13.8899" style="fill: none; stroke: #000; stroke-miterlimit: 10; stroke-width: 1.3px;"></path><path d="M177.1639,724.4178c-8.0254,0-15.6423-1.749-22.4904-4.8866" style="fill: none; stroke: #000; stroke-miterlimit: 10; stroke-width: 1.3px;"></path></g></g><polyline points="48.8138 595.8961 36.7967 638.3219 64.1788 720.7529" style="fill: #e5e5e5; stroke: #000; stroke-miterlimit: 10; stroke-width: 1.3px;"></polyline><path d="M40.5907,624.9272l11.6168,6.3336c3.9955,2.1784,8.9864,.1765,10.369-4.1591l5.6002-17.5602" style="fill: #e5e5e5; stroke: #000; stroke-miterlimit: 10; stroke-width: 1.3px;"></path><path d="M253.3905,358.8154s2.6937,8.5625-.9038,17.125" style="fill: none; stroke: #000; stroke-miterlimit: 10; stroke-width: 1.3px;"></path><line x1="135.868" y1="443.9749" x2="128.7031" y2="452.5764" style="fill: #fcf2f1; stroke: #000; stroke-miterlimit: 10; stroke-width: 1.3px;"></line><line x1="168.4885" y1="404.8135" x2="141.6831" y2="436.9938" style="fill: #fcf2f1; stroke: #000; stroke-miterlimit: 10; stroke-width: 1.3px;"></line><path d="M57.4648,395.2331c1.2158,.323,12.5749,2.7003,34.4959-3.2285" style="fill: none; stroke: #000; stroke-miterlimit: 10; stroke-width: 1.3px;"></path><line x1="273.4031" y1="127.8079" x2="272.0179" y2="133.1384" style="fill: none; stroke: #000; stroke-miterlimit: 10; stroke-width: 1.3px;"></line><line x1="285.9833" y1="129.5" x2="284.5981" y2="134.8305" style="fill: none; stroke: #000; stroke-miterlimit: 10; stroke-width: 1.3px;"></line><line x1="142.217" y1="246.5257" x2="154.8157" y2="235.4544" style="stroke: #000; stroke-miterlimit: 10; stroke-width: 1.3px;"></line><polygon points="59.8048 328.3748 56.0483 334.9033 22.2693 303.0019 23.0005 301.7311 59.8048 328.3748" style="stroke: #000; stroke-miterlimit: 10; stroke-width: 1.3px;"></polygon><path d="M57.9975,472.8498s9.5083-7.9328,45.5847-.6357l12.6862-15.2299s-33.7368,18.245-53.2192,4.7317l-5.0517,11.1339Z" style="stroke: #000; stroke-miterlimit: 10; stroke-width: 1.3px;"></path><line x1="195.0467" y1="220.5164" x2="200.6381" y2="227.2022" style="stroke: #000; stroke-miterlimit: 10; stroke-width: 1.3px;"></line><polygon points="24.8139 578.8417 83.6385 620.6428 78.9438 630.2002 23.6546 580.078 24.8139 578.8417" style="stroke: #000; stroke-miterlimit: 10; stroke-width: 1.3px;"></polygon></g><rect x="2.3653" width="722.5276" height="747.055" style="fill: none;"></rect></g></g></svg>