<svg xmlns="http://www.w3.org/2000/svg" xmlns:xlink="http://www.w3.org/1999/xlink" id="a" width="723.1776" height="747.055" viewBox="0 0 723.1776 747.055"><defs><style>.j,.k,.l{fill:none;}.k,.l,.m,.n,.o,.p,.q,.r{stroke:#000;stroke-width:1.3px;}.k,.p,.q{stroke-linejoin:round;}.l,.s,.m,.n,.o,.r{stroke-miterlimit:10;}.s{stroke:#1488ff;stroke-width:1.3557px;}.s,.m{fill:#1488ff;}.n,.p{fill:#fff;}.o{fill:#e5e5e5;}.t{clip-path:url(#c);}.u{clip-path:url(#b);}.v{clip-path:url(#f);}.w{clip-path:url(#e);}.x{clip-path:url(#d);}.y{clip-path:url(#i);}.a`{clip-path:url(#h);}.aa{clip-path:url(#g);}.ab{isolation:isolate;}</style><clipPath id="b"><path class="j" d="M643.3128,587.7096c-1.2202,14.352-13.8461,25.9925-28.1979,25.9925h-178.4228c-14.3611,0-25.0073-11.6405-23.7876-25.9925l32.8161-386.5075h230.4171l-32.8249,386.5075Z"></path></clipPath><clipPath id="c"><path class="j" d="M679.4329,164.9278l-36.1201,422.7819c-1.2202,14.352-13.8461,25.9925-28.1979,25.9925h-178.4228c-14.3611,0-25.0073-11.6405-23.7876-25.9925l12.8752-151.6438"></path></clipPath><clipPath id="d"><path class="j" d="M399.7035,537.0688l7.2681,5.529c-2.8893,1.3254-4.5928,3.3671-5.1116,6.1163l-7.2681-5.529c.5189-2.7492,2.2223-4.7909,5.1116-6.1163Z"></path></clipPath><clipPath id="e"><path class="j" d="M403.9673,556.8003l-7.268-5.529c-.7796-.5931-1.3715-1.4942-1.7796-2.6909l7.2681,5.529c.4081,1.1967,1,2.0978,1.7796,2.6909Z"></path></clipPath><clipPath id="f"><path class="j" d="M428.4081,527.6051l7.2681,5.529c-1.1613-.6072-2.5027-.6476-4.0258-.1296-1.4122,.4802-2.5042,1.3213-3.267,2.5284-.7724,1.2015-1.3648,2.7934-1.769,4.7631l-7.2681-5.529c.4042-1.9697,.9966-3.5616,1.769-4.7631,.7628-1.2071,1.8548-2.0481,3.267-2.5284,1.5231-.518,2.8645-.4775,4.0258,.1296Z"></path></clipPath><clipPath id="g"><path class="j" d="M429.0559,528.0142l7.2681,5.529c-.2031-.1545-.419-.2909-.6478-.4091l-7.2681-5.529c.2288,.1182,.4447,.2546,.6478,.4091Z"></path></clipPath><clipPath id="h"><path class="j" d="M418.5358,540.5494l7.2681,5.529c-.4786,4.6313-1.0627,8.3866-1.7396,11.2889-.6697,2.8906-2.0169,5.678-4.023,8.3731-2.0161,2.6897-5.0058,4.6992-8.9675,6.0464-4.9459,1.6819-9.1667,1.1857-12.6713-1.4862l-7.2681-5.529c3.5046,2.6719,7.7254,3.1682,12.6713,1.4862,3.9617-1.3473,6.9514-3.3567,8.9675-6.0464,2.0061-2.6951,3.3533-5.4826,4.023-8.3731,.6768-2.9023,1.261-6.6576,1.7396-11.2889Z"></path></clipPath><clipPath id="i"><path class="j" d="M434.932,514.6771l7.2681,5.529c.9418,.7164,1.8245,1.5814,2.6483,2.5961,2.0348,2.4856,3.4208,5.7786,4.1673,9.8757l-7.268-5.529c-.7466-4.0972-2.1326-7.3901-4.1673-9.8757-.8239-1.0147-1.7066-1.8797-2.6484-2.5961Z"></path></clipPath></defs><g><path class="r" d="M643.3128,587.7096c-1.2202,14.352-13.8461,25.9925-28.1979,25.9925h-178.4228c-14.3611,0-25.0073-11.6405-23.7876-25.9925l32.8161-386.5075h230.4171l-32.8249,386.5075Z"></path><g><g class="u"><path class="o" d="M698.9108,632.0104l-167.0857-263.7727c-9.3757-14.8011-4.9341-34.4037,9.9058-43.7179h0c14.753-9.2597,34.216-4.8498,43.5369,9.8647l167.227,263.9944-53.584,33.6315Z"></path><path class="q" d="M584.0147,342.1693l3.8832,19.8221c1.8984,9.6906,8.5141,17.7915,17.63,21.5879l5.3747,1.3345-9.8114-49.2739-17.0766,6.5294Z"></path></g><path class="m" d="M555.2303,215.6867l33.916,4.5487v119.5455h-95.8568c-9.893,0-17.9129-8.0199-17.9129-17.9129v-102.1445l26.885,.0449"></path><g></g><g><path class="n" d="M655.8116,167.1209h-183.9809c-17.425,0-32.7529,14.1259-34.2348,31.5597l-33.2679,391.7766c-1.4823,17.4248,11.4507,31.5599,28.8753,31.5599h183.9814c17.4245,0,32.7525-14.1351,34.2348-31.5599l33.2679-391.7766c1.4823-17.4338-11.4507-31.5597-28.8757-31.5597Zm-12.4988,420.5887c-1.2202,14.352-13.8461,25.9925-28.1979,25.9925h-178.4228c-14.3611,0-25.0073-11.6405-23.7876-25.9925l32.8161-386.5075h230.4171l-32.8249,386.5075Z"></path><path class="n" d="M589.8513,187.1029h-55.4504c-1.6422,0-2.8604-1.3313-2.7209-2.9734h0c.1395-1.6422,1.5838-2.9734,3.2259-2.9734h55.4504c1.6422,0,2.8604,1.3313,2.7209,2.9734h0c-.1395,1.6422-1.5838,2.9734-3.2259,2.9734Z"></path><path class="r" d="M522.5562,215.725l1.3917-23.0837c.3198-12.3829,8.8869-22.57,19.8886-23.6496h0c13.1753-1.2929,24.2302,7.2241,23.3694,22.0314l-.4392,21.1824"></path></g><path class="m" d="M475.3766,257.8154l-89.8196-34.3412c-1.9549-1.0282-3.7484-2.338-5.3238-3.886l-91.4329-80.6432c-8.8974-8.7491-9.0183-23.055-.2692-31.9524,8.7509-8.8974,23.0568-9.0174,31.9524-.2692l89.0578,78.3079,84.8865,31.8023c5.1803,1.9408,10.6672,2.9349,16.1992,2.9349h0"></path><g><path class="m" d="M328.2103,132.4719l4.2188-44.7684c.5567-5.9074-3.8212-10.7408-9.7286-10.7408h-32.0457c-5.9074,0-11.1963,4.8334-11.753,10.7408l-4.2188,44.7684c-.5567,5.9074,3.8212,10.7408,9.7286,10.7408h25.6555"></path><path class="m" d="M277.2809,104.9035l2.512-26.6569c.3786-4.0173,3.9752-7.3041,7.9924-7.3041h0c4.0173,0,6.9944,3.2869,6.6158,7.3041l-1.6202,17.1935"></path><path class="m" d="M285.8999,106.4295l4.593-48.7398c.4089-4.3389,4.2934-7.8889,8.6323-7.8889h.7643c4.3389,0,7.5544,3.55,7.1455,7.8889l-3.5237,37.3919"></path><path class="m" d="M299.5647,98.5999l4.4276-46.9841c.4089-4.3389,4.2934-7.8889,8.6323-7.8889h.7643c4.3389,0,7.5544,3.55,7.1455,7.8889l-3.643,38.6579"></path><path class="m" d="M314.2992,94.9848l3.8552-37.2952c.4089-4.3389,4.2934-7.8889,8.6323-7.8889h.7643c4.3389,0,7.5544,3.55,7.1455,7.8889l-3.4454,36.5615"></path><path class="m" d="M323.1848,104.9035l4.5098-16.4686c1.3913-5.0809,6.6164-8.4913,11.6113-7.5788h0c4.9949,.9125,7.9432,5.8163,6.5519,10.8971l-8.9506,32.6855c-1.3913,5.0809-6.6164,8.4913-11.6113,7.5788h0"></path><g></g></g><line class="m" x1="475.3766" y1="246.9115" x2="475.3766" y2="278.645"></line><polyline class="m" points="461.7175 204.5788 449.8725 251.3858 475.3766 262.7782 475.3766 246.2251"></polyline><g><path class="n" d="M551.5463,487.7455l26.0604,37.0733c25.7627-19.5375,54.1933,42.1728,54.1933,42.1728,2.6788,21.3418-35.8461,39.9382-35.8461,39.9382,0,0-18.3862,8.2232-27.715,30.0499-9.3288,21.8267-25.3103,49.7401-63.2359,62.1922-63.4951-16.488-4.3942-69.8137-4.3942-69.8137-5.3491-26.4223,42.0443-60.106,42.0443-60.106l-18.9141-28.895"></path><path class="n" d="M500.6089,629.3582s-8.4532-25.8292,27.6264-64.1964c0,0,17.1031-8.6478,27.4124,1.5363,9.8988,9.7787-28.2194,17.8451-30.3238,54.364l-24.715,8.2961Z"></path><path class="n" d="M502.6144,605.2737s11.1911-6.5445,28.4065-4.4541"></path><path class="n" d="M507.168,594.2918s7.9706-4.4908,30.5205-3.0194"></path><path class="n" d="M487.3615,691.9494s39.0273-5.4698,58.2361-47.1073c13.5448-29.3602,23.1781-46.3699,47.9935-58.6124,28.4656-14.0432,29.4355-34.4025,29.4355-34.4025"></path><path class="l" d="M577.6067,524.8187s16.104,18.9133-25.5386,39.1863"></path><path class="n" d="M525.3239,621.0621s13.411-1.0197,23.821,16.2094"></path><line class="n" x1="593.591" y1="586.2297" x2="603.3694" y2="602.8406"></line></g><g><path class="o" d="M536.0696,335.5433l-146.4507-73.0635c-13.06-6.3862-28.792-3.0458-38.1311,8.0928-9.3408,11.1395-9.8868,27.2117-1.3231,38.9591l171.9864,234.9999,51.1221-37.2683-96.843-131.9223,9.2473,4.8232c14.9216,7.7829,31.502,11.8471,48.3314,11.8471l12.9093,.0532"></path><line class="n" x1="432.5176" y1="315.104" x2="495.0237" y2="400.8466"></line></g><g></g><line class="n" x1="531.825" y1="368.2376" x2="553.6603" y2="402.7082"></line><path class="m" d="M475.3766,262.7782s1.0113,30.0424-12.602,35.9647c0,0,14.3879,9.037,31.3254,25.6065,33.0951,32.3761,76.269,22.5065,94.4322,15.1884l-2.2255-23.2182"></path><path class="m" d="M510.627,224.0209l1.8075-46.8103c0-12.387,9.3164-22.7919,21.6281-24.1552h0c14.7442-1.6327,27.4985,10.2099,26.9617,25.0345l-.9502,42.0097"></path><path class="m" d="M556.0306,200.3395c1.5052-2.8964,4.6569-4.2406,7.0396-3.0024,2.3827,1.2382,3.094,4.59,1.5888,7.4864s-4.6569,4.2406-7.0396,3.0024"></path><g><ellipse class="n" cx="526.8586" cy="177.1529" rx="20.3129" ry="6.9766"></ellipse><ellipse cx="514.0251" cy="177.153" rx="6.8632" ry="5.4071"></ellipse><line class="n" x1="529.9129" y1="164.9278" x2="529.9129" y2="169.9435"></line><line class="n" x1="538.9419" y1="166.4509" x2="537.7289" y2="171.3177"></line><line class="n" x1="521.3077" y1="165.7834" x2="522.5207" y2="170.6503"></line></g><g></g><g><rect x="557.8568" y="188.9429" width="2.8582" height="2.8582" transform="translate(1148.9586 226.8201) rotate(164.7392)"></rect><rect x="551.2514" y="193.7077" width="2.8582" height="2.8582" transform="translate(1137.2348 237.9204) rotate(164.7392)"></rect><rect x="549.494" y="187.2663" width="2.8582" height="2.8582" transform="translate(1132.0864 225.7273) rotate(164.7392)"></rect><rect x="543.5501" y="194.0135" width="2.8582" height="2.8582" transform="translate(1122.1842 240.5483) rotate(164.7392)"></rect></g><polygon class="q" points="452.6956 342.7831 490.1595 382.3629 476.4301 375.3409 452.6956 342.7831"></polygon><polygon class="q" points="446.8572 246.9115 461.3459 206.0471 450.6389 248.3573 446.8572 246.9115"></polygon><path class="k" d="M479.7695,302.3643s6.6108,5.1588,23.6235,19.4111c20.4818,17.1585,36.0493,14.8212,36.0493,14.8212"></path><line class="k" x1="601.159" y1="465.7064" x2="607.4891" y2="475.6996"></line><line class="k" x1="570.8035" y1="417.7853" x2="595.9375" y2="457.4634"></line><line class="l" x1="429.3365" y1="408.641" x2="470.4085" y2="464.7612"></line><path class="l" d="M359.7003,270.3821s8.5439-8.125,22.2225-4.7128"></path><path class="m" d="M392.9328,222.823c-2.4405,4.1019-7.7442,5.4487-11.8461,3.0082-4.1019-2.4405-5.4487-7.7442-3.0082-11.8461"></path><line class="r" x1="564.4289" y1="513.9475" x2="571.5294" y2="524.0486"></line><line class="r" x1="530.1339" y1="539.3614" x2="539.9824" y2="553.3717"></line><line class="r" x1="537.3359" y1="536.1184" x2="544.4364" y2="546.2195"></line><line class="r" x1="541.827" y1="532.5851" x2="550.8494" y2="545.4203"></line><line class="r" x1="552.0681" y1="524.2567" x2="560.7743" y2="536.6421"></line><line class="r" x1="560.9936" y1="521.8988" x2="571.7442" y2="537.1925"></line><line class="r" x1="546.6647" y1="525.727" x2="553.2266" y2="535.0619"></line><polygon class="r" points="525.3239 542.7783 567.9791 511.1226 572.241 517.1856 525.3239 542.7783"></polygon><path class="m" d="M579.7033,227.9479c2.865-7.9431,10.0866-13.9496,19.0492-14.8331,12.4128-1.2171,23.4778,7.8506,24.7011,20.2705l6.7686,66.2667,15.0367-24.8582c6.4579-10.6767,20.3499-14.0967,31.0266-7.6379,10.6767,6.4579,14.0967,20.349,7.6379,31.0266l-51.0985,76.6539c-4.1517,6.8639-11.5434,10.9018-19.3287,10.9018-1.6575,0-3.3327-.1836-4.9981-.5604-9.4905-2.1518-16.5371-10.1366-17.4912-19.8203l-10.9309-114.0414"></path><line class="m" x1="642.0313" y1="280.1349" x2="605.9514" y2="339.7809"></line><polyline class="m" points="626.7769 262.7782 581.203 262.7782 574.177 262.7118 576.3041 245.587"></polyline><polygon class="q" points="626.6039 262.7782 626.6039 262.7782 581.7185 268.0207 581.203 262.7782 626.6039 262.7782"></polygon><path class="m" d="M617.454,382.3701c-1.2664,4.6019-6.0237,7.3059-10.6256,6.0395-4.6019-1.2664-7.3059-6.0237-6.0395-10.6256"></path><rect class="s" x="647.4026" y="243.9209" width="56.9004" height="49.3313" rx="9.7461" ry="9.7461" transform="translate(235.6318 -310.31) rotate(31.0758)"></rect><path class="m" d="M704.6043,257.1153c4.6101,2.7784,6.0951,8.7679,3.3167,13.378l-15.4021,25.5568c-2.7784,4.6101-8.7679,6.0951-13.378,3.3167l-3.8709-2.3329"></path><path class="m" d="M659.8732,287.755l-12.7719-7.6971c-4.6101-2.7784-6.0951-8.7679-3.3167-13.378l15.4021-25.5568,1.0114-1.615,15.9755-26.5082c2.2396-3.7162,7.1126-4.9243,10.8288-2.6847l.6546,.3945c3.7162,2.2396,4.9243,7.1126,2.6847,10.8288l-15.9755,26.5082"></path><path class="m" d="M696.699,262.587l13.1774-21.8652c1.8562-3.0801,5.8951-4.0814,8.9751-2.2251l.518,.3122c3.0801,1.8562,4.0814,5.8951,2.2251,8.9751l-13.1774,21.8652"></path><rect class="m" x="671.8007" y="253.9293" width="34.2831" height="16.5421" rx="8.271" ry="8.271" transform="translate(56.9221 641.5959) rotate(-51.812)"></rect><rect class="m" x="660.4395" y="246.9144" width="34.2831" height="16.5421" rx="8.271" ry="8.271" transform="translate(117.7934 714.3952) rotate(-60)"></rect><path class="m" d="M657.3643,259.9999l22.7405-8.682c4.4346-1.6931,9.4481,.55,11.1411,4.9845h0c1.6931,4.4346-.55,9.4481-4.9845,11.1412l-22.7405,8.682"></path><path class="m" d="M652.0638,261.8751l-4.715,1.7069c-4.5193,1.636-7.4482,6.0224-7.2272,10.8236h0c.1952,4.2424,2.8206,7.9913,6.7405,9.6252l14.4172,6.0095"></path><line class="m" x1="674.5876" y1="227.0059" x2="679.4329" y2="229.7241"></line><line class="m" x1="662.0806" y1="247.1132" x2="666.9259" y2="249.8313"></line><line class="m" x1="708.229" y1="253.6064" x2="711.6914" y2="255.8477"></line><g class="t"><g><circle class="n" cx="417.3351" cy="542.2914" r="57.7651"></circle><g class="ab"><polygon class="q" points="384.0869 552.2643 391.355 557.7933 384.7578 560.0368 377.4898 554.5078 384.0869 552.2643"></polygon><g class="ab"><g class="x"><path class="q" d="M399.7035,537.0688l7.2681,5.529c-2.8893,1.3254-4.5928,3.3671-5.1116,6.1163l-7.2681-5.529c.5189-2.7492,2.2223-4.7909,5.1116-6.1163"></path></g></g><polygon class="q" points="397.5942 522.0604 404.8623 527.5894 406.9716 542.5978 399.7035 537.0688 397.5942 522.0604"></polygon><g class="ab"><g class="w"><path class="q" d="M394.9197,548.5805l7.2681,5.529c.4081,1.1967,1,2.0978,1.7796,2.6909l-7.2681-5.529c-.7796-.5931-1.3715-1.4942-1.7796-2.6909"></path></g></g><polygon class="q" points="406.2403 544.7307 413.5084 550.2597 402.1877 554.1094 394.9197 548.5805 406.2403 544.7307"></polygon><g class="ab"><g class="v"><path class="q" d="M428.4081,527.6051l7.2681,5.529c-1.1613-.6072-2.5027-.6476-4.0258-.1296-1.4122,.4802-2.5042,1.3213-3.267,2.5284-.7724,1.2015-1.3648,2.7934-1.769,4.7631l-7.2681-5.529c.4042-1.9697,.9966-3.5616,1.769-4.7631,.7628-1.2071,1.8548-2.0481,3.267-2.5284,1.5231-.518,2.8645-.4775,4.0258,.1296"></path></g></g><g class="ab"><g class="aa"><path class="q" d="M429.0559,528.0142l7.2681,5.529c-.2031-.1545-.419-.2909-.6478-.4091l-7.2681-5.529c.2288,.1182,.4447,.2546,.6478,.4091"></path></g></g><g class="ab"><g class="a`"><path class="q" d="M418.5358,540.5494l7.2681,5.529c-.4786,4.6313-1.0627,8.3866-1.7396,11.2889-.6697,2.8906-2.0169,5.678-4.023,8.3731-2.0161,2.6897-5.0058,4.6992-8.9675,6.0464-4.9459,1.6819-9.1667,1.1857-12.6713-1.4862l-7.2681-5.529c3.5046,2.6719,7.7254,3.1682,12.6713,1.4862,3.9617-1.3473,6.9514-3.3567,8.9675-6.0464,2.0061-2.6951,3.3533-5.4826,4.023-8.3731,.6768-2.9023,1.261-6.6576,1.7396-11.2889"></path></g></g><polygon class="q" points="431.4052 536.1729 438.6732 541.7019 425.8039 546.0783 418.5358 540.5494 431.4052 536.1729"></polygon><g class="ab"><g class="y"><path class="q" d="M434.932,514.6771l7.2681,5.529c.9418,.7164,1.8245,1.5814,2.6484,2.5961,2.0348,2.4856,3.4208,5.7786,4.1673,9.8757l-7.2681-5.529c-.7465-4.0972-2.1325-7.3901-4.1673-9.8757-.8239-1.0147-1.7066-1.8797-2.6484-2.5961"></path></g></g><polygon class="q" points="449.0834 530.1611 456.3515 535.6901 449.6685 537.9628 442.4004 532.4338 449.0834 530.1611"></polygon><polygon class="q" points="448.3448 524.9054 455.6128 530.4344 456.3515 535.6901 449.0834 530.1611 448.3448 524.9054"></polygon><path class="p" d="M412.9991,519.0153c1.9782-2.7037,4.9219-4.725,8.8321-6.0547,2.9864-1.0156,5.8506-1.1771,8.5937-.4761,2.7436,.7008,5.1278,2.2914,7.1555,4.7887,2.0348,2.4856,3.4208,5.7786,4.1673,9.8757l6.5971-2.2435,.7386,5.2557-6.683,2.2727c.3262,5.9552-.7362,11.2185-3.1982,15.775-2.4603,4.5648-6.2255,7.8223-11.3032,9.7744l-2.0971-14.9219c3.2138-1.4358,5.0875-3.7342,5.6034-6.8883l-12.8693,4.3764c-.4786,4.6313-1.0627,8.3866-1.7396,11.2889-.6697,2.8906-2.0169,5.678-4.023,8.3731-2.0161,2.6897-5.0058,4.6992-8.9675,6.0464-4.9459,1.6819-9.1667,1.1857-12.6713-1.4862-3.5046-2.6719-5.8574-6.8458-7.0475-12.5072l-6.5971,2.2435-.7386-5.2557,6.5971-2.2435c-.37-5.886,.6448-10.9798,3.0583-15.3029,2.4064-4.3118,6.1409-7.532,11.1876-9.6454l2.1093,15.0084c-2.8893,1.3254-4.5928,3.3671-5.1116,6.1163l12.6209-4.292c.6124-4.9565,1.2318-8.8413,1.8626-11.6285,.6291-2.7955,1.9372-5.5427,3.9237-8.2492Zm15.409,8.5897c-1.1613-.6072-2.5027-.6476-4.0258-.1296-1.4122,.4802-2.5042,1.3213-3.267,2.5284-.7724,1.2015-1.3648,2.7934-1.769,4.7631l11.5685-3.9341c-.5039-1.5438-1.3371-2.6234-2.5068-3.2277m-33.4884,20.9754c.4882,1.4316,1.2394,2.4402,2.2604,3.0044,1.0134,.5761,2.3072,.5965,3.8903,.0582,1.3518-.4597,2.4391-1.2717,3.2348-2.4356,.8139-1.1618,1.456-2.653,1.9352-4.4768l-11.3207,3.8498Z"></path><g class="ab"></g><path class="q" d="M442.4004,532.4338l7.2681,5.529c.3262,5.9552-.7362,11.2185-3.1982,15.775-2.4603,4.5648-6.2255,7.8223-11.3032,9.7744l-7.2681-5.529c5.0777-1.9521,8.8429-5.2096,11.3032-9.7744,2.462-4.5565,3.5244-9.8198,3.1982-15.775"></path></g><path class="n" d="M461.5201,564.3272c-2.3577,4.7183-5.4489,9.0061-9.1241,12.7141"></path><path class="n" d="M417.3351,492.9273c10.9222,0,21.0158,3.5472,29.1919,9.5523"></path><path class="n" d="M439.0639,586.6284c-6.5565,3.2193-13.9315,5.0271-21.7288,5.0271-9.1788,0-17.7726-2.5052-25.1347-6.8691"></path></g></g><path class="l" d="M436.6921,613.7022c-14.3611,0-25.0073-11.6405-23.7876-25.9925l12.388-145.9057"></path></g><path class="m" d="M517.5388,186.8538s7.8576,2.086,16.8621,1.1529"></path><line class="r" x1="404.2122" y1="190.372" x2="399.068" y2="196.8765"></line><polygon points="673.6767 321.4542 663.6405 337.0817 664.6513 327.6467 674.672 312.6145 673.6767 321.4542"></polygon></g><rect class="j" width="722.5276" height="747.055"></rect></svg>