<svg xmlns="http://www.w3.org/2000/svg" id="a" width="36.64" height="36.64" viewBox="0 0 36.64 36.64"><path d="M28.97,12.9h.03v-.02l-.03,.02Z"></path><path d="M28.47,11.3c-.76,.46-1.59,.8-2.48,.98-.71-.79-1.72-1.28-2.84-1.28-2.15,0-3.9,1.81-3.9,4.04,0,.32,.03,.63,.1,.92-3.24-.17-6.11-1.78-8.03-4.22-.34,.6-.53,1.29-.53,2.03,0,1.4,.69,2.64,1.73,3.36-.64-.02-1.24-.2-1.77-.51v.05c0,1.96,1.34,3.59,3.13,3.96-.33,.09-.67,.14-1.03,.14-.25,0-.5-.03-.73-.08,.5,1.61,1.94,2.77,3.64,2.81-1.33,1.08-3.01,1.73-4.84,1.73-.31,0-.62-.02-.93-.06,1.73,1.15,3.77,1.82,5.97,1.82,7.17,0,11.09-6.16,11.09-11.5v-.52c.74-.57,1.41-1.27,1.92-2.07-.69,.31-1.43,.53-2.21,.63,.81-.5,1.42-1.29,1.71-2.23Z"></path><path d="M19,0C13.79,0,9.1,2.27,5.87,5.87,2.27,9.1,0,13.79,0,19c0,9.73,7.91,17.64,17.64,17.64,5.21,0,9.9-2.27,13.13-5.87,3.6-3.23,5.87-7.92,5.87-13.13C36.64,7.91,28.73,0,19,0Zm10.71,29.71c-2.86,2.54-6.6,4.08-10.71,4.08-8.9,0-16.14-7.25-16.14-16.15,0-4.11,1.54-7.85,4.07-10.71,1.46-1.63,3.24-2.97,5.24-3.91,2.08-.98,4.39-1.52,6.83-1.52,.42,0,.83,.02,1.24,.05,.03,0,.05,0,.08,.01,7.83,.63,14.1,6.88,14.76,14.71,.04,.45,.06,.91,.06,1.37,0,2.41-.53,4.7-1.48,6.75-.94,2.04-2.29,3.85-3.95,5.32Z"></path></svg>