<svg xmlns="http://www.w3.org/2000/svg" xmlns:xlink="http://www.w3.org/1999/xlink" width="109.76" height="109.76" viewBox="0 0 109.76 109.76"><defs><style>.e,.f{fill:none;}.f,.g,.h{stroke-miterlimit:10;}.f,.g,.h,.i,.j{stroke:#000;stroke-width:1.3px;}.g{fill:#1488ff;}.h{fill:#fca7fd;}.i{fill:#000005;}.i,.j{stroke-linejoin:round;}.j{fill:#fff;}.k{clip-path:url(#d);}</style><clipPath id="d"><rect class="e" width="109.76" height="109.76" rx="18.26" ry="18.26"></rect></clipPath></defs><g id="a"></g><g id="b"><g id="c"><g><g><rect class="e" width="109.76" height="109.76" rx="18.26" ry="18.26"></rect><g class="k"><circle class="g" cx="54.88" cy="54.88" r="31.45"></circle><circle class="g" cx="54.88" cy="54.88" r="20.98"></circle><circle class="j" cx="54.88" cy="54.88" r="9.66"></circle><g><line class="h" x1="54.88" y1="54.88" x2="82.28" y2="27.48"></line><path class="h" d="M54.88,56.5c-.41,0-.83-.16-1.14-.47-.63-.63-.63-1.66,0-2.29l27.4-27.4c.63-.63,1.66-.63,2.29,0,.63,.63,.63,1.66,0,2.29l-27.4,27.4c-.32,.32-.73,.47-1.14,.47Z"></path></g><polygon class="i" points="71.3 35.76 72.24 24.11 80.96 16.49 81.26 25.72 71.3 35.76"></polygon><polygon class="i" points="74.07 38.12 85.72 37.19 93.34 28.47 84.11 28.16 74.07 38.12"></polygon></g></g><line class="f" x1="20.9" y1="102.14" x2="33.02" y2="102.14"></line><line class="f" x1="37.36" y1="102.14" x2="69.17" y2="102.14"></line></g></g></g></svg>