<svg xmlns="http://www.w3.org/2000/svg" width="202.81" height="172.3" viewBox="0 0 202.81 172.3"><defs><style>.d{fill:none;}.d,.e,.f{stroke-miterlimit:10;}.d,.e,.f,.g{stroke:#000;stroke-width:1.3px;}.h,.f,.g{fill:#000005;}.e{fill:#d5e100;}.g{stroke-linecap:round;stroke-linejoin:round;}</style></defs><g id="a"></g><g id="b"><g id="c"><g><path class="h" d="M68.2,160.09c52.15,0,94.42,1.74,94.42,3.9s-42.27,3.9-94.42,3.9"></path><polygon class="g" points="71.5 30.58 66.91 29.5 66.91 167.45 48.65 167.45 48.65 26.99 66.91 26.99 71.5 30.58"></polygon><rect class="e" x="51.9" y="30.62" width="18.26" height="136.83"></rect><path class="f" d="M13.89,.65H165.11c2.28,0,4.47,.89,6.1,2.49l29.35,28.71-33.54,31.86H11.51c-6,0-10.86-4.86-10.86-10.86V13.89c0-7.31,5.93-13.24,13.24-13.24Z"></path><path class="e" d="M15.55,3.06H166.87c2.23,0,4.38,.84,6.02,2.37l28.1,26.13c1.57,1.46,1.57,3.93,0,5.39l-28.1,26.13c-1.63,1.52-3.78,2.36-6.02,2.36H15.55c-6.4,0-11.58-5.18-11.58-11.58V14.64c0-6.4,5.18-11.58,11.58-11.58Z"></path><line class="d" x1="82.46" y1="167.45" x2="24.46" y2="167.45"></line><line class="d" x1="48.09" y1="171.65" x2="11.68" y2="171.65"></line><line class="d" x1="79.44" y1="171.65" x2="61.68" y2="171.65"></line><line class="d" x1="66.32" y1="68.93" x2="66.32" y2="96.91"></line><line class="d" x1="66.32" y1="130.43" x2="66.32" y2="158.41"></line><line class="d" x1="59.22" y1="75.24" x2="59.22" y2="83.83"></line><line class="d" x1="66.32" y1="115.99" x2="66.32" y2="124.59"></line><line class="d" x1="54.8" y1="89.22" x2="54.8" y2="138.55"></line><line class="d" x1="144.63" y1="60.78" x2="100.61" y2="60.78"></line><line class="d" x1="59.22" y1="7.25" x2="28.93" y2="7.25"></line></g></g></g></svg>