<svg xmlns="http://www.w3.org/2000/svg" xmlns:xlink="http://www.w3.org/1999/xlink" width="109.76" height="109.76" viewBox="0 0 109.76 109.76"><defs><style>.e,.f{fill:none;}.f,.g,.h{stroke-miterlimit:10;}.f,.g,.h,.i,.j{stroke:#000;stroke-width:1.3px;}.g{fill:#1488ff;}.h{fill:#fca7fd;}.i{fill:#000005;}.i,.j{stroke-linejoin:round;}.j{fill:#fff;}.k{clip-path:url(#d);}</style><clipPath id="d"><rect class="e" x="0" width="109.76" height="109.76" rx="18.26" ry="18.26"></rect></clipPath></defs><g id="a"></g><g id="b"><g id="c"><g><g><rect class="e" x="0" width="109.76" height="109.76" rx="18.26" ry="18.26"></rect><g class="k"><g><g><circle class="g" cx="54.88" cy="54.88" r="31.45"></circle><g><ellipse class="j" cx="54.88" cy="54.88" rx="26.57" ry="9.74"></ellipse><g><line class="j" x1="54.88" y1="39.01" x2="54.88" y2="45.27"></line><line class="j" x1="39.96" y1="40.81" x2="41.94" y2="46.67"></line><line class="j" x1="69.81" y1="40.81" x2="67.83" y2="46.67"></line></g><ellipse class="i" cx="54.88" cy="54.88" rx="11.37" ry="9.45"></ellipse></g></g><g><path class="h" d="M14.12,38.02c-1.12,0-2.02-.91-2.02-2.02v-12.49c0-1.12,.91-2.02,2.02-2.02h12.36c1.12,0,2.02,.91,2.02,2.02s-.91,2.02-2.02,2.02h-10.34v10.47c0,1.12-.91,2.02-2.02,2.02Z"></path><path class="h" d="M95.64,88.28h-12.36c-1.12,0-2.02-.91-2.02-2.02s.91-2.02,2.02-2.02h10.34v-10.47c0-1.12,.91-2.02,2.02-2.02s2.02,.91,2.02,2.02v12.49c0,1.12-.91,2.02-2.02,2.02Z"></path></g></g></g></g><line class="f" x1="20.9" y1="102.14" x2="33.02" y2="102.14"></line><line class="f" x1="37.36" y1="102.14" x2="69.17" y2="102.14"></line></g></g></g></svg>