<svg xmlns="http://www.w3.org/2000/svg" width="806.19" height="365.33" viewBox="0 0 806.19 365.33"><defs><style>.d{fill:none;}.d,.e,.f,.g,.h,.i{stroke:#000;stroke-miterlimit:10;stroke-width:1.3px;}.j{fill:#000005;}.k,.g{fill:#fff;}.e{fill:#1488ff;}.f{fill:#d5e100;}.h{fill:#fca7fd;}.i{fill:#e5e5e5;}</style></defs><g id="a"></g><g id="b"><g id="c"><g><g><g><path class="h" d="M241.97,205.6l2.39-104.53c1.35-36.89-30.38-66.36-67.07-62.31h0c-30.64,3.38-53.82,29.27-53.83,60.09l-4.53,116.47"></path><g><g><ellipse class="g" cx="160.27" cy="115.58" rx="17.36" ry="50.54" transform="translate(29.43 263.65) rotate(-84.33)"></ellipse><line class="d" x1="156.5" y1="132.54" x2="155.49" y2="141.83"></line><line class="d" x1="138.07" y1="129.02" x2="134.62" y2="136.69"></line><line class="d" x1="175.99" y1="133.52" x2="178.06" y2="142.16"></line></g><path class="j" d="M144.96,115.79c-1.47,7.28-10.16,10.74-19.41,8.87-9.24-1.87-16.98-7.65-15.5-14.93,1.47-7.28,11.6-11.45,20.84-9.58,9.24,1.87,15.54,8.36,14.07,15.64Z"></path></g></g><path class="j" d="M127.52,69.21s-14.36-28.89,58.78-34.44c0,0,7.08,7.84,32.39,6.78,0,0,69.06,3.86,24.52,103.09,0,0-47.95-52.33-28.98-70.93,0,0-79.6,22.1-86.7-4.5Z"></path><path class="h" d="M227.39,152.26c8.28,4.3,17.34,3.27,20.23-2.3,2.9-5.57-1.46-13.58-9.74-17.89-4.55-2.37-9.34-3.12-13.21-2.39-4.11,.77-7.01,4.48-7.17,8.66l-.08,2.17"></path><ellipse class="j" cx="204.73" cy="36.27" rx="25.2" ry="32.02" transform="translate(130.39 230.44) rotate(-79.1)"></ellipse></g><g><path class="j" d="M360.52,171.05s40.1-74.94,12.51-95.67l-6.46,14.64-8.48,42.71,2.43,38.32Z"></path><g><path class="e" d="M236.33,221.36l3.8-116.5c-.18-30.82,22.84-56.85,53.45-60.43h0c36.66-4.28,68.57,24.99,67.46,61.89l-1.74,104.54"></path><g><ellipse class="g" cx="274.86" cy="104.24" rx="17.36" ry="50.54" transform="translate(129.62 359.81) rotate(-81.16)"></ellipse><path class="j" d="M260.18,101.95c-1.14,7.34-9.61,11.19-18.93,9.74s-16.89-7.66-15.75-15c1.14-7.34,10.54-11.18,19.86-9.73,9.32,1.45,15.96,7.65,14.82,14.99Z"></path><path class="d" d="M256.96,76.6s27.34-.06,52.34,11.67"></path></g></g><ellipse class="j" cx="284.37" cy="43.49" rx="20.02" ry="43.44" transform="translate(149.58 297.63) rotate(-70.76)"></ellipse><ellipse class="j" cx="326.46" cy="44.78" rx="17.99" ry="34.82" transform="translate(39.98 207.59) rotate(-37.42)"></ellipse><ellipse class="j" cx="354.68" cy="85.12" rx="43.41" ry="17.99" transform="translate(237.04 430.38) rotate(-84.68)"></ellipse><path class="j" d="M338.04,74.26s-41.07,.53-75.37-18.74l41.6-7.9,38.99,14.02-5.22,12.62Z"></path><path class="e" d="M336.55,120.09c4.57-8.92,14.67-12.89,22.55-8.85,7.88,4.04,10.57,14.54,6,23.47-4.57,8.92-14.67,12.89-22.55,8.85"></path></g><g><path class="i" d="M357.54,208.31l3.92-116.5c-.15-30.82,22.9-56.83,53.52-60.37h0c36.67-4.24,68.55,25.06,67.4,61.96l-2.22,178.09"></path><path class="i" d="M470.22,148.83c3.71-7.23,11.53-10.61,17.48-7.56,5.94,3.05,7.76,11.38,4.05,18.61-3.71,7.23-11.53,10.61-17.48,7.56"></path><g><ellipse class="g" cx="397.35" cy="91.5" rx="50.54" ry="17.36" transform="translate(-.45 1.98) rotate(-.28)"></ellipse><path class="j" d="M382.5,91.57c.04,7.43-7.57,12.56-17,12.61s-18.05-5.02-18.09-12.45c-.04-7.43,8.5-12.55,17.93-12.6,9.43-.05,17.12,5.01,17.16,12.44Z"></path><line class="d" x1="404.8" y1="63.06" x2="404.86" y2="73.52"></line><line class="d" x1="427.28" y1="66.74" x2="424.33" y2="76.84"></line><line class="d" x1="383.4" y1="65.3" x2="386.48" y2="75.37"></line></g><g><rect class="j" x="476.47" y="121.5" width="6.52" height="6.52" transform="translate(975.36 116.39) rotate(164.45)"></rect><rect class="j" x="461.46" y="132.45" width="6.52" height="6.52" transform="translate(948.81 141.9) rotate(164.45)"></rect><rect class="j" x="457.38" y="117.77" width="6.52" height="6.52" transform="translate(936.87 114.19) rotate(164.45)"></rect><rect class="j" x="443.9" y="133.23" width="6.52" height="6.52" transform="translate(914.54 148.15) rotate(164.45)"></rect></g></g><g><g><path class="i" d="M176.78,258.32l-.17,6.23-.02,.54-.7,24.91h0v.38l-.42,14.77-.72,25.29-.08,2.81-.63,22.48H51.47l3.11-70.6v-.1l1.08-24.32v-.1l.23-5.15c.03-5.98,.94-11.77,2.61-17.25,6.89-22.73,26.83-39.97,51.53-42.56h.01c3.27-.34,6.5-.42,9.67-.25,14.87,.79,28.4,7.03,38.56,16.81,1.85,1.77,3.59,3.67,5.2,5.68,4.5,5.58,8.03,11.97,10.32,18.93,1.31,3.98,2.23,8.14,2.69,12.45v.03c.32,2.94,.42,5.96,.29,9.02Z"></path><path class="i" d="M164.05,313.61c3.78-7.19,11.65-10.49,17.56-7.37,5.91,3.11,7.64,11.46,3.85,18.65-3.78,7.19-11.65,10.49-17.56,7.37"></path><g><ellipse class="g" cx="91.04" cy="273.19" rx="17.36" ry="50.54" transform="translate(-182.65 362.72) rotate(-89.68)"></ellipse><path class="j" d="M76.18,273.11c-.04,7.43-7.74,12.48-17.17,12.43-9.43-.05-17.95-5.17-17.91-12.6s8.67-12.5,18.1-12.45c9.43,.05,17.02,5.19,16.98,12.62Z"></path><line class="d" x1="98.81" y1="244.83" x2="98.74" y2="255.29"></line><line class="d" x1="121.25" y1="248.74" x2="118.17" y2="258.82"></line><line class="d" x1="77.38" y1="246.84" x2="80.33" y2="256.95"></line></g></g><rect class="j" x="150.09" y="255.7" width="5.66" height="5.66" transform="translate(367.34 468.87) rotate(165.05)"></rect><rect class="j" x="159.23" y="247.89" width="5.66" height="5.66" transform="translate(383.3 451.17) rotate(165.05)"></rect><rect class="j" x="145.26" y="243.15" width="5.66" height="5.66" transform="translate(354.61 445.44) rotate(165.05)"></rect><path class="i" d="M63.75,295.14s20.57,5.38,45.71,1.92"></path><path class="d" d="M184.71,323.08c.77,.56,1.52,1.2,2.24,1.93,4.3,4.35,5.7,9.93,3.13,12.48-2.58,2.55-8.15,1.09-12.45-3.25-4.3-4.35-5.7-9.93-3.13-12.48"></path><path class="j" d="M44.45,233.36l-23.37-12.98s26.28,3.66,33.2-22.11c5.42-20.2,27.84-31.91,54.2-16.39,20.09,11.83,30.51,1.29,48.48,8.66,20.19,8.29,27.27,26.37,18.48,46.4l-32.79-2.27s9.9-20.06-13.68-22.16c-14.63-1.3-26.04,14.89-49.99,23.74-11.33,4.19-23.96,2.98-34.52-2.89Z"></path></g><g><g><path class="j" d="M793.74,181.08l8.18-67.45c-6.8-.82-8.69-1.86-13.72-4.62-7.76-4.26-18.39-10.08-38.19-12.49-19.81-2.4-31.52,.72-40.08,2.99-5.55,1.48-7.63,2.03-14.43,1.2-6.8-.82-8.68-1.86-13.71-4.62-7.76-4.26-18.4-10.09-38.2-12.49s-31.52,.71-40.07,2.99c-5.54,1.48-7.62,2.03-14.42,1.2l-8.19,67.45c19.79,2.4,31.52-.71,40.07-2.99,5.54-1.47,7.61-2.03,14.42-1.2,6.8,.82,8.68,1.86,13.71,4.62,7.76,4.26,18.4,10.09,38.2,12.49,19.8,2.41,31.51-.71,40.07-2.99,5.55-1.48,7.63-2.02,14.43-1.2,6.8,.82,8.68,1.86,13.72,4.62,7.76,4.26,18.4,10.09,38.2,12.49Z"></path><path class="j" d="M798.01,146.52l8.19-67.45c-6.8-.82-8.69-1.86-13.72-4.62-7.76-4.26-18.4-10.09-38.2-12.49-19.8-2.4-31.52,.71-40.08,2.99-5.54,1.48-7.62,2.03-14.43,1.2-6.8-.83-8.68-1.86-13.71-4.62-7.76-4.26-18.39-10.09-38.19-12.49-19.8-2.4-31.52,.72-40.07,2.99-5.54,1.48-7.61,2.03-14.42,1.2l-8.19,67.45c19.79,2.4,31.52-.71,40.07-2.99,5.54-1.47,7.61-2.02,14.42-1.2,6.8,.82,8.68,1.86,13.71,4.62,7.76,4.26,18.39,10.09,38.19,12.49,19.81,2.4,31.52-.72,40.08-2.99,5.55-1.48,7.62-2.02,14.43-1.2,6.8,.82,8.68,1.86,13.72,4.62,7.76,4.26,18.4,10.09,38.2,12.49Z"></path></g><g><path class="f" d="M478.08,214.68l4.33-117.31c-.05-31.04,23.25-57.15,54.09-60.62h0c36.94-4.15,68.95,25.47,67.67,62.62l-3.45,149.13"></path><g><ellipse class="g" cx="517.96" cy="101.67" rx="17.48" ry="50.9" transform="translate(351.53 602.59) rotate(-82.73)"></ellipse><path class="j" d="M503.12,99.78c-.95,7.42-9.33,11.54-18.75,10.33-9.42-1.2-17.24-7.29-16.3-14.71,.95-7.42,10.26-11.51,19.68-10.31,9.42,1.2,16.31,7.26,15.37,14.69Z"></path><line class="d" x1="529.43" y1="74.28" x2="527.84" y2="84.72"></line><line class="d" x1="551.39" y1="80.93" x2="546.83" y2="90.62"></line><line class="d" x1="507.77" y1="73.67" x2="509.24" y2="84.13"></line></g></g><g><circle class="j" cx="561.99" cy="35.4" r="25.28"></circle><circle class="j" cx="595.66" cy="59.09" r="25.28"></circle><circle class="j" cx="526.39" cy="26.57" r="26.56"></circle><polygon class="j" points="588.16 72.48 590.26 116.23 607.06 116.31 605.43 82.39 588.16 72.48"></polygon></g><path class="f" d="M586.36,115.9c1.29-6.77,7.93-11.15,14.71-9.6,6.12,1.4,10.25,7.47,9.31,13.68-1.04,6.87-7.56,11.45-14.32,10.16"></path><path class="f" d="M565.6,124.15s-27.76-20.05-59.1,.35"></path></g><g><circle class="j" cx="301.83" cy="302.58" r="18.1"></circle><circle class="j" cx="317.33" cy="285.08" r="18.1"></circle><circle class="j" cx="323.26" cy="262.62" r="18.1"></circle><circle class="j" cx="175.7" cy="231.22" r="18.1"></circle><g><path class="f" d="M295.6,263.91v.13c0,.79-.02,1.61-.05,2.4l-.13,5.24-.14,5.22h0l-.22,8.89-.15,5.55-.33,13.18-.16,6.01h0l-.21,8.47-.48,18.62-.02,.7h0l-.44,17.41h-122.42l.93-22.35,1.15-27.64,.67-16.03v-.09h.01l1.01-24.34h0v-.09l.06-1.31c.01-5.02,.64-9.9,1.82-14.58,0-.01,0-.02,.01-.03,1.46-5.83,3.78-11.35,6.82-16.38,2.09-3.47,4.52-6.71,7.24-9.68,.28-.32,.57-.63,.88-.94,3.02-3.17,6.4-6.03,10.08-8.49,.04-.03,.08-.06,.13-.09,1.83-1.22,3.74-2.34,5.71-3.35,.32-.17,.65-.34,.97-.51h.01c.48-.24,.97-.46,1.45-.7,.94-.42,1.87-.84,2.83-1.21h.01c3.16-1.27,6.45-2.28,9.86-3h.01c1.85-.4,3.72-.71,5.63-.93h.01c.17-.02,.35-.04,.53-.06,1.46-.15,2.92-.26,4.36-.31h.13c.7-.03,1.38-.04,2.07-.04,.57,0,1.12,.01,1.69,.03,1.72,.04,3.42,.16,5.1,.35h0c1.26,.14,2.52,.32,3.76,.55,1.61,.28,3.17,.64,4.73,1.04h.01c3.17,.84,6.23,1.92,9.18,3.23,.61,.27,1.21,.56,1.81,.84,3.7,1.8,7.18,3.96,10.42,6.45,.01,0,.01,.01,.01,.01,.86,.66,1.69,1.33,2.51,2.03,1.05,.9,2.07,1.83,3.05,2.8,.51,.48,.99,.99,1.46,1.5,.59,.61,1.15,1.22,1.71,1.86,1.43,1.64,2.79,3.36,4.05,5.16,.56,.8,1.1,1.61,1.61,2.42,1.51,2.36,2.84,4.85,4,7.43,.07,.15,.14,.3,.2,.46,.21,.46,.4,.93,.61,1.4,.34,.85,.68,1.72,.99,2.6,1.32,3.71,2.29,7.58,2.87,11.59,.35,2.43,.57,4.93,.61,7.46,.02,.37,.02,.75,.02,1.12Z"></path><g><ellipse class="g" cx="210" cy="277.67" rx="17.36" ry="50.54" transform="translate(-68.33 486.8) rotate(-89.82)"></ellipse><path class="j" d="M195.14,277.63c-.02,7.43-7.69,12.5-17.12,12.47-9.43-.03-17.99-5.15-17.97-12.58s8.62-12.5,18.05-12.47c9.43,.03,17.06,5.15,17.04,12.58Z"></path><line class="d" x1="216.3" y1="250.98" x2="215.61" y2="259.68"></line><line class="d" x1="239.98" y1="255.29" x2="237.09" y2="263.24"></line><line class="d" x1="194.5" y1="252.69" x2="196.97" y2="261.37"></line></g></g><circle class="j" cx="218.79" cy="219.51" r="18.1"></circle><circle class="j" cx="194.32" cy="218.54" r="18.1"></circle><circle class="j" cx="240.08" cy="220.35" r="18.1"></circle><circle class="j" cx="268.32" cy="233.81" r="18.1"></circle><circle class="j" cx="289.36" cy="246.92" r="18.1"></circle><circle class="j" cx="185.21" cy="205.91" r="18.1"></circle><circle class="j" cx="210.01" cy="191.82" r="18.1"></circle><circle class="j" cx="248.62" cy="194.47" r="18.1"></circle><circle class="j" cx="278.8" cy="204.31" r="18.1"></circle><circle class="j" cx="298.57" cy="226.82" r="18.1"></circle><circle class="j" cx="300.43" cy="254.28" r="18.1"></circle><circle class="j" cx="260.24" cy="215.38" r="18.1"></circle><circle class="j" cx="223.93" cy="203.09" r="18.1"></circle><circle class="j" cx="296.73" cy="273.33" r="18.1"></circle><circle class="j" cx="315.2" cy="264.31" r="18.1"></circle><circle class="j" cx="316.17" cy="239.99" r="18.1"></circle><circle class="j" cx="305.31" cy="214.83" r="18.1"></circle><circle class="j" cx="287.93" cy="196.02" r="18.1"></circle><circle class="j" cx="263.97" cy="185.61" r="18.1"></circle><circle class="j" cx="238.69" cy="182.58" r="18.1"></circle><path class="f" d="M280.01,289.65c5.11-9.75,14.18-15.07,20.27-11.88,6.09,3.19,6.88,13.68,1.78,23.43-5.11,9.75-14.18,15.07-20.27,11.88"></path><path class="f" d="M279.55,317.23c5.11-9.75,14.18-15.07,20.27-11.88,6.09,3.19,6.88,13.68,1.78,23.43-5.11,9.75-14.18,15.07-20.27,11.88"></path></g><g><g><path class="h" d="M417.72,253.01l-.66,33.05-.39,19.89-.98,49.79h-29.42c-5.07,1.55-9.23,.04-9.23,.04v-.04h-83.97l.63-17.4h0l.02-.71,.67-18.54,.31-8.76,.2-5.84,.47-13.1,.2-5.78h0l.24-6.78v-.03l.07-1.94,.18-5.01,.27-7.68,.02-.56,.02-.54,.28-7.84,.14-4.08c-.01-2.12,.1-4.22,.31-6.29,.22-2.2,.57-4.36,1.02-6.5v-.04s.01-.04,.01-.07v-.02s.01-.03,.01-.04c.05-.2,.09-.39,.14-.6,.03-.16,.07-.31,.1-.47,.02-.05,.03-.11,.04-.16,.06-.23,.11-.45,.17-.69,.33-1.31,.7-2.61,1.12-3.89,.02-.08,.05-.17,.08-.25,0-.02,.01-.03,.02-.05,2-6.1,4.95-11.79,8.7-16.88,.55-.75,1.11-1.49,1.7-2.21,2.77-3.42,5.9-6.55,9.35-9.28,8.62-6.89,19.19-11.49,30.87-12.81,2.61-.74,5.18-1.24,7.72-1.53,.51-.07,1-.12,1.5-.15,1.14-.1,2.28-.16,3.4-.16,.17-.01,.33-.01,.51-.01,.24,0,.5,0,.74,.01,26.17,.41,47.23,23.1,52.27,49.68,.9,4.67,1.29,9.46,1.13,14.26Z"></path><path class="h" d="M298.24,237.12s35.08-28.4,79.16,5.57"></path><g><ellipse class="g" cx="332.7" cy="250.91" rx="50.54" ry="17.36" transform="translate(-.71 .94) rotate(-.16)"></ellipse><ellipse class="j" cx="299.84" cy="250.99" rx="17.08" ry="13.45" transform="translate(-.71 .85) rotate(-.16)"></ellipse></g></g><path class="j" d="M442.66,270.66c0,.11-.01,.21-.02,.29-.03,.86-.07,.21-.12,.03-.02-.06-.04-.08-.06,.01-.02,.08-.04,.28-.07,.67-.06,.85-.13,1.86-.21,3.04-.91,13.88-2.9,49.79-1.44,81.02h-53.58c.14-.15,.28-.3,.4-.45,6.76-7.5,11.73-16.11,15.38-24.66,.76-1.75,1.44-3.49,2.09-5.21,0-.01,.01-.02,.01-.03h0c2.52-6.81,4.25-13.4,5.46-19.18,2.26-10.98,2.59-19.03,2.62-19.98v-.09c-12.68-2.99-13.84-13.03-13.84-21.24,0-1.95,.07-3.79,.06-5.41-.06-10.57-2.2-23.55-8.69-34.1h0c-6.05-9.83-15.85-17.54-31.24-19.23-.58-.07-1.17-.13-1.77-.17-.86-.07-1.74-.12-2.63-.15l-3.15-.11,6.09-9.03,1.65-2.44h0l2.04-3.02h0l1.45-2.15,.03-.05,3.77-1.98,.15-.08c3.37-.41,6.64-.61,9.79-.61,24,0,41.76,11.51,52.77,29.2,3.4,5.49,6.17,11.57,8.26,18.08,.16,.51,.32,1.01,.47,1.53,.97,3.21,1.78,6.52,2.43,9.91,.12,.66,.24,1.31,.36,1.97,.26,1.56,.5,3.12,.7,4.71h0c.79,6.14,1.06,12.47,.84,18.93Z"></path><path class="j" d="M404.06,328.17l-2.79,8.19c-3.32,11.94-8.82,16.96-13.73,18.91-.43,.18-.86,.33-1.27,.45-5.07,1.55-9.23,.04-9.23,.04v-.04l-3.13-12.12c17.63,2.88,25.68-6.64,29.01-12.99,.47-.89,.85-1.72,1.14-2.44Z"></path><path class="j" d="M405.01,325.4c-.05,.21-.32,1.26-.95,2.77l.95-2.77Z"></path><path class="h" d="M407.06,305.92c16.14,1.83,26.28-5.51,25.91-11.03-.37-5.52-8.8-9.45-18.84-8.78-7.52,.51-13.81,3.46-16.33,7.23"></path><path class="j" d="M300.86,234.81l-5.3,46.21,.53-43.84c1.1-32.71,29.63-56.76,70.93-50.28h0l-23.99,19.1h0c-12.45-.42-24.36,4.34-33.04,12.89-3.67,3.62-6.35,8.12-8.08,12.97l-1.05,2.94Z"></path><path class="h" d="M342.85,273.95s7.8-25.56,43.34-12.73"></path><rect class="j" x="353.47" y="268.62" width="4.88" height="4.88" transform="translate(749.72 483.31) rotate(171.03)"></rect><rect class="j" x="364.48" y="257.65" width="4.88" height="4.88" transform="translate(769.9 459.8) rotate(171.03)"></rect><rect class="j" x="368.67" y="267.89" width="4.88" height="4.88" transform="translate(779.81 479.49) rotate(171.03)"></rect></g><g><g><path class="i" d="M555.59,258.32l-.1,3.68-.47,16.8-.05,1.79-.69,24.57-.72,25.3-.08,2.8-.63,22.48h-122.57l2.63-59.74v-.03l.05-1.14v-.02l1.02-22.96,.02-.62,.7-15.76c.01-2.41,.17-4.81,.45-7.15h0c.09-.68,.18-1.32,.29-1.98,.01-.12,.03-.25,.06-.37,.6-3.73,1.56-7.34,2.82-10.81,.32-.89,.66-1.76,1.02-2.63,7.02-16.81,21.42-29.86,39.37-34.92,.78-.22,1.58-.42,2.37-.61,2.53-.61,5.11-1.06,7.76-1.33,2.16-.23,4.31-.34,6.44-.34,6.62,0,13.01,1.08,18.99,3.08,1,.33,1.99,.69,2.97,1.07,13.99,5.51,25.5,16.09,32.17,29.54,.97,1.96,1.84,3.99,2.6,6.06,1.9,5.21,3.11,10.77,3.49,16.55,.08,.96,.12,1.93,.13,2.9,.04,1.25,.02,2.53-.03,3.81Z"></path><path class="i" d="M542.86,313.61c3.78-7.19,11.65-10.49,17.56-7.37,5.91,3.11,7.64,11.46,3.85,18.65-3.78,7.19-11.65,10.49-17.56,7.37"></path><g><ellipse class="g" cx="468.23" cy="262.05" rx="17.36" ry="50.54" transform="translate(161.47 702.28) rotate(-84.36)"></ellipse><path class="j" d="M453.45,260.59c-.73,7.39-8.86,11.71-18.25,10.78s-17.4-6.81-16.67-14.2,9.79-11.64,19.18-10.72,16.47,6.74,15.74,14.14Z"></path><line class="d" x1="478.78" y1="235.55" x2="477.56" y2="244.94"></line><line class="d" x1="500.77" y1="241.53" x2="496.58" y2="250.25"></line><line class="d" x1="457.26" y1="235.57" x2="459.08" y2="244.88"></line></g></g><rect class="j" x="548.35" y="249.81" width="6.5" height="6.5" transform="translate(1149.81 355.3) rotate(165.05)"></rect><rect class="j" x="538.04" y="263.42" width="6.5" height="6.5" transform="translate(1133.04 384.72) rotate(165.05)"></rect><path class="d" d="M563.52,323.08c.77,.56,1.52,1.2,2.24,1.93,4.3,4.35,5.7,9.93,3.13,12.48-2.58,2.55-8.15,1.09-12.45-3.25-4.3-4.35-5.7-9.93-3.13-12.48"></path><path class="j" d="M519.38,197.51c-30.09-33.48-65.99-5.48-76.71,2.93-28.49,22.35-5.79,33.91-5.79,33.91,29.32-22.65,61.59-17.74,61.59-17.74l20.91-19.09Z"></path><path class="j" d="M504.36,218.89s6.97,22.38,26.09,27.06c24.11,5.91,21.15,28,21.15,28l17.69-54.37s-43.25-44.2-54.83-21.57l-10.09,20.88Z"></path></g><path class="i" d="M528.18,302.03c1.6-6.7,8.44-10.77,15.14-8.9,6.05,1.69,9.89,7.94,8.67,14.1-1.35,6.82-8.08,11.09-14.78,9.49"></path><g><g><path class="e" d="M667.15,250.55l-.52,22.64-.18,7.89-.37,16.15-.19,8.32-.55,24.05h0l-.59,25.47-8.18,.65h-114.5l1.51-38.64v-.02l.02-.57,.17-4.41,.72-18.57,.6-15.34v-.21l.9-22.96h0v-.25l.03-.44,.23-5.98c0-4.94,.6-9.76,1.73-14.38,.4-1.68,.89-3.32,1.43-4.95,.76-2.23,1.64-4.41,2.64-6.54,2.03-4.26,4.54-8.26,7.48-11.92,1.84-2.3,3.84-4.46,6-6.47,0-.01,.01-.01,.01-.01,.78-.73,1.57-1.42,2.37-2.1,.68-.58,1.37-1.13,2.08-1.67,3.46-2.65,7.21-4.93,11.21-6.8,.01-.01,.02-.01,.03,0,5.83-2.71,12.15-4.53,18.85-5.26,.69-.08,1.36-.14,2.04-.18,1.59-.13,3.15-.19,4.71-.19,33.73,0,61.58,28.07,60.32,62.69Z"></path><g><g><ellipse class="g" cx="583.17" cy="265.06" rx="50.54" ry="17.36" transform="translate(-11.21 26.19) rotate(-2.55)"></ellipse><line class="d" x1="576.78" y1="238.88" x2="577.66" y2="247.71"></line><line class="d" x1="581.3" y1="281.89" x2="582.18" y2="291.72"></line><line class="d" x1="598.82" y1="240.67" x2="596.49" y2="247.74"></line><line class="d" x1="563.12" y1="281.53" x2="560.79" y2="289.61"></line><line class="d" x1="556.95" y1="243.38" x2="560.6" y2="250.55"></line><line class="d" x1="601.92" y1="280.64" x2="604.57" y2="288.83"></line></g><path class="j" d="M568.04,267.45c-.42,7.42-8.39,12.07-17.81,11.54-9.42-.53-17.64-6.05-17.22-13.46,.42-7.42,9.32-12.07,18.74-11.54,9.42,.53,16.71,6.05,16.29,13.46Z"></path></g></g><circle class="j" cx="556.71" cy="207.89" r="15.3"></circle><circle class="j" cx="580.1" cy="208.75" r="15.3"></circle><circle class="j" cx="603.49" cy="209.61" r="15.3"></circle><circle class="j" cx="626.88" cy="210.47" r="15.3"></circle><path class="j" d="M740.21,283.8c-.73-16.55-13.99-17.11-19.42-35.2-2.88-9.58,5.42-25.81-.77-35.86-5.57-9.04-22.79-8.48-31.99-15.45-8.2-6.21-13.3-19.94-25.06-22.75-11.89-2.85-24.4,6.84-36.92,7.91-12.42,1.06-27.29-9.89-38.96-6.55-12.79,3.66-20.07,21.23-30.26,25.66l82.67,3.04,1.69,6.78c-10.33,18.67,7.5,21.65,9.84,40.9,1.35,11.13-14.64,27.7-14.64,27.7l103.83,3.82Z"></path><path class="e" d="M661.6,295.44c8.28,4.3,17.34,3.27,20.23-2.3,2.9-5.57-1.46-13.58-9.74-17.89-4.55-2.37-9.34-3.12-13.21-2.39-4.11,.77-7.01,4.48-7.17,8.66l-.08,2.17"></path><path class="e" d="M660.41,327.7c8.28,4.3,17.34,3.27,20.23-2.3,2.9-5.57-1.46-13.58-9.74-17.89-4.55-2.37-9.34-3.12-13.21-2.39-4.11,.77-7.01,4.48-7.17,8.66l-.08,2.17"></path></g><path class="k" d="M386.27,355.73c-5.07,1.55-9.23,.04-9.23,.04v-.04h9.23Z"></path><polyline class="d" points="684.38 355.73 656.58 355.73 552.85 355.73 542.07 355.73 440.73 355.73 430.28 355.73 417.96 355.73 417.88 355.73 415.69 355.73 387.14 355.73 386.27 355.73 377.03 355.73 293.25 355.73 293.07 355.73 174.04 355.73 170.83 355.73 51.47 355.73 37.21 355.73"></polyline><line class="d" x1="83.14" y1="364.68" y2="364.68"></line><line class="d" x1="153.11" y1="364.68" x2="119.8" y2="364.68"></line><line class="d" x1="628.44" y1="364.68" x2="554.14" y2="364.68"></line></g></g></g></svg>